<?xml version="1.0" encoding="UTF-8"?>
<svg xmlns="http://www.w3.org/2000/svg" xmlns:xlink="http://www.w3.org/1999/xlink" width="750pt" height="749.999995pt" viewBox="0 0 750 749.999995" version="1.2">
<defs>
<clipPath id="clip1">
  <path d="M 186.546875 174.546875 L 587.796875 174.546875 L 587.796875 575.796875 L 186.546875 575.796875 Z M 186.546875 174.546875 "/>
</clipPath>
</defs>
<g id="surface1">
<path style=" stroke:none;fill-rule:nonzero;fill:rgb(0%,0%,0%);fill-opacity:1;" d="M 375 42.253906 C 369.554688 42.253906 364.113281 42.386719 358.671875 42.652344 C 353.234375 42.921875 347.804688 43.320312 342.386719 43.855469 C 336.964844 44.386719 331.5625 45.054688 326.175781 45.855469 C 320.789062 46.652344 315.425781 47.582031 310.085938 48.644531 C 304.742188 49.707031 299.429688 50.902344 294.148438 52.222656 C 288.867188 53.546875 283.621094 55 278.410156 56.582031 C 273.195312 58.160156 268.027344 59.867188 262.902344 61.703125 C 257.773438 63.539062 252.695312 65.496094 247.664062 67.582031 C 242.632812 69.664062 237.65625 71.871094 232.730469 74.199219 C 227.808594 76.527344 222.945312 78.976562 218.144531 81.542969 C 213.339844 84.109375 208.605469 86.792969 203.933594 89.59375 C 199.261719 92.390625 194.664062 95.304688 190.136719 98.332031 C 185.605469 101.355469 181.15625 104.492188 176.78125 107.734375 C 172.410156 110.976562 168.117188 114.328125 163.90625 117.78125 C 159.699219 121.238281 155.574219 124.792969 151.539062 128.449219 C 147.503906 132.105469 143.5625 135.859375 139.710938 139.710938 C 135.859375 143.5625 132.105469 147.503906 128.449219 151.539062 C 124.792969 155.574219 121.238281 159.699219 117.78125 163.90625 C 114.328125 168.117188 110.976562 172.410156 107.734375 176.78125 C 104.492188 181.15625 101.355469 185.605469 98.332031 190.136719 C 95.304688 194.664062 92.390625 199.261719 89.59375 203.933594 C 86.792969 208.605469 84.109375 213.339844 81.542969 218.144531 C 78.976562 222.945312 76.527344 227.808594 74.199219 232.730469 C 71.871094 237.65625 69.664062 242.632812 67.582031 247.664062 C 65.496094 252.695312 63.539062 257.773438 61.703125 262.902344 C 59.867188 268.027344 58.160156 273.195312 56.582031 278.410156 C 55 283.621094 53.546875 288.867188 52.222656 294.148438 C 50.902344 299.429688 49.707031 304.742188 48.644531 310.085938 C 47.582031 315.425781 46.652344 320.789062 45.855469 326.175781 C 45.054688 331.5625 44.386719 336.964844 43.855469 342.386719 C 43.320312 347.804688 42.921875 353.234375 42.652344 358.671875 C 42.386719 364.113281 42.253906 369.554688 42.253906 375 C 42.253906 380.445312 42.386719 385.886719 42.652344 391.328125 C 42.921875 396.765625 43.320312 402.195312 43.855469 407.613281 C 44.386719 413.035156 45.054688 418.4375 45.855469 423.824219 C 46.652344 429.210938 47.582031 434.574219 48.644531 439.914062 C 49.707031 445.257812 50.902344 450.570312 52.222656 455.851562 C 53.546875 461.132812 55 466.378906 56.582031 471.589844 C 58.160156 476.800781 59.867188 481.972656 61.703125 487.097656 C 63.539062 492.226562 65.496094 497.304688 67.582031 502.335938 C 69.664062 507.367188 71.871094 512.34375 74.199219 517.269531 C 76.527344 522.191406 78.976562 527.054688 81.542969 531.855469 C 84.109375 536.660156 86.792969 541.394531 89.59375 546.066406 C 92.390625 550.738281 95.304688 555.335938 98.332031 559.863281 C 101.355469 564.394531 104.492188 568.84375 107.734375 573.21875 C 110.976562 577.589844 114.328125 581.882812 117.78125 586.09375 C 121.238281 590.300781 124.792969 594.425781 128.449219 598.460938 C 132.105469 602.496094 135.859375 606.4375 139.710938 610.289062 C 143.5625 614.140625 147.503906 617.894531 151.539062 621.550781 C 155.574219 625.207031 159.699219 628.761719 163.90625 632.21875 C 168.117188 635.671875 172.410156 639.019531 176.78125 642.265625 C 181.15625 645.507812 185.605469 648.644531 190.136719 651.667969 C 194.664062 654.695312 199.261719 657.609375 203.933594 660.40625 C 208.605469 663.207031 213.339844 665.890625 218.144531 668.457031 C 222.945312 671.023438 227.808594 673.472656 232.730469 675.800781 C 237.65625 678.128906 242.632812 680.335938 247.664062 682.417969 C 252.695312 684.503906 257.773438 686.460938 262.902344 688.296875 C 268.027344 690.132812 273.195312 691.839844 278.410156 693.417969 C 283.621094 695 288.867188 696.453125 294.148438 697.777344 C 299.429688 699.097656 304.742188 700.292969 310.085938 701.355469 C 315.425781 702.417969 320.789062 703.347656 326.175781 704.144531 C 331.5625 704.945312 336.964844 705.613281 342.386719 706.144531 C 347.804688 706.679688 353.234375 707.078125 358.671875 707.347656 C 364.113281 707.613281 369.554688 707.746094 375 707.746094 C 380.445312 707.746094 385.886719 707.613281 391.328125 707.347656 C 396.765625 707.078125 402.195312 706.679688 407.613281 706.144531 C 413.035156 705.613281 418.4375 704.945312 423.824219 704.144531 C 429.210938 703.347656 434.574219 702.417969 439.914062 701.355469 C 445.257812 700.292969 450.570312 699.097656 455.851562 697.777344 C 461.132812 696.453125 466.378906 695 471.589844 693.417969 C 476.800781 691.839844 481.972656 690.132812 487.097656 688.296875 C 492.226562 686.460938 497.304688 684.503906 502.335938 682.417969 C 507.367188 680.335938 512.34375 678.128906 517.269531 675.800781 C 522.191406 673.472656 527.054688 671.023438 531.855469 668.457031 C 536.660156 665.890625 541.394531 663.207031 546.066406 660.40625 C 550.738281 657.609375 555.335938 654.695312 559.863281 651.667969 C 564.394531 648.644531 568.84375 645.507812 573.21875 642.265625 C 577.589844 639.019531 581.882812 635.671875 586.09375 632.21875 C 590.300781 628.761719 594.425781 625.207031 598.460938 621.550781 C 602.496094 617.894531 606.4375 614.140625 610.289062 610.289062 C 614.140625 606.4375 617.894531 602.496094 621.550781 598.460938 C 625.207031 594.425781 628.761719 590.300781 632.21875 586.09375 C 635.671875 581.882812 639.019531 577.589844 642.265625 573.21875 C 645.507812 568.84375 648.644531 564.394531 651.667969 559.863281 C 654.695312 555.335938 657.609375 550.738281 660.40625 546.066406 C 663.207031 541.394531 665.890625 536.660156 668.457031 531.855469 C 671.023438 527.054688 673.472656 522.191406 675.800781 517.269531 C 678.128906 512.34375 680.335938 507.367188 682.417969 502.335938 C 684.503906 497.304688 686.460938 492.226562 688.296875 487.097656 C 690.132812 481.972656 691.839844 476.800781 693.417969 471.589844 C 695 466.378906 696.453125 461.132812 697.777344 455.851562 C 699.097656 450.570312 700.292969 445.257812 701.355469 439.914062 C 702.417969 434.574219 703.347656 429.210938 704.144531 423.824219 C 704.945312 418.4375 705.613281 413.035156 706.144531 407.613281 C 706.679688 402.195312 707.078125 396.765625 707.347656 391.328125 C 707.613281 385.886719 707.746094 380.445312 707.746094 375 C 707.746094 369.554688 707.613281 364.113281 707.347656 358.671875 C 707.078125 353.234375 706.679688 347.804688 706.144531 342.386719 C 705.613281 336.964844 704.945312 331.5625 704.144531 326.175781 C 703.347656 320.789062 702.417969 315.425781 701.355469 310.085938 C 700.292969 304.742188 699.097656 299.429688 697.777344 294.148438 C 696.453125 288.867188 695 283.621094 693.417969 278.410156 C 691.839844 273.195312 690.132812 268.027344 688.296875 262.902344 C 686.460938 257.773438 684.503906 252.695312 682.417969 247.664062 C 680.335938 242.632812 678.128906 237.65625 675.800781 232.730469 C 673.472656 227.808594 671.023438 222.945312 668.457031 218.144531 C 665.890625 213.339844 663.207031 208.605469 660.40625 203.933594 C 657.609375 199.261719 654.695312 194.664062 651.667969 190.136719 C 648.644531 185.605469 645.507812 181.15625 642.265625 176.78125 C 639.019531 172.410156 635.671875 168.117188 632.21875 163.90625 C 628.761719 159.699219 625.207031 155.574219 621.550781 151.539062 C 617.894531 147.503906 614.140625 143.5625 610.289062 139.710938 C 606.4375 135.859375 602.496094 132.105469 598.460938 128.449219 C 594.425781 124.792969 590.300781 121.238281 586.09375 117.78125 C 581.882812 114.328125 577.589844 110.976562 573.21875 107.734375 C 568.84375 104.492188 564.394531 101.355469 559.863281 98.332031 C 555.335938 95.304688 550.738281 92.390625 546.066406 89.59375 C 541.394531 86.792969 536.660156 84.109375 531.855469 81.542969 C 527.054688 78.976562 522.191406 76.527344 517.269531 74.199219 C 512.34375 71.871094 507.367188 69.664062 502.335938 67.582031 C 497.304688 65.496094 492.226562 63.539062 487.097656 61.703125 C 481.972656 59.867188 476.800781 58.160156 471.589844 56.582031 C 466.378906 55 461.132812 53.546875 455.851562 52.222656 C 450.570312 50.902344 445.257812 49.707031 439.914062 48.644531 C 434.574219 47.582031 429.210938 46.652344 423.824219 45.855469 C 418.4375 45.054688 413.035156 44.386719 407.613281 43.855469 C 402.195312 43.320312 396.765625 42.921875 391.328125 42.652344 C 385.886719 42.386719 380.445312 42.253906 375 42.253906 Z M 375 42.253906 "/>
<g clip-path="url(#clip1)" clip-rule="nonzero">
<path style=" stroke:none;fill-rule:nonzero;fill:rgb(100%,100%,100%);fill-opacity:1;" d="M 263.210938 407.269531 C 256.1875 403.878906 248.351562 401.921875 240.046875 401.921875 C 210.546875 401.921875 186.546875 425.921875 186.546875 455.421875 C 186.546875 484.917969 210.546875 508.921875 240.046875 508.921875 C 258.554688 508.921875 274.894531 499.464844 284.503906 485.132812 L 335.042969 510.429688 C 334.171875 514.25 333.671875 518.214844 333.671875 522.296875 C 333.671875 551.792969 357.671875 575.796875 387.171875 575.796875 C 416.667969 575.796875 440.671875 551.792969 440.671875 522.296875 C 440.671875 511.207031 437.28125 500.902344 431.476562 492.347656 L 502.488281 418.097656 C 511.398438 424.703125 522.378906 428.671875 534.296875 428.671875 C 563.792969 428.671875 587.796875 404.667969 587.796875 375.171875 C 587.796875 345.671875 563.792969 321.671875 534.296875 321.671875 C 521.949219 321.671875 510.609375 325.910156 501.539062 332.957031 L 429.382812 260.800781 C 436.429688 251.730469 440.671875 240.390625 440.671875 228.046875 C 440.671875 198.546875 416.667969 174.546875 387.171875 174.546875 C 357.671875 174.546875 333.671875 198.546875 333.671875 228.046875 C 333.671875 232.109375 334.164062 236.0625 335.035156 239.875 L 287.605469 257.15625 C 278.710938 239.894531 260.757812 228.046875 240.046875 228.046875 C 210.546875 228.046875 186.546875 252.046875 186.546875 281.546875 C 186.546875 311.042969 210.546875 335.046875 240.046875 335.046875 C 247.65625 335.046875 254.886719 333.425781 261.445312 330.542969 L 286.0625 371.972656 Z M 290.460938 473.148438 C 292.421875 467.589844 293.546875 461.640625 293.546875 455.421875 C 293.546875 439.015625 286.109375 424.328125 274.453125 414.511719 L 293.6875 384.808594 L 351.671875 482.382812 C 346.792969 486.730469 342.703125 491.933594 339.675781 497.785156 Z M 387.171875 281.546875 C 399.515625 281.546875 410.855469 277.304688 419.925781 270.257812 L 492.089844 342.421875 C 487.761719 347.984375 484.527344 354.414062 482.660156 361.40625 L 440.648438 355.628906 C 440.644531 355.457031 440.671875 355.28125 440.671875 355.109375 C 440.671875 325.609375 416.667969 301.609375 387.171875 301.609375 C 368.660156 301.609375 352.316406 311.0625 342.710938 325.394531 L 334.734375 321.410156 L 364.011719 276.195312 C 371.027344 279.585938 378.863281 281.546875 387.171875 281.546875 Z M 393.859375 469.257812 L 393.859375 408.140625 C 415.59375 405.410156 433.273438 389.617188 438.8125 368.871094 L 480.820312 374.648438 C 480.820312 374.824219 480.796875 374.996094 480.796875 375.171875 C 480.796875 387.945312 485.300781 399.667969 492.800781 408.875 L 422.582031 482.296875 C 414.710938 475.320312 404.804688 470.632812 393.859375 469.257812 Z M 336.753906 337.378906 C 334.792969 342.9375 333.671875 348.886719 333.671875 355.109375 C 333.671875 382.339844 354.132812 404.835938 380.484375 408.144531 L 380.484375 469.261719 C 374.144531 470.058594 368.15625 471.957031 362.707031 474.773438 L 301.796875 372.273438 L 327.417969 332.710938 Z M 339.609375 252.433594 C 342.878906 258.78125 347.351562 264.390625 352.761719 268.953125 L 322.695312 315.390625 L 290.460938 299.273438 C 292.421875 293.714844 293.546875 287.765625 293.546875 281.546875 C 293.546875 277.480469 293.050781 273.527344 292.179688 269.714844 Z M 272.914062 323.667969 C 277.394531 320.164062 281.328125 315.992188 284.503906 311.257812 L 315.378906 326.691406 L 294.175781 359.441406 Z M 272.914062 323.667969 "/>
</g>
</g>
</svg>
