<?xml version="1.0" encoding="UTF-8"?>
<svg xmlns="http://www.w3.org/2000/svg" xmlns:xlink="http://www.w3.org/1999/xlink" width="750pt" height="749.999995pt" viewBox="0 0 750 749.999995" version="1.2">
<defs>
<clipPath id="clip1">
  <path d="M 179.394531 263 L 371 263 L 371 505.171875 L 179.394531 505.171875 Z M 179.394531 263 "/>
</clipPath>
<clipPath id="clip2">
  <path d="M 380 263 L 570.894531 263 L 570.894531 505.171875 L 380 505.171875 Z M 380 263 "/>
</clipPath>
<clipPath id="clip3">
  <path d="M 385 266 L 570.894531 266 L 570.894531 505.171875 L 385 505.171875 Z M 385 266 "/>
</clipPath>
<clipPath id="clip4">
  <path d="M 179.394531 266 L 365 266 L 365 505.171875 L 179.394531 505.171875 Z M 179.394531 266 "/>
</clipPath>
<clipPath id="clip5">
  <path d="M 360 493 L 391 493 L 391 505.171875 L 360 505.171875 Z M 360 493 "/>
</clipPath>
<clipPath id="clip6">
  <path d="M 188 244.921875 L 377 244.921875 L 377 502 L 188 502 Z M 188 244.921875 "/>
</clipPath>
<clipPath id="clip7">
  <path d="M 373 244.921875 L 562 244.921875 L 562 502 L 373 502 Z M 373 244.921875 "/>
</clipPath>
</defs>
<g id="surface1">
<path style=" stroke:none;fill-rule:nonzero;fill:rgb(0%,45.489502%,19.60907%);fill-opacity:1;" d="M 375 42.253906 C 369.554688 42.253906 364.113281 42.386719 358.671875 42.652344 C 353.234375 42.921875 347.804688 43.320312 342.386719 43.855469 C 336.964844 44.386719 331.5625 45.054688 326.175781 45.855469 C 320.789062 46.652344 315.425781 47.582031 310.085938 48.644531 C 304.742188 49.707031 299.429688 50.902344 294.148438 52.222656 C 288.867188 53.546875 283.621094 55 278.410156 56.582031 C 273.195312 58.160156 268.027344 59.867188 262.902344 61.703125 C 257.773438 63.539062 252.695312 65.496094 247.664062 67.582031 C 242.632812 69.664062 237.65625 71.871094 232.730469 74.199219 C 227.808594 76.527344 222.945312 78.976562 218.144531 81.542969 C 213.339844 84.109375 208.605469 86.792969 203.933594 89.59375 C 199.261719 92.390625 194.664062 95.304688 190.136719 98.332031 C 185.605469 101.355469 181.15625 104.492188 176.78125 107.734375 C 172.410156 110.976562 168.117188 114.328125 163.90625 117.78125 C 159.699219 121.238281 155.574219 124.792969 151.539062 128.449219 C 147.503906 132.105469 143.5625 135.859375 139.710938 139.710938 C 135.859375 143.5625 132.105469 147.503906 128.449219 151.539062 C 124.792969 155.574219 121.238281 159.699219 117.78125 163.90625 C 114.328125 168.117188 110.976562 172.410156 107.734375 176.78125 C 104.492188 181.15625 101.355469 185.605469 98.332031 190.136719 C 95.304688 194.664062 92.390625 199.261719 89.59375 203.933594 C 86.792969 208.605469 84.109375 213.339844 81.542969 218.144531 C 78.976562 222.945312 76.527344 227.808594 74.199219 232.730469 C 71.871094 237.65625 69.664062 242.632812 67.582031 247.664062 C 65.496094 252.695312 63.539062 257.773438 61.703125 262.902344 C 59.867188 268.027344 58.160156 273.195312 56.582031 278.410156 C 55 283.621094 53.546875 288.867188 52.222656 294.148438 C 50.902344 299.429688 49.707031 304.742188 48.644531 310.085938 C 47.582031 315.425781 46.652344 320.789062 45.855469 326.175781 C 45.054688 331.5625 44.386719 336.964844 43.855469 342.386719 C 43.320312 347.804688 42.921875 353.234375 42.652344 358.671875 C 42.386719 364.113281 42.253906 369.554688 42.253906 375 C 42.253906 380.445312 42.386719 385.886719 42.652344 391.328125 C 42.921875 396.765625 43.320312 402.195312 43.855469 407.613281 C 44.386719 413.035156 45.054688 418.4375 45.855469 423.824219 C 46.652344 429.210938 47.582031 434.574219 48.644531 439.914062 C 49.707031 445.257812 50.902344 450.570312 52.222656 455.851562 C 53.546875 461.132812 55 466.378906 56.582031 471.589844 C 58.160156 476.800781 59.867188 481.972656 61.703125 487.097656 C 63.539062 492.226562 65.496094 497.304688 67.582031 502.335938 C 69.664062 507.367188 71.871094 512.34375 74.199219 517.269531 C 76.527344 522.191406 78.976562 527.054688 81.542969 531.855469 C 84.109375 536.660156 86.792969 541.394531 89.59375 546.066406 C 92.390625 550.738281 95.304688 555.335938 98.332031 559.863281 C 101.355469 564.394531 104.492188 568.84375 107.734375 573.21875 C 110.976562 577.589844 114.328125 581.882812 117.78125 586.09375 C 121.238281 590.300781 124.792969 594.425781 128.449219 598.460938 C 132.105469 602.496094 135.859375 606.4375 139.710938 610.289062 C 143.5625 614.140625 147.503906 617.894531 151.539062 621.550781 C 155.574219 625.207031 159.699219 628.761719 163.90625 632.21875 C 168.117188 635.671875 172.410156 639.019531 176.78125 642.265625 C 181.15625 645.507812 185.605469 648.644531 190.136719 651.667969 C 194.664062 654.695312 199.261719 657.609375 203.933594 660.40625 C 208.605469 663.207031 213.339844 665.890625 218.144531 668.457031 C 222.945312 671.023438 227.808594 673.472656 232.730469 675.800781 C 237.65625 678.128906 242.632812 680.335938 247.664062 682.417969 C 252.695312 684.503906 257.773438 686.460938 262.902344 688.296875 C 268.027344 690.132812 273.195312 691.839844 278.410156 693.417969 C 283.621094 695 288.867188 696.453125 294.148438 697.777344 C 299.429688 699.097656 304.742188 700.292969 310.085938 701.355469 C 315.425781 702.417969 320.789062 703.347656 326.175781 704.144531 C 331.5625 704.945312 336.964844 705.613281 342.386719 706.144531 C 347.804688 706.679688 353.234375 707.078125 358.671875 707.347656 C 364.113281 707.613281 369.554688 707.746094 375 707.746094 C 380.445312 707.746094 385.886719 707.613281 391.328125 707.347656 C 396.765625 707.078125 402.195312 706.679688 407.613281 706.144531 C 413.035156 705.613281 418.4375 704.945312 423.824219 704.144531 C 429.210938 703.347656 434.574219 702.417969 439.914062 701.355469 C 445.257812 700.292969 450.570312 699.097656 455.851562 697.777344 C 461.132812 696.453125 466.378906 695 471.589844 693.417969 C 476.800781 691.839844 481.972656 690.132812 487.097656 688.296875 C 492.226562 686.460938 497.304688 684.503906 502.335938 682.417969 C 507.367188 680.335938 512.34375 678.128906 517.269531 675.800781 C 522.191406 673.472656 527.054688 671.023438 531.855469 668.457031 C 536.660156 665.890625 541.394531 663.207031 546.066406 660.40625 C 550.738281 657.609375 555.335938 654.695312 559.863281 651.667969 C 564.394531 648.644531 568.84375 645.507812 573.21875 642.265625 C 577.589844 639.019531 581.882812 635.671875 586.09375 632.21875 C 590.300781 628.761719 594.425781 625.207031 598.460938 621.550781 C 602.496094 617.894531 606.4375 614.140625 610.289062 610.289062 C 614.140625 606.4375 617.894531 602.496094 621.550781 598.460938 C 625.207031 594.425781 628.761719 590.300781 632.21875 586.09375 C 635.671875 581.882812 639.019531 577.589844 642.265625 573.21875 C 645.507812 568.84375 648.644531 564.394531 651.667969 559.863281 C 654.695312 555.335938 657.609375 550.738281 660.40625 546.066406 C 663.207031 541.394531 665.890625 536.660156 668.457031 531.855469 C 671.023438 527.054688 673.472656 522.191406 675.800781 517.269531 C 678.128906 512.34375 680.335938 507.367188 682.417969 502.335938 C 684.503906 497.304688 686.460938 492.226562 688.296875 487.097656 C 690.132812 481.972656 691.839844 476.800781 693.417969 471.589844 C 695 466.378906 696.453125 461.132812 697.777344 455.851562 C 699.097656 450.570312 700.292969 445.257812 701.355469 439.914062 C 702.417969 434.574219 703.347656 429.210938 704.144531 423.824219 C 704.945312 418.4375 705.613281 413.035156 706.144531 407.613281 C 706.679688 402.195312 707.078125 396.765625 707.347656 391.328125 C 707.613281 385.886719 707.746094 380.445312 707.746094 375 C 707.746094 369.554688 707.613281 364.113281 707.347656 358.671875 C 707.078125 353.234375 706.679688 347.804688 706.144531 342.386719 C 705.613281 336.964844 704.945312 331.5625 704.144531 326.175781 C 703.347656 320.789062 702.417969 315.425781 701.355469 310.085938 C 700.292969 304.742188 699.097656 299.429688 697.777344 294.148438 C 696.453125 288.867188 695 283.621094 693.417969 278.410156 C 691.839844 273.195312 690.132812 268.027344 688.296875 262.902344 C 686.460938 257.773438 684.503906 252.695312 682.417969 247.664062 C 680.335938 242.632812 678.128906 237.65625 675.800781 232.730469 C 673.472656 227.808594 671.023438 222.945312 668.457031 218.144531 C 665.890625 213.339844 663.207031 208.605469 660.40625 203.933594 C 657.609375 199.261719 654.695312 194.664062 651.667969 190.136719 C 648.644531 185.605469 645.507812 181.15625 642.265625 176.78125 C 639.019531 172.410156 635.671875 168.117188 632.21875 163.90625 C 628.761719 159.699219 625.207031 155.574219 621.550781 151.539062 C 617.894531 147.503906 614.140625 143.5625 610.289062 139.710938 C 606.4375 135.859375 602.496094 132.105469 598.460938 128.449219 C 594.425781 124.792969 590.300781 121.238281 586.09375 117.78125 C 581.882812 114.328125 577.589844 110.976562 573.21875 107.734375 C 568.84375 104.492188 564.394531 101.355469 559.863281 98.332031 C 555.335938 95.304688 550.738281 92.390625 546.066406 89.59375 C 541.394531 86.792969 536.660156 84.109375 531.855469 81.542969 C 527.054688 78.976562 522.191406 76.527344 517.269531 74.199219 C 512.34375 71.871094 507.367188 69.664062 502.335938 67.582031 C 497.304688 65.496094 492.226562 63.539062 487.097656 61.703125 C 481.972656 59.867188 476.800781 58.160156 471.589844 56.582031 C 466.378906 55 461.132812 53.546875 455.851562 52.222656 C 450.570312 50.902344 445.257812 49.707031 439.914062 48.644531 C 434.574219 47.582031 429.210938 46.652344 423.824219 45.855469 C 418.4375 45.054688 413.035156 44.386719 407.613281 43.855469 C 402.195312 43.320312 396.765625 42.921875 391.328125 42.652344 C 385.886719 42.386719 380.445312 42.253906 375 42.253906 Z M 375 42.253906 "/>
<path style=" stroke:none;fill-rule:nonzero;fill:rgb(100%,100%,100%);fill-opacity:1;" d="M 187.246094 264.996094 L 345.746094 264.996094 C 349.230469 264.996094 360.789062 287.765625 360.789062 291.253906 L 360.46875 494.03125 C 363.382812 492.933594 363.199219 489.457031 363.195312 486.175781 C 363.1875 482.566406 363.195312 468.894531 363.195312 468.894531 L 368.886719 468.269531 L 368.886719 489.03125 C 368.886719 489.03125 368.542969 503.597656 354.882812 504.054688 C 354.742188 504.0625 354.597656 504.078125 354.453125 504.078125 L 187.246094 504.078125 C 183.765625 504.078125 180.910156 501.226562 180.910156 497.742188 L 180.910156 271.324219 C 180.910156 267.839844 183.765625 264.996094 187.246094 264.996094 "/>
<g clip-path="url(#clip1)" clip-rule="nonzero">
<path style=" stroke:none;fill-rule:nonzero;fill:rgb(13.729858%,12.159729%,12.548828%);fill-opacity:1;" d="M 187.246094 264.996094 L 187.246094 266.152344 L 345.746094 266.152344 L 345.746094 265.90625 L 345.699219 266.148438 L 345.746094 266.152344 L 345.746094 265.90625 L 345.699219 266.148438 L 345.714844 266.152344 C 345.769531 266.171875 345.945312 266.261719 346.171875 266.441406 C 346.59375 266.773438 347.1875 267.402344 347.828125 268.21875 C 350.105469 271.101562 353.117188 276.328125 355.511719 281.113281 C 356.707031 283.511719 357.757812 285.804688 358.503906 287.652344 C 358.875 288.574219 359.167969 289.382812 359.363281 290.019531 C 359.554688 290.648438 359.640625 291.144531 359.632812 291.253906 L 359.3125 494.03125 C 359.3125 494.410156 359.5 494.769531 359.8125 494.984375 C 360.121094 495.203125 360.523438 495.246094 360.878906 495.117188 C 361.683594 494.8125 362.351562 494.335938 362.855469 493.746094 C 363.605469 492.863281 363.960938 491.792969 364.148438 490.710938 C 364.332031 489.628906 364.355469 488.507812 364.355469 487.40625 C 364.355469 486.992188 364.351562 486.574219 364.351562 486.167969 C 364.347656 484.972656 364.347656 482.652344 364.347656 480.089844 C 364.347656 477.53125 364.347656 474.730469 364.351562 472.570312 C 364.351562 470.414062 364.351562 468.898438 364.351562 468.894531 L 363.195312 468.894531 L 363.320312 470.042969 L 367.730469 469.558594 L 367.730469 489.03125 L 368.886719 489.03125 L 367.730469 489.003906 L 367.730469 489.027344 C 367.722656 489.363281 367.527344 492.863281 365.804688 496.191406 C 364.949219 497.855469 363.726562 499.472656 361.988281 500.703125 C 360.238281 501.925781 357.957031 502.789062 354.847656 502.898438 L 354.792969 502.902344 C 354.625 502.914062 354.515625 502.925781 354.453125 502.925781 L 187.246094 502.925781 C 185.828125 502.925781 184.535156 502.339844 183.589844 501.402344 C 182.648438 500.457031 182.066406 499.167969 182.066406 497.742188 L 182.066406 271.324219 C 182.066406 269.90625 182.648438 268.613281 183.589844 267.675781 C 184.535156 266.730469 185.828125 266.152344 187.246094 266.152344 L 187.246094 263.839844 C 183.121094 263.84375 179.757812 267.199219 179.753906 271.324219 L 179.753906 497.742188 C 179.757812 501.871094 183.121094 505.230469 187.246094 505.234375 L 354.453125 505.234375 C 354.683594 505.234375 354.859375 505.214844 354.976562 505.203125 L 354.882812 504.054688 L 354.925781 505.210938 C 358.542969 505.089844 361.382812 504.015625 363.519531 502.445312 C 366.730469 500.085938 368.339844 496.722656 369.167969 494 C 369.992188 491.261719 370.039062 489.128906 370.046875 489.058594 L 370.046875 468.269531 C 370.046875 467.9375 369.90625 467.632812 369.660156 467.410156 C 369.414062 467.1875 369.089844 467.085938 368.761719 467.121094 L 363.066406 467.742188 C 362.480469 467.808594 362.035156 468.304688 362.035156 468.894531 C 362.035156 468.894531 362.03125 474.96875 362.03125 480.089844 C 362.03125 482.652344 362.03125 484.972656 362.035156 486.175781 C 362.035156 486.589844 362.042969 487.003906 362.042969 487.40625 C 362.046875 488.824219 361.984375 490.148438 361.683594 491.101562 C 361.535156 491.574219 361.339844 491.953125 361.089844 492.246094 C 360.839844 492.542969 360.527344 492.773438 360.0625 492.953125 L 360.46875 494.03125 L 361.625 494.035156 L 361.945312 291.253906 C 361.945312 290.878906 361.882812 290.523438 361.785156 290.113281 C 361.421875 288.605469 360.519531 286.34375 359.296875 283.667969 C 357.472656 279.671875 354.945312 274.859375 352.542969 271.003906 C 351.339844 269.070312 350.167969 267.378906 349.101562 266.128906 C 348.570312 265.5 348.058594 264.980469 347.542969 264.582031 C 347.285156 264.382812 347.023438 264.210938 346.734375 264.074219 C 346.445312 263.945312 346.121094 263.839844 345.746094 263.839844 L 187.246094 263.839844 L 187.246094 264.996094 "/>
</g>
<path style=" stroke:none;fill-rule:nonzero;fill:rgb(100%,100%,100%);fill-opacity:1;" d="M 563.449219 264.996094 L 404.949219 264.996094 C 401.472656 264.996094 389.90625 287.765625 389.90625 291.253906 L 390.226562 494.03125 C 387.316406 492.933594 387.503906 489.457031 387.503906 486.175781 C 387.511719 482.566406 387.503906 468.894531 387.503906 468.894531 L 381.808594 468.269531 L 381.808594 489.03125 C 381.808594 489.03125 382.152344 503.597656 395.808594 504.054688 C 395.953125 504.0625 396.097656 504.078125 396.242188 504.078125 L 563.449219 504.078125 C 566.933594 504.078125 569.785156 501.226562 569.785156 497.742188 L 569.785156 271.324219 C 569.785156 267.839844 566.933594 264.996094 563.449219 264.996094 "/>
<g clip-path="url(#clip2)" clip-rule="nonzero">
<path style=" stroke:none;fill-rule:nonzero;fill:rgb(13.729858%,12.159729%,12.548828%);fill-opacity:1;" d="M 563.449219 264.996094 L 563.449219 263.839844 L 404.949219 263.839844 C 404.414062 263.84375 403.988281 264.035156 403.609375 264.265625 C 402.894531 264.703125 402.238281 265.363281 401.519531 266.210938 C 400.273438 267.695312 398.882812 269.769531 397.472656 272.117188 C 395.351562 275.640625 393.199219 279.761719 391.566406 283.300781 C 390.746094 285.070312 390.058594 286.691406 389.566406 288.027344 C 389.324219 288.699219 389.125 289.300781 388.984375 289.824219 C 388.84375 290.359375 388.75 290.796875 388.75 291.253906 L 389.070312 494.035156 L 390.226562 494.03125 L 390.632812 492.953125 C 390.164062 492.773438 389.855469 492.542969 389.605469 492.242188 C 389.230469 491.800781 388.972656 491.144531 388.828125 490.292969 C 388.683594 489.445312 388.65625 488.421875 388.660156 487.347656 C 388.660156 486.964844 388.660156 486.570312 388.660156 486.175781 C 388.664062 484.972656 388.664062 482.652344 388.664062 480.089844 C 388.664062 474.96875 388.660156 468.894531 388.660156 468.890625 C 388.660156 468.304688 388.214844 467.808594 387.628906 467.742188 L 381.933594 467.121094 C 381.605469 467.085938 381.28125 467.1875 381.035156 467.410156 C 380.785156 467.632812 380.652344 467.9375 380.652344 468.269531 L 380.652344 489.058594 C 380.65625 489.148438 380.738281 492.921875 382.644531 496.875 C 383.601562 498.851562 385.035156 500.878906 387.175781 502.445312 C 389.316406 504.015625 392.152344 505.089844 395.773438 505.210938 L 395.808594 504.054688 L 395.71875 505.203125 C 395.835938 505.214844 396.015625 505.234375 396.242188 505.234375 L 563.449219 505.234375 C 567.582031 505.230469 570.9375 501.871094 570.945312 497.742188 L 570.945312 271.324219 C 570.9375 267.199219 567.582031 263.84375 563.449219 263.839844 L 563.449219 266.152344 C 564.875 266.152344 566.164062 266.730469 567.105469 267.675781 C 568.050781 268.613281 568.628906 269.898438 568.628906 271.324219 L 568.628906 497.742188 C 568.628906 499.167969 568.050781 500.457031 567.105469 501.402344 C 566.164062 502.339844 564.875 502.925781 563.449219 502.925781 L 396.242188 502.925781 C 396.179688 502.925781 396.066406 502.914062 395.902344 502.902344 L 395.847656 502.898438 C 392.640625 502.789062 390.3125 501.871094 388.546875 500.578125 C 385.898438 498.652344 384.480469 495.773438 383.742188 493.332031 C 383.375 492.113281 383.175781 491.015625 383.074219 490.230469 C 383.023438 489.835938 382.996094 489.519531 382.980469 489.308594 C 382.972656 489.203125 382.96875 489.121094 382.964844 489.074219 L 382.964844 489.003906 L 381.808594 489.03125 L 382.964844 489.03125 L 382.964844 469.558594 L 387.375 470.042969 L 387.503906 468.894531 L 386.34375 468.894531 C 386.34375 468.898438 386.34375 470.414062 386.351562 472.570312 C 386.351562 474.730469 386.351562 477.53125 386.351562 480.089844 C 386.351562 482.652344 386.351562 484.972656 386.34375 486.167969 C 386.34375 486.558594 386.34375 486.949219 386.34375 487.347656 C 386.34375 488.824219 386.371094 490.34375 386.792969 491.753906 C 387.011719 492.457031 387.335938 493.140625 387.835938 493.734375 C 388.332031 494.328125 389.007812 494.8125 389.816406 495.117188 C 390.171875 495.246094 390.574219 495.203125 390.886719 494.984375 C 391.199219 494.769531 391.382812 494.410156 391.382812 494.03125 L 391.0625 291.246094 C 391.058594 291.1875 391.085938 290.957031 391.160156 290.652344 C 391.4375 289.472656 392.3125 287.21875 393.5 284.632812 C 395.285156 280.730469 397.785156 275.964844 400.121094 272.222656 C 401.28125 270.351562 402.410156 268.730469 403.351562 267.628906 C 403.820312 267.074219 404.246094 266.652344 404.566406 266.410156 C 404.726562 266.28125 404.855469 266.207031 404.933594 266.175781 L 404.996094 266.148438 L 404.949219 265.96875 L 404.949219 266.152344 L 404.996094 266.148438 L 404.949219 265.96875 L 404.949219 266.152344 L 563.449219 266.152344 L 563.449219 264.996094 "/>
</g>
<path style=" stroke:none;fill-rule:nonzero;fill:rgb(100%,100%,100%);fill-opacity:1;" d="M 568.503906 267.464844 L 568.503906 495.511719 L 568.496094 495.5 C 568.496094 498.953125 565.683594 501.785156 562.234375 501.832031 L 397.542969 501.699219 C 397.542969 501.699219 392.1875 501.914062 389.476562 499.414062 C 388.929688 498.917969 387.796875 497.640625 387.359375 497.082031 L 386.617188 501.21875 C 389.816406 504.480469 394.546875 504.078125 394.546875 504.078125 L 562.289062 504.078125 L 563.449219 504.085938 C 566.933594 504.085938 569.785156 501.230469 569.785156 497.75 L 569.785156 271.300781 C 569.785156 269.863281 569.304688 268.535156 568.503906 267.464844 "/>
<g clip-path="url(#clip3)" clip-rule="nonzero">
<path style=" stroke:none;fill-rule:nonzero;fill:rgb(13.729858%,12.159729%,12.548828%);fill-opacity:1;" d="M 568.503906 267.464844 L 567.347656 267.464844 L 567.347656 495.511719 L 568.503906 495.511719 L 569.449219 494.847656 L 569.4375 494.839844 C 569.148438 494.425781 568.628906 494.242188 568.144531 494.398438 C 567.664062 494.550781 567.335938 494.992188 567.335938 495.5 C 567.34375 498.316406 565.03125 500.644531 562.222656 500.675781 L 562.234375 501.832031 L 562.234375 500.675781 L 397.542969 500.542969 L 397.5 500.546875 L 397.238281 500.546875 C 396.699219 500.546875 395.402344 500.511719 394.015625 500.226562 C 392.621094 499.953125 391.164062 499.40625 390.257812 498.566406 L 390.253906 498.558594 C 390.042969 498.367188 389.625 497.933594 389.234375 497.5 C 388.84375 497.0625 388.457031 496.605469 388.269531 496.367188 C 387.984375 496.011719 387.519531 495.851562 387.078125 495.960938 C 386.632812 496.070312 386.300781 496.429688 386.21875 496.875 L 385.476562 501.011719 C 385.410156 501.378906 385.527344 501.757812 385.789062 502.023438 C 387.25 503.515625 388.972656 504.320312 390.480469 504.75 C 391.996094 505.183594 393.308594 505.25 394.035156 505.25 C 394.398438 505.25 394.621094 505.230469 394.648438 505.230469 L 394.546875 504.078125 L 394.546875 505.234375 L 562.289062 505.234375 L 563.445312 505.242188 L 563.449219 505.242188 C 567.582031 505.234375 570.9375 501.875 570.945312 497.75 L 570.945312 271.300781 C 570.945312 269.601562 570.371094 268.03125 569.425781 266.769531 C 569.128906 266.375 568.613281 266.210938 568.136719 266.367188 C 567.664062 266.527344 567.347656 266.964844 567.347656 267.464844 L 568.503906 267.464844 L 567.578125 268.15625 C 568.238281 269.042969 568.628906 270.125 568.628906 271.300781 L 568.628906 497.75 C 568.628906 499.171875 568.050781 500.460938 567.105469 501.40625 C 566.164062 502.347656 564.875 502.929688 563.449219 502.929688 L 563.457031 502.929688 L 562.292969 502.925781 L 394.546875 502.925781 L 394.449219 502.929688 L 394.472656 503.152344 L 394.453125 502.929688 L 394.449219 502.929688 L 394.472656 503.152344 L 394.453125 502.929688 C 394.4375 502.929688 394.289062 502.9375 394.035156 502.9375 C 393.464844 502.941406 392.347656 502.878906 391.117188 502.527344 C 389.882812 502.175781 388.550781 501.539062 387.445312 500.410156 L 386.617188 501.21875 L 387.753906 501.421875 L 388.496094 497.285156 L 387.359375 497.082031 L 386.445312 497.792969 C 386.699219 498.113281 387.09375 498.574219 387.515625 499.042969 C 387.9375 499.515625 388.359375 499.960938 388.695312 500.269531 L 388.691406 500.265625 C 390.109375 501.558594 391.941406 502.160156 393.554688 502.496094 C 395.171875 502.824219 396.59375 502.859375 397.238281 502.859375 C 397.449219 502.859375 397.574219 502.855469 397.589844 502.855469 L 397.542969 501.699219 L 397.542969 502.855469 L 562.234375 502.988281 L 562.25 502.988281 C 566.335938 502.929688 569.648438 499.59375 569.652344 495.5 L 568.496094 495.5 L 567.546875 496.164062 L 567.554688 496.175781 C 567.84375 496.59375 568.367188 496.769531 568.847656 496.613281 C 569.332031 496.460938 569.660156 496.019531 569.660156 495.511719 L 569.660156 267.464844 L 568.503906 267.464844 L 567.578125 268.15625 L 568.503906 267.464844 "/>
</g>
<path style=" stroke:none;fill-rule:nonzero;fill:rgb(100%,100%,100%);fill-opacity:1;" d="M 182.199219 267.464844 L 182.199219 495.511719 L 182.203125 495.5 C 182.203125 498.953125 185.011719 501.785156 188.460938 501.832031 L 353.152344 501.699219 C 353.152344 501.699219 358.507812 501.914062 361.222656 499.414062 C 361.765625 498.917969 362.90625 497.640625 363.339844 497.082031 L 363.808594 501.421875 C 360.488281 504.085938 356.148438 504.078125 356.148438 504.078125 L 188.40625 504.078125 L 187.246094 504.085938 C 183.765625 504.085938 180.910156 501.230469 180.910156 497.75 L 180.910156 271.300781 C 180.910156 269.863281 181.398438 268.535156 182.199219 267.464844 "/>
<g clip-path="url(#clip4)" clip-rule="nonzero">
<path style=" stroke:none;fill-rule:nonzero;fill:rgb(13.729858%,12.159729%,12.548828%);fill-opacity:1;" d="M 182.199219 267.464844 L 181.039062 267.464844 L 181.039062 495.511719 C 181.039062 496.070312 181.433594 496.542969 181.980469 496.648438 C 182.523438 496.75 183.066406 496.457031 183.273438 495.941406 L 183.277344 495.929688 L 182.203125 495.5 L 181.046875 495.5 C 181.050781 499.59375 184.363281 502.929688 188.441406 502.988281 L 188.460938 502.988281 L 353.152344 502.855469 L 353.152344 501.699219 L 353.105469 502.855469 C 353.121094 502.855469 353.246094 502.859375 353.460938 502.859375 C 354.101562 502.859375 355.523438 502.824219 357.144531 502.496094 C 358.757812 502.160156 360.585938 501.558594 362.003906 500.265625 L 362 500.269531 C 362.335938 499.960938 362.761719 499.515625 363.179688 499.042969 C 363.601562 498.574219 364 498.113281 364.25 497.792969 L 363.339844 497.082031 L 362.191406 497.207031 L 362.660156 501.542969 L 363.808594 501.421875 L 363.085938 500.515625 C 361.621094 501.691406 359.882812 502.308594 358.492188 502.617188 C 357.800781 502.769531 357.207031 502.847656 356.785156 502.886719 C 356.574219 502.90625 356.410156 502.914062 356.300781 502.917969 L 356.175781 502.925781 L 188.402344 502.925781 L 187.242188 502.929688 L 187.246094 502.929688 C 185.828125 502.929688 184.535156 502.347656 183.589844 501.40625 C 182.648438 500.460938 182.066406 499.171875 182.066406 497.75 L 182.066406 271.300781 C 182.066406 270.125 182.460938 269.046875 183.125 268.15625 L 182.199219 267.464844 L 181.039062 267.464844 L 182.199219 267.464844 L 181.269531 266.769531 C 180.332031 268.03125 179.753906 269.601562 179.753906 271.300781 L 179.753906 497.75 C 179.757812 501.875 183.121094 505.234375 187.246094 505.242188 L 187.25 505.242188 L 188.410156 505.234375 L 188.40625 505.234375 L 356.148438 505.234375 C 356.222656 505.234375 357.382812 505.230469 359 504.875 C 360.609375 504.511719 362.683594 503.800781 364.535156 502.320312 C 364.84375 502.074219 365 501.6875 364.960938 501.292969 L 364.492188 496.957031 C 364.4375 496.488281 364.105469 496.101562 363.65625 495.96875 C 363.203125 495.84375 362.714844 496 362.425781 496.371094 C 362.242188 496.605469 361.855469 497.0625 361.464844 497.496094 C 361.074219 497.929688 360.652344 498.367188 360.441406 498.5625 L 360.4375 498.566406 C 359.535156 499.40625 358.074219 499.953125 356.683594 500.226562 C 355.292969 500.511719 353.996094 500.546875 353.460938 500.546875 L 353.199219 500.546875 L 353.152344 500.542969 L 188.457031 500.675781 L 188.460938 501.832031 L 188.472656 500.675781 C 185.664062 500.644531 183.355469 498.316406 183.359375 495.5 C 183.359375 494.949219 182.964844 494.46875 182.421875 494.367188 C 181.875 494.261719 181.335938 494.554688 181.132812 495.070312 L 181.125 495.085938 L 182.199219 495.511719 L 183.355469 495.511719 L 183.355469 267.464844 C 183.355469 266.964844 183.039062 266.527344 182.5625 266.367188 C 182.089844 266.210938 181.570312 266.375 181.269531 266.769531 L 182.199219 267.464844 "/>
</g>
<path style=" stroke:none;fill-rule:nonzero;fill:rgb(100%,100%,100%);fill-opacity:1;" d="M 382.472656 491.480469 C 382.472656 491.480469 381.554688 492.042969 381.289062 492.042969 C 381.015625 492.042969 369.679688 492.042969 369.414062 492.042969 C 369.140625 492.042969 368.222656 491.480469 368.222656 491.480469 C 368.222656 491.480469 361.667969 490.203125 363.980469 496.667969 C 366.292969 503.140625 374.570312 503.109375 374.574219 503.0625 C 374.578125 503.109375 378.375 503.605469 377.148438 502.132812 C 376.992188 501.9375 384.402344 503.140625 386.714844 496.667969 C 389.03125 490.203125 382.472656 491.480469 382.472656 491.480469 "/>
<path style=" stroke:none;fill-rule:nonzero;fill:rgb(13.729858%,12.159729%,12.548828%);fill-opacity:1;" d="M 382.472656 491.480469 L 381.867188 490.496094 L 381.835938 490.515625 C 381.757812 490.558594 381.546875 490.683594 381.347656 490.789062 L 381.109375 490.902344 L 381.082031 490.910156 L 381.082031 490.914062 L 381.289062 491.601562 L 381.289062 490.886719 C 381.125 490.894531 381.09375 490.910156 381.082031 490.914062 L 381.289062 491.601562 L 381.289062 490.886719 C 381.015625 490.886719 369.679688 490.886719 369.414062 490.886719 L 369.414062 491.597656 L 369.621094 490.914062 C 369.605469 490.910156 369.574219 490.894531 369.414062 490.886719 L 369.414062 491.597656 L 369.621094 490.914062 L 369.609375 490.910156 C 369.546875 490.886719 369.316406 490.777344 369.144531 490.675781 L 368.914062 490.550781 L 368.832031 490.496094 C 368.714844 490.421875 368.582031 490.371094 368.445312 490.347656 C 368.398438 490.335938 367.8125 490.21875 367 490.21875 C 366.1875 490.230469 365.132812 490.320312 364.128906 490.894531 C 363.636719 491.183594 363.164062 491.609375 362.832031 492.1875 C 362.503906 492.773438 362.328125 493.472656 362.332031 494.253906 C 362.332031 495.078125 362.511719 496 362.890625 497.0625 C 363.492188 498.738281 364.460938 500.050781 365.574219 501.039062 C 367.253906 502.527344 369.222656 503.308594 370.882812 503.730469 C 372.542969 504.15625 373.886719 504.222656 374.414062 504.222656 L 374.589844 504.222656 L 374.703125 504.210938 L 374.847656 504.1875 C 374.898438 504.171875 374.953125 504.160156 375.082031 504.101562 C 375.148438 504.066406 375.238281 504.019531 375.367188 503.902344 C 375.433594 503.839844 375.507812 503.753906 375.582031 503.628906 C 375.652344 503.5 375.710938 503.332031 375.726562 503.140625 L 374.574219 503.0625 L 373.421875 503.148438 C 373.433594 503.355469 373.507812 503.527344 373.574219 503.644531 C 373.714844 503.875 373.832031 503.953125 373.910156 504.011719 C 374.058594 504.113281 374.117188 504.125 374.167969 504.148438 L 374.324219 504.199219 C 374.4375 504.21875 374.503906 504.234375 374.613281 504.246094 C 374.910156 504.289062 375.390625 504.335938 375.917969 504.335938 C 376.34375 504.332031 376.78125 504.316406 377.253906 504.179688 C 377.492188 504.105469 377.75 504.011719 378.027344 503.777344 C 378.160156 503.660156 378.296875 503.496094 378.394531 503.292969 C 378.496094 503.09375 378.550781 502.855469 378.550781 502.640625 C 378.550781 502.359375 378.476562 502.121094 378.382812 501.921875 C 378.289062 501.71875 378.171875 501.550781 378.042969 501.394531 L 378.042969 501.398438 L 377.164062 502.125 L 378.207031 501.660156 C 378.152344 501.539062 378.09375 501.457031 378.042969 501.398438 L 377.164062 502.125 L 378.207031 501.660156 L 377.152344 502.128906 L 378.304688 502.128906 C 378.304688 501.945312 378.261719 501.777344 378.207031 501.660156 L 377.152344 502.128906 L 378.304688 502.128906 L 377.152344 502.128906 L 378.148438 502.707031 C 378.242188 502.554688 378.304688 502.332031 378.304688 502.128906 L 377.152344 502.128906 L 378.148438 502.707031 L 377.15625 502.128906 L 377.667969 503.152344 C 377.777344 503.09375 377.96875 503.003906 378.148438 502.707031 L 377.15625 502.128906 L 377.667969 503.152344 L 377.191406 502.1875 L 377.355469 503.253906 C 377.40625 503.246094 377.472656 503.246094 377.667969 503.152344 L 377.191406 502.1875 L 377.355469 503.253906 L 377.257812 502.628906 L 377.28125 503.265625 L 377.355469 503.253906 L 377.257812 502.628906 L 377.28125 503.265625 L 377.335938 503.261719 C 377.4375 503.261719 377.632812 503.265625 377.882812 503.265625 C 378.898438 503.265625 380.796875 503.199219 382.761719 502.394531 C 383.742188 501.988281 384.746094 501.394531 385.636719 500.519531 C 386.523438 499.648438 387.289062 498.507812 387.804688 497.0625 C 388.179688 496 388.367188 495.078125 388.367188 494.25 C 388.371094 493.472656 388.195312 492.765625 387.863281 492.1875 C 387.367188 491.3125 386.558594 490.804688 385.8125 490.546875 C 385.054688 490.285156 384.3125 490.226562 383.703125 490.21875 C 382.886719 490.21875 382.300781 490.335938 382.25 490.347656 C 382.117188 490.371094 381.984375 490.421875 381.867188 490.496094 L 382.472656 491.480469 L 382.695312 492.613281 L 382.621094 492.234375 L 382.691406 492.613281 L 382.695312 492.613281 L 382.621094 492.234375 L 382.691406 492.613281 C 382.703125 492.609375 383.144531 492.53125 383.703125 492.53125 C 384.289062 492.527344 384.996094 492.640625 385.398438 492.890625 C 385.605469 493.011719 385.746094 493.140625 385.851562 493.335938 C 385.960938 493.527344 386.050781 493.796875 386.050781 494.25 C 386.050781 494.726562 385.941406 495.398438 385.621094 496.28125 C 385.21875 497.414062 384.65625 498.242188 384.011719 498.871094 C 383.050781 499.816406 381.875 500.339844 380.742188 500.628906 C 379.613281 500.917969 378.550781 500.953125 377.882812 500.953125 C 377.660156 500.953125 377.484375 500.949219 377.335938 500.949219 C 377.257812 500.953125 377.199219 500.949219 377.089844 500.960938 C 377.03125 500.96875 376.96875 500.96875 376.808594 501.011719 C 376.734375 501.046875 376.621094 501.078125 376.441406 501.210938 C 376.355469 501.28125 376.246094 501.382812 376.148438 501.542969 C 376.054688 501.699219 375.988281 501.921875 375.992188 502.128906 C 375.992188 502.308594 376.039062 502.480469 376.089844 502.601562 C 376.148438 502.726562 376.210938 502.804688 376.257812 502.871094 L 376.261719 502.871094 L 376.292969 502.914062 L 376.300781 502.917969 L 376.769531 502.640625 L 376.234375 502.640625 C 376.234375 502.828125 376.300781 502.917969 376.300781 502.917969 L 376.769531 502.640625 L 376.234375 502.640625 L 377.058594 502.640625 L 376.320312 502.273438 C 376.269531 502.386719 376.234375 502.527344 376.234375 502.640625 L 377.058594 502.640625 L 376.320312 502.273438 L 376.9375 502.574219 L 376.597656 501.964844 C 376.558594 501.988281 376.425781 502.070312 376.320312 502.273438 L 376.9375 502.574219 L 376.597656 501.964844 L 376.695312 502.152344 L 376.621094 501.953125 L 376.597656 501.964844 L 376.695312 502.152344 L 376.621094 501.953125 C 376.609375 501.972656 376.261719 502.03125 375.917969 502.023438 C 375.636719 502.023438 375.332031 502.003906 375.109375 501.980469 C 375.007812 501.964844 374.917969 501.953125 374.871094 501.949219 L 374.847656 501.945312 L 374.757812 502.445312 L 374.890625 501.953125 L 374.847656 501.945312 L 374.757812 502.445312 L 374.890625 501.953125 L 374.613281 502.972656 L 375.019531 502 L 374.890625 501.953125 L 374.613281 502.972656 L 375.019531 502 L 374.582031 503.050781 L 375.238281 502.117188 C 375.121094 502.039062 375.066406 502.019531 375.019531 502 L 374.582031 503.050781 L 375.238281 502.117188 L 374.578125 503.058594 L 375.46875 502.332031 C 375.367188 502.214844 375.296875 502.160156 375.238281 502.117188 L 374.578125 503.058594 L 375.46875 502.332031 L 374.574219 503.0625 L 375.726562 502.976562 C 375.699219 502.65625 375.5625 502.449219 375.46875 502.332031 L 374.574219 503.0625 L 375.726562 502.976562 C 375.679688 502.371094 375.175781 501.902344 374.570312 501.90625 C 373.957031 501.90625 373.457031 502.382812 373.417969 502.988281 L 374.574219 503.0625 L 373.5625 502.5 C 373.492188 502.621094 373.429688 502.796875 373.417969 502.988281 L 374.574219 503.0625 L 373.5625 502.5 L 374.574219 503.0625 L 373.9375 502.097656 C 373.851562 502.160156 373.710938 502.25 373.5625 502.5 L 374.574219 503.0625 L 373.9375 502.097656 L 374.570312 503.058594 L 374.242188 501.953125 C 374.183594 501.976562 374.117188 501.984375 373.9375 502.097656 L 374.570312 503.058594 L 374.242188 501.953125 L 374.558594 503.023438 L 374.402344 501.921875 L 374.242188 501.953125 L 374.558594 503.023438 L 374.402344 501.921875 L 374.527344 502.796875 L 374.464844 501.914062 L 374.402344 501.921875 L 374.527344 502.796875 L 374.464844 501.914062 L 374.414062 501.914062 C 373.964844 501.917969 371.980469 501.804688 369.980469 501.023438 C 368.984375 500.632812 367.976562 500.078125 367.117188 499.316406 C 366.253906 498.546875 365.535156 497.578125 365.070312 496.28125 C 364.753906 495.398438 364.644531 494.726562 364.644531 494.253906 C 364.644531 493.796875 364.734375 493.527344 364.84375 493.335938 C 365 493.054688 365.25 492.871094 365.652344 492.726562 C 366.046875 492.585938 366.554688 492.53125 367 492.53125 C 367.292969 492.53125 367.554688 492.554688 367.738281 492.578125 L 367.949219 492.605469 L 367.996094 492.613281 L 368.007812 492.613281 L 368.074219 492.238281 L 368.003906 492.613281 L 368.007812 492.613281 L 368.074219 492.238281 L 368.003906 492.613281 L 368.222656 491.480469 L 367.617188 492.464844 C 367.632812 492.46875 367.871094 492.617188 368.167969 492.78125 C 368.320312 492.863281 368.480469 492.945312 368.65625 493.019531 C 368.742188 493.054688 368.832031 493.09375 368.945312 493.125 C 369.058594 493.15625 369.175781 493.195312 369.414062 493.199219 C 369.679688 493.199219 381.015625 493.199219 381.289062 493.199219 C 381.519531 493.195312 381.636719 493.15625 381.753906 493.125 C 382.117188 493.011719 382.382812 492.859375 382.636719 492.722656 C 382.882812 492.585938 383.070312 492.46875 383.078125 492.464844 L 382.472656 491.480469 L 382.695312 492.613281 L 382.472656 491.480469 "/>
<path style=" stroke:none;fill-rule:nonzero;fill:rgb(100%,100%,100%);fill-opacity:1;" d="M 387.015625 494.277344 C 386.941406 495.328125 385.730469 497.503906 383.914062 499.03125 C 381.476562 501.066406 379.515625 501.097656 375.351562 501.019531 C 371.175781 501.097656 369.214844 501.066406 366.78125 499.03125 C 364.964844 497.503906 363.757812 495.328125 363.6875 494.277344 L 361.765625 497.074219 C 362.15625 499.980469 364.039062 504.085938 372.21875 504.085938 L 378.480469 504.085938 C 386.660156 504.085938 388.542969 499.980469 388.933594 497.074219 L 387.015625 494.277344 "/>
<g clip-path="url(#clip5)" clip-rule="nonzero">
<path style=" stroke:none;fill-rule:nonzero;fill:rgb(13.729858%,12.159729%,12.548828%);fill-opacity:1;" d="M 387.015625 494.277344 L 385.859375 494.199219 C 385.859375 494.269531 385.804688 494.515625 385.679688 494.816406 C 385.320312 495.734375 384.371094 497.148438 383.167969 498.144531 L 383.171875 498.144531 C 382.238281 498.921875 381.476562 499.316406 380.582031 499.5625 C 379.691406 499.808594 378.621094 499.882812 377.164062 499.882812 C 376.621094 499.882812 376.023438 499.875 375.367188 499.863281 L 375.324219 499.863281 C 374.671875 499.875 374.074219 499.882812 373.535156 499.882812 C 372.074219 499.882812 371.003906 499.808594 370.109375 499.5625 C 369.21875 499.316406 368.457031 498.921875 367.527344 498.144531 C 366.726562 497.476562 366.039062 496.632812 365.5625 495.867188 C 365.324219 495.480469 365.136719 495.117188 365.019531 494.816406 C 364.894531 494.515625 364.839844 494.269531 364.839844 494.195312 C 364.800781 493.703125 364.464844 493.285156 363.984375 493.160156 C 363.511719 493.027344 363.007812 493.214844 362.726562 493.621094 L 360.8125 496.421875 C 360.648438 496.660156 360.582031 496.945312 360.617188 497.230469 C 360.835938 498.839844 361.488281 500.902344 363.296875 502.527344 C 365.101562 504.15625 367.945312 505.246094 372.21875 505.242188 L 378.480469 505.242188 C 382.753906 505.246094 385.59375 504.15625 387.402344 502.527344 C 389.207031 500.902344 389.867188 498.839844 390.078125 497.230469 C 390.117188 496.945312 390.050781 496.65625 389.886719 496.421875 L 387.96875 493.621094 C 387.6875 493.214844 387.179688 493.027344 386.707031 493.160156 C 386.234375 493.292969 385.894531 493.707031 385.859375 494.199219 L 387.015625 494.277344 L 386.0625 494.925781 L 387.976562 497.730469 L 388.933594 497.074219 L 387.789062 496.921875 C 387.605469 498.210938 387.128906 499.660156 385.851562 500.808594 C 384.574219 501.957031 382.386719 502.925781 378.480469 502.929688 L 372.21875 502.929688 C 368.308594 502.925781 366.121094 501.957031 364.847656 500.808594 C 363.570312 499.660156 363.089844 498.214844 362.914062 496.921875 L 361.765625 497.074219 L 362.722656 497.730469 L 364.640625 494.925781 L 363.6875 494.277344 L 362.53125 494.355469 C 362.566406 494.808594 362.691406 495.230469 362.875 495.679688 C 363.417969 497.015625 364.511719 498.625 366.039062 499.917969 C 367.15625 500.855469 368.277344 501.464844 369.503906 501.792969 C 370.726562 502.125 372.007812 502.195312 373.535156 502.195312 C 374.101562 502.195312 374.714844 502.1875 375.371094 502.175781 L 375.351562 501.019531 L 375.324219 502.175781 C 375.984375 502.1875 376.59375 502.195312 377.164062 502.195312 C 378.691406 502.195312 379.96875 502.125 381.195312 501.792969 C 382.417969 501.464844 383.539062 500.855469 384.65625 499.917969 L 384.660156 499.917969 C 385.675781 499.058594 386.5 498.050781 387.101562 497.085938 C 387.402344 496.601562 387.648438 496.132812 387.828125 495.679688 C 388.007812 495.230469 388.136719 494.804688 388.167969 494.351562 L 387.015625 494.277344 L 386.0625 494.925781 L 387.015625 494.277344 "/>
</g>
<path style=" stroke:none;fill-rule:nonzero;fill:rgb(100%,100%,100%);fill-opacity:1;" d="M 185.90625 492.765625 C 185.90625 493.671875 186.644531 494.40625 187.546875 494.40625 L 363.886719 494.40625 C 364.789062 494.40625 365.5 493.671875 365.46875 492.765625 L 357.175781 263.027344 C 357.144531 262.128906 356.375 261.386719 355.476562 261.386719 L 187.546875 261.386719 C 186.644531 261.386719 185.90625 262.128906 185.90625 263.027344 L 185.90625 492.765625 "/>
<path style=" stroke:none;fill-rule:nonzero;fill:rgb(13.729858%,12.159729%,12.548828%);fill-opacity:1;" d="M 185.90625 492.765625 L 184.75 492.765625 C 184.753906 494.3125 186.003906 495.558594 187.546875 495.5625 L 363.886719 495.5625 C 364.640625 495.5625 365.332031 495.253906 365.824219 494.761719 C 366.320312 494.269531 366.625 493.574219 366.625 492.832031 L 366.625 492.726562 L 358.332031 262.984375 C 358.257812 261.445312 357.015625 260.246094 355.476562 260.230469 L 187.546875 260.230469 C 186.003906 260.234375 184.753906 261.484375 184.75 263.027344 L 184.75 492.765625 L 187.066406 492.765625 L 187.066406 263.027344 C 187.066406 262.894531 187.117188 262.777344 187.210938 262.6875 C 187.300781 262.597656 187.417969 262.542969 187.546875 262.542969 L 355.476562 262.542969 C 355.605469 262.542969 355.742188 262.597656 355.847656 262.703125 C 355.953125 262.804688 356.011719 262.9375 356.015625 263.066406 L 364.308594 492.808594 L 364.308594 492.832031 C 364.304688 493.070312 364.132812 493.246094 363.886719 493.25 L 187.546875 493.25 C 187.417969 493.25 187.300781 493.199219 187.210938 493.105469 C 187.117188 493.015625 187.066406 492.898438 187.066406 492.765625 L 185.90625 492.765625 "/>
<path style=" stroke:none;fill-rule:nonzero;fill:rgb(100%,100%,100%);fill-opacity:1;" d="M 564.789062 492.765625 C 564.789062 493.671875 564.050781 494.40625 563.148438 494.40625 L 386.8125 494.40625 C 385.910156 494.40625 385.199219 493.671875 385.234375 492.765625 L 393.523438 263.027344 C 393.554688 262.128906 394.316406 261.386719 395.222656 261.386719 L 563.148438 261.386719 C 564.050781 261.386719 564.789062 262.128906 564.789062 263.027344 L 564.789062 492.765625 "/>
<path style=" stroke:none;fill-rule:nonzero;fill:rgb(13.729858%,12.159729%,12.548828%);fill-opacity:1;" d="M 564.789062 492.765625 L 563.632812 492.765625 C 563.632812 492.898438 563.582031 493.015625 563.488281 493.105469 C 563.398438 493.199219 563.277344 493.25 563.148438 493.25 L 386.8125 493.25 C 386.5625 493.246094 386.390625 493.070312 386.386719 492.832031 L 386.386719 492.808594 L 394.679688 263.066406 C 394.683594 262.9375 394.742188 262.804688 394.847656 262.703125 C 394.953125 262.597656 395.089844 262.542969 395.222656 262.542969 L 563.148438 262.542969 C 563.277344 262.542969 563.398438 262.597656 563.488281 262.6875 C 563.582031 262.777344 563.632812 262.894531 563.632812 263.027344 L 563.632812 492.765625 L 565.945312 492.765625 L 565.945312 263.027344 C 565.941406 261.484375 564.695312 260.234375 563.148438 260.230469 L 395.222656 260.230469 C 393.679688 260.246094 392.433594 261.445312 392.363281 262.984375 L 384.078125 492.726562 L 384.078125 492.722656 L 384.074219 492.832031 C 384.074219 493.574219 384.378906 494.269531 384.871094 494.761719 C 385.363281 495.253906 386.0625 495.5625 386.8125 495.5625 L 563.148438 495.5625 C 564.695312 495.558594 565.941406 494.3125 565.945312 492.765625 L 564.789062 492.765625 "/>
<path style=" stroke:none;fill-rule:nonzero;fill:rgb(100%,100%,100%);fill-opacity:1;" d="M 564.558594 264.90625 L 564.558594 261.035156 L 563.449219 261.035156 L 563.449219 257.394531 L 562.34375 257.417969 L 562.34375 253.632812 L 561.230469 253.679688 L 561.230469 249.867188 L 470.957031 257.417969 L 384.945312 260.980469 L 384.914062 264.617188 L 381.558594 264.898438 L 382.726562 482.886719 L 383.082031 482.886719 L 383.046875 487.367188 C 379.472656 489.777344 376.738281 492.953125 375.625 497.382812 C 375.363281 498.253906 375.179688 499.195312 375.101562 500.207031 C 375.082031 499.894531 375.039062 499.605469 374.964844 499.332031 C 374.945312 499.199219 374.929688 499.058594 374.910156 498.921875 C 374.125 493.621094 371.183594 490.003906 367.199219 487.335938 L 367.15625 482.886719 L 367.507812 482.886719 L 368.679688 264.898438 L 365.328125 264.617188 L 365.296875 260.980469 L 279.285156 257.417969 L 189.007812 249.867188 L 189.007812 253.679688 L 187.902344 253.632812 L 187.902344 257.417969 L 186.792969 257.394531 L 186.792969 261.035156 L 185.683594 261.035156 L 185.683594 264.90625 L 184.617188 264.929688 L 184.617188 497.945312 L 326.023438 497.945312 C 363.941406 498.519531 375.125 500.5 375.125 500.5 L 375.105469 500.265625 L 375.160156 500.011719 C 375.140625 500.171875 375.125 500.328125 375.125 500.5 C 375.125 500.5 386.300781 498.519531 424.21875 497.945312 L 565.625 497.945312 L 565.625 264.929688 L 564.558594 264.90625 "/>
<path style=" stroke:none;fill-rule:nonzero;fill:rgb(13.729858%,12.159729%,12.548828%);fill-opacity:1;" d="M 564.558594 264.90625 L 565.714844 264.90625 L 565.714844 261.035156 C 565.714844 260.734375 565.59375 260.433594 565.375 260.21875 C 565.160156 260.003906 564.859375 259.878906 564.558594 259.878906 L 563.449219 259.878906 L 563.449219 261.035156 L 564.609375 261.035156 L 564.609375 257.394531 C 564.609375 257.089844 564.480469 256.785156 564.261719 256.570312 C 564.039062 256.351562 563.734375 256.234375 563.429688 256.238281 L 562.320312 256.261719 L 562.34375 257.417969 L 563.5 257.417969 L 563.5 253.632812 C 563.5 253.320312 563.371094 253.015625 563.144531 252.796875 C 562.917969 252.582031 562.609375 252.464844 562.296875 252.476562 L 561.1875 252.523438 L 561.230469 253.679688 L 562.390625 253.679688 L 562.390625 249.867188 C 562.390625 249.546875 562.253906 249.234375 562.015625 249.019531 C 561.777344 248.800781 561.457031 248.6875 561.136719 248.714844 L 470.886719 256.265625 L 384.894531 259.828125 C 384.28125 259.851562 383.792969 260.351562 383.789062 260.972656 L 383.765625 263.550781 L 381.464844 263.746094 C 380.859375 263.792969 380.398438 264.300781 380.402344 264.90625 L 381.570312 482.894531 C 381.574219 483.527344 382.09375 484.042969 382.726562 484.042969 L 383.082031 484.042969 L 383.082031 482.886719 L 381.925781 482.878906 L 381.890625 487.355469 L 383.046875 487.367188 L 382.394531 486.410156 C 378.667969 488.917969 375.6875 492.351562 374.503906 497.101562 L 375.625 497.382812 L 374.519531 497.046875 C 374.230469 498 374.035156 499.023438 373.949219 500.113281 L 375.101562 500.207031 L 376.253906 500.148438 C 376.234375 499.757812 376.175781 499.382812 376.082031 499.035156 L 374.964844 499.332031 L 376.109375 499.160156 C 376.097656 499.078125 376.082031 498.933594 376.050781 498.734375 L 374.910156 498.921875 L 376.054688 498.753906 C 375.640625 495.933594 374.632812 493.519531 373.203125 491.480469 C 371.769531 489.433594 369.921875 487.769531 367.839844 486.371094 L 367.199219 487.335938 L 368.355469 487.324219 L 368.3125 482.878906 L 367.15625 482.886719 L 367.15625 484.042969 L 367.507812 484.042969 C 368.148438 484.042969 368.667969 483.527344 368.667969 482.894531 L 369.835938 264.90625 C 369.839844 264.300781 369.378906 263.792969 368.78125 263.746094 L 366.476562 263.550781 L 366.453125 260.972656 C 366.449219 260.351562 365.960938 259.851562 365.34375 259.828125 L 279.359375 256.265625 L 189.101562 248.714844 C 188.78125 248.6875 188.460938 248.800781 188.226562 249.019531 C 187.988281 249.234375 187.851562 249.546875 187.851562 249.867188 L 187.851562 253.679688 L 189.007812 253.679688 L 189.054688 252.523438 L 187.945312 252.476562 C 187.632812 252.464844 187.320312 252.582031 187.097656 252.796875 C 186.871094 253.015625 186.742188 253.320312 186.742188 253.632812 L 186.742188 257.417969 L 187.902344 257.417969 L 187.921875 256.261719 L 186.816406 256.238281 C 186.507812 256.234375 186.203125 256.351562 185.984375 256.570312 C 185.761719 256.785156 185.636719 257.089844 185.636719 257.394531 L 185.636719 261.035156 L 186.792969 261.035156 L 186.792969 259.878906 L 185.683594 259.878906 C 185.378906 259.878906 185.082031 260.003906 184.863281 260.21875 C 184.652344 260.433594 184.523438 260.734375 184.523438 261.035156 L 184.523438 264.90625 L 185.683594 264.90625 L 185.660156 263.75 L 184.59375 263.773438 C 183.964844 263.785156 183.457031 264.300781 183.457031 264.929688 L 183.457031 497.945312 C 183.457031 498.25 183.585938 498.546875 183.800781 498.765625 C 184.015625 498.980469 184.3125 499.101562 184.617188 499.101562 L 326.023438 499.101562 L 326.023438 497.945312 L 326.003906 499.101562 C 344.945312 499.386719 357.195312 500.027344 364.707031 500.589844 C 368.457031 500.875 371.027344 501.136719 372.648438 501.328125 C 373.457031 501.425781 374.035156 501.5 374.402344 501.554688 C 374.585938 501.582031 374.722656 501.605469 374.804688 501.617188 L 374.921875 501.636719 C 375.273438 501.699219 375.636719 501.597656 375.898438 501.355469 C 376.164062 501.117188 376.304688 500.769531 376.277344 500.414062 L 376.273438 500.34375 L 376.289062 500.253906 L 375.160156 500.011719 L 374.007812 499.890625 C 373.996094 500.027344 373.96875 500.230469 373.96875 500.5 C 373.96875 500.84375 374.117188 501.164062 374.378906 501.382812 C 374.640625 501.605469 374.984375 501.695312 375.324219 501.636719 L 375.441406 501.617188 C 376.71875 501.410156 388.722656 499.640625 424.234375 499.101562 L 424.21875 497.945312 L 424.21875 499.101562 L 565.625 499.101562 C 565.933594 499.101562 566.226562 498.980469 566.441406 498.765625 C 566.660156 498.546875 566.78125 498.25 566.78125 497.945312 L 566.78125 264.929688 C 566.78125 264.300781 566.28125 263.785156 565.648438 263.773438 L 564.585938 263.75 L 564.558594 264.90625 L 565.714844 264.90625 L 564.558594 264.90625 L 564.535156 266.0625 L 565.601562 266.085938 L 565.625 264.929688 L 564.46875 264.929688 L 564.46875 496.792969 L 424.203125 496.792969 C 386.242188 497.371094 375.019531 499.34375 374.921875 499.359375 L 375.125 500.5 L 376.28125 500.5 C 376.28125 500.417969 376.289062 500.3125 376.3125 500.132812 C 376.375 499.523438 375.953125 498.96875 375.347656 498.871094 C 374.734375 498.773438 374.15625 499.167969 374.03125 499.765625 L 373.976562 500.019531 C 373.953125 500.125 373.945312 500.238281 373.953125 500.34375 L 373.96875 500.578125 L 375.125 500.5 L 375.324219 499.359375 C 375.222656 499.34375 364 497.371094 326.042969 496.792969 L 185.773438 496.792969 L 185.773438 264.929688 L 184.617188 264.929688 L 184.640625 266.085938 L 185.707031 266.0625 C 186.335938 266.046875 186.839844 265.535156 186.839844 264.90625 L 186.839844 261.035156 L 185.683594 261.035156 L 185.683594 262.191406 L 186.792969 262.191406 C 187.097656 262.191406 187.394531 262.070312 187.613281 261.851562 C 187.824219 261.640625 187.949219 261.34375 187.949219 261.035156 L 187.949219 257.394531 L 186.792969 257.394531 L 186.765625 258.550781 L 187.875 258.574219 C 188.179688 258.582031 188.488281 258.460938 188.710938 258.246094 C 188.929688 258.03125 189.058594 257.730469 189.058594 257.417969 L 189.058594 253.632812 L 187.902344 253.632812 L 187.851562 254.789062 L 188.960938 254.835938 C 189.273438 254.847656 189.582031 254.730469 189.808594 254.515625 C 190.035156 254.292969 190.164062 253.992188 190.164062 253.679688 L 190.164062 251.128906 L 279.1875 258.574219 L 279.238281 258.574219 L 364.148438 262.09375 L 364.171875 264.625 C 364.175781 265.222656 364.636719 265.71875 365.230469 265.769531 L 367.519531 265.960938 L 366.351562 482.882812 L 367.507812 482.886719 L 367.507812 481.730469 L 367.15625 481.730469 C 366.851562 481.730469 366.554688 481.855469 366.339844 482.074219 C 366.117188 482.292969 366 482.589844 366.003906 482.898438 L 366.039062 487.34375 C 366.039062 487.726562 366.234375 488.085938 366.550781 488.296875 C 368.453125 489.570312 370.070312 491.046875 371.304688 492.804688 C 372.539062 494.566406 373.394531 496.609375 373.765625 499.09375 L 373.769531 499.113281 C 373.78125 499.183594 373.792969 499.320312 373.820312 499.503906 L 373.84375 499.632812 C 373.898438 499.824219 373.929688 500.027344 373.945312 500.269531 C 373.976562 500.875 374.476562 501.355469 375.082031 501.359375 C 375.695312 501.371094 376.203125 500.902344 376.253906 500.300781 C 376.328125 499.371094 376.492188 498.511719 376.734375 497.71875 L 376.746094 497.664062 C 377.78125 493.554688 380.28125 490.640625 383.691406 488.324219 C 384.007812 488.117188 384.199219 487.753906 384.203125 487.378906 L 384.238281 482.898438 C 384.238281 482.589844 384.121094 482.292969 383.90625 482.074219 C 383.6875 481.855469 383.390625 481.730469 383.082031 481.730469 L 382.726562 481.730469 L 382.726562 482.886719 L 383.882812 482.882812 L 382.722656 265.960938 L 385.007812 265.769531 C 385.605469 265.71875 386.066406 265.222656 386.070312 264.625 L 386.09375 262.09375 L 471.007812 258.574219 L 471.050781 258.574219 L 560.074219 251.128906 L 560.074219 253.679688 C 560.074219 253.992188 560.207031 254.292969 560.433594 254.515625 C 560.65625 254.730469 560.964844 254.847656 561.28125 254.835938 L 562.390625 254.789062 L 562.34375 253.632812 L 561.1875 253.632812 L 561.1875 257.417969 C 561.1875 257.730469 561.3125 258.03125 561.535156 258.246094 C 561.757812 258.460938 562.058594 258.582031 562.371094 258.574219 L 563.476562 258.550781 L 563.449219 257.394531 L 562.292969 257.394531 L 562.292969 261.035156 C 562.292969 261.34375 562.417969 261.640625 562.632812 261.851562 C 562.851562 262.070312 563.148438 262.191406 563.449219 262.191406 L 564.558594 262.191406 L 564.558594 261.035156 L 563.402344 261.035156 L 563.402344 264.90625 C 563.402344 265.535156 563.90625 266.046875 564.535156 266.0625 L 564.558594 264.90625 "/>
<path style=" stroke:none;fill-rule:nonzero;fill:rgb(100%,100%,100%);fill-opacity:1;" d="M 375.132812 276.65625 C 375.140625 276.355469 375.128906 275.886719 375.050781 275.304688 C 375.070312 275.632812 375.082031 275.96875 375.09375 276.304688 L 374.808594 274.042969 C 374.925781 274.507812 375.003906 274.925781 375.050781 275.304688 C 374.957031 273.78125 374.746094 272.347656 374.429688 271.003906 L 374.425781 270.976562 L 374.417969 270.96875 C 368.972656 248.113281 332.800781 249.898438 332.800781 249.898438 C 332.800781 249.898438 287.964844 250.566406 285.089844 250.910156 C 284.882812 250.933594 284.609375 250.949219 284.292969 250.96875 L 190.113281 246.105469 L 190.113281 479.121094 L 267.140625 480.191406 L 299.585938 479.035156 C 304.617188 479.082031 310.363281 479.117188 316.941406 479.125 C 360.84375 479.167969 371.695312 491.195312 374.320312 498.011719 L 375.125 500.5 L 375.132812 276.65625 "/>
<g clip-path="url(#clip6)" clip-rule="nonzero">
<path style=" stroke:none;fill-rule:nonzero;fill:rgb(13.729858%,12.159729%,12.548828%);fill-opacity:1;" d="M 375.132812 276.65625 L 376.289062 276.683594 L 376.289062 276.507812 C 376.289062 276.160156 376.273438 275.699219 376.195312 275.152344 C 376.113281 274.535156 375.554688 274.089844 374.933594 274.15625 C 374.3125 274.21875 373.855469 274.757812 373.894531 275.382812 C 373.914062 275.683594 373.925781 276.007812 373.9375 276.34375 L 375.09375 276.304688 L 376.242188 276.160156 L 375.957031 273.898438 L 374.808594 274.042969 L 373.6875 274.324219 C 373.792969 274.746094 373.859375 275.121094 373.902344 275.449219 C 373.980469 276.070312 374.535156 276.515625 375.15625 276.457031 C 375.78125 276.398438 376.242188 275.855469 376.203125 275.234375 C 376.105469 273.648438 375.886719 272.148438 375.554688 270.734375 L 374.429688 271.003906 L 375.566406 270.792969 L 375.5625 270.773438 C 375.542969 270.664062 375.507812 270.554688 375.457031 270.460938 L 375.453125 270.453125 L 374.417969 270.96875 L 375.542969 270.703125 C 374.3125 265.511719 371.535156 261.488281 368.007812 258.457031 C 362.710938 253.90625 355.761719 251.503906 349.453125 250.203125 C 343.136719 248.902344 337.445312 248.710938 334.621094 248.710938 C 333.441406 248.710938 332.761719 248.746094 332.75 248.746094 L 332.800781 249.898438 L 332.785156 248.742188 C 332.785156 248.742188 321.574219 248.910156 310.003906 249.121094 C 304.21875 249.226562 298.339844 249.34375 293.730469 249.453125 C 291.425781 249.511719 289.433594 249.566406 287.925781 249.613281 C 287.171875 249.640625 286.539062 249.664062 286.042969 249.691406 C 285.546875 249.714844 285.203125 249.734375 284.953125 249.761719 L 285.089844 250.910156 L 284.96875 249.761719 C 284.796875 249.78125 284.539062 249.800781 284.226562 249.816406 L 284.292969 250.96875 L 284.351562 249.816406 L 190.179688 244.949219 C 189.863281 244.9375 189.550781 245.046875 189.320312 245.265625 C 189.089844 245.488281 188.957031 245.785156 188.957031 246.105469 L 188.957031 479.121094 C 188.957031 479.753906 189.46875 480.265625 190.101562 480.277344 L 267.121094 481.347656 L 267.179688 481.347656 L 299.628906 480.191406 L 299.585938 479.035156 L 299.574219 480.191406 C 304.609375 480.238281 310.359375 480.269531 316.941406 480.28125 C 338.785156 480.296875 352.320312 483.316406 360.632812 487.082031 C 368.941406 490.855469 372.027344 495.3125 373.238281 498.425781 L 374.320312 498.011719 L 373.21875 498.367188 L 374.023438 500.855469 C 374.199219 501.398438 374.742188 501.726562 375.304688 501.640625 C 375.867188 501.550781 376.28125 501.066406 376.28125 500.5 L 376.289062 276.65625 L 375.132812 276.65625 L 376.289062 276.683594 L 375.132812 276.65625 L 373.976562 276.65625 L 373.96875 500.5 L 375.125 500.5 L 376.222656 500.140625 L 375.417969 497.652344 L 375.394531 497.59375 C 373.980469 493.890625 370.328125 488.925781 361.585938 484.976562 C 352.835938 481.015625 339 477.992188 316.941406 477.96875 C 310.371094 477.960938 304.625 477.925781 299.597656 477.878906 L 299.546875 477.878906 L 267.125 479.035156 L 191.273438 477.976562 L 191.273438 247.320312 L 284.234375 252.125 L 284.363281 252.125 C 284.683594 252.105469 284.96875 252.089844 285.214844 252.0625 L 285.230469 252.0625 C 285.34375 252.042969 285.6875 252.019531 286.15625 252 C 289.757812 251.824219 301.453125 251.585938 312.207031 251.394531 C 317.589844 251.296875 322.742188 251.214844 326.550781 251.152344 C 330.359375 251.09375 332.816406 251.054688 332.820312 251.054688 L 332.863281 251.054688 L 332.96875 251.050781 C 333.195312 251.042969 333.769531 251.023438 334.621094 251.023438 C 338.242188 251.019531 346.921875 251.363281 355.160156 254.101562 C 359.28125 255.472656 363.273438 257.4375 366.496094 260.207031 C 369.71875 262.984375 372.171875 266.546875 373.292969 271.238281 L 373.382812 271.484375 L 373.390625 271.496094 L 374.425781 270.976562 L 373.285156 271.183594 L 373.289062 271.210938 L 373.304688 271.269531 C 373.605469 272.546875 373.804688 273.910156 373.894531 275.378906 L 375.050781 275.304688 L 376.199219 275.160156 C 376.144531 274.738281 376.058594 274.265625 375.929688 273.757812 C 375.78125 273.164062 375.191406 272.796875 374.589844 272.90625 C 373.996094 273.019531 373.582031 273.582031 373.660156 274.1875 L 373.945312 276.449219 C 374.023438 277.0625 374.570312 277.503906 375.1875 277.460938 C 375.800781 277.410156 376.273438 276.882812 376.25 276.269531 C 376.242188 275.929688 376.226562 275.582031 376.203125 275.230469 L 375.050781 275.304688 L 373.902344 275.460938 C 373.964844 275.898438 373.976562 276.253906 373.976562 276.507812 L 373.976562 276.65625 L 375.132812 276.65625 "/>
</g>
<path style=" stroke:none;fill-rule:nonzero;fill:rgb(100%,100%,100%);fill-opacity:1;" d="M 465.945312 250.96875 C 465.628906 250.949219 465.359375 250.933594 465.15625 250.910156 C 462.277344 250.566406 417.4375 249.898438 417.4375 249.898438 C 417.4375 249.898438 381.269531 248.113281 375.820312 270.96875 L 375.816406 270.976562 L 375.8125 271.003906 C 375.496094 272.347656 375.289062 273.78125 375.191406 275.304688 C 375.242188 274.925781 375.3125 274.507812 375.433594 274.042969 L 375.148438 276.304688 C 375.15625 275.96875 375.167969 275.632812 375.191406 275.304688 C 375.109375 275.886719 375.101562 276.355469 375.105469 276.65625 L 375.125 500.5 L 375.925781 498.011719 C 378.550781 491.195312 389.394531 479.167969 433.296875 479.125 C 439.878906 479.117188 445.628906 479.082031 450.652344 479.035156 L 483.101562 480.191406 L 560.125 479.121094 L 560.125 246.105469 L 465.945312 250.96875 "/>
<g clip-path="url(#clip7)" clip-rule="nonzero">
<path style=" stroke:none;fill-rule:nonzero;fill:rgb(13.729858%,12.159729%,12.548828%);fill-opacity:1;" d="M 465.945312 250.96875 L 466.011719 249.816406 C 465.703125 249.800781 465.445312 249.78125 465.28125 249.761719 L 465.289062 249.761719 C 465.042969 249.734375 464.699219 249.714844 464.203125 249.691406 C 460.507812 249.511719 448.851562 249.277344 438.078125 249.082031 C 427.308594 248.890625 417.457031 248.742188 417.457031 248.742188 L 417.4375 249.898438 L 417.496094 248.746094 C 417.476562 248.746094 416.800781 248.710938 415.625 248.710938 C 411.855469 248.714844 402.988281 249.039062 394.351562 251.910156 C 390.03125 253.34375 385.761719 255.421875 382.234375 258.457031 C 378.703125 261.488281 375.929688 265.511719 374.695312 270.703125 L 375.820312 270.96875 L 374.722656 270.605469 L 374.71875 270.609375 L 374.691406 270.722656 L 374.679688 270.746094 L 374.6875 270.734375 C 374.351562 272.148438 374.132812 273.648438 374.035156 275.234375 C 374 275.855469 374.460938 276.398438 375.078125 276.457031 C 375.703125 276.515625 376.257812 276.074219 376.339844 275.449219 C 376.378906 275.117188 376.449219 274.742188 376.550781 274.324219 L 375.433594 274.042969 L 374.285156 273.902344 L 374 276.164062 L 375.148438 276.304688 L 376.304688 276.335938 C 376.3125 276.007812 376.328125 275.683594 376.34375 275.382812 C 376.386719 274.757812 375.929688 274.21875 375.304688 274.15625 C 374.6875 274.089844 374.128906 274.535156 374.042969 275.152344 C 373.96875 275.703125 373.949219 276.164062 373.949219 276.511719 L 373.949219 276.683594 L 375.105469 276.65625 L 373.949219 276.65625 L 373.96875 500.5 C 373.96875 501.066406 374.382812 501.550781 374.945312 501.640625 C 375.507812 501.726562 376.050781 501.394531 376.222656 500.851562 L 377.023438 498.363281 L 375.925781 498.011719 L 377 498.425781 C 378.210938 495.3125 381.296875 490.855469 389.613281 487.082031 C 397.917969 483.316406 411.453125 480.296875 433.300781 480.28125 C 439.882812 480.269531 445.632812 480.238281 450.667969 480.191406 L 450.652344 479.035156 L 450.613281 480.191406 L 483.058594 481.347656 L 483.117188 481.347656 L 560.136719 480.277344 C 560.769531 480.265625 561.28125 479.753906 561.28125 479.121094 L 561.28125 246.105469 C 561.28125 245.785156 561.152344 245.488281 560.921875 245.265625 C 560.691406 245.046875 560.382812 244.9375 560.066406 244.949219 L 465.886719 249.816406 L 465.945312 250.96875 L 466.011719 249.816406 L 465.945312 250.96875 L 466.003906 252.125 L 558.96875 247.320312 L 558.96875 477.976562 L 483.113281 479.035156 L 450.695312 477.878906 L 450.644531 477.878906 C 445.617188 477.925781 439.871094 477.960938 433.296875 477.96875 C 411.242188 477.992188 397.402344 481.015625 388.65625 484.976562 C 379.910156 488.925781 376.257812 493.890625 374.84375 497.59375 L 374.820312 497.65625 L 374.023438 500.148438 L 375.125 500.5 L 376.28125 500.5 L 376.261719 276.65625 L 376.261719 276.511719 C 376.261719 276.261719 376.277344 275.902344 376.335938 275.460938 L 375.191406 275.304688 L 374.035156 275.230469 C 374.011719 275.582031 374 275.929688 373.988281 276.273438 C 373.976562 276.890625 374.445312 277.410156 375.0625 277.460938 C 375.675781 277.503906 376.21875 277.0625 376.292969 276.449219 L 376.578125 274.1875 C 376.65625 273.582031 376.246094 273.019531 375.644531 272.90625 C 375.046875 272.796875 374.460938 273.164062 374.3125 273.757812 C 374.179688 274.273438 374.097656 274.742188 374.042969 275.15625 L 375.191406 275.304688 L 376.34375 275.378906 C 376.433594 273.910156 376.636719 272.546875 376.9375 271.269531 L 376.941406 271.257812 L 376.945312 271.234375 L 375.816406 270.976562 L 376.914062 271.339844 L 376.917969 271.335938 L 376.945312 271.238281 C 378.066406 266.546875 380.519531 262.984375 383.742188 260.207031 C 388.570312 256.046875 395.167969 253.714844 401.257812 252.464844 C 407.347656 251.207031 412.90625 251.023438 415.625 251.023438 C 416.191406 251.023438 416.632812 251.03125 416.929688 251.042969 C 417.085938 251.046875 417.199219 251.046875 417.273438 251.050781 L 417.378906 251.054688 L 417.417969 251.054688 C 417.429688 251.054688 420.222656 251.101562 424.46875 251.167969 C 430.839844 251.265625 440.46875 251.429688 448.769531 251.597656 C 452.917969 251.683594 456.734375 251.769531 459.652344 251.84375 C 461.105469 251.886719 462.335938 251.925781 463.265625 251.960938 C 464.183594 252 464.839844 252.035156 465.015625 252.0625 L 465.023438 252.0625 C 465.273438 252.089844 465.558594 252.105469 465.878906 252.125 L 466.003906 252.125 L 465.945312 250.96875 "/>
</g>
</g>
</svg>
