<?xml version="1.0" encoding="UTF-8"?>
<svg xmlns="http://www.w3.org/2000/svg" xmlns:xlink="http://www.w3.org/1999/xlink" viewBox="0 0 30 30" width="30px" height="30px">
<g id="surface16586602">
<path style=" stroke:none;fill-rule:nonzero;fill:rgb(0%,0%,0%);fill-opacity:1;" d="M 15 0.121094 C 6.78125 0.121094 0.121094 6.78125 0.121094 15 C 0.121094 21.972656 4.921875 27.808594 11.394531 29.421875 C 11.324219 29.21875 11.28125 28.988281 11.28125 28.699219 L 11.28125 26.15625 C 10.675781 26.15625 9.664062 26.15625 9.410156 26.15625 C 8.390625 26.15625 7.488281 25.71875 7.046875 24.902344 C 6.5625 24 6.476562 22.617188 5.269531 21.773438 C 4.910156 21.488281 5.183594 21.167969 5.597656 21.210938 C 6.359375 21.429688 6.992188 21.953125 7.585938 22.726562 C 8.179688 23.503906 8.457031 23.679688 9.566406 23.679688 C 10.101562 23.679688 10.90625 23.648438 11.660156 23.53125 C 12.070312 22.5 12.773438 21.546875 13.632812 21.097656 C 8.675781 20.589844 6.3125 18.125 6.3125 14.777344 C 6.3125 13.335938 6.925781 11.941406 7.96875 10.769531 C 7.625 9.601562 7.195312 7.226562 8.097656 6.320312 C 10.328125 6.320312 11.675781 7.765625 12 8.15625 C 13.113281 7.777344 14.332031 7.558594 15.613281 7.558594 C 16.898438 7.558594 18.125 7.777344 19.238281 8.160156 C 19.558594 7.769531 20.90625 6.320312 23.140625 6.320312 C 24.046875 7.226562 23.613281 9.613281 23.265625 10.777344 C 24.304688 11.949219 24.914062 13.339844 24.914062 14.777344 C 24.914062 18.121094 22.554688 20.585938 17.605469 21.097656 C 18.964844 21.808594 19.960938 23.804688 19.960938 25.308594 L 19.960938 28.699219 C 19.960938 28.828125 19.929688 28.921875 19.917969 29.03125 C 25.714844 27 29.878906 21.492188 29.878906 15 C 29.878906 6.78125 23.21875 0.121094 15 0.121094 Z M 15 0.121094 "/>
</g>
</svg>
