<svg xmlns="http://www.w3.org/2000/svg" width="37.5" height="37.5" version="1.0"><defs><clipPath id="a"><path d="M0 .375h37.008V37H0Zm0 0"/></clipPath></defs><g clip-path="url(#a)"><path fill="#161614" d="M18.75.387C8.395.387 0 8.78 0 19.137c0 8.285 5.371 15.316 12.824 17.793.934.175 1.281-.407 1.281-.903 0-.445-.02-1.922-.027-3.492-5.215 1.137-6.316-2.21-6.316-2.21-.852-2.169-2.082-2.743-2.082-2.743-1.703-1.164.129-1.14.129-1.14 1.882.132 2.875 1.933 2.875 1.933 1.671 2.867 4.382 2.035 5.453 1.559.168-1.211.656-2.04 1.191-2.508-4.164-.473-8.543-2.082-8.543-9.266 0-2.047.735-3.723 1.934-5.035-.196-.473-.836-2.379.18-4.96 0 0 1.574-.505 5.16 1.92a17.859 17.859 0 0 1 9.39 0c3.578-2.425 5.149-1.92 5.149-1.92 1.02 2.581.379 4.487.183 4.96 1.203 1.313 1.93 2.988 1.93 5.035 0 7.2-4.387 8.785-8.563 9.25.672.582 1.274 1.723 1.274 3.473 0 2.508-.02 4.527-.02 5.144 0 .5.336 1.086 1.285.899 7.446-2.48 12.813-9.504 12.813-17.79C37.5 8.782 29.105.387 18.75.387ZM7.023 27.097c-.043.094-.187.122-.32.06-.137-.063-.215-.188-.172-.282.043-.098.188-.125.324-.059.137.059.215.188.168.282Zm.922.825c-.09.082-.265.043-.383-.086-.125-.133-.144-.309-.054-.39.09-.083.262-.044.383.085.125.133.148.305.054.39Zm.633 1.05c-.117.083-.305.008-.418-.16-.117-.167-.117-.367 0-.449.117-.078.3-.004.422.16.113.168.113.368-.004.45Zm1.07 1.22c-.101.113-.324.085-.484-.07-.164-.153-.207-.368-.105-.481.105-.11.324-.082.484.074.164.148.215.367.105.476Zm1.383.413c-.047.145-.258.215-.469.149-.21-.063-.351-.234-.308-.383.043-.148.258-.219.469-.148.214.062.351.234.308.382Zm1.574.172c.004.157-.175.285-.398.29-.223.003-.406-.122-.41-.274 0-.156.18-.285.402-.285.223-.004.406.117.406.27Zm1.547-.054c.024.148-.129.304-.351.343-.219.043-.418-.05-.446-.203-.027-.152.13-.308.348-.347.223-.04.418.05.45.203Zm0 0"/></g></svg>