<svg xmlns="http://www.w3.org/2000/svg" width="37.5" height="37.5" version="1.0"><defs><clipPath id="a"><path d="M0 3.137h37.008v31.5H0Zm0 0"/></clipPath></defs><g clip-path="url(#a)"><path d="M33.625 11.602c.02.332.02.664.02 1 0 10.234-7.72 22.03-21.836 22.03v-.003c-4.168.008-8.25-1.2-11.762-3.473.605.074 1.215.11 1.828.114a15.334 15.334 0 0 0 9.531-3.32c-3.285-.063-6.164-2.227-7.172-5.38a7.582 7.582 0 0 0 3.465-.133c-3.578-.73-6.156-3.906-6.156-7.59v-.097a7.625 7.625 0 0 0 3.484.969c-3.37-2.274-4.41-6.801-2.375-10.34a21.71 21.71 0 0 0 15.817 8.09 7.788 7.788 0 0 1 2.218-7.399 7.635 7.635 0 0 1 10.86.336 15.294 15.294 0 0 0 4.871-1.879 7.732 7.732 0 0 1-3.371 4.282c1.52-.18 3.008-.59 4.406-1.22a15.716 15.716 0 0 1-3.828 4.013Zm0 0"/></g></svg>