<?xml version="1.0" standalone="no"?>
<!DOCTYPE svg PUBLIC "-//W3C//DTD SVG 1.1//EN" "http://www.w3.org/Graphics/SVG/1.1/DTD/svg11.dtd" >
<svg>
<metadata>
Created by FontForge 20090914 at Fri Feb 24 12:10:47 2012
 By root
Copyright (c) 2009-2011, Philippe Cochy,,,(http://pecita.com),
with Reserved Font Name Pecita.
</metadata>
<defs>
<font id="Pecita" horiz-adv-x="480" >
  <font-face 
    font-family="Pecita"
    font-weight="400"
    font-stretch="semi-expanded"
    units-per-em="1000"
    panose-1="3 8 5 3 0 0 0 0 0 0"
    ascent="800"
    descent="-200"
    x-height="328"
    cap-height="586"
    bbox="-700 -342 1832 892"
    underline-thickness="60"
    underline-position="-360"
    unicode-range="U+0020-U+FFFD"
  />
<missing-glyph horiz-adv-x="500" 
d="M50 0v458h400v-458h-400zM100 50h300v358h-300v-358z" />
    <glyph glyph-name="aeacute" unicode="a&#xe9;" horiz-adv-x="780" 
d="M660 658q0 -5 -5 -20q-40 -117 -101 -178q-10 -10 -24 -10q-30 0 -30 30q0 11 11 22q50 50 87 156q9 30 32 30q30 0 30 -30zM440 137q0 85 35 134t80 49t75 -30t30 -70q0 -79 -139 -124q35 -36 119 -36q49 0 118 23q21 7 24 7q30 0 30 -30q0 -22 -30 -32
q-84 -28 -142 -28t-108 19t-74 60q-46 -9 -58 -9q-29 0 -46.5 20t-21.5 37q-32 -55 -103 -99q-45 -28 -87 -28t-72 30t-30 70q0 65 46.5 127t109.5 97.5t110.5 35.5t75.5 -16.5t28 -33.5q0 -30 -30 -30q-6 0 -24 10t-48 10t-78.5 -26t-89 -74.5t-40.5 -99.5q0 -15 12 -27.5
t28 -12.5q73 0 147 107q8 11 17 25q8 16 12 22q11 17 26.5 16.5t24 -13t16.5 -50t17 -37.5q5 0 40 7zM501 152q99 32 99 68q0 15 -12.5 27.5t-30.5 12.5t-37 -29t-19 -79z" />
    <glyph glyph-name="b_a" unicode="ba" horiz-adv-x="960" 
d="M928 80l34 10q30 0 30 -30q0 -22 -27 -31t-37 -9q-64 0 -86 82q-66 -102 -190 -102q-56 0 -94 32t-38 104q0 100 57 162t136 62t128 -44q31 -28 31 -42q0 -30 -30 -30q-11 0 -42 28t-85 28t-94.5 -43t-40.5 -121q0 -44 19 -60t53 -16t61 9t45 27q34 30 64 86
q9 16 12.5 19t17.5 3q28 0 34 -29q16 -67 22 -81t20 -14zM160.5 364.5q-20.5 49.5 -20.5 102.5t22 96.5t54 69.5t65.5 40.5t58.5 14.5q65 0 107.5 -42t42.5 -106.5t-56.5 -117t-113.5 -52.5q-35 0 -57.5 12t-22.5 28q0 30 30 30q10 0 24 -5t26 -5q32 0 71 36t39 75t-24.5 63
t-64.5 24t-90.5 -45.5t-50.5 -112.5q0 -50 20.5 -93.5t50 -74t59.5 -58.5q70 -67 70 -118.5t-40 -83.5q-40 -33 -100 -47q-108 -25 -190 -25q-30 0 -30 30t30 30q117 0 211 35q59 22 59 55q0 19 -20.5 44t-50 53.5t-59 63t-50 84z" />
    <glyph glyph-name="c_a" unicode="ca" horiz-adv-x="900" 
d="M416 47q-125 -47 -202.5 -47t-125.5 49.5t-48 110.5q0 89 88 164.5t182 75.5q41 0 75.5 -17t34.5 -33q0 -30 -30 -30q-13 0 -33 10t-47 10q-70 0 -140 -57.5t-70 -122.5q0 -42 33.5 -71t86.5 -29t171 41q-1 6 -1 19q0 97 64.5 153.5t147.5 56.5q46 0 83 -17t37 -33
q0 -30 -30 -30q-6 0 -34 10t-56 10q-55 0 -103.5 -37.5t-48.5 -112.5q0 -22 14 -36t36 -14q59 0 120 36.5t79 62.5l14 21l12 18q5 6 9 12q7 11 16 10q25 0 35 -13.5t13 -50.5q8 -94 22.5 -94t33.5 4.5t33 9t15 4.5q30 0 30 -30q0 -22 -30 -32q-48 -16 -77.5 -16t-46.5 14.5
t-24 36.5q-12 38 -12 64q-16 -29 -92 -73t-150 -44q-52 0 -84 37z" />
    <glyph glyph-name="d_a" unicode="da" horiz-adv-x="960" 
d="M794 281q-4 1 -18 7q-31 13 -64 12q-52 0 -102 -47t-50 -123q0 -22 14 -36t31.5 -14t29.5 3t22.5 9.5t19 13t17.5 17.5l14.5 18t13 20l10.5 18.5t9 18.5q27 58 53 83zM500 130q0 98 66 164t146 66q46 0 83 -17t37 -33q0 -12 -7 -21q16 -4 23 -17.5t9 -34t3.5 -44.5
t3.5 -42q2 -17 4 -37q5 -41 12 -42q25 0 53 9t29 9q30 0 30 -30q0 -22 -30 -32q-48 -16 -77.5 -16t-46.5 24q-18 24 -24 58q-12 61 -12 93l-7 -14.5l-9 -18.5t-11.5 -20.5t-14.5 -23t-16.5 -22t-20 -21.5t-23.5 -18q-13 -9 -26 -15q-32 -14 -64 -14q-55 0 -87 40
q-54 7 -88.5 47.5t-42.5 99.5q-55 -91 -116.5 -149t-114.5 -58t-87 31.5t-34 114t54 148.5t126 66q40 0 88 -38q22 -18 22 -32q0 -30 -30 -30q-12 0 -16 4q-8 8 -17 14q-27 22 -47 22q-44 0 -82 -46.5t-38 -117.5q0 -45 14.5 -60.5t44.5 -15.5t75 42t89 107t75.5 155.5
t31.5 175.5q0 19 -5 39t-5 21q0 30 30 30q40 0 40 -88t-32 -192q-8 -64 -8 -106q0 -84 50 -114z" />
    <glyph glyph-name="f_a" unicode="fa" horiz-adv-x="880" 
d="M850 82l32 8q30 0 30 -30q0 -22 -30 -32q-18 -6 -38 -6t-39 16t-27 40q-16 43 -16 69q-20 -35 -83 -81t-139 -46q-38 0 -62.5 22.5t-27.5 59.5q-240 -280 -240 -384q0 -30 -30 -30t-30 29t5 55t5 38q0 156 -30 405.5t-30 300.5t25.5 92.5t79 41.5t89.5 -67t36 -163
q0 -48 -10 -90q-7 -30 -30 -30q-30 0 -30 30l5 34q5 34 5 56q0 75 -22.5 122.5t-47.5 47.5q-16 0 -28 -20.5t-12 -62.5t26.5 -257.5t31.5 -352.5q56 89 144 194l46.5 55.5l44.5 50.5l34 38q34 56 88.5 90.5t110 34.5t91 -37.5t35.5 -92.5q0 -10 -3 -16q11 -16 11 -34
q0 -98 30 -98zM750 239q-7 61 -68 61q-33 0 -76 -28t-69.5 -72.5t-26.5 -89.5q0 -30 30 -30q58 0 105 35q57 43 85 93q14 24 20 31z" />
    <glyph glyph-name="g_a" unicode="ga" horiz-adv-x="850" 
d="M580 230q0 24 -11 32t-49 8q-53 0 -106.5 -62.5t-53.5 -117.5q0 -30 30 -30t74 23t80 64t36 83zM640 230q0 -158 130 -158q25 0 53 9t29 9q30 0 30 -30q0 -22 -30 -32q-48 -16 -82 -16q-127 0 -171 109q-87 -100 -179 -118l-77 -33.5t-56 -24.5q69 -104 69 -167
q0 -40 -27.5 -65t-68.5 -25q-61 0 -115.5 51.5t-54.5 110.5q0 37 28 63.5t80 54.5l-46.5 64t-34.5 48.5t-25.5 39.5l-20 35.5t-17.5 37.5q-14 42 -14 67q0 60 31 100t79 40q33 0 61.5 -26t28.5 -44q0 -30 -30 -30q-10 0 -30 20t-30 20q-22 0 -36 -24.5t-14 -50t7.5 -48
t27 -54t32.5 -50l44.5 -61.5l41.5 -57l71 31q-24 26 -24 64q0 80 71.5 160t148.5 80q61 0 90.5 -23.5t29.5 -76.5zM233 -81q-83 -43 -83 -69q0 -35 36.5 -68.5t73 -33.5t36.5 30q0 48 -63 141z" />
    <glyph glyph-name="t_a" unicode="ta" horiz-adv-x="900" 
d="M50 510l-10 46q0 30 30 30q21 0 30.5 -26t9.5 -50.5t4.5 -77t9.5 -98.5t10.5 -91t6.5 -59.5t10 -49t18.5 -34.5t30.5 30q40 61 103.5 123.5t138.5 99.5q14 7 28 7q30 0 30 -30q0 -11 -7 -16.5t-23 -13.5q-68 -34 -126 -91.5t-95 -113t-77 -55.5t-63 41.5t-29 108.5
q0 1 -5.5 47.5t-10.5 93.5q-14 132 -14 179zM830 30q-27 0 -30 30q-2 21 -28 47q-18 -32 -73.5 -69.5t-128.5 -37.5q-47 0 -78.5 31.5t-31.5 78.5q0 79 61 139.5t141 60.5q45 0 77.5 -16.5t32.5 -33.5q0 -30 -30 -30q-6 0 -29 10t-51 10q-54 0 -98 -43t-44 -97q0 -22 14 -36
t36 -14q97 0 159 89q6 9 11.5 21t10 15.5t11.5 3.5t15 -4.5t12.5 -9l14.5 -15l14 -14.5q42 -42 42 -86q0 -30 -30 -30z" />
    <glyph glyph-name="v_a" unicode="va" horiz-adv-x="1060" 
d="M980 72q25 0 53 9t29 9q30 0 30 -30q0 -22 -30 -32q-48 -16 -82 -16q-46 0 -72 43.5t-26 71.5q-11 -19 -31 -40t-65 -44t-94.5 -23t-80.5 31t-31 79q0 100 57 165t135 65q46 0 83 -17t37 -33q0 -30 -30 -30q-6 0 -34 10t-56 10q-50 0 -91 -46.5t-41 -123.5q0 -22 14 -36
t40.5 -14t53 9.5t46.5 27.5q27 25 39 43l20 30l12 18q5 6 9 12q7 10 16 10q25 0 34.5 -13.5t13.5 -50.5q9 -94 42 -94zM367.5 55q-52.5 -55 -102 -55t-88 28t-61.5 75q-43 87 -55 187q-1 7 -1 20q0 30 30 30q15 0 21.5 -6.5t8.5 -22.5q32 -251 146 -251q27 0 65.5 45
t68.5 117t30 138q0 30 30 30t30 -30q0 -80 -35 -165t-87.5 -140z" />
    <glyph glyph-name="P_a" unicode="Pa" horiz-adv-x="960" 
d="M930 82l32 8q30 0 30 -30q0 -22 -30 -32q-18 -6 -35.5 -6t-33.5 8t-25 24q-15 26 -22 56l-4 17q-17 -29 -82.5 -68t-139.5 -39q-40 0 -70 30t-30 70q0 97 80 168.5t162 71.5q45 0 77.5 -16.5t32.5 -33.5q0 -30 -30 -30q-6 0 -29 10t-51 10q-54 0 -118 -52.5t-64 -127.5
q0 -15 12.5 -27.5t27.5 -12.5q59 0 110 31.5t65 52t23 37.5t13.5 22.5t19.5 5.5t23 -11t15 -34.5t14 -52.5t12.5 -39t14.5 -10zM120 360q0 125 58.5 213.5t167.5 88.5q75 0 129.5 -66.5t54.5 -135.5q0 -122 -254 -179q-15 -3 -16 -3q-30 0 -30 30q0 22 30 30q210 49 210 122
q0 46 -37 94t-90.5 48t-92.5 -36q-70 -66 -70 -206q0 -78 11 -173.5t26 -139.5q3 -9 3 -17q0 -30 -30 -30q-16 0 -24 14q-20 41 -33 149t-13 197z" />
    <glyph glyph-name="c_c" unicode="cc" horiz-adv-x="840" 
d="M424.5 104q-5.5 -6 -28.5 -23t-80 -34t-122 -17t-109.5 40t-44.5 99q0 87 55.5 139t134.5 52q35 0 72.5 -14t37.5 -36q0 -12 -9 -21t-21 -9t-31.5 10t-48.5 10q-55 0 -92.5 -35.5t-37.5 -94.5q0 -38 28 -59t73 -21t92 12.5t70.5 30t36.5 17.5q30 0 30 -30q0 -10 -5.5 -16
zM754.5 66q26.5 6 38 9t23 7l17 6t9.5 2q30 0 30 -30q0 -15 -36 -33q-22 -11 -69.5 -19t-86.5 -8q-110 0 -165 42.5t-55 107.5q0 88 57.5 149t132.5 61q38 0 74 -17t36 -33q0 -30 -30 -30q-9 0 -36.5 10t-43.5 10q-55 0 -92.5 -46t-37.5 -104q0 -42 41 -66t104 -24t89.5 6z
" />
    <glyph glyph-name="a_e" unicode="ae" horiz-adv-x="780" 
d="M440 137q0 85 35 134t80 49t75 -30t30 -70q0 -79 -139 -124q35 -36 119 -36q49 0 118 23q21 7 24 7q30 0 30 -30q0 -22 -30 -32q-84 -28 -142 -28t-108 19t-74 60q-46 -9 -58 -9q-29 0 -46.5 20t-21.5 37q-32 -55 -103 -99q-45 -28 -87 -28t-72 30t-30 70q0 65 46.5 127
t109.5 97.5t110.5 35.5t75.5 -16.5t28 -33.5q0 -30 -30 -30q-6 0 -24 10t-48 10t-78.5 -26t-89 -74.5t-40.5 -99.5q0 -15 12 -27.5t28 -12.5q73 0 147 107q8 11 17 25q8 16 12 22q11 17 26.5 16.5t24 -13t16.5 -50t17 -37.5q5 0 40 7zM501 152q99 32 99 68q0 15 -12.5 27.5
t-30.5 12.5t-37 -29t-19 -79z" />
    <glyph glyph-name="d_e" unicode="de" horiz-adv-x="880" 
d="M520 142q0 82 56 150t124 68q48 0 79 -27t31 -75t-39.5 -90t-84.5 -62t-75 -20q36 -26 107 -26t140 23q21 7 24 7q30 0 30 -30q0 -22 -30 -32q-84 -28 -162 -28q-62 0 -124 25q-34 14 -55 44t-21 73zM580 142q60 0 115 38t55 80q0 40 -46 40t-85 -49.5t-39 -108.5z
M310 201q0 39 -60 47q-11 2 -20 2q-52 0 -91 -42.5t-39 -87.5q0 -60 60 -60q47 0 87.5 36t62.5 105zM325 286q0 47 -17.5 156.5t-17.5 149t13 61.5t19.5 28.5t17.5 6.5q30 0 30 -30q0 -10 -10 -26.5t-10 -45.5t17.5 -138t17.5 -170t-27.5 -126t-80 -108.5t-113 -43.5
t-92.5 32t-32 88q0 73 58.5 131.5t124 58.5t102.5 -24z" />
    <glyph glyph-name="l_e" unicode="le" horiz-adv-x="880" 
d="M634 89q41 -29 98 -29t126 23q21 7 24 7q30 0 30 -30q0 -22 -30 -32q-84 -28 -142 -28q-104 0 -165 60q-72 -30 -158.5 -45t-146.5 -15q-82 0 -136 57.5t-54 160.5t39.5 215.5t100.5 183.5t115.5 71t84.5 -47.5t30 -94.5q0 -80 -43 -144t-111 -87q-15 -5 -26 -5
q-30 0 -30 30q0 19 39 32q39 14 66 46q45 54 45 128q0 28 -14.5 55t-35.5 27t-54 -32.5t-66 -85.5t-56.5 -134.5t-23.5 -159.5t36.5 -117t90 -39t131.5 13t142 37q-20 45 -20 97.5t30 92.5t74 40t72.5 -36t28.5 -79q0 -80 -91 -136zM595 136q70 40 70 89q0 18 -11.5 36.5
t-28 18.5t-31 -20.5t-14.5 -56t15 -67.5z" />
    <glyph glyph-name="n_e" unicode="ne" horiz-adv-x="1030" 
d="M788 158q31 24 46.5 49.5t15.5 41.5t-12.5 28.5t-28 12.5t-27.5 -13t-12 -47t18 -72zM81 106.5q-29 -58.5 -51.5 -67.5t-31.5 -9q-30 0 -30 30q0 19 30 31q25 9 67 127q15 42 43 77t63 35t67 -35t32 -125t30 -90q8 0 13.5 10.5t8.5 17.5t6 18l6 18q5 23 8 32
q36 144 118 144q43 0 80.5 -36.5t48.5 -99.5q4 -26 27 -45t58.5 -19t60.5 9q-25 52 -25 109.5t28 84.5t70 27t72 -30t30 -66.5t-22.5 -74.5t-65.5 -70q42 -39 94.5 -39t82.5 10t33 10q30 0 30 -30q0 -22 -30 -32q-54 -18 -112 -18q-91 0 -151 68q-44 -18 -94 -18t-93 30.5
t-50.5 76t-27.5 69.5t-44 24q-34 0 -60 -101q-18 -79 -42 -109t-63 -30t-62 42t-23 101t-12 83t-28 24q-14 0 -37 -52.5t-52 -111z" />
    <glyph glyph-name="p_e" unicode="pe" horiz-adv-x="880" 
d="M199 -80q-1 84 -6 277q-43 -61 -43 -112t49 -165zM191 285l-1 45q0 30 30 30t30 -31q54 31 111.5 31t93 -34.5t35.5 -95.5q0 -37 -25.5 -70.5t-70 -51.5t-44.5 -28q0 -12 31 -12q89 0 200 33q-31 46 -31 96t33.5 81.5t81.5 31.5t79 -33t31 -82q0 -65 -78 -111
q36 -14 79 -14t73 10t33 10q30 0 30 -30q0 -22 -30 -32q-54 -18 -112 -18q-81 0 -141 43q-122 -43 -249 -43q-39 0 -64.5 18t-25.5 48.5t20 49.5q20 20 54 34q66 27 66 70q0 70 -70 70q-54 0 -109 -42q9 -336 9 -540q0 -30 -30 -30t-30 30q0 48 -55 175.5t-55 183.5t28 111
t73 97zM640 122q75 32 75 73q0 23 -14 39t-36.5 16t-38.5 -14t-16 -36q0 -45 30 -78z" />
    <glyph glyph-name="s_e" unicode="se" horiz-adv-x="940" 
d="M690 125q100 62 100 125q0 20 -15 35t-39 15t-40 -33t-16 -72t10 -70zM380 0q-30 0 -30 30t31 30t60 26t29 67t-51.5 94t-111.5 53t-133.5 -56t-73.5 -114q0 -21 10 -41t10 -29q0 -30 -30 -30q-16 0 -33 34t-17 66q0 82 91 156t175 74t154 -71t70 -133t-39 -104
q74 8 145 44q-16 46 -16 106t32.5 109t82.5 49t82.5 -32.5t32.5 -77.5q0 -98 -134 -180q13 -20 58 -20t144 33q21 7 24 7q30 0 30 -30q0 -22 -30 -32q-114 -38 -162 -38q-82 0 -117 52q-26 -13 -88.5 -32.5t-114.5 -19.5q-17 0 -44 5t-36 5z" />
    <glyph glyph-name="t_e" unicode="te" horiz-adv-x="820" 
d="M590 138q60 58 60 122q0 16 -12 28t-31 12t-33 -17t-14 -43q0 -59 30 -102zM241 390l-1 -30q0 -130 31 -208q37 -93 149 -92q59 0 123 41q-43 60 -43 139q0 57 33 88.5t75 31.5t72 -30t30 -70q0 -87 -77 -164q39 -26 82.5 -26t73.5 10t33 10q30 0 30 -30q0 -22 -30 -32
q-54 -18 -115 -18t-122 47q-81 -57 -165 -57q-202 0 -234 248q-6 50 -6 112v25q-22 -3 -30 -3q-30 0 -30 30q0 11 8 19.5t15.5 9.5t14 2l13 2l13.5 2q6 80 6 101q0 38 30 38t30 -30q0 -26 -6 -106q70 2 126 2q30 0 30 -30t-30 -30q-99 0 -129 -2z" />
    <glyph glyph-name="v_e" unicode="ve" horiz-adv-x="980" 
d="M645 150q-39 1 -69 14q-28 12 -42 27q-35 39 -54 39q-32 0 -40 -30q-20 -94 -47 -140q-35 -60 -87 -60q-73 0 -122 76q-44 68 -78 168q-26 76 -26 86q0 30 30 30q14 0 19.5 -6t11.5 -23q50 -151 74 -195q41 -76 91 -76q43 0 76 154q20 76 97 76q28 0 48 -12t30.5 -26.5
t31.5 -27t51 -14.5q6 190 130 190q57 0 88.5 -33t31.5 -77t-28 -81q-35 -47 -155 -57q14 -40 49.5 -66t63.5 -26q69 0 138 23q21 7 24 7q30 0 30 -30q0 -22 -30 -32q-84 -28 -162 -28q-48 0 -103.5 42t-71.5 108zM700 212q88 6 112 32q18 20 18 46q0 50 -60 50
q-67 0 -70 -128z" />
    <glyph glyph-name="C_e" unicode="Ce" horiz-adv-x="880" 
d="M370 490l10 40q0 30 -30 30q-40 0 -84 -57.5t-75 -155t-31 -197.5q0 -92 46 -148q26 -32 68.5 -32t108 25.5t123.5 66.5q-26 43 -26 107.5t32 112.5t77.5 48t73 -27.5t27.5 -72.5q0 -86 -96 -174q26 -16 60 -16t106.5 17.5t95.5 25t26 7.5q30 0 30 -30q0 -22 -28 -31.5
t-109 -29t-115 -19.5q-66 0 -114 37q-66 -48 -141 -77.5t-123.5 -29.5t-79 18t-48.5 44q-20 26 -32 60q-22 60 -22 118q0 119 36 228.5t94.5 175.5t119.5 66q40 0 65 -25t25 -57t-11 -55t-29 -23q-30 0 -30 30zM553 100q77 70 77 130q0 40 -40 40q-19 0 -34.5 -35
t-15.5 -72.5t13 -62.5z" />
    <glyph glyph-name="P_e" unicode="Pe" horiz-adv-x="880" 
d="M120 360q0 125 58.5 213.5t167.5 88.5q75 0 129.5 -66.5t54.5 -135.5q0 -122 -254 -179q-15 -3 -16 -3q-30 0 -30 30q0 22 30 30q210 49 210 122q0 46 -37 94t-90.5 48t-92.5 -36q-70 -66 -70 -206q0 -78 11 -173.5t26 -139.5q3 -9 3 -17q0 -30 -30 -30q-16 0 -24 14
q-20 41 -33 149t-13 197zM520 142q0 82 56 150t124 68q48 0 79 -27t31 -75t-39.5 -90t-84.5 -62t-75 -20q36 -26 107 -26t140 23q21 7 24 7q30 0 30 -30q0 -22 -30 -32q-84 -28 -162 -28q-62 0 -124 25q-34 14 -55 44t-21 73zM580 142q60 0 115 38t55 80q0 40 -46 40
t-85 -49.5t-39 -108.5z" />
    <glyph glyph-name="o_f" unicode="of" horiz-adv-x="880" 
d="M620 98l-70 -8q-30 0 -30 30q0 25 30 30q27 5 72 8q1 25 14.5 152t13.5 246q0 30 30 30q18 0 24 -7.5t6 -22.5q0 -119 -14 -253t-14 -141q80 8 128 8q30 0 30 -30t-30 -30q-50 0 -130 -8v-42q0 -60 21 -128q29 -94 29 -112q0 -30 -30 -30q-22 0 -30 30q-4 17 -20 71
q-30 101 -30 169v38zM140 271q-40 -54 -40 -100t38 -78.5t92 -32.5q39 0 66 14q54 26 54 78t-27.5 85t-72.5 33q-24 0 -48.5 -15t-31.5 -15q-30 0 -30 31zM164 303q44 27 86 27q68 0 114 -51t46 -126.5t-55.5 -114t-131 -38.5t-129.5 52t-54 118q0 33 15 69t24 49t31 42.5
t40 29.5q30 0 30 -30q0 -6 -16 -27z" />
    <glyph glyph-name="t_h" unicode="th" horiz-adv-x="960" 
d="M992 60q0 -40 -92 -40q-43 0 -66.5 19t-23.5 66t-8 81t-22 34q-49 0 -99 -78q-21 -32 -44.5 -64.5t-56 -55t-70.5 -22.5q-83 0 -89 148q-50 -29 -72 -34.5l-37.5 -9.5t-27 -6.5t-31.5 -20.5t-40 -32.5t-43 -14.5q-40 0 -65 42.5t-25 103t15 223t15 259.5q0 13 8.5 21.5
t21.5 8.5q30 0 30 -30q0 -99 -15 -266.5t-15 -203.5t8 -67t22 -31q6 0 20 14q43 43 100 57q66 18 131 57q8 177 64.5 302.5t134.5 125.5q54 0 82 -39t28 -103t-31.5 -125.5t-80.5 -98.5q-74 -56 -138 -96q0 -124 30 -124q43 0 95 78l47 64q58 78 128 78q90 0 90 -170
q0 -30 29.5 -30t44.5 5t18 5q30 0 30 -30zM484 258q42 26 86 60q100 75 100 198q0 27 -12 48.5t-38 21.5q-41 0 -82 -94t-54 -234z" />
    <glyph glyph-name="c_i" unicode="ci" horiz-adv-x="840" 
d="M710 496q16 0 33 -14.5t17 -30t-12.5 -23.5t-28.5 -8t-27.5 14.5t-11.5 31.5q0 30 30 30zM230 90q70 0 147.5 22.5t145.5 45t117 22.5q59 0 90 -77q0 -4 3.5 -9.5t5.5 -10t4 -5.5q3 -2 5 -4q5 -4 18 -4t43 10t33 10q30 0 30 -30q0 -22 -30 -32q-54 -18 -82 -18
q-56 0 -85 70q-1 1 -3 7t-4 10t-3 5.5t-2.5 4.5t-3 4.5t-4 3.5t-4.5 3q-4 2 -11 2q-46 0 -112 -22.5t-144.5 -45t-146.5 -22.5t-112.5 40t-44.5 99q0 87 55.5 139t134.5 52q35 0 72.5 -14t37.5 -36q0 -12 -9 -21t-21 -9t-31.5 10t-48.5 10q-55 0 -92.5 -35.5t-37.5 -94.5
q0 -38 28 -59t62 -21z" />
    <glyph glyph-name="d_i" unicode="di" horiz-adv-x="900" 
d="M519 46q-45 -26 -95.5 -26t-79 33t-32.5 78q-66 -131 -150 -131q-54 0 -88 31.5t-34 114t54 148.5t126 66q41 0 96 -45q18 204 73 343q12 30 31 30q30 0 30 -30q0 -7 -4 -17q-33 -82 -54.5 -206t-21.5 -265q0 -47 11.5 -68.5t48.5 -21.5q66 0 116 70q3 4 17.5 25
t20.5 28.5l20 24t24 22.5q30 20 56.5 20t47.5 -20.5t31 -49.5q9 -30 17 -60q18 -71 40 -70q19 0 49 10t33 10q30 0 30 -30q0 -22 -30 -32q-54 -18 -83.5 -18t-50.5 20.5t-31 49.5q-9 30 -17 60q-18 70 -40 70t-88 -97q-28 -41 -73 -67zM650 496q16 0 33 -14.5t17 -30
t-12.5 -23.5t-28.5 -8t-27.5 14.5t-11.5 31.5q0 30 30 30zM300 260q-12 0 -16 4q-8 8 -17 14q-27 22 -47 22q-44 0 -82 -46.5t-38 -117.5q0 -45 14.5 -60.5t47.5 -15.5q70 0 138 200z" />
    <glyph glyph-name="r_i" unicode="ri" horiz-adv-x="960" 
d="M180 270l10 -40q0 -30 -30 -30q-13 0 -26.5 21t-13.5 49q0 49 60 73q42 17 86.5 17t69 -24.5t24.5 -73t9 -99t21 -77t22 -26.5q24 0 63.5 14.5t72.5 47.5l32 33t42 42q14 14 38 34q46 39 78.5 39t53.5 -20.5t31 -49.5q9 -30 17 -60q18 -71 40 -70q19 0 49 10t33 10
q30 0 30 -30q0 -22 -30 -32q-54 -18 -83.5 -18t-50.5 20.5t-31 49.5q-9 30 -17 60q-18 70 -39 70t-151 -130q-36 -36 -86 -58t-92 -22q-52 0 -82 76.5t-30 193.5q0 30 -29 30q-23 0 -57 -8.5t-34 -21.5zM770 496q16 0 33 -14.5t17 -30t-12.5 -23.5t-28.5 -8t-27.5 14.5
t-11.5 31.5q0 30 30 30z" />
    <glyph glyph-name="s_i" unicode="si" horiz-adv-x="960" 
d="M477 150q-67 -48 -67 -100q0 -30 30 -30q16 0 28 21t12 53t-3 56zM724 224q-11 6 -25 6t-27 -1.5t-23 -3t-22 -5t-19 -6t-20 -8l-18 -7.5t-19 -9l-18 -9q7 -35 7 -92t-29 -93t-71 -36t-66 24.5t-24 65.5q0 93 114 162q-27 68 -84 68q-42 0 -87.5 -26t-78.5 -58l-72 -72
q-70 -70 -115 -86q-18 -8 -29 -8q-30 0 -30 30q0 19 27 29.5t47 25.5t60 55.5l77 75.5t93 64.5t108 29.5q97 0 137 -101q1 1 14.5 7.5l15.5 7.5l14.5 7t16.5 7t15.5 5.5t18 6t18.5 4t22 3.5q28 3 46 3q55 0 80.5 -37t35.5 -82t15 -59.5t18 -28t32.5 -13.5t49.5 10t33 10
q30 0 30 -30q0 -22 -30 -32q-54 -18 -82 -18q-55 0 -81 35.5t-39 95.5q-15 71 -36 83zM696 412q-18 0 -31 16.5t-13 35t13 27.5t27 9q48 0 48 -50q0 -17 -13 -27.5t-31 -10.5z" />
    <glyph glyph-name="t_i" unicode="ti" horiz-adv-x="840" 
d="M470 220q-42 0 -102.5 -42.5t-115 -85t-88.5 -42.5t-59 37t-25 93t15 218.5t15 259.5q0 13 8.5 21.5t21.5 8.5q30 0 30 -30q0 -99 -15 -266.5t-15 -202.5t8 -57t22 -22q12 0 116 85q39 32 91 58.5t92.5 26.5t65.5 -25t25 -65q0 -60 30 -60t30 -30t-30 -30q-42 0 -66 30.5
t-24 89.5q0 30 -30 30zM719 505q16 0 33 -14.5t17 -30t-13.5 -23.5t-29.5 -8t-26.5 14.5t-10.5 31.5q0 30 30 30z" />
    <glyph glyph-name="v_i" unicode="vi" horiz-adv-x="1000" 
d="M850 547q16 0 33 -14.5t17 -30t-13.5 -23.5t-29.5 -8t-26.5 14.5t-10.5 31.5q0 30 30 30zM46 297q-6 14 -6 33q0 30 30 30q12 0 19 -6.5t11 -23.5q39 -157 69 -213.5t67 -56.5q49 0 82.5 47t73.5 147q14 36 40.5 56t56.5 20l91 -15q90 -15 210 -15q40 0 65 -25t25 -57.5
t-10 -81t-10 -86.5l10 -50q0 -30 -30 -30q-19 0 -30 30q-10 25 -10 60t10 85t10 65q0 30 -30 30q-158 0 -262 22q-34 8 -38 8q-26 0 -43 -39q-48 -116 -77 -155q-54 -76 -134 -76q-33 0 -61.5 20t-46.5 49q-20 29 -36 73q-22 56 -46 155z" />
    <glyph glyph-name="L_i" unicode="Li" horiz-adv-x="820" 
d="M730 476q16 0 33 -14.5t17 -30t-13.5 -23.5t-29.5 -8t-26.5 14.5t-10.5 31.5q0 30 30 30zM124 610l-4 48q0 30 30 30q27 0 30 -30q4 -24 4 -40t-12 -166.5t-12 -231.5q0 -31 12.5 -45.5t41.5 -14.5q70 0 146.5 22.5t143.5 45t111 22.5t65 -28t25 -62q11 -90 35 -90
q19 0 49 10t33 10q30 0 30 -30q0 -22 -30 -32q-54 -18 -87.5 -18t-54.5 28t-25 62q-11 90 -35 90q-46 0 -111 -22.5t-142.5 -45t-152.5 -22.5q-53 0 -83.5 32.5t-30.5 87.5q0 90 12 240z" />
    <glyph glyph-name="h_j" unicode="hj" horiz-adv-x="940" 
d="M740 582q16 0 33 -14.5t17 -30t-13.5 -23.5t-29.5 -8t-26.5 14.5t-10.5 31.5q0 30 30 30zM678 330q0 30 30 30q15 0 23.5 -8.5t8.5 -26.5t10.5 -133.5t19.5 -163.5q67 30 118 46t54 16q30 0 30 -30q0 -22 -30 -32l-18 -6q-86 -29 -143 -56q23 -126 23 -171t-24.5 -76
t-68.5 -31t-87.5 47.5t-43.5 104.5q0 86 134 160q-9 49 -22.5 179.5t-13.5 150.5zM724 -63q-84 -52 -84 -97q0 -32 26.5 -62t44 -30t25.5 14.5t8 35.5t-20 139zM170 440l60 -10q26 0 43 42.5t17 67.5q0 88 -40 88q-35 0 -65 -34q-29 -34 -47 -86q-38 -110 -38 -208
q0 -41 5.5 -93t11.5 -67q20 -50 43 -50q33 0 63 17t49 38q50 55 88 55q25 0 46 -22t34 -48t36.5 -48t51.5 -22t66.5 10t45.5 10q34 0 34 -31q0 -16 -34 -29q-53 -20 -102 -20t-82 22t-49 48l-28.5 48t-18.5 22t-23.5 -17l-39.5 -38t-59.5 -38t-77.5 -17q-64 0 -100 90
q-20 48 -20 180q0 124 50 250q24 60 66 99t91 39t76 -37.5t27 -110.5q0 -81 -52 -138q-29 -32 -68 -32q-10 0 -43 6.5t-40 13t-7 20.5q0 30 30 30z" />
    <glyph glyph-name="i_j" unicode="ij" horiz-adv-x="840" 
d="M652 20q175 70 190 70q30 0 30 -30q0 -22 -30 -32q-42 -14 -177 -68q19 -109 19 -159.5t-24.5 -81.5t-68.5 -31t-87.5 47.5t-43.5 100.5t38 99.5t97 64.5q-38 220 -65 220q-6 0 -14 -15l-13.5 -25l-14.5 -26.5l-16 -28.5q-63 -115 -142.5 -115t-79.5 140q0 35 -3.5 52.5
t-16.5 17.5q-14 0 -70 -74q-24 -30 -39.5 -45.5t-46.5 -35.5q-54 -35 -76 -35q-30 0 -30 30q0 19 30 31q16 6 42.5 24t37 28.5t40.5 48.5q67 88 112.5 88t62.5 -34.5t17 -105t20 -70.5q44 0 90 86q4 7 18 33.5t20 36.5l20 26q22 29 52 28q48 0 74 -60q21 -49 48 -200z
M231 496q16 0 33 -14.5t17 -30t-13.5 -23.5t-29.5 -8t-26.5 14.5t-10.5 31.5q0 30 30 30zM606 -60q-29 -9 -57.5 -38t-28.5 -61.5t26.5 -62.5t44 -30t25.5 14.5t8 31.5q0 56 -18 146zM658.5 576.5q11.5 -9.5 11.5 -25.5t-10.5 -30.5t-27.5 -14.5t-29.5 9.5t-12.5 30
t11.5 30.5t28.5 10t28.5 -9.5z" />
    <glyph glyph-name="l_l" unicode="ll" horiz-adv-x="960" 
d="M256 273q124 124 124 247q0 108 -50 108q-26 0 -52 -73q-28 -78 -28 -195q0 -49 6 -87zM616 212q56 42 90 97t34 105t-8 80t-20 42q-22 22 -42 22q-16 0 -29.5 -18.5t-21.5 -39.5q-19 -50 -19 -138t16 -150zM230 169q-82 -67 -169 -114q-46 -25 -63 -25q-30 0 -30 30
q0 19 27 29t87 47t124 91q-16 58 -16 133q0 143 40 235.5t97 92.5q113 0 113 -163t-164 -316q35 -69 134 -69q77 0 154 40q-24 72 -24 190t37 183t90 65t93 -46.5t40 -151.5q0 -71 -44 -142.5t-117 -121.5q32 -57 74 -76.5t117 -19.5q25 0 77 15t55 15q30 0 30 -30
q0 -22 -30 -32q-84 -28 -132 -28q-90 0 -147 28t-95 97q-88 -45 -178 -45q-127 0 -180 89z" />
    <glyph glyph-name="p_l" unicode="pl" horiz-adv-x="960" 
d="M130 -170v-112q0 -30 -30 -30t-30 30v112q0 118 -10.5 255t-20 152.5t-9.5 22.5q0 30 30 30q17 0 31.5 -25t26.5 -161q33 99 87.5 167.5t114.5 68.5q35 0 60 -16q26 -14 38 -38q22 -46 22 -82t-11 -82t-37.5 -84t-64 -38t-62.5 25t-25 65q0 19 16 49.5t34 30.5
q30 0 30 -30q0 -6 -10 -25.5t-10 -24.5q0 -30 30 -30q15 0 32.5 52t17.5 98q0 22 -15 46t-45 24q-41 0 -85.5 -67.5t-74.5 -174t-30 -208.5zM607 267q59 14 96 54.5t37 91.5t-8 81t-20 42q-22 22 -42 22q-16 0 -29.5 -18.5t-21.5 -39.5q-19 -50 -19 -121t7 -112zM548 260
q-8 43 -8 100q0 128 37 193t90 65t93 -46.5t40 -151.5q0 -78 -50 -135t-128 -76q51 -149 208 -149q25 0 77 15t55 15q30 0 30 -30q0 -22 -30 -32q-84 -28 -132 -28q-103 0 -170 53.5t-97 146.5h-13q-30 0 -30 29.5t28 30.5z" />
    <glyph glyph-name="m_m" unicode="mm" horiz-adv-x="1800" 
d="M1004 90q-30 -30 -58 -30t-51.5 17.5t-42 55t-32.5 37.5q-30 0 -76 -70q-17 -26 -45 -48t-57 -22t-46 20t-22 38q-6 20 -19 87t-17.5 71t-7.5 4q-14 0 -24.5 -17.5t-23.5 -48.5t-24.5 -63.5t-18.5 -48t-19 -35.5q-22 -37 -59.5 -37t-56.5 22t-32.5 53.5t-22 56t-15 41.5
t-13.5 33q-14 34 -31 34q-27 0 -64 -92q-16 -38 -48 -70q-48 -48 -79 -48t-31 30q0 19 30 31q48 19 69 71q25 66 53.5 102t69.5 36q38 0 60 -28q25 -33 49.5 -103t35.5 -89.5t25 -19.5q8 0 17 21.5l15 36.5l14 38q30 85 59 119.5t65 34.5q42 0 60 -38q15 -33 21 -65
q20 -117 29 -117q30 0 76 70q17 26 45 48t54.5 22t50 -17.5t42 -55t32.5 -37.5q11 0 30 22.5t42 54.5t34 43q30 30 60 30t48 -15.5t34.5 -73.5t29 -108t23 -50t25.5 25.5t30.5 58.5t25.5 45t18 20q22 22 48.5 21.5t41 -13t29 -44.5t25 -57.5t16.5 -25.5q8 0 27 17.5t44.5 35
t48.5 17.5q30 -1 64 -31q25 -23 40 -22.5t45 10.5t33 10q30 0 30 -30q0 -22 -30 -32q-54 -18 -80 -18q-35 0 -67 30q-24 22 -33 22q-10 2 -29 -16q-57 -52 -93 -53q-25 0 -39.5 12.5t-29 44t-25 57.5t-16.5 26q-16 0 -56 -84q-40 -86 -94 -86q-26 0 -44 15.5t-34.5 73.5
t-29 108t-23 50t-29.5 -22.5t-42 -54.5t-34 -43z" />
    <glyph glyph-name="d_n" unicode="dn" horiz-adv-x="1110" 
d="M300 260q-12 0 -16 4q-8 8 -17 14q-27 22 -47 22q-44 0 -82 -46.5t-38 -117.5q0 -45 14.5 -60.5t47.5 -15.5q70 0 138 200zM514.5 36.5q-41.5 -26.5 -84 -26.5t-73.5 37.5t-43 88.5q-28 -61 -67.5 -98.5t-89 -37.5t-83.5 31.5t-34 114t54 148.5t126 66q41 0 96 -45
q18 204 73 343q12 30 31 30q30 0 30 -30q0 -7 -4 -17q-33 -82 -54.5 -206t-21.5 -265q0 -32 19 -66t41 -34q31 0 58 19t39 39l29 49t23.5 39t16.5 24q10 15 18 19q21 11 46 11q41 0 62 -33t24.5 -72t10.5 -72t23 -33t30.5 25t25.5 55t35.5 55t58.5 25q26 0 38 -12.5
t17.5 -19.5t10 -21l6.5 -20.5t6 -22.5q12 -55 22 -54q19 0 49 10t33 10q30 0 30 -30q0 -22 -30 -32q-54 -18 -84 -18t-47 22t-30.5 75t-20.5 53q-26 0 -55 -80q-11 -30 -36 -55t-62.5 -25t-58.5 33t-24.5 72t-10.5 72t-23 33q-11 0 -16 -6t-8.5 -11.5l-7 -11t-8.5 -14.5
q-4 -9 -10 -19q-20 -35 -37 -60t-58.5 -51.5z" />
    <glyph glyph-name="o_n" unicode="on" horiz-adv-x="1060" 
d="M540 330q-27 0 -46.5 -6.5l-43.5 -15l-39 -13.5q29 -42 29 -76t-14.5 -67.5t-42.5 -68.5t-79 -59t-110 -24t-106.5 38t-47.5 102q0 87 56 143.5t134 56.5q30 0 30 -30t-30 -30q-54 0 -92 -40t-38 -100q0 -38 29 -59t69.5 -21t80 19t59.5 45q42 54 42 84t-13 47t-30 21
q-27 7 -27 24t15 26t45 19l59 20q29 9 41 13q39 12 70 12q90 0 90 -180q0 -130 30 -130q13 0 27 27q18 34 36.5 75.5t27 59t24.5 43.5q16 25 31 39q39 35 85 36q28 0 39.5 -11t17.5 -18t10.5 -20l7.5 -21t5 -24t3 -22q4 -26 4 -40q12 -124 31.5 -124t34.5 5t18 5
q30 0 30 -30q0 -22 -27 -31t-47.5 -9t-32 4t-19.5 13t-14.5 17.5t-11.5 23.5t-8 25t-5.5 27t-3.5 25q-4 32 -4 43q-9 86 -20 98q-5 4 -9 4q-23 0 -44 -21.5t-32.5 -44.5t-28 -60.5t-22.5 -50t-19.5 -38t-23.5 -35.5q-30 -30 -60 -30q-90 0 -90 190q0 120 -30 120z" />
    <glyph glyph-name="w_n" unicode="wn" horiz-adv-x="1230" 
d="M690 330q0 -300 -140 -300q-68 0 -140 80q-79 -62 -132 -86t-99 -24t-73 18q-26 19 -40 52q-26 62 -26 136t20 124q7 16 13 23t17 7q30 0 30 -30q0 -12 -3 -19q-17 -43 -17 -91q0 -160 70 -160q43 0 65.5 10.5t31.5 14t22 11.5t19 12t19 13.5t16.5 12.5t16 13t14.5 12
q-24 43 -24 83t14.5 69t29.5 29q31 0 31 -30q0 -7 -7.5 -24.5t-7.5 -45.5q0 -41 50 -95.5t90 -54.5q80 0 80 240q0 30 30 30t30 -30zM772 280l-2 20q0 30 30 30q27 0 30 -30q8 -79 9 -123q26 54 64.5 88.5t88 34.5t77.5 -45t31.5 -120t29.5 -75q9 0 54 15t48 15q30 0 30 -30
q0 -22 -30 -32q-84 -28 -102 -28q-42 0 -64.5 38.5t-25 92.5t-16 81.5t-34.5 27.5q-34 0 -65 -38t-48 -86t-17 -82t-30 -34q-32 0 -40 30q-10 50 -10 110t-8 140z" />
    <glyph glyph-name="U_n" unicode="Un" horiz-adv-x="1130" 
d="M380 300q0 140 10 240q3 30 30 30q30 0 30 -30l-2 -20q-8 -80 -8 -187t6 -163q12 -110 34 -110q41 0 65.5 24.5t35 60t19.5 71.5q21 85 80 84q50 0 66 -52q14 -45 21 -126.5t23 -81.5q9 0 20 29t22.5 63.5t43 63.5t76.5 29q48 0 71 -39q17 -30 26.5 -68t29.5 -38t35 5
t18 5q30 0 30 -30q0 -22 -27 -31t-59 -9t-53.5 21.5t-28.5 48.5t-8.5 34t-7.5 20q-9 21 -27 21q-30 0 -49 -29t-27 -63.5t-29.5 -63.5t-50.5 -29t-45 13q-18 13 -26 39q-15 45 -21.5 126.5t-22.5 81.5q-9 0 -16 -24.5l-17.5 -60t-27.5 -71t-53 -60t-86 -24.5q-67 0 -88 117
q-68 -117 -182 -117q-90 0 -130 104t-40 316q0 91 9 136q6 30 31 30q30 0 30 -30l-2 -10q-8 -40 -8 -126q0 -360 110 -360q72 0 121 73t49 167z" />
    <glyph glyph-name="a_o" unicode="ao" horiz-adv-x="960" 
d="M640 180l-10 -60q0 -27 28.5 -43.5t51.5 -16.5q83 0 117 34.5t34 75.5q0 80 -101 80q-11 0 -27.5 -10t-22.5 -10q-30 0 -30 30q0 16 25.5 33t54.5 17q65 0 112.5 -32.5t47.5 -108.5t-56.5 -122.5t-153.5 -46.5q-36 0 -79 22.5t-56 62.5q-53 -55 -138 -55q-37 0 -58 32.5
t-26 78.5q-92 -141 -193 -141q-47 0 -83.5 30.5t-36.5 103.5t41.5 131t99 86.5t115.5 28.5q86 0 134 -48q20 -20 20 -32q0 -30 -30 -30q-13 0 -31 18q-32 32 -94.5 32t-128.5 -51t-66 -133q0 -46 16 -61t44 -15q65 0 144 116q18 28 26.5 56t29.5 28q17 0 33.5 -11.5
t16.5 -28.5q0 -130 30 -130q43 0 81.5 28t50.5 70q2 8 14 15t24.5 7t21 -8.5t8.5 -21.5z" />
    <glyph glyph-name="c_o" unicode="co" horiz-adv-x="900" 
d="M414 84q-103 -54 -274 -54q-43 0 -71.5 27.5t-28.5 61.5q0 99 89.5 170t190.5 71q35 0 72.5 -14t37.5 -36q0 -12 -9 -21t-21 -9t-32 10t-48 10q-78 0 -149 -54.5t-71 -125.5q0 -14 11 -22t41 -8t74 4t108 22t92 46t44 28q30 0 30 -30q0 -10 -15 -25t-15 -25
q0 -50 190 -50q50 0 95.5 20t45.5 58t-32 60t-75 22q-11 0 -30.5 -5t-23.5 -5q-30 0 -30 30q0 15 26 27.5t58 12.5q78 0 122 -43t44 -104t-60 -97t-140 -36q-219 0 -246 84z" />
    <glyph glyph-name="e_o" unicode="eo" horiz-adv-x="880" 
d="M510 190l-10 -51q0 -38 32.5 -58.5t80.5 -20.5t107.5 31t59.5 80t-32.5 74t-77.5 25q-24 0 -48.5 -15t-31.5 -15q-30 0 -30 30q0 19 34.5 39.5t75.5 20.5q71 0 120.5 -42t49.5 -118q0 -52 -40 -93t-91.5 -59t-105.5 -18t-102 30.5t-58 82.5q-139 -113 -243 -113
q-51 0 -86.5 17.5t-46.5 41.5q-49 -29 -69 -29q-30 0 -30 30q0 19 30 31q13 4 47 25q-5 15 -5 26q0 89 63.5 153.5t115.5 64.5t81.5 -24.5t29.5 -59t-16 -60.5q-17 -26 -51 -50q-52 -37 -140 -80q13 -26 72 -26t116.5 32.5t150.5 118.5q7 9 18 9q30 0 30 -30zM100 142
q170 85 170 128q0 30 -50 30q-30 0 -75 -47.5t-45 -110.5z" />
    <glyph glyph-name="f_o" unicode="fo" horiz-adv-x="880" 
d="M560 230l-3 -18q-7 -28 -7 -40.5t4 -28t14.5 -35.5t34.5 -34t65.5 -14t76.5 24.5t35 66t-22.5 65.5t-67.5 24q-30 0 -30 30q0 11 9 20.5t21 9.5q69 0 109.5 -41.5t40.5 -108t-53 -108.5t-126.5 -42t-115 42.5t-51.5 93.5q-133 -166 -218 -380q-27 -68 -86 -68
q-34 0 -52 26q-38 54 -38 286q0 116 11 217q-22 -7 -41 -7q-30 0 -30 30t30 30q17 0 49 12q17 115 47 200q31 84 64 126q63 80 110 80q90 0 90 -142q0 -53 -23.5 -102.5t-63.5 -87.5q-72 -69 -169 -115q-14 -107 -14 -212t7 -193t23 -88q18 0 30 30q94 235 283 464
q14 18 27 18q30 0 30 -30zM185 314q185 105 185 232q0 82 -30 82q-16 0 -41 -30.5t-43 -63.5q-44 -80 -71 -220z" />
    <glyph glyph-name="g_o" unicode="go" horiz-adv-x="850" 
d="M330 164q14 -17 29 -113q56 65 105 111q38 38 56 38q30 0 30 -30q0 -10 -10 -30t-10 -30q0 -80 80 -80q59 0 99.5 42t40.5 78q0 20 -22.5 43t-45 38t-22.5 29q0 30 30 30q12 0 30 -12q41 -26 65.5 -61t24.5 -67q0 -60 -58 -120t-142 -60q-116 0 -139 114
q-19 -18 -102 -114q11 -94 11 -192q0 -40 -25 -65t-65 -25t-65 25.5t-25 66.5q0 78 107 210q-4 35 -17 100q-19 -25 -57.5 -52.5t-83 -27.5t-77 36t-32.5 84q0 108 44.5 184t97.5 76q44 0 67 -16t23 -34q0 -30 -30 -30q-7 0 -20.5 10t-39.5 10q-14 0 -32.5 -24t-34 -72
t-15.5 -104q0 -22 15 -41t35 -19q46 0 87 50t73 50q15 0 20 -6zM320 -222l-5 123q-55 -81 -55 -117t30 -36t30 30z" />
    <glyph glyph-name="h_o" unicode="ho" horiz-adv-x="1020" 
d="M130 340q0 15 26 28q51 25 71 46q48 50 48 144q0 27 -8.5 48.5t-24 21.5t-32.5 -14t-36.5 -46t-35.5 -76q-38 -104 -38 -262q0 -67 20 -88.5t44 -21.5t42 22t33 48t42 48t59 22q28 0 40.5 -11t19.5 -18.5t12.5 -19.5l9.5 -20t7.5 -22t4.5 -19l6 -30q8 -40 45.5 -40
t67.5 19t30 41q0 30 32 30t60 -51q20 -36 55.5 -47.5t86.5 -11.5q30 0 66.5 25.5t36.5 64.5q0 66 -38.5 103t-86.5 37t-76.5 -20.5t-28.5 -59.5q0 -30 -30 -30t-30 30q0 64 46 102t121.5 38t129 -56.5t53.5 -143.5q0 -64 -54.5 -107t-108.5 -43q-144 0 -191 85
q-14 -24 -53.5 -44.5t-83.5 -20.5t-72 25.5t-35 59.5q-19 95 -42 95q-18 0 -35.5 -22t-32 -48t-41.5 -48t-55.5 -22t-49 7t-41.5 23q-45 35 -45 140q0 187 58.5 322.5t141.5 135.5q45 0 71 -39.5t26 -88.5t-11.5 -88t-26 -62.5t-39.5 -45.5q-26 -22 -40 -30q-42 -24 -60 -24
q-30 0 -30 30z" />
    <glyph glyph-name="i_o" unicode="io" horiz-adv-x="900" 
d="M330 588q16 0 33 -14.5t17 -30t-13.5 -23.5t-29.5 -8t-26.5 14.5t-10.5 31.5q0 30 30 30zM560 271q-40 -54 -40 -100t38 -78.5t92 -32.5q39 0 66 14q54 26 54 78t-27.5 85t-72.5 33q-24 0 -48.5 -15t-31.5 -15q-30 0 -30 31zM584 303q44 27 86 27q68 0 114 -51t46 -126.5
t-55.5 -114t-131 -38.5t-129.5 52t-54 118q0 33 15 69t24 49t31 42.5t40 29.5q30 0 30 -30q0 -6 -16 -27zM340 70q-42 0 -66 38.5t-24 111.5q0 30 -30 30q-14 0 -63 -78q-21 -34 -31 -46q-81 -96 -128 -96q-30 0 -30 30q0 19 33 32.5t79 70.5q4 5 30.5 49.5t53 71t61.5 26.5
t60 -25t25 -64t8 -65t22 -26q30 0 30 -30t-30 -30z" />
    <glyph glyph-name="j_o" unicode="jo" horiz-adv-x="880" 
d="M299 505q16 0 33 -14.5t17 -30t-13.5 -23.5t-29.5 -8t-26.5 14.5t-10.5 31.5q0 30 30 30zM450 170l-10 -60q0 -23 17 -42q33 -38 133 -38q31 0 60.5 22t29.5 58q0 120 -110 120q-24 0 -48.5 -15t-31.5 -15q-30 0 -30 30q0 19 34.5 39.5t75.5 20.5q78 0 124 -46.5
t46 -133.5q0 -64 -47.5 -102t-107 -38t-103.5 14q-45 14 -65 38q-35 41 -37 84l-129 -98q29 -167 29 -211t-30.5 -76.5t-77 -32.5t-89.5 42.5t-43 100.5t30.5 99.5t114.5 105.5q-45 261 -45 292.5t30 31.5t30 -34t39 -250l155 115q11 9 26 9q30 0 30 -30zM197 -34
q-57 -45 -77 -73t-20 -61.5t26.5 -58.5t46 -25t33.5 15t14 42t-23 161z" />
    <glyph glyph-name="k_o" unicode="ko" horiz-adv-x="880" 
d="M120 658l-1 -17q-12 -120 -15.5 -178t-3.5 -139.5t5 -106.5q19 42 107 107.5t128 65.5q30 0 30 -30q0 -14 -6.5 -19.5t-23.5 -10.5q-42 -13 -110.5 -68.5t-77.5 -88.5q-2 -6 -6.5 -25.5t-6.5 -25.5q-1 -7 -7 -18q-10 -19 -31.5 -19t-41 66.5t-19.5 118.5t0.5 93.5t1 66
t3.5 60.5t3 47q2 47 12 122q3 29 30 29q30 0 30 -30zM510 190l-10 -51q0 -38 32.5 -58.5t80.5 -20.5t107.5 31t59.5 81.5t-34 89t-76 38.5q-24 0 -48.5 -15t-31.5 -15q-30 0 -30 30q0 19 34.5 39.5t75.5 20.5q67 0 118.5 -56t51.5 -134q0 -52 -40 -93t-91.5 -59t-106 -18
t-102.5 30.5t-58 82.5q-56 -50 -89.5 -71.5t-62.5 -21.5q-53 0 -81.5 43.5t-28.5 104.5q0 32 30 32t30 -35.5t14 -60t33 -24.5t50.5 23.5t122.5 107.5q11 9 20 9q30 0 30 -30z" />
    <glyph glyph-name="l_o" unicode="lo" horiz-adv-x="960" 
d="M554 176q-37 -47 -60 -71.5t-58 -52.5q-65 -52 -166 -52q-67 0 -108.5 47.5t-41.5 122.5q0 113 34.5 234t91 202.5t114.5 81.5q90 0 90 -142q0 -72 -56 -140q-32 -39 -63.5 -70l-39 -38.5t-21.5 -7.5t-22 10.5t-8 20.5t11 21l35 34t32.5 32.5l26 30.5t25.5 35
q20 37 20 72q0 82 -30 82q-21 0 -51 -38.5t-59 -99.5t-49.5 -148t-20.5 -172q0 -53 24.5 -81.5t65.5 -28.5q76 0 122 33.5t115 120.5l56 68q14 18 27 18q30 0 30 -30l-3 -18q-7 -28 -7 -40.5t4 -28t14.5 -35.5t34.5 -34t57 -14q58 0 99 30t41 76q0 94 -80 93q-9 0 -34 -4.5
t-26 -4.5q-30 0 -30 30q0 22 32 31t58 9q64 0 102 -42t38 -113.5t-58.5 -118t-136.5 -46.5t-119.5 42.5t-51.5 93.5z" />
    <glyph glyph-name="m_o" unicode="mo" horiz-adv-x="1510" 
d="M53 50q-6 -4 -25 -12t-30 -8q-30 0 -30 30q0 11 6.5 17t26 14.5t25 12t21 46t34 88.5t58.5 84t87.5 38t75 -44.5t27.5 -135.5q-1 -92 13 -111q6 -9 14 -9t13 7t11 21.5l12 29.5t14 37.5t13 34.5l13 32l11.5 29t11 24.5t13.5 22.5t16 16q17 16 43.5 16t45.5 -15t31 -43
q17 -39 33 -115.5t23 -76.5q9 0 18 11.5t24 38.5t24 41q51 79 124 79q24 0 46.5 -14t36.5 -31q37 -45 57 -45q54 0 91 37q23 23 39 23q30 0 30 -30q0 -10 -15 -25t-15 -24.5t7 -21.5t23 -26q37 -33 120 -33q50 0 95.5 20t45.5 58t-32 60t-75 22q-11 0 -30.5 -5t-23.5 -5
q-30 0 -30 30q0 15 26 27.5t58 12.5q78 0 122 -43t44 -104t-60 -97t-145 -36t-135.5 33.5t-65.5 80.5q-28 -14 -63 -14t-57.5 14t-36.5 31q-37 45 -55.5 45t-32 -6.5t-26.5 -23.5t-19 -26t-20 -34t-24.5 -40t-29 -27.5t-43 -12.5t-41.5 20t-22 38q-6 20 -16 71
q-24 121 -48 121q-11 0 -19 -16t-12 -26l-11.5 -29.5t-13 -32.5t-17 -45.5t-18.5 -48t-19 -35.5q-22 -37 -56 -37t-53 16t-27 44q-14 49 -14.5 113t-12 95.5t-27.5 31.5q-35 0 -62 -34q-26 -32 -40 -74q-38 -118 -75 -142z" />
    <glyph glyph-name="n_o" unicode="no" horiz-adv-x="1110" 
d="M760 200l-10 -51q0 -39 33.5 -64t81 -25t96.5 32.5t49 80.5t-33 77.5t-77 29.5q-24 0 -48.5 -15t-31.5 -15q-30 0 -30 30q0 19 34.5 39.5t75.5 20.5q69 0 119.5 -47t50.5 -121t-65.5 -123t-135.5 -49t-118.5 35t-58.5 88q-48 -43 -112 -43q-37 0 -61.5 31t-33 69t-17 69
t-18.5 31q-8 0 -13 -9t-7.5 -15t-5 -16.5t-4.5 -18t-5 -21.5q-21 -95 -52.5 -122.5t-62.5 -27.5q-47 0 -68.5 41.5t-21.5 108.5q0 100 -30 100q-24 0 -57 -84t-33 -156q0 -13 -8.5 -21.5t-21.5 -8.5q-30 0 -30 30q0 63 20.5 132t56 118.5t73.5 49.5q90 0 90 -160
q0 -90 30 -90t52 87t36 110q21 33 58.5 33t58.5 -31t27 -69q17 -100 48 -100q40 0 71 28l59 53q11 9 20 9q30 0 30 -30z" />
    <glyph glyph-name="p_o" unicode="po" horiz-adv-x="960" 
d="M100 -282q0 -13 -8.5 -21.5t-21.5 -8.5t-21.5 8.5t-8.5 34.5t32.5 242t43.5 264q10 47 30 99q39 104 122 104t127.5 -41t44.5 -119q0 -36 -20 -64q-21 -28 -45 -42q-65 -37 -65 -54q0 -40 30 -40q43 0 84 17.5t73 35t53 17.5q36 0 63 -32.5t27 -77.5q0 -30 60 -30
q44 0 102.5 40t58.5 78t-31.5 60t-75.5 22q-11 0 -30.5 -5t-23.5 -5q-30 0 -30 30q0 17 26 28.5t58 11.5q79 0 122.5 -42.5t43.5 -104t-75 -117.5t-137 -56q-128 0 -128 90q0 18 -8 34t-18 16t-40.5 -17.5t-78.5 -35t-90.5 -17.5t-68.5 30t-26 65t20.5 57.5t44.5 34
t44.5 30.5t20.5 43q0 53 -27.5 76.5t-82.5 23.5q-21 0 -38.5 -18t-28.5 -42.5t-21 -65.5q-14 -53 -29 -147l-26 -174q30 37 43 37q30 0 30 -30q0 -12 -24 -42q-76 -95 -76 -180z" />
    <glyph glyph-name="r_o" unicode="ro" horiz-adv-x="1020" 
d="M100 210l10 -40q0 -30 -30 -30q-13 0 -26.5 21t-13.5 51t34 60t80 48q102 40 166 40q41 0 65.5 -24.5t24.5 -73.5t6 -91q13 -81 36 -81q15 0 33 15t117 106q7 9 18 9q30 0 30 -30l-10 -51q0 -38 32.5 -58.5t80.5 -20.5t107.5 31t59.5 80t-32.5 74t-77.5 25
q-24 0 -48.5 -15t-31.5 -15q-30 0 -30 30q0 19 34.5 39.5t75.5 20.5q71 0 120.5 -42t49.5 -118q0 -52 -40 -93t-91.5 -59t-105.5 -18t-102 30.5t-58 82.5q-6 -5 -21 -21t-24 -23.5t-24 -18.5q-27 -20 -62 -20q-54 0 -78 58.5t-24 181.5q0 30 -29 30q-46 0 -100 -18.5
t-87.5 -39.5t-33.5 -32z" />
    <glyph glyph-name="s_o" unicode="so" horiz-adv-x="1020" 
d="M505 127q-105 -24 -105 -67q0 -14 12 -22t35.5 -8t43 15.5t19.5 38.5t-5 43zM631 150l-67 -11q6 -24 6 -49q0 -53 -37.5 -86.5t-86 -33.5t-77.5 25t-29 65q0 86 137 121q-24 31 -61 50t-73.5 19t-80.5 -28t-80 -63q-104 -100 -159 -122q-17 -7 -25 -7q-30 0 -30 30
q0 19 31 31.5t76 50.5t82.5 74t87.5 65t102.5 29t107 -31.5t85.5 -83.5q16 3 58 9.5t56.5 11t15.5 4.5q30 0 30 -30q0 -12 -5 -24.5t-5 -28.5t7.5 -28t23 -26t47.5 -23q32 -10 68 -10q84 0 84 70q0 42 -35.5 86t-74.5 44q-24 0 -48.5 -10t-31.5 -10q-30 0 -30 30
q0 20 36.5 35t73.5 15q64 0 117 -62t53 -126.5t-42 -98t-98 -33.5t-100 16q-44 14 -66 38q-44 46 -44 86q0 4 0.5 10.5t0.5 9.5z" />
    <glyph glyph-name="v_o" unicode="vo" horiz-adv-x="1060" 
d="M438 207q-63 -117 -102 -159q-45 -48 -83 -48q-132 0 -171 310q-2 16 -2 20q0 30 30 30q11 0 19 -9t10 -22q15 -124 45 -196.5t69 -72.5q36 0 134 178q22 41 86 56q240 56 257 56q30 0 30 -30q0 -13 -17 -30q-73 -70 -73 -106.5t25 -61.5q41 -42 150 -42q38 0 66 23.5
t38.5 48.5t10.5 43q0 58 -40 86.5t-100 28.5q-30 0 -30 30t30 30q85 0 142.5 -46.5t57.5 -128.5q0 -46 -40 -106q-20 -29 -55.5 -49t-69.5 -20t-62.5 3t-71.5 17.5t-68 38.5q-43 42 -43 101q0 17 3.5 28l5 16t6 13t6 11t7.5 12.5t7 11.5l-160 -36q-35 -8 -47 -29z" />
    <glyph glyph-name="C_o" unicode="Co" horiz-adv-x="960" 
d="M88 83q-48 53 -48 130.5t32 150.5t80 120t101 74.5t91 27.5t67 -16t29 -34q0 -30 -30 -30q-9 0 -26.5 10t-41 10t-65.5 -23t-82 -62t-67.5 -101t-27.5 -122.5t29 -94t71 -33.5q86 0 179 24.5t152 72.5q29 23 39 23q30 0 30 -30q0 -10 -15 -25t-15 -25q0 -30 46.5 -50
t100 -20t99 20t45.5 58t-32 60t-75 22q-11 0 -30.5 -5t-23.5 -5q-30 0 -30 30q0 15 26 27.5t58 12.5q78 0 122 -43t44 -104t-60 -97t-140 -36t-137.5 31.5t-68.5 72.5q-141 -74 -314 -74q-64 0 -112 53z" />
    <glyph glyph-name="E_o" unicode="Eo" horiz-adv-x="960" 
d="M262 373.5q13 -16.5 13 -35.5t-6 -32.5t-13 -22t-21.5 -18.5t-21.5 -14t-23.5 -11.5t-18 -8.5t-14 -7t-20 -10t-17.5 -10q-20 -12 -20 -24q0 -31 30.5 -60.5t69.5 -29.5q69 0 163.5 38t123.5 65t43 27q30 0 30 -30q0 -10 -15 -25t-15 -25q0 -30 65.5 -55t120 -25t100 20
t45.5 58t-32 60t-75 22q-11 0 -30.5 -5t-23.5 -5q-30 0 -30 30q0 15 26 27.5t58 12.5q78 0 122 -43t44 -104t-60 -97t-139.5 -36t-156 33.5t-90.5 80.5q-85 -44 -144.5 -64t-124.5 -20t-115 46.5t-50 103.5q0 40 40 70q18 13 45 25l17 8l14.5 7t20 10t17.5 10q20 12 20 20.5
t-11 17t-33 24t-37 28.5q-61 51 -61 106q0 41 32.5 60.5t59 19.5t44 -5t28.5 -11q29 -14 44 -24q28 -14 28 -29q0 -33 -30 -33q-9 0 -50 21t-54 21q-42 0 -42 -20q0 -27 43 -63q9 -8 41.5 -30.5t45.5 -39z" />
    <glyph glyph-name="G_o" unicode="Go" horiz-adv-x="960" 
d="M630 320q30 0 30 -30q0 -15 -12 -27q-58 -58 -58 -113q0 -33 17 -50q40 -40 143 -40q54 0 82 37t28 63q0 55 -28.5 87.5t-81.5 32.5q-30 0 -30 30t30 30q78 0 124 -49.5t46 -130.5q0 -42 -36 -96q-18 -28 -53.5 -46t-80.5 -18q-128 0 -186 58q-34 34 -34 94t33 102
q-117 -12 -170 -15t-53 -29q0 -16 45 -45q17 -11 31 -31.5t14 -47.5t-31 -49q-52 -37 -139 -37q-53 0 -100 14t-83.5 54.5t-36.5 101.5q0 86 33 165t85 133t116 86t119.5 32t86 -26.5t30.5 -65.5t-16 -71.5t-34 -32.5q-30 0 -30 30q0 4 10 29.5t10 36.5q0 40 -50 40
q-79 0 -158 -64q-88 -71 -122 -172q-20 -57 -20 -117.5t46.5 -86.5t113.5 -26q33 0 71.5 9.5t38.5 20t-14 22.5t-31 23t-31 31.5t-14 43.5q0 81 120 90q27 2 124 11t106 9z" />
    <glyph glyph-name="K_o" unicode="Ko" horiz-adv-x="960" 
d="M660 290q0 20 31 45t85 25t99 -40t45 -121.5t-55.5 -140t-154.5 -58.5q-50 0 -88.5 27t-50.5 60q-90 -87 -151 -87q-58 0 -94 48q-28 38 -56 122l-25.5 81.5t-28.5 84.5q-68 -70 -92 -100t-24 -46.5t5 -41.5t5 -28q0 -30 -30 -30q-24 0 -30 30q-10 50 -10 77.5t20 52.5
q0 234 -16 287q-4 13 -4 19q0 30 30 30q9 0 18 -8t15 -28.5t11.5 -98.5t5.5 -128q104 111 165 154t109.5 43t72 -23.5t23.5 -36.5q0 -30 -30 -30q-13 0 -35 22q-8 8 -24.5 8t-33.5 -5t-53 -31t-51 -43q22 -59 51 -148.5t42.5 -119.5t28 -41.5t40 -11.5t75.5 42t69 80t41 38
q30 0 30 -30q0 -7 -10 -22.5t-10 -27.5q0 -38 28 -59t62 -21q80 0 115 43.5t35 91.5q0 105 -90 105q-37 0 -50 -20t-30 -20q-30 0 -30 30z" />
    <glyph glyph-name="L_o" unicode="Lo" horiz-adv-x="880" 
d="M160 620q29 0 49.5 -12t20.5 -28q0 -30 -30 -30q-10 0 -20 5t-21 5t-23.5 -25t-24 -100t-11.5 -185q0 -54 26 -92t74 -38q142 0 262 60l20 12q29 18 38 18q30 0 30 -30q0 -10 -15 -25t-15 -25q0 -23 40.5 -51.5t82.5 -28.5t90 30t48 68t-30.5 55t-76.5 17q-11 0 -30.5 -5
t-23.5 -5q-30 0 -30 30q0 15 26.5 27.5t57.5 12.5q81 0 123.5 -38t42.5 -99t-65 -107t-132.5 -46t-124.5 45.5t-57 78.5q-34 -17 -108 -35.5t-149.5 -18.5t-119.5 56t-44 134q0 370 120 370z" />
    <glyph glyph-name="M_o" unicode="Mo" horiz-adv-x="1100" 
d="M780 190l-10 -51q0 -39 33.5 -64t80.5 -25t81.5 30.5t34.5 80.5t-33 79.5t-77 29.5q-22 0 -47 -15t-33 -15q-30 0 -30 30q0 19 34.5 39.5t75.5 20.5q66 0 118 -46t52 -122t-52 -124t-120.5 -48t-117 35t-58.5 88q-48 -43 -96.5 -43t-73.5 60q-14 33 -23.5 109
t-17.5 131.5t-21 55.5q-11 0 -30 -75.5t-28.5 -151.5t-26.5 -107.5t-58 -31.5t-66 60q-16 34 -32 137l-28.5 186t-20.5 83q-14 0 -52 -217t-38 -280q0 -29 -30 -29t-30 29q0 65 33 256.5t44.5 224t16.5 42.5t20 22t36 12t36 -12q23 -19 29.5 -47.5t22.5 -138.5
q40 -269 62 -268q12 0 23.5 99.5t50.5 206.5q9 28 23.5 44t42.5 16q48 0 69 -60q8 -20 17 -97.5t20.5 -138t30 -60.5t45 19t44 45t44.5 26q30 0 30 -30z" />
    <glyph glyph-name="R_o" unicode="Ro" horiz-adv-x="1020" 
d="M730 260q-30 0 -30 30q0 17 31.5 38.5t68.5 21.5q69 0 119.5 -46.5t50.5 -123t-52 -128.5t-151 -52q-50 0 -94 28.5t-51 54.5q-58 -53 -122 -53q-48 0 -91 43q-34 34 -60.5 53.5l-47 35l-32.5 24.5l-41.5 30.5l-46.5 34.5q-41 29 -41 49q0 30 30 30q7 0 30.5 -17
t49.5 -17q62 0 91 41.5t29 101t-29.5 100.5t-80.5 41q-76 0 -118 -38t-42 -112q0 -32 5 -84t5 -84t-20 -232q-3 -30 -30 -30q-30 0 -30 30q0 1 10 101t10 130t-5 82t-5 87q0 99 59.5 154.5t160.5 55.5q76 0 123 -58.5t47 -141.5t-38.5 -135.5t-96.5 -63.5
q114 -84 147.5 -117.5t57.5 -33.5q66 0 126 92q11 17 16.5 22.5t15.5 5.5q32 0 32 -30q0 -10 -10 -25t-10 -25q0 -31 33 -50.5t62 -19.5q82 0 114 37.5t32 82.5t-30 77.5t-81 32.5q-17 0 -41 -15t-29 -15z" />
    <glyph glyph-name="egrave_o" unicode="&#xe8;o" horiz-adv-x="880" 
d="M70 629q0 31 30 31q12 0 40.5 -23.5t65.5 -66t57 -82.5q7 -13 7 -24q0 -30 -30 -30q-17 0 -32 30q-35 69 -108 128q-30 24 -30 37zM510 190l-10 -51q0 -38 32.5 -58.5t80.5 -20.5t107.5 31t59.5 80t-32.5 74t-77.5 25q-24 0 -48.5 -15t-31.5 -15q-30 0 -30 30
q0 19 34.5 39.5t75.5 20.5q71 0 120.5 -42t49.5 -118q0 -52 -40 -93t-91.5 -59t-105.5 -18t-102 30.5t-58 82.5q-139 -113 -243 -113q-51 0 -86.5 17.5t-46.5 41.5q-49 -29 -69 -29q-30 0 -30 30q0 19 30 31q13 4 47 25q-5 15 -5 26q0 89 63.5 153.5t115.5 64.5t81.5 -24.5
t29.5 -59t-16 -60.5q-17 -26 -51 -50q-52 -37 -140 -80q13 -26 72 -26t116.5 32.5t150.5 118.5q7 9 18 9q30 0 30 -30zM100 142q170 85 170 128q0 30 -50 30q-30 0 -75 -47.5t-45 -110.5z" />
    <glyph glyph-name="eacute_o" unicode="&#xe9;o" horiz-adv-x="880" 
d="M110 476q-30 0 -30 30q0 10 5.5 17t11.5 13.5t9 10.5q92 104 169 135q15 6 25 6q30 0 30 -30q0 -8 -9.5 -17t-32 -18t-67.5 -47t-70.5 -69t-40.5 -31zM510 190l-10 -51q0 -38 32.5 -58.5t80.5 -20.5t107.5 31t59.5 80t-32.5 74t-77.5 25q-24 0 -48.5 -15t-31.5 -15
q-30 0 -30 30q0 19 34.5 39.5t75.5 20.5q71 0 120.5 -42t49.5 -118q0 -52 -40 -93t-91.5 -59t-105.5 -18t-102 30.5t-58 82.5q-139 -113 -243 -113q-51 0 -86.5 17.5t-46.5 41.5q-49 -29 -69 -29q-30 0 -30 30q0 19 30 31q13 4 47 25q-5 15 -5 26q0 89 63.5 153.5
t115.5 64.5t81.5 -24.5t29.5 -59t-16 -60.5q-17 -26 -51 -50q-52 -37 -140 -80q13 -26 72 -26t116.5 32.5t150.5 118.5q7 9 18 9q30 0 30 -30zM100 142q170 85 170 128q0 30 -50 30q-30 0 -75 -47.5t-45 -110.5z" />
    <glyph glyph-name="a_p" unicode="ap" horiz-adv-x="960" 
d="M443 158q-29 -60 -54 -72q-13 -6 -29 -6q-60 0 -78 77q-19 -34 -58.5 -70.5t-83 -36.5t-72 28.5t-28.5 71.5q0 94 53.5 152t102 58t71.5 -16t23 -34q0 -30 -30 -30q-6 0 -19 10t-40.5 10t-64 -39t-36.5 -111q0 -18 11 -29t30 -11t48 27.5t37 42l14 25l9 15.5l7 12
q13 22 18 24.5t8 2.5q20 0 33 -18.5t17 -40.5q12 -59 28 -60q9 0 22 29q14 29 32 63q25 48 53 48t33 -30q4 -24 4 -61t-7 -131q50 132 113 217t130 85q78 0 129 -50.5t51 -149.5q0 -60 -38.5 -110t-101.5 -50q-44 0 -72 25t-28 60t21.5 60t38.5 25q30 0 30 -30
q0 -10 -15 -25t-15 -25q0 -30 38.5 -30t60 32.5t21.5 67.5q0 68 -31 104t-89 36q-45 0 -102.5 -88.5t-102.5 -226.5t-55 -267q-3 -30 -30 -30q-30 0 -30 30q0 96 11.5 262t11.5 178z" />
    <glyph glyph-name="r_r" unicode="rr" horiz-adv-x="1080" 
d="M120 230l10 -40q0 -30 -30 -30q-13 0 -26.5 21t-13.5 49t14.5 44t50.5 36.5t106.5 35t109 14.5t64 -33.5t25.5 -87t30.5 -116.5t67.5 -63t59.5 52.5t22.5 93t41 77.5t104 37t114 -25t51 -79t26 -100t56 -46q17 0 47 10t33 10q30 0 30 -30q0 -22 -30 -32q-54 -18 -80 -18
q-63 0 -102.5 66.5t-39.5 143.5q0 17 -37.5 28.5t-70 11.5t-57.5 -19t-25 -39.5t-7 -50.5t-21.5 -65.5t-44 -60.5t-67.5 -25q-65 0 -112.5 78t-47.5 172q0 18 -7.5 34t-21.5 16q-47 0 -104 -15t-87 -30t-30 -25z" />
    <glyph glyph-name="t_r" unicode="tr" horiz-adv-x="960" 
d="M123 336q-42 -6 -53 -6q-30 0 -30 30q0 12 9 20t21 10l50 6v34q0 108 20 228q5 30 30 30q30 0 30 -29q0 -5 -2 -17q-18 -108 -18 -212v-30q58 0 131 6t85 10t24 4q30 0 30 -29q0 -21 -30 -31q-60 -20 -237 -20q20 -290 177 -290q32 0 55.5 19t34.5 47q20 50 20 90t41 77
t105.5 37t124 -25.5t59.5 -79t26 -99.5t56 -46q17 0 47 10t33 10q30 0 30 -30q0 -22 -30 -32q-54 -18 -80 -18q-63 0 -102.5 66.5t-39.5 143.5q0 16 -46.5 28t-80 12t-58.5 -19t-25 -41q0 -73 -44.5 -141.5t-125.5 -68.5q-212 0 -237 346z" />
    <glyph glyph-name="u_r" unicode="ur" horiz-adv-x="1120" 
d="M460 280q55 0 73 -90q26 -130 47 -130q25 0 42 32q28 54 28 138q0 40 25 65t74.5 25t118.5 -20t80 -62q23 -92 44 -130t50 -38q17 0 47 10t33 10q30 0 30 -30q0 -22 -30 -32q-54 -18 -80 -18q-60 0 -93 53t-59 157q-4 14 -55.5 27t-94.5 13q-30 0 -30 -30q0 -81 -27 -150
q-14 -36 -40.5 -58t-57 -22t-48.5 14t-30 44q-18 43 -30 102.5t-17.5 59.5t-21.5 -29.5l-36 -65.5t-58.5 -65.5t-82 -29.5t-73.5 27q-53 48 -53 123q-61 -121 -108 -142q-18 -8 -29 -8q-30 0 -30 30q0 19 31.5 31.5t114.5 179.5q14 29 46 29q14 0 22 -8.5t8 -21.5
q0 -101 18.5 -140.5t51.5 -39.5q60 0 110 100q29 59 48 74.5t42 15.5z" />
    <glyph glyph-name="l_s" unicode="ls" horiz-adv-x="1020" 
d="M216 353q26 -3 59.5 -3t70 15.5t55.5 37t31 50.5q18 44 18 84.5t-12.5 65.5t-37.5 25q-46 0 -102 -79t-82 -196zM120 370l37 -8q30 136 99 231t144 95q51 0 80.5 -42t29.5 -92t-14 -92.5t-42.5 -82t-78.5 -64.5t-114 -25q-16 0 -56 4q-5 -45 -5 -84q0 -72 36.5 -111
t85.5 -39t86 18t63 44.5l56.5 57.5t59.5 57.5t71.5 44.5t91.5 18q69 0 119.5 -50.5t50.5 -112t-38 -99.5t-87 -38t-87 25t-38 45q0 30 30 30q8 0 33.5 -20t55.5 -20t50.5 20.5t20.5 49.5q0 45 -32.5 77.5t-75.5 32.5t-80 -18t-63 -44.5l-56.5 -57.5t-59.5 -57.5t-71.5 -44.5
t-91.5 -18q-82 0 -136 57.5t-54 152.5q0 48 6 94l-26 6q-30 8 -30 30q0 30 30 30z" />
    <glyph glyph-name="r_s" unicode="rs" horiz-adv-x="1080" 
d="M100 240l10 -40q0 -30 -30 -30q-13 0 -26.5 21t-13.5 49t14.5 44t45.5 33q75 43 180 43q39 0 64.5 -33.5t25.5 -87.5t31 -121.5t69 -67.5q31 0 49 27t45 57.5t66 68t87 62.5t91 25q90 0 141 -61t51 -149q0 -68 -45.5 -104t-94.5 -36q-30 0 -30 29t30 31q32 2 56 22t24 58
q0 62 -31.5 106t-100.5 44q-40 0 -94 -38q-85 -60 -144 -147q-16 -24 -43 -39.5t-57 -15.5q-65 0 -112.5 82.5t-47.5 177.5q0 18 -7.5 34t-21.5 16q-83 0 -156 -38q-25 -12 -25 -22z" />
    <glyph glyph-name="s_s" unicode="ss" horiz-adv-x="1080" 
d="M557 150q-67 -48 -67 -100q0 -30 30 -30q16 0 28 21t12 53t-3 56zM916 10q-66 -3 -66 -30q0 -30 30 -30q25 0 36 60zM597 239q118 51 181 51q87 0 143 -64t59 -154q62 6 80 12t22 6q30 0 30 -30q0 -22 -30 -32q-32 -12 -105 -17q-9 -60 -35 -90.5t-64 -30.5t-63 25
t-25 65q0 87 130 90q-2 61 -38.5 110.5t-97.5 49.5t-171 -49q7 -35 7 -92t-29 -93t-71 -36t-66 24.5t-24 65.5q0 93 114 162q-27 68 -84 68q-47 0 -176 -78t-181 -116t-73 -48q-21 -8 -32 -8q-30 0 -30 30q0 20 27 30t63 36l101 70t160.5 94t140.5 50q97 0 137 -101z" />
    <glyph glyph-name="t_s" unicode="ts" horiz-adv-x="960" 
d="M90 500q6 0 71 -10l9 66q4 30 30 30q30 0 30 -30q0 -4 -2 -20l-7 -55q86 -11 149 -11q30 0 30 -30t-30 -30q-64 0 -156 11q-14 -124 -14 -185.5t39.5 -118.5t89.5 -57t92.5 19.5t75.5 47.5l66.5 56t81.5 47.5t110.5 19.5t113.5 -51t51 -112t-38 -99t-89 -38t-87 33.5
t-36 56.5q0 30 30 30q8 0 20 -15q34 -45 66.5 -45t53 20.5t20.5 49.5q0 45 -32.5 77.5t-79.5 32.5t-90 -19.5t-75.5 -47.5l-66.5 -56q-81 -67 -186 -67q-77 0 -133.5 74t-56.5 151t14 205l-34.5 5.5t-29.5 4.5q-30 5 -30 30q0 30 30 30z" />
    <glyph glyph-name="a_t" unicode="at" horiz-adv-x="920" 
d="M570 223q-36 -77 -77 -125t-73 -48q-67 0 -88 97q-21 -36 -52 -66q-62 -61 -140 -61q-40 0 -70 30t-30 70q0 98 71 169t151 71q45 0 77.5 -16.5t32.5 -33.5q0 -30 -30 -30q-6 0 -29 10t-51 10q-52 0 -107 -52t-55 -128q0 -15 12 -27.5t30.5 -12.5t38 7t32.5 16t27 24
q21 21 38 47l10 16q16 23 19.5 28.5t8 11.5t7 9t5.5 6q5 5 17.5 5t21 -12.5t16.5 -48.5q16 -79 37 -79q7 0 23.5 19t37.5 55t41 80q49 105 61 210q0 3 2.5 27.5t6.5 68.5l8 88q3 30 30 30q30 0 30 -30q0 -4 -2 -20q-28 -280 -28 -428q0 -48 10 -70q110 110 210 110
q30 0 30 -30t-33.5 -30t-72 -20.5t-63 -44.5l-45 -44.5t-26.5 -20.5q-37 0 -53.5 49.5t-16.5 113.5z" />
    <glyph glyph-name="e_t" unicode="et" horiz-adv-x="820" 
d="M130 155q100 62 100 125q0 20 -15 35t-39 15t-40 -33t-16 -72t10 -70zM560 658l-2 -20q-28 -280 -28 -358t10 -100q8 6 24 22l34 34q44 44 126 86q16 8 26 8q30 0 30 -30q0 -17 -30 -32q-47 -24 -87 -56q-39 -30 -59 -54q-48 -58 -64 -58q-33 0 -50.5 41.5t-19.5 97.5
q-47 -116 -110.5 -177.5t-137 -61.5t-119.5 72q-23 -12 -34.5 -12t-20 8.5t-8.5 16.5t0.5 10.5t1 4.5t1.5 4t2 3.5t3 3.5q3 3 4 3q9 4 10.5 5t13.5 7q-16 45 -16 105.5t32.5 109.5t82.5 49t82.5 -32.5t32.5 -77.5q0 -98 -134 -180q27 -40 64 -40q95 0 173 155.5t107 442.5
q3 30 30 30q30 0 30 -30z" />
    <glyph glyph-name="f_t" unicode="ft" horiz-adv-x="820" 
d="M560 81q10 -130 10 -131q0 -30 -30 -30q-27 0 -30 30q0 4 -2 24q-3 28 -6 81q-262 -123 -262 -337q0 -30 -30 -30t-30 30q0 5 -2 53q-8 144 -8 219.5t3 138.5q-79 -60 -103 -60q-30 0 -30 30q0 13 30 32q64 44 109 80q17 188 59.5 313.5t111.5 125.5q34 0 58.5 -17
t34.5 -43q17 -44 17 -80q0 -74 -63.5 -160.5t-159.5 -169.5q-7 -100 -7 -154t2 -116q70 121 268 209q5 239 70 431q10 30 30 30q30 0 30 -30q0 -11 -4 -23q-58 -171 -65 -383l169 62q11 4 20 4q30 0 30 -30q0 -20 -30 -31q-8 -3 -79 -27.5t-111 -40.5zM245 269
q155 148 155 241q0 39 -15 59.5t-35 20.5q-24 0 -52 -79q-37 -109 -53 -242z" />
    <glyph glyph-name="r_t" unicode="rt" horiz-adv-x="960" 
d="M890 440q0 -30 -30 -30q-12 0 -31 5t-69 5q-14 0 -44 -10t-36 -10q-30 0 -30 29q0 22 30 32q57 19 80 19q130 0 130 -40zM508 145q-58 -105 -136 -105q-20 0 -36.5 10.5t-25 20.5t-16.5 33q-10 28 -17 55.5t-28 127.5q-11 53 -49 53q-50 0 -75 -11.5t-25 -28.5
q0 -8 10 -18q30 -32 30 -73t-14 -75q-16 -33 -38 -53q-57 -51 -88.5 -51t-31.5 30q0 19 30 31q82 33 82 119q0 13 -20 39.5t-20 50.5q0 51 45 75.5t115 24.5q43 0 71 -30t38 -78q18 -88 25 -115t8 -33l7 -20q9 -24 23 -24q49 0 88.5 85.5t49.5 173.5q21 183 40 299
q5 30 30 30q30 0 30 -30q0 -4 -5.5 -38t-25 -185.5t-19.5 -214.5q0 -92 47 -131t133 -39q100 0 182 28q14 4 25.5 8t14.5 4q30 0 30 -30q0 -22 -30 -32q-98 -38 -222 -38q-196 0 -232 155z" />
    <glyph glyph-name="t_t" unicode="tt" horiz-adv-x="840" 
d="M400 658q5 30 30 30q30 0 30 -29q0 -5 -2 -17q-18 -108 -18 -202t4 -134q74 46 152 62q10 2 14 2q30 0 30 -30q0 -10 -9.5 -19t-20.5 -11q-73 -15 -160 -70q16 -99 82 -156q38 -34 80 -34t72.5 3t52.5 7.5t37 8.5q34 9 49.5 15t18.5 6q30 0 30 -30q0 -22 -30 -32
q-98 -38 -222 -38q-43 0 -80 17t-61 43q-25 25 -43 56q-34 57 -40 101q-24 -18 -74.5 -63.5t-89 -74.5t-59.5 -29t-35 5t-24.5 18.5t-18 27.5t-12 42t-7.5 52t-4 67q-2 86 -2 176t14 230q3 30 30 30q30 0 30 -30q0 -7 -7 -84t-7 -160t2.5 -145t6 -94.5t9 -50t10.5 -21
t13 -3.5t39 27l83 73t93 76q-6 60 -6 161t20 221z" />
    <glyph glyph-name="u_t" unicode="ut" horiz-adv-x="1000" 
d="M320 280q30 0 30 -33.5t19.5 -65t41.5 -31.5q39 0 93 133q41 101 76 273q7 30 30 30q30 0 30 -30q0 -8 -9 -52q-21 -104 -21 -224q0 -35 8.5 -77.5t21.5 -42.5q8 0 44 25q122 84 224 120q15 5 22 5q30 0 30 -30q0 -22 -30 -31q-63 -21 -125.5 -59l-102.5 -64t-62 -26
q-75 0 -88 142q-63 -152 -141 -152q-53 0 -89 55q-26 -47 -69 -76t-97 -29t-85 39t-31 101q0 30 10 80q6 30 30 30q30 0 30 -30q0 -6 -5 -31t-5 -49q0 -80 60 -80q52 0 91 47t39 103q0 30 30 30z" />
    <glyph glyph-name="ecircumflex_t" unicode="&#xea;t" horiz-adv-x="820" 
d="M130 155q100 62 100 125q0 20 -15 35t-39 15t-40 -33t-16 -72t10 -70zM560 658l-2 -20q-28 -280 -28 -358t10 -100q8 6 24 22l34 34q44 44 126 86q16 8 26 8q30 0 30 -30q0 -17 -30 -32q-47 -24 -87 -56q-39 -30 -59 -54q-48 -58 -64 -58q-33 0 -50.5 41.5t-19.5 97.5
q-47 -116 -110.5 -177.5t-137 -61.5t-119.5 72q-23 -12 -34.5 -12t-20 8.5t-8.5 16.5t0.5 10.5t1 4.5t1.5 4t2 3.5t3 3.5q3 3 4 3q9 4 10.5 5t13.5 7q-16 45 -16 105.5t32.5 109.5t82.5 49t82.5 -32.5t32.5 -77.5q0 -98 -134 -180q27 -40 64 -40q95 0 173 155.5t107 442.5
q3 30 30 30q30 0 30 -30zM252.5 606q-26.5 -22 -64.5 -60l-42 -42q-4 -4 -6 -5.5t-5 -4.5q-9 -9 -12 -10t-5 -2q-4 -2 -8 -2q-30 0 -30 30q0 15 30 43l27.5 27t25.5 25.5t21.5 21t21 19t18.5 14.5t19.5 12.5t17.5 7.5q17 8 35 8t30.5 -5.5t21 -13.5t16 -21t12 -23.5t9 -26.5
t6.5 -24q7 -28 7 -36q2 -7 2 -12q0 -30 -29 -30q-25 0 -31 30q-20 102 -40.5 102t-47 -22z" />
    <glyph glyph-name="o_u" unicode="ou" horiz-adv-x="1060" 
d="M520 330q-25 0 -56 -14t-53 -21q29 -42 29 -76t-14.5 -64.5t-42.5 -61.5t-79 -52t-110 -21t-106.5 38t-47.5 102q0 85 69 142.5t151 57.5q30 0 30 -30t-30 -30q-57 0 -108.5 -41t-51.5 -99q0 -38 29 -59t70 -21t80 16t59 38q42 46 42 75t-13 46t-30 21q-27 7 -27 24
t15 26t49.5 20.5t61.5 23.5q48 20 84 20q68 0 90 -90q12 -47 34.5 -83.5t55.5 -36.5q23 0 61 52q14 20 38.5 36.5t57 16.5t58.5 -32q26 -33 37 -71q29 -103 58 -102q19 0 34 5t18 5q30 0 30 -30q0 -22 -27 -31t-59.5 -9t-58.5 32t-37 70q-29 103 -59 103q-22 -1 -60 -53
q-14 -20 -38.5 -36t-59.5 -16t-67.5 29.5t-47.5 62.5t-25.5 75.5t-32.5 42.5z" />
    <glyph glyph-name="q_u" unicode="qu" horiz-adv-x="880" 
d="M700 220q58 0 84.5 -70t45.5 -70t34 5t18 5q30 0 30 -30q0 -22 -27 -31t-50.5 -9t-39.5 9t-29 28q-16 24 -40 77q-12 26 -26 26q-16 0 -36 -31q-24 -38 -38 -56q-37 -43 -79 -43t-69.5 27.5t-27.5 72.5q0 100 10 160q5 30 30 30q30 0 30 -30q0 -8 -5 -38t-5 -122
q0 -40 40 -40q14 0 32 24q6 8 20 29.5t24.5 35t31 27.5t42.5 14zM140 90q11 0 38 39.5t39 55t33 30.5t40 15q40 0 65 -25t25 -65q0 -22 -10 -133.5t-10 -167.5t16 -104q4 -12 4 -17q0 -30 -30 -30q-11 0 -19.5 10.5t-10.5 19.5q-20 56 -20 119t10 173t10 130q0 30 -30 30
q-11 0 -41 -43.5t-40 -56.5t-29.5 -26.5t-39.5 -13.5q-52 0 -81 37t-29 93q0 82 57 151t133 69q38 0 80 -24q30 -18 30 -36q0 -30 -30 -30q-7 0 -30 14q-32 16 -50 16q-52 0 -91 -51.5t-39 -108.5q0 -70 50 -70z" />
    <glyph glyph-name="s_u" unicode="su" horiz-adv-x="1120" 
d="M487 190q-67 -48 -67 -100q0 -30 30 -30q16 0 28 21t12 53t-3 56zM40 60q0 64 59 140.5t142.5 128t148.5 51.5q97 0 137 -101q45 21 83 21q68 0 90 -90q1 -3 4 -16t4 -16.5t4.5 -14.5t5.5 -15l6 -12q4 -8 8 -11t10 -7q9 -7 28 -8q30 0 70 92q28 64 54 77q12 6 28 6
q37 0 60.5 -32t32 -70.5t22.5 -70.5t33 -32t34 5t18 5q30 0 30 -30q0 -22 -27 -31t-61.5 -9t-60 32t-33.5 70q-21 103 -49 103q-6 0 -19 -27.5l-28 -60t-43 -60t-57.5 -27.5t-50 9.5t-32.5 22.5q-13 12 -23 34q-15 32 -25.5 78t-32.5 46q-26 0 -67 -19q7 -35 7 -92t-29 -93
t-71 -36t-66 24.5t-24 65.5q0 93 114 162q-27 68 -80 68t-122 -43.5t-120.5 -106t-51.5 -110.5q0 -30 -30 -30q-18 0 -24 6.5t-6 23.5z" />
    <glyph glyph-name="t_u" unicode="tu" horiz-adv-x="1000" 
d="M98 443q-15 -3 -28 -3q-30 0 -30 30q0 11 8 19.5t21 10.5l35 5q6 74 6 153q0 13 8.5 21.5t21.5 8.5q30 0 30 -30q0 -53 -6 -149q10 1 53 1t133 5t100 5q30 0 30 -30t-30 -30q-10 0 -100 -5t-132.5 -5t-58.5 -1q-19 -207 -19 -249q0 -140 30 -140q45 0 97 62q55 66 90 104
q69 74 133 74q68 0 90 -90q1 -3 4 -16t4 -16.5t4.5 -14.5t5.5 -15l6 -12q4 -8 8 -11t10 -7q9 -8 28 -8q30 0 70 92q28 64 54 77q12 6 28 6q37 0 60.5 -32t32 -70.5t22.5 -70.5t33 -32t34 5t18 5q30 0 30 -30q0 -22 -27 -31t-61.5 -9t-60 32t-33.5 70q-21 103 -49 103
q-6 0 -19 -27.5l-28 -60t-43 -60t-57.5 -27.5t-50 9.5t-32.5 22.5q-13 12 -23 34q-15 32 -25.5 78t-33 46t-48.5 -18t-48 -44.5l-49 -57.5l-52 -57.5t-57.5 -44.5t-64.5 -18q-90 0 -90 200q0 41 18 243z" />
    <glyph glyph-name="a_v" unicode="av" horiz-adv-x="1060" 
d="M510 300q0 30 30 30q14 0 19.5 -6.5t16 -38l17.5 -51.5t21 -55t24 -51l25 -34q26 -33 67 -34q28 0 51 68.5t50 205.5q6 32 32.5 54t65.5 22q19 0 29 -5l13 -7l9 -6t8 -5q8 -4 16 -12q16 -12 16 -24t-8 -21.5t-21 -9.5t-32 15t-29 15q-34 0 -40 -30q-37 -183 -70.5 -251.5
t-93 -68.5t-100.5 45t-75 130q-16 -48 -42 -76.5t-62.5 -28.5t-66 23t-38.5 59q-11 -22 -30.5 -48.5t-59 -55t-87 -28.5t-86.5 41t-39 95q0 204 140 204q51 0 101 -50q19 -19 19 -30q0 -30 -30 -30q-14 0 -30 16q-34 34 -60 34q-80 0 -80 -144q0 -30 21 -53t53.5 -23
t67 36.5t48.5 64.5q33 69 44 77q3 2 12.5 2t18 -4.5t10.5 -8.5t11.5 -41t22 -56.5t41.5 -19.5q11 0 24.5 21t24.5 61.5t11 87.5z" />
    <glyph glyph-name="u_x" unicode="ux" horiz-adv-x="1060" 
d="M731 153q-23 31 -63 92q-20 -85 -57 -145t-91 -60q-31 0 -57 29.5t-39.5 61t-29.5 78.5q-30 -108 -78 -135q-24 -14 -56 -14q-112 0 -125 120q-61 -121 -108 -142q-18 -8 -29 -8q-30 0 -30 30q0 19 31.5 31.5t114.5 179.5q14 29 46 29q14 0 22 -8.5t8 -21.5
q0 -120 28 -140q14 -10 41 -10t43 19.5t24.5 47.5l16.5 56q19 67 67 67q30 0 30 -34t31 -105t49 -71q35 0 67.5 89t32.5 141q0 30 30 30q11 0 32 -30l83 -120q41 65 72 87.5t66.5 22.5t58.5 -24q22 -24 34 -60q24 -73 24 -121.5t-27 -81.5t-73 -33q-62 0 -148 102l-68 -132
q-10 -20 -17.5 -25t-16.5 -5q-30 0 -30 30q0 4 12 30q56 112 79 153zM803 158q78 -98 117 -98q20 0 30 16t10 45.5t-17.5 84t-32.5 54.5q-25 0 -47.5 -20t-59.5 -82z" />
    <glyph glyph-name="l_y" unicode="ly" horiz-adv-x="760" 
d="M620 -282q0 -13 -9 -21.5t-21 -8.5q-30 0 -30 30q0 51 13 122l22 118l15 78l17 86t16 82q-61 -54 -103 -54q-24 0 -43 14t-30 38q-27 58 -27 87t29 29q25 0 31 -30q5 -24 16 -51t24 -27q28 0 108 80q30 30 42 30q30 0 30 -30q0 -10 -10 -50.5t-50 -257t-40 -264.5z
M330 30q0 -30 -30 -30q-2 0 -54.5 10.5t-87 23.5t-53.5 35q-45 53 -45 131q0 201 42 309.5t118 108.5q49 0 84.5 -46t35.5 -152q0 -60 -30 -110.5t-80 -78.5q-19 -11 -30 -11t-20.5 8t-9.5 23t33.5 34t55 55t21.5 80q0 138 -60 138q-41 0 -70.5 -95t-29.5 -263q0 -57 28 -90
q13 -15 40.5 -24t111.5 -26q30 -5 30 -30z" />
    <glyph glyph-name="e_z" unicode="e&#x7a;" horiz-adv-x="840" 
d="M701 -115q-47 -7 -83.5 -23t-52 -30t-15.5 -24q0 -24 26.5 -42t73.5 -18q80 0 80 59q0 22 -29 78zM766 -110q24 -46 24 -82q0 -56 -38.5 -88t-105 -32t-111.5 35.5t-45 81.5t49.5 83t132.5 53q-32 70 -32 116.5t20 114.5t20 78q0 30 -60 30q-42 0 -116 -17q26 -37 26 -73
q0 -58 -52 -98q-94 -72 -238 -72q-96 0 -153 45l-66 -29.5t-23 -5.5q-30 0 -30 30q0 19 30 31q10 4 51 22q-9 21 -9 49q0 61 30.5 108.5t68.5 68.5t79.5 21t71.5 -24.5t30 -65.5q0 -81 -167 -172q39 -18 83 -18t95.5 11.5t95 38t43.5 60.5q0 21 -25 51.5t-25 41.5
q0 22 30 29q112 28 168.5 28t89 -23.5t32.5 -66.5q0 -24 -20 -89.5t-20 -105.5t34 -106q12 1 36 1q30 0 30 -30t-34 -30zM105 140q155 81 155 130q0 30 -50 30q-31 0 -70.5 -37.5t-39.5 -100.5q0 -10 5 -22z" />
    <glyph glyph-name="o_ugrave" unicode="o&#xf9;" horiz-adv-x="1060" 
d="M740 657q0 31 30 31q12 0 40.5 -23.5t65.5 -66t57 -82.5q7 -13 7 -24q0 -30 -30 -30q-17 0 -32 30q-35 69 -108 128q-30 24 -30 37zM520 330q-25 0 -56 -14t-53 -21q29 -42 29 -76t-14.5 -64.5t-42.5 -61.5t-79 -52t-110 -21t-106.5 38t-47.5 102q0 85 69 142.5t151 57.5
q30 0 30 -30t-30 -30q-57 0 -108.5 -41t-51.5 -99q0 -38 29 -59t70 -21t80 16t59 38q42 46 42 75t-13 46t-30 21q-27 7 -27 24t15 26t49.5 20.5t61.5 23.5q48 20 84 20q68 0 90 -90q12 -47 34.5 -83.5t55.5 -36.5q23 0 61 52q14 20 38.5 36.5t57 16.5t58.5 -32
q26 -33 37 -71q29 -103 58 -102q19 0 34 5t18 5q30 0 30 -30q0 -22 -27 -31t-59.5 -9t-58.5 32t-37 70q-29 103 -59 103q-22 -1 -60 -53q-14 -20 -38.5 -36t-59.5 -16t-67.5 29.5t-47.5 62.5t-25.5 75.5t-32.5 42.5z" />
    <glyph glyph-name="c_h_y" unicode="chy" horiz-adv-x="1400" 
d="M445.5 124q-6.5 -6 -23.5 -14.5t-47 -20t-82.5 -25.5t-92.5 -14q-84 0 -122 39.5t-38 100.5q0 84 55 127t135 43q38 0 74 -17t36 -33q0 -30 -30 -30q-9 0 -36.5 10t-43.5 10q-59 0 -94.5 -28t-35.5 -75.5t23.5 -67t76.5 -19.5q94 0 208 57q6 3 14 3q30 0 30 -30
q0 -10 -6.5 -16zM1267 -47q56 7 63 7q30 0 30 -30q0 -11 -9 -20t-35.5 -11.5t-63.5 -7.5q-12 -46 -37 -118q-28 -85 -95 -85q-41 0 -65.5 35t-24.5 95q0 94 173 126q17 73 17 130q-32 -24 -100 -24q-44 0 -70.5 31t-32.5 65l-8 -8l-11 -11t-11.5 -10.5t-13.5 -11l-14 -9.5
t-16 -8q-21 -8 -33 -8q-40 0 -70 28.5t-30 81.5q0 30 -30 30q-6 0 -40.5 -25t-87 -50t-97.5 -25t-70 25t-25 64.5t43 187.5t89 231q32 60 82 60t84 -60q42 -76 42 -138q0 -40 -25 -65t-65 -25q-15 0 -60 9q-30 6 -30 31q0 30 30 30q8 0 23 -5q25 -5 37 -5q30 0 30 30.5
t-22.5 84t-47.5 53.5q-27 0 -88.5 -184.5t-61.5 -233.5q0 -30 30 -30q42 0 87.5 25t83 50t59.5 25q40 0 65 -25t25 -65q0 -19 10 -34.5t27 -15.5t64.5 45t68.5 45q30 0 30 -30q0 -40 14 -65t36 -25q53 0 76.5 19.5t23.5 40.5q0 30 30 30t30 -30v-96q0 -58 -13 -121z
M1186 -122q-96 -24 -96 -60q0 -70 30 -70q14 0 24 16q14 22 42 114z" />
    <glyph glyph-name="v_o_u" unicode="vou" horiz-adv-x="1640" 
d="M790 310q0 16 12.5 24.5t98 37t139.5 28.5q68 0 90 -90q11 -43 43.5 -86.5t66.5 -43.5q21 0 52 26t68 52.5t73 26.5t62 -32q26 -33 37 -71q29 -102 58 -102q19 0 34 5t18 5q30 0 30 -30q0 -22 -27 -31t-59.5 -9t-58.5 32t-37 70q-29 102 -59 103q-21 0 -52 -26.5
t-67.5 -52.5t-71.5 -26q-61 0 -106.5 57t-58.5 110t-35 53q-38 0 -107 -22q87 -40 87 -143q0 -47 -38 -97q-20 -26 -56 -42t-70.5 -16t-63 3t-71.5 17.5t-68 38.5q-42 41 -42 99q0 36 42 105q-5 -1 -37 -5q-79 -10 -122.5 -20t-55.5 -31q-5 -8 -20 -37t-23.5 -44
l-24.5 -41.5t-28 -41.5t-28 -31q-30 -32 -61 -32q-132 0 -171 310q-2 16 -2 20q0 30 30 30q11 0 19 -9t10 -22q15 -124 45 -196.5t69 -72.5q13 0 28 20t23 32t21.5 35t20.5 36l42 77.5t82.5 53t149.5 25.5t110 11q30 0 30 -30q0 -13 -17 -29.5l-29 -28.5l-19 -24
q-22 -29 -22 -61.5t22 -54.5q41 -42 150 -42q55 0 85 32.5t30 62.5q0 105 -140 105q-30 0 -30 30z" />
    <glyph glyph-name="c_c_o" unicode="cco" horiz-adv-x="1320" 
d="M310 280q0 7 -14.5 13.5t-35.5 6.5q-69 0 -114.5 -51t-45.5 -109q0 -19 20 -36q39 -34 100 -34t126 21t68 34q13 61 66 103t130 42q17 0 49 -7.5t32 -30.5q0 -30 -30 -30q-3 0 -21 4t-30 4q-66 0 -103.5 -39t-37.5 -84q0 -25 62 -39q36 -8 89 -8q105 0 271 118q3 2 9 8
q6 5 10 7q12 7 20 7q30 0 30 -30q0 -10 -15 -25t-15 -25q0 -28 47 -39t100 -11t98.5 20t45.5 58t-32 60t-75 22q-11 0 -30.5 -5t-23.5 -5q-30 0 -30 30q0 15 26 27.5t58 12.5q78 0 122 -43t44 -104t-60 -97t-140 -36q-178 0 -206 85q-44 -33 -119.5 -64t-134.5 -31
q-166 0 -204 73q-30 -15 -86.5 -29t-99.5 -14q-95 0 -142.5 43.5t-47.5 86.5q0 87 64.5 153.5t155.5 66.5q51 0 80.5 -24t29.5 -55t-30 -31t-30 30z" />
    <glyph glyph-name="c_t_i" unicode="cti" horiz-adv-x="1260" 
d="M630 658q0 -160 -38 -342q-12 -60 -12 -91t8 -53t22 -22q10 0 64.5 32.5t127.5 65.5q74 32 122 32q96 0 96 -130q0 -70 30 -70t30 -30t-30 -30q-42 0 -66 33.5t-24 100t-30 66.5q-49 0 -116 -32.5t-123.5 -65t-84 -32.5t-50 22.5t-31.5 60.5q-97 -173 -255 -173
q-65 0 -107.5 71.5t-42.5 158.5q0 53 58 91.5t132 38.5q51 0 101 -20q29 -12 29 -30q0 -30 -30 -30q-10 0 -35 10t-70.5 10t-85 -23t-39.5 -47q0 -59 26 -114.5t64 -55.5q96 0 166 88.5t102 221.5t32 288q0 30 30 30t30 -30zM1100 510q16 0 33 -17t17 -32.5t-13 -23
t-29.5 -7.5t-27 16t-10.5 34q0 30 30 30z" />
    <glyph glyph-name="c_o_n" unicode="con" horiz-adv-x="1480" 
d="M1060 138q112 202 227 202q49 0 71 -53q20 -46 28.5 -89t11.5 -56t8 -30q9 -32 24 -32q19 0 34 5t18 5q30 0 30 -30q0 -22 -27 -31t-51 -9t-39 9t-25 20q-8 11 -16 33q-10 29 -21 80q-23 118 -46.5 118t-48 -16t-42 -34t-42.5 -55.5t-35 -55.5q-35 -63 -36.5 -66t-4 -6
t-6.5 -7q-8 -9 -20 -9.5t-20.5 8.5t-11.5 21q-30 96 -30 150q0 120 -30 120q-27 0 -46.5 -6.5l-43.5 -15l-39 -13.5q29 -42 29 -76t-14.5 -67.5t-42.5 -68.5t-79 -59t-107 -24t-100.5 30.5t-54.5 83.5q-105 -84 -292 -84q-56 0 -93 31.5t-37 77.5q0 99 79.5 160t180.5 61
q34 0 72 -14.5t38 -35.5q0 -12 -9 -21t-21 -9t-31.5 10t-48.5 10q-78 0 -139 -44.5t-61 -115.5q0 -22 20 -36t50 -14q112 0 174.5 24.5t119.5 81.5q24 24 36 24q30 0 30 -30q0 -6 -5 -21.5t-5 -28.5q0 -38 29 -59t69.5 -21t80 19t59.5 45q42 54 42 84t-13 47t-30 21
q-27 7 -27 24t15 26t45 19l59 20q29 9 41 13q39 12 70 12q90 0 90 -180q0 -32 10 -72z" />
    <glyph glyph-name="eacute_t_eacute" unicode="&#xe9;t&#xe9;" horiz-adv-x="1220" 
d="M340 370q-30 0 -30 30q0 11 8 26q30 60 122 121q20 13 30 13q30 0 30 -30q0 -16 -22 -31q-85 -57 -106 -99q-15 -30 -32 -30zM1000 488q-30 0 -30 30q0 13 16 29q114 121 144 121t30 -30q0 -15 -22 -30q-47 -32 -108 -102q-16 -18 -30 -18zM700 658l-12 -117q49 9 98.5 9
t84.5 5t39 5q30 0 30 -30q0 -12 -9 -20t-21 -10q-82 -10 -133 -10t-95 -14q-12 -120 -12 -226q0 -65 31.5 -112.5t88.5 -47.5q42 0 73 8q-53 64 -53 142q0 50 33 85t84 35t82 -37t31 -93q0 -89 -63 -142q22 -8 43 -8q53 0 105 24q13 6 25.5 6t21 -8.5t8.5 -21t-6.5 -18
t-23.5 -12.5q-68 -30 -126 -30t-108 32q-54 -22 -130.5 -22t-125 62t-50.5 151q-106 -253 -320 -253q-49 0 -89 34q-62 -24 -131 -24q-30 0 -30 30t30 30q44 0 90 13q-30 51 -30 106t26 93t74 38t74 -38t26 -92q0 -74 -70 -124q14 -6 30 -6q148 0 234 152t116 456
q3 30 30 30q30 0 30 -30zM215 98q55 34 55 82q0 27 -10 48.5t-30 21.5t-30 -21.5t-10 -57t25 -73.5zM922 122q58 36 58 108q0 30 -14 50t-39 20t-41 -18t-16 -42q0 -68 52 -118z" />
    <glyph glyph-name="o_f_f" unicode="off" horiz-adv-x="1280" 
d="M701 63l-1 -63q0 -129 19 -190.5t61 -61.5q6 0 29.5 10t40.5 10q30 0 30 -30q0 -15 -34 -32.5t-66 -17.5q-140 0 -140 312q0 31 1 47q-57 -16 -88 -31.5t-43 -15.5q-30 0 -30 30q0 15 30 30q75 33 134 50q4 55 25 254t21 294q0 30 30 30q18 0 24 -7.5t6 -22.5
q0 -93 -21 -292t-24 -242q108 24 238 35q1 22 14 149.5t13 247.5q0 30 30 30q18 0 24 -7.5t6 -22.5q0 -133 -12 -242t-15 -150q93 6 207 6q30 0 30 -31t-30 -31q-117 0 -210 -6v-42q0 -60 21 -128q29 -94 29 -112q0 -30 -30 -30q-22 0 -30 30q-4 17 -20 71q-30 101 -30 169
v38q-132 -12 -239 -35zM140 271q-40 -54 -40 -100t38 -78.5t92 -32.5q39 0 66 14q54 26 54 78t-27.5 85t-72.5 33q-24 0 -48.5 -15t-31.5 -15q-30 0 -30 31zM164 303q44 27 86 27q68 0 114 -51t46 -126.5t-55.5 -114t-131 -38.5t-129.5 52t-54 118q0 33 15 69t24 49t31 42.5
t40 29.5q30 0 30 -30q0 -6 -16 -27z" />
    <glyph glyph-name="ucircumflex_t" unicode="&#xfb;t" horiz-adv-x="1000" 
d="M312.5 506q-26.5 -22 -64.5 -60l-42 -42q-4 -4 -6 -5.5t-5 -4.5q-9 -9 -12 -10t-5 -2q-4 -2 -8 -2q-30 0 -30 30q0 15 30 43l27.5 27t25.5 25.5t21.5 21t21 19t18.5 14.5t19.5 12.5t17.5 7.5q17 8 35 8t30.5 -5.5t21 -13.5t16 -21t12 -23.5t9 -26.5t6.5 -24q7 -28 7 -36
q2 -7 2 -12q0 -30 -29 -30q-25 0 -31 30q-20 102 -40.5 102t-47 -22zM320 280q30 0 30 -33.5t19.5 -65t41.5 -31.5q39 0 93 133q41 101 76 273q7 30 30 30q30 0 30 -30q0 -8 -9 -52q-21 -104 -21 -224q0 -35 8.5 -77.5t21.5 -42.5q8 0 44 25q122 84 224 120q15 5 22 5
q30 0 30 -30q0 -22 -30 -31q-63 -21 -125.5 -59l-102.5 -64t-62 -26q-75 0 -88 142q-63 -152 -141 -152q-53 0 -89 55q-26 -47 -69 -76t-97 -29t-85 39t-31 101q0 30 10 80q6 30 30 30q30 0 30 -30q0 -6 -5 -31t-5 -49q0 -80 60 -80q52 0 91 47t39 103q0 30 30 30z" />
    <glyph glyph-name="uni02E1_uni1D49" unicode="&#x2e1;&#x1d49;" horiz-adv-x="500" 
d="M160 440q0 62 25 111t75 49q39 0 69.5 -30.5t30.5 -69.5q0 -67 -66 -97q46 5 116 33q10 4 20 4q30 0 30 -30q0 -18 -30 -30q-100 -40 -170 -40q-52 0 -81 40h-19q-53 0 -86.5 37.5t-33.5 102.5t29 138q12 30 31 30q30 0 30 -30q0 -7 -4 -17q-26 -65 -26 -131
q0 -31 15.5 -50.5t44.5 -19.5zM220 444q80 11 80 56q0 15 -12.5 27.5t-27.5 12.5q-19 0 -29 -31.5t-11 -64.5z" />
    <glyph glyph-name="hyphen_t_hyphen" unicode="&#x2d;t&#x2d;" horiz-adv-x="1080" 
d="M1010 140q-40 0 -65 -5t-35 -5q-30 0 -30 30q0 24 30 30q57 10 100 10q30 0 30 -30t-30 -30zM630 239q11 1 50.5 1t72.5 -6.5t40 -12.5t7 -20q0 -31 -30 -31q-8 0 -33 5t-59.5 5t-44.5 -1q2 -33 5.5 -68t12.5 -53t9 -28q0 -30 -30 -30q-16 0 -31.5 31t-18 56t-6.5 86
q-18 -3 -24 -3q-30 0 -30 30q0 12 9 20q10 9 41 13q0 52 5 157t5 120q0 30 30 30t30 -30q0 -17 -5 -120t-5 -151zM420 180q0 -30 -30 -30q-2 0 -47 5t-73 5q-90 0 -139 -17q-9 -3 -21 -3q-30 0 -30 29q0 21 30 31q60 20 160 20q30 0 120 -10q30 -4 30 -30z" />
    <glyph glyph-name="e_t_t" unicode="ett" horiz-adv-x="1240" 
d="M76 126q-16 45 -16 105.5t32.5 109.5t82.5 49t82.5 -32.5t32.5 -77.5q0 -98 -134 -180q27 -40 64 -40q88 0 158.5 136.5t103.5 394.5q6 44 8 67q3 30 30 30q30 0 30 -30q0 -9 -6 -67q-14 -120 -14 -190t2.5 -132t6 -94.5t9 -50t10.5 -21t13 -3.5t39 27l83 73t93 76
q-6 60 -6 161t20 221q5 30 30 30q30 0 30 -29q0 -5 -2 -17q-18 -108 -18 -202t4 -134q74 46 152 62q10 2 14 2q30 0 30 -30q0 -10 -9.5 -19t-20.5 -11q-73 -15 -160 -70q16 -99 82 -156q38 -34 80 -34t72.5 3t52.5 7.5t37 8.5q34 9 49.5 15t18.5 6q30 0 30 -30
q0 -22 -30 -32q-98 -38 -222 -38q-43 0 -80 17t-61 43q-25 25 -43 56q-34 57 -40 101q-24 -18 -74.5 -63.5t-89 -74.5t-62.5 -29q-54 0 -74 51t-24 171q-47 -129 -111.5 -195.5t-138 -66.5t-119.5 72q-12 -6 -53 -24t-52 -18q-30 0 -30 30q0 19 30 31q72 32 78 35zM130 155
q100 62 100 125q0 20 -15 35t-39 15t-40 -33t-16 -72t10 -70z" />
    <glyph glyph-name="a_t_t" unicode="att" horiz-adv-x="1320" 
d="M498 127q-33 -57 -74.5 -57t-63.5 24.5t-28 52.5q-21 -36 -52 -66q-62 -61 -140 -61q-40 0 -70 30t-30 70q0 98 71 169t151 71q45 0 77.5 -16.5t32.5 -33.5q0 -30 -30 -30q-6 0 -29 10t-51 10q-52 0 -107 -52t-55 -128q0 -15 12 -27.5t30.5 -12.5t38 7t32.5 16t27 24
q21 21 38 47l10 16q16 23 19.5 28.5t8 11.5t7 9t5.5 6q5 5 17.5 5t21 -12.5t15.5 -46t15.5 -47.5t22.5 -14q26 0 74 150q59 186 76 378q3 30 30 30q30 0 30 -30q0 -9 -6 -67q-14 -120 -14 -190t2.5 -132t6 -94.5t9 -50t10.5 -21t13 -3.5t39 27l83 73t93 76q-6 60 -6 161
t20 221q5 30 30 30q30 0 30 -29q0 -5 -2 -17q-18 -108 -18 -202t4 -134q74 46 152 62q10 2 14 2q30 0 30 -30q0 -10 -9.5 -19t-20.5 -11q-73 -15 -160 -70q16 -99 82 -156q38 -34 80 -34t72.5 3t52.5 7.5t37 8.5q34 9 49.5 15t18.5 6q30 0 30 -30q0 -22 -30 -32
q-98 -38 -222 -38q-43 0 -80 17t-61 43q-25 25 -43 56q-34 57 -40 101q-24 -18 -74.5 -63.5t-89 -74.5t-62.5 -29q-54 0 -74 51t-24 171q-36 -105 -54 -135z" />
    <glyph glyph-name="u_t_t" unicode="utt" horiz-adv-x="1320" 
d="M843 278q68 32 87 32q30 0 30 -30q0 -22 -30 -31.5t-74 -30.5q25 -79 88 -123.5t156 -44.5q100 0 182 28q14 4 25.5 8t14.5 4q30 0 30 -30q0 -22 -30 -32q-98 -38 -215 -38t-194 53t-110 146l-51 -32.5l-46 -29.5q-43 -27 -66 -27q-75 0 -88 142q-63 -152 -141 -152
q-53 0 -89 55q-26 -47 -69 -76t-97 -29t-85 39t-31 101q0 30 10 80q6 30 30 30q30 0 30 -30q0 -6 -5 -31t-5 -49q0 -80 60 -80q52 0 91 47t39 103q0 30 30 30t30 -33.5t19.5 -65t41.5 -31.5q39 0 93 133q41 101 76 273q7 30 30 30q30 0 30 -30q0 -8 -9 -52
q-21 -104 -21 -224q0 -35 8.5 -77.5t21.5 -42.5q6 0 24.5 12l54.5 35.5t68 41.5q-7 44 -7 79q0 108 20 228q5 30 30 30q30 0 30 -29q0 -5 -2 -17q-18 -108 -18 -212q0 -26 3 -50z" />
    <glyph glyph-name="c_quoteright" unicode="c&#x2019;" horiz-adv-x="600" 
d="M600 658q0 -99 -56 -210q-15 -30 -34 -30q-30 0 -30 30q0 7 4 15q56 105 56 195q0 30 30 30t30 -30zM330 28q-84 -28 -149.5 -28t-103 37.5t-37.5 102.5q0 89 58 154.5t132 65.5q41 0 75.5 -17t34.5 -33q0 -30 -30 -30q-13 0 -33 10t-47 10q-54 0 -92 -50.5t-38 -109.5
q0 -80 80 -80q57 0 126 23q21 7 24 7q30 0 30 -30q0 -22 -30 -32z" />
    <glyph glyph-name="l_quoteright" unicode="l&#x2019;" horiz-adv-x="460" 
d="M460 658q0 -99 -56 -210q-15 -30 -34 -30q-30 0 -30 30q0 7 4 15q56 105 56 195q0 30 30 30t30 -30zM170 10q0 -30 -30 -30q-16 0 -40 24q-60 60 -60 166q0 148 23 276t56 212q12 30 31 30q30 0 30 -30q0 -7 -4 -17q-33 -82 -54.5 -206t-21.5 -265q0 -82 40 -122
q30 -30 30 -38z" />
    <glyph glyph-name="m_quoteright" unicode="m&#x2019;" horiz-adv-x="1200" 
d="M1200 658q0 -99 -56 -210q-15 -30 -34 -30q-30 0 -30 30q0 7 4 15q56 105 56 195q0 30 30 30t30 -30zM680 30q-14 0 -22.5 15t-24.5 55t-27 87t-19 75t-17 28q-42 0 -96 -32q-28 -16 -46 -47.5t-18 -83.5t5 -72t5 -25q0 -30 -30 -30q-22 0 -31 35t-9 105q0 27 -12.5 61.5
t-26.5 56.5t-19 22q-38 0 -90 -62q-31 -37 -100 -132q-18 -26 -32 -26q-30 0 -30 30q0 9 11 25l57 81q18 24 54 66q67 78 128 78q21 0 49 -26t47 -68q32 46 83 75t101 29q25 0 42.5 -15.5t23 -29.5t10 -30t8 -35.5t4.5 -23.5q25 57 65 100.5t77 43.5q59 0 95.5 -77.5
t42.5 -189.5q1 -19 11.5 -33t10.5 -30q0 -30 -30 -30q-10 0 -30 26.5t-22 63.5q-4 79 -26.5 144.5t-51 65.5t-66.5 -68t-38 -99t7.5 -48.5t7.5 -24.5q0 -30 -31 -30z" />
    <glyph glyph-name="n_quoteright" unicode="n&#x2019;" horiz-adv-x="700" 
d="M700 658q0 -99 -56 -210q-15 -30 -34 -30q-30 0 -30 30q0 7 4 15q56 105 56 195q0 30 30 30t30 -30zM42 280l-2 20q0 30 30 30q27 0 30 -30q8 -79 9 -123q26 54 64.5 88.5t88 34.5t77.5 -45t31.5 -120t29.5 -75q9 0 54 15t48 15q30 0 30 -30q0 -22 -30 -32
q-84 -28 -102 -28q-42 0 -64.5 38.5t-25 92.5t-16 81.5t-34.5 27.5q-34 0 -65 -38t-48 -86t-17 -82t-30 -34q-32 0 -40 30q-10 50 -10 110t-8 140z" />
    <glyph glyph-name="A_A" unicode="AA" horiz-adv-x="960" 
d="M385 211q25 -136 48 -184q7 -14 7 -27q0 -30 -30 -30q-16 0 -30 30q-39 80 -63 240q-63 0 -169 -19l-48 -191q-4 -16 -10.5 -23t-19.5 -7q-30 0 -30 30q0 8 2 12l43 173h-15q-30 0 -30 30t30 30q18 0 30 1q24 88 68 223q28 87 90 87q18 0 38.5 -13.5t29.5 -46.5
q23 -82 46 -236q16 -6 42 -26.5t26 -33.5q0 -30 -30 -30q-7 0 -25 11zM308 300q-33 226 -50 226q-9 0 -13 -4.5t-6 -6.5t-4.5 -8t-3.5 -8q-6 -12 -6 -18q-46 -138 -61 -196q74 13 144 15zM865 211q25 -136 48 -184q7 -14 7 -27q0 -30 -30 -30q-16 0 -30 30q-39 80 -63 240
q-63 0 -169 -19l-48 -191q-4 -16 -10.5 -23t-19.5 -7q-30 0 -30 30q0 8 2 12l43 173h-15q-30 0 -30 30t30 30q18 0 30 1q24 88 68 223q28 87 90 87q18 0 38.5 -13.5t29.5 -46.5q23 -82 46 -236q16 -6 42 -26.5t26 -33.5q0 -30 -30 -30q-7 0 -25 11zM788 300q-33 226 -50 226
q-9 0 -13 -4.5t-6 -6.5t-4.5 -8t-3.5 -8q-6 -12 -6 -18q-46 -138 -61 -196q74 13 144 15z" />
    <glyph glyph-name="B_A" unicode="BA" horiz-adv-x="960" 
d="M865 211q25 -136 48 -184q7 -14 7 -27q0 -30 -30 -30q-16 0 -30 30q-39 80 -63 240q-63 0 -169 -19l-48 -191q-4 -16 -10.5 -23t-19.5 -7q-30 0 -30 30q0 8 2 12l43 173h-15q-30 0 -30 30t30 30q18 0 30 1q24 88 68 223q28 87 90 87q18 0 38.5 -13.5t29.5 -46.5
q23 -82 46 -236q16 -6 42 -26.5t26 -33.5q0 -30 -30 -30q-7 0 -25 11zM788 300q-33 226 -50 226q-9 0 -13 -4.5t-6 -6.5t-4.5 -8t-3.5 -8q-6 -12 -6 -18q-46 -138 -61 -196q74 13 144 15zM40 470q0 30 30 30q23 0 30 -30q6 -22 18 -91.5t12 -318.5q0 -30 -30 -30t-30 30
q0 236 -10 300q-9 56 -13 75q-7 28 -7 35zM160 526l-90 -6q-30 0 -30 30q0 27 30 30q60 6 90 6q96 0 153 -53t57 -123t-53 -118q54 -18 88.5 -50.5t34.5 -69.5t-13 -65.5t-30 -46.5t-51 -37t-58 -28l-70 -26l-65 -24.5t-36 -7.5q-30 0 -30 31q0 14 32.5 27l73.5 28l62.5 23
t49.5 22q27 14 41 27q34 32 34 75q0 29 -57 54.5t-113 25.5q-30 0 -30 30t30 30q40 0 70 30t30 72.5t-40 78t-110 35.5z" />
    <glyph glyph-name="C_A" unicode="CA" horiz-adv-x="960" 
d="M410 46q-92 -46 -179 -46t-139 72t-52 164t26.5 168.5t85 129t138.5 52.5q32 0 61 -16t29 -34q0 -30 -30 -30q-9 0 -26.5 10t-33.5 10q-62 0 -107 -45q-83 -83 -83 -241q0 -69 35 -124.5t95 -55.5q74 0 156 41q18 9 24 9q30 0 30 -30q0 -12 -6 -18.5t-24 -15.5zM865 211
q25 -136 48 -184q7 -14 7 -27q0 -30 -30 -30q-16 0 -30 30q-39 80 -63 240q-63 0 -169 -19l-48 -191q-4 -16 -10.5 -23t-19.5 -7q-30 0 -30 30q0 8 2 12l43 173h-15q-30 0 -30 30t30 30q18 0 30 1q24 88 68 223q28 87 90 87q18 0 38.5 -13.5t29.5 -46.5q23 -82 46 -236
q16 -6 42 -26.5t26 -33.5q0 -30 -30 -30q-7 0 -25 11zM788 300q-33 226 -50 226q-9 0 -13 -4.5t-6 -6.5t-4.5 -8t-3.5 -8q-6 -12 -6 -18q-46 -138 -61 -196q74 13 144 15z" />
    <glyph glyph-name="D_A" unicode="DA" horiz-adv-x="960" 
d="M865 211q25 -136 48 -184q7 -14 7 -27q0 -30 -30 -30q-16 0 -30 30q-39 80 -63 240q-63 0 -169 -19l-48 -191q-4 -16 -10.5 -23t-19.5 -7q-30 0 -30 30q0 8 2 12l43 173h-15q-30 0 -30 30t30 30q18 0 30 1q24 88 68 223q28 87 90 87q18 0 38.5 -13.5t29.5 -46.5
q23 -82 46 -236q16 -6 42 -26.5t26 -33.5q0 -30 -30 -30q-7 0 -25 11zM788 300q-33 226 -50 226q-9 0 -13 -4.5t-6 -6.5t-4.5 -8t-3.5 -8q-6 -12 -6 -18q-46 -138 -61 -196q74 13 144 15zM128 37q-7 29 -17.5 91.5t-10.5 281.5q0 30 30 30t30 -30q0 -206 9 -262.5t17 -95.5
q82 23 126 46.5t56 42t12 55.5t-26 125t-58 128q-62 77 -126 77q-35 0 -65 -15t-35 -15q-30 0 -30 30q0 19 41.5 39.5t88.5 20.5q91 0 172 -99q39 -48 68.5 -145.5t29.5 -157.5q0 -75 -70 -122t-254 -90q-10 -2 -20 -2t-18 8.5t-8 22t7 19.5t23 10z" />
    <glyph glyph-name="E_A" unicode="EA" horiz-adv-x="960" 
d="M410 523l-90 3q-90 0 -188 -20q-17 -78 -23 -164q40 8 161 8q48 0 84 -14.5t36 -35.5q0 -30 -30 -30q-7 0 -31 10t-59 10q-121 0 -166 -9q-4 -66 -4 -109t17.5 -77.5t42.5 -34.5q127 0 209 20q38 10 41 10q30 0 30 -30q0 -8 -8 -16.5t-37 -18.5t-102 -17.5t-128.5 -7.5
t-90 51t-34.5 109q0 139 28 326q7 45 7 46q9 26 35 31q112 23 183 23t117 -3q30 -1 30 -30.5t-30 -29.5zM865 211q25 -136 48 -184q7 -14 7 -27q0 -30 -30 -30q-16 0 -30 30q-39 80 -63 240q-63 0 -169 -19l-48 -191q-4 -16 -10.5 -23t-19.5 -7q-30 0 -30 30q0 8 2 12
l43 173h-15q-30 0 -30 30t30 30q18 0 30 1q24 88 68 223q28 87 90 87q18 0 38.5 -13.5t29.5 -46.5q23 -82 46 -236q16 -6 42 -26.5t26 -33.5q0 -30 -30 -30q-7 0 -25 11zM788 300q-33 226 -50 226q-9 0 -13 -4.5t-6 -6.5t-4.5 -8t-3.5 -8q-6 -12 -6 -18q-46 -138 -61 -196
q74 13 144 15z" />
    <glyph glyph-name="F_A" unicode="FA" horiz-adv-x="960" 
d="M190 327l130 3q30 0 30 -30q0 -27 -29.5 -30t-130.5 -3q-18 0 -45 8t-39 18q13 -128 42 -247q2 -12 2 -16q0 -30 -30 -30q-24 0 -31 30q-18 74 -33.5 184.5t-15.5 165.5q0 99 78.5 152.5t191.5 53.5q72 0 101 -14.5t29 -31.5q0 -30 -30 -30q-10 0 -26 8t-74 8
q-88 0 -149 -36.5t-61 -109.5q0 -20 35.5 -36.5t54.5 -16.5zM825 211q25 -136 48 -184q7 -14 7 -27q0 -30 -30 -30q-16 0 -30 30q-39 80 -63 240q-63 0 -169 -19l-48 -191q-4 -16 -10.5 -23t-19.5 -7q-30 0 -30 30q0 8 2 12l43 173h-15q-30 0 -30 30t30 30q18 0 30 1
q24 88 68 223q28 87 90 87q18 0 38.5 -13.5t29.5 -46.5q23 -82 46 -236q16 -6 42 -26.5t26 -33.5q0 -30 -30 -30q-7 0 -25 11zM748 300q-33 226 -50 226q-9 0 -13 -4.5t-6 -6.5t-4.5 -8t-3.5 -8q-6 -12 -6 -18q-46 -138 -61 -196q74 13 144 15z" />
    <glyph glyph-name="G_A" unicode="GA" horiz-adv-x="960" 
d="M250 230q0 35 80 35q87 0 102 -15q8 -8 8 -20q0 -30 -30 -30q-2 0 -27.5 2.5t-40.5 2.5q18 -32 18 -63q0 -60 -40 -101t-100 -41q-79 0 -129.5 50.5t-50.5 127t20 148t56.5 130t95 94.5t128.5 36q44 0 72 -28t28 -67t-25 -81q-19 -30 -35 -30q-30 0 -30 30q0 7 15 32
t15 44q0 40 -40 40q-76 0 -132.5 -54t-82 -131t-25.5 -161q0 -54 33 -87t78 -33t67 23t22 54t-25 54t-25 39zM865 211q25 -136 48 -184q7 -14 7 -27q0 -30 -30 -30q-16 0 -30 30q-39 80 -63 240q-63 0 -169 -19l-48 -191q-4 -16 -10.5 -23t-19.5 -7q-30 0 -30 30q0 8 2 12
l43 173h-15q-30 0 -30 30t30 30q18 0 30 1q24 88 68 223q28 87 90 87q18 0 38.5 -13.5t29.5 -46.5q23 -82 46 -236q16 -6 42 -26.5t26 -33.5q0 -30 -30 -30q-7 0 -25 11zM788 300q-33 226 -50 226q-9 0 -13 -4.5t-6 -6.5t-4.5 -8t-3.5 -8q-6 -12 -6 -18q-46 -138 -61 -196
q74 13 144 15z" />
    <glyph glyph-name="H_A" unicode="HA" horiz-adv-x="960" 
d="M130 280q55 0 119.5 5t85.5 11q16 128 43 194q12 30 32 30q30 0 30 -30q0 -8 -11 -35t-25 -104.5t-14 -130.5t10 -119t15 -81.5t5 -19.5q0 -30 -30 -30q-9 0 -18.5 8.5t-15 25.5t-16 86t-10.5 130v14q-84 -14 -200 -14q4 -112 7 -127.5t3 -22.5q0 -30 -30 -30
q-24 0 -29 26t-11 154q-13 0 -21.5 9t-8.5 21q0 30 30 30v180q0 37 -5 62t-5 34q0 30 30 30q22 0 29 -32q11 -77 11 -94v-180zM865 211q25 -136 48 -184q7 -14 7 -27q0 -30 -30 -30q-16 0 -30 30q-39 80 -63 240q-63 0 -169 -19l-48 -191q-4 -16 -10.5 -23t-19.5 -7
q-30 0 -30 30q0 8 2 12l43 173h-15q-30 0 -30 30t30 30q18 0 30 1q24 88 68 223q28 87 90 87q18 0 38.5 -13.5t29.5 -46.5q23 -82 46 -236q16 -6 42 -26.5t26 -33.5q0 -30 -30 -30q-7 0 -25 11zM788 300q-33 226 -50 226q-9 0 -13 -4.5t-6 -6.5t-4.5 -8t-3.5 -8
q-6 -12 -6 -18q-46 -138 -61 -196q74 13 144 15z" />
    <glyph glyph-name="I_A" unicode="IA" horiz-adv-x="760" 
d="M665 211q25 -136 48 -184q7 -14 7 -27q0 -30 -30 -30q-16 0 -30 30q-39 80 -63 240q-63 0 -169 -19l-48 -191q-4 -16 -10.5 -23t-19.5 -7q-30 0 -30 30q0 8 2 12l43 173h-15q-30 0 -30 30t30 30q18 0 30 1q24 88 68 223q28 87 90 87q18 0 38.5 -13.5t29.5 -46.5
q23 -82 46 -236q16 -6 42 -26.5t26 -33.5q0 -30 -30 -30q-7 0 -25 11zM588 300q-33 226 -50 226q-9 0 -13 -4.5t-6 -6.5t-4.5 -8t-3.5 -8q-6 -12 -6 -18q-46 -138 -61 -196q74 13 144 15zM170 510l-10 -280q0 -52 5.5 -108.5t10 -69.5t4.5 -22q0 -30 -30 -30q-20 0 -30 30
q-20 60 -20 200l10 280q0 30 30 30t30 -30z" />
    <glyph glyph-name="J_A" unicode="JA" horiz-adv-x="960" 
d="M40 114q0 30 30 30q12 0 29.5 -8.5l35.5 -17l24.5 -11.5t23 -10t24.5 -10l22.5 -8.5t24.5 -8.5q10 -2 22 -5q21 -5 44.5 -5t41.5 14t18 35t-15 146t-15 185t20 116q2 9 10.5 19.5t19.5 10.5q30 0 30 -30q0 -5 -4 -17q-16 -48 -16 -101.5t15 -179.5t15 -148q0 -46 -36 -78
t-84 -32q-46 0 -79.5 12t-44 15.5t-31.5 12.5t-27.5 12l-28.5 13l-31.5 14.5l-17.5 8.5q-20 10 -20 26zM865 211q25 -136 48 -184q7 -14 7 -27q0 -30 -30 -30q-16 0 -30 30q-39 80 -63 240q-63 0 -169 -19l-48 -191q-4 -16 -10.5 -23t-19.5 -7q-30 0 -30 30q0 8 2 12l43 173
h-15q-30 0 -30 30t30 30q18 0 30 1q24 88 68 223q28 87 90 87q18 0 38.5 -13.5t29.5 -46.5q23 -82 46 -236q16 -6 42 -26.5t26 -33.5q0 -30 -30 -30q-7 0 -25 11zM788 300q-33 226 -50 226q-9 0 -13 -4.5t-6 -6.5t-4.5 -8t-3.5 -8q-6 -12 -6 -18q-46 -138 -61 -196
q74 13 144 15z" />
    <glyph glyph-name="K_A" unicode="KA" horiz-adv-x="960" 
d="M221 334q-49 -38 -75 -74t-26 -80.5t5 -64.5t5 -25q0 -30 -30 -30q-40 0 -40 120q0 5 -5 130t-5 220q0 30 30 30t30 -30q0 -62 5 -214q83 94 277 186q16 8 28 8q30 0 30 -30q0 -12 -9 -17.5t-59 -30.5t-102 -58q0 -81 19.5 -136t50 -80.5t30.5 -37.5q0 -30 -30 -30
q-12 0 -45 28q-74 67 -84 216zM865 211q25 -136 48 -184q7 -14 7 -27q0 -30 -30 -30q-16 0 -30 30q-39 80 -63 240q-63 0 -169 -19l-48 -191q-4 -16 -10.5 -23t-19.5 -7q-30 0 -30 30q0 8 2 12l43 173h-15q-30 0 -30 30t30 30q18 0 30 1q24 88 68 223q28 87 90 87
q18 0 38.5 -13.5t29.5 -46.5q23 -82 46 -236q16 -6 42 -26.5t26 -33.5q0 -30 -30 -30q-7 0 -25 11zM788 300q-33 226 -50 226q-9 0 -13 -4.5t-6 -6.5t-4.5 -8t-3.5 -8q-6 -12 -6 -18q-46 -138 -61 -196q74 13 144 15z" />
    <glyph glyph-name="L_A" unicode="LA" horiz-adv-x="880" 
d="M114 500l-14 -350q0 -60 230 -60q30 0 30 -30t-30 -30q-290 0 -290 120l14 350l-4 55q0 31 30 31q27 0 30 -30q4 -24 4 -56zM785 211q25 -136 48 -184q7 -14 7 -27q0 -30 -30 -30q-16 0 -30 30q-39 80 -63 240q-63 0 -169 -19l-48 -191q-4 -16 -10.5 -23t-19.5 -7
q-30 0 -30 30q0 8 2 12l43 173h-15q-30 0 -30 30t30 30q18 0 30 1q24 88 68 223q28 87 90 87q18 0 38.5 -13.5t29.5 -46.5q23 -82 46 -236q16 -6 42 -26.5t26 -33.5q0 -30 -30 -30q-7 0 -25 11zM708 300q-33 226 -50 226q-9 0 -13 -4.5t-6 -6.5t-4.5 -8t-3.5 -8
q-6 -12 -6 -18q-46 -138 -61 -196q74 13 144 15z" />
    <glyph glyph-name="M_A" unicode="MA" horiz-adv-x="1040" 
d="M109 70l11 -40q0 -30 -30 -30q-15 0 -26 19.5t-14 40.5q-10 80 -10 129.5t5 174.5t5 146q0 30 30 30t30 -30q0 -21 -5 -146t-5 -173.5t9 -120.5zM509 110l11 -40q0 -30 -30 -30q-16 0 -26.5 19t-13.5 41q-10 80 -10 109t5 90.5t5 90.5t-6 77q-97 -177 -194 -177
q-91 0 -138 187q-2 8 -2 13q0 30 30 30q22 0 30 -30q16 -62 37 -101t43 -39q70 0 173 206q17 30 37 30q24 0 30 -30q20 -100 20 -156l-10 -190q0 -28 9 -100zM945 211q25 -136 48 -184q7 -14 7 -27q0 -30 -30 -30q-16 0 -30 30q-39 80 -63 240q-63 0 -169 -19l-48 -191
q-4 -16 -10.5 -23t-19.5 -7q-30 0 -30 30q0 8 2 12l43 173h-15q-30 0 -30 30t30 30q18 0 30 1q24 88 68 223q28 87 90 87q18 0 38.5 -13.5t29.5 -46.5q23 -82 46 -236q16 -6 42 -26.5t26 -33.5q0 -30 -30 -30q-7 0 -25 11zM868 300q-33 226 -50 226q-9 0 -13 -4.5t-6 -6.5
t-4.5 -8t-3.5 -8q-6 -12 -6 -18q-46 -138 -61 -196q74 13 144 15z" />
    <glyph glyph-name="N_A" unicode="NA" horiz-adv-x="960" 
d="M286 80l15.5 62t7.5 33t3.5 17t2.5 16t1.5 13.5t1.5 18t5 50t18 109t20 91.5q23 70 49 70q30 0 30 -30q0 -9 -9 -27t-14 -33t-17.5 -83t-18.5 -128t-11.5 -86t-34.5 -143q-7 -30 -30 -30q-36 0 -54 19.5t-23 44.5q-2 7 -26 134q-62 328 -82 328t-20 -30q0 -8 2 -88
q8 -240 8 -378q0 -30 -30 -30t-30 30q0 138 -5 298t-5 168q0 40 22.5 65t57.5 25q49 0 72 -70q20 -59 55.5 -242.5t38.5 -193.5zM865 211q25 -136 48 -184q7 -14 7 -27q0 -30 -30 -30q-16 0 -30 30q-39 80 -63 240q-63 0 -169 -19l-48 -191q-4 -16 -10.5 -23t-19.5 -7
q-30 0 -30 30q0 8 2 12l43 173h-15q-30 0 -30 30t30 30q18 0 30 1q24 88 68 223q28 87 90 87q18 0 38.5 -13.5t29.5 -46.5q23 -82 46 -236q16 -6 42 -26.5t26 -33.5q0 -30 -30 -30q-7 0 -25 11zM788 300q-33 226 -50 226q-9 0 -13 -4.5t-6 -6.5t-4.5 -8t-3.5 -8
q-6 -12 -6 -18q-46 -138 -61 -196q74 13 144 15z" />
    <glyph glyph-name="O_A" unicode="OA" horiz-adv-x="1040" 
d="M945 211q25 -136 48 -184q7 -14 7 -27q0 -30 -30 -30q-16 0 -30 30q-39 80 -63 240q-63 0 -169 -19l-48 -191q-4 -16 -10.5 -23t-19.5 -7q-30 0 -30 30q0 8 2 12l43 173h-15q-30 0 -30 30t30 30q18 0 30 1q24 88 68 223q28 87 90 87q18 0 38.5 -13.5t29.5 -46.5
q23 -82 46 -236q16 -6 42 -26.5t26 -33.5q0 -30 -30 -30q-7 0 -25 11zM868 300q-33 226 -50 226q-9 0 -13 -4.5t-6 -6.5t-4.5 -8t-3.5 -8q-6 -12 -6 -18q-46 -138 -61 -196q74 13 144 15zM282 454l-19 3q-18 3 -44 3t-50 -26q-25 -24 -39 -62q-30 -79 -30 -142
q0 -170 135 -170q109 0 167 71.5t58 188.5q0 62 -25 111t-75 49q-10 0 -47 -5q-5 -21 -31 -21zM235 0q-95 0 -145 63.5t-50 166.5q0 79 41 177q20 48 57.5 80.5t83.5 32.5q18 0 38 -2q29 22 102.5 22t115.5 -65.5t42 -154.5q0 -141 -76 -230.5t-209 -89.5z" />
    <glyph glyph-name="P_A" unicode="PA" horiz-adv-x="960" 
d="M170 590q77 0 173.5 -58t96.5 -122q0 -73 -157 -136l-54 -22t-39 -12q-30 0 -30 30q0 19 30 31q99 40 144.5 65t45.5 46q0 37 -81.5 77.5t-122.5 40.5t-71 -5t-35 -5q-30 0 -30 30q0 24 30 30q50 10 100 10zM130 330q2 -16 15.5 -183.5t14.5 -176.5q0 -30 -30 -30
q-27 0 -30 30q-2 16 -15 178.5t-14 171.5l-1 10q0 30 30 30q27 0 30 -30zM865 211q25 -136 48 -184q7 -14 7 -27q0 -30 -30 -30q-16 0 -30 30q-39 80 -63 240q-63 0 -169 -19l-48 -191q-4 -16 -10.5 -23t-19.5 -7q-30 0 -30 30q0 8 2 12l43 173h-15q-30 0 -30 30t30 30
q18 0 30 1q24 88 68 223q28 87 90 87q18 0 38.5 -13.5t29.5 -46.5q23 -82 46 -236q16 -6 42 -26.5t26 -33.5q0 -30 -30 -30q-7 0 -25 11zM788 300q-33 226 -50 226q-9 0 -13 -4.5t-6 -6.5t-4.5 -8t-3.5 -8q-6 -12 -6 -18q-46 -138 -61 -196q74 13 144 15z" />
    <glyph glyph-name="Q_A" unicode="QA" horiz-adv-x="1100" 
d="M258 60q12 67 12 98.5t30 31.5t30 -33t-11 -93q98 15 149.5 81t51.5 175q0 84 -42.5 145t-117.5 61q-54 0 -119 -37q-22 -13 -31 -13q-30 0 -30 30q0 16 30 34q77 46 150 46q100 0 160 -78t60 -188q0 -137 -72 -220.5t-201 -97.5q-21 -100 -45 -172q-10 -30 -32 -30
q-30 0 -30 30q0 4 14.5 49t31.5 121q-86 5 -146 69.5t-60 158t37 152t88 68.5q10 2 15 2q30 0 30 -30q0 -24 -30 -30q-41 -8 -60.5 -57.5t-19.5 -113.5t46.5 -111t111.5 -48zM1005 211q25 -136 48 -184q7 -14 7 -27q0 -30 -30 -30q-16 0 -30 30q-39 80 -63 240
q-63 0 -169 -19l-48 -191q-4 -16 -10.5 -23t-19.5 -7q-30 0 -30 30q0 8 2 12l43 173h-15q-30 0 -30 30t30 30q18 0 30 1q24 88 68 223q28 87 90 87q18 0 38.5 -13.5t29.5 -46.5q23 -82 46 -236q16 -6 42 -26.5t26 -33.5q0 -30 -30 -30q-7 0 -25 11zM928 300q-33 226 -50 226
q-9 0 -13 -4.5t-6 -6.5t-4.5 -8t-3.5 -8q-6 -12 -6 -18q-46 -138 -61 -196q74 13 144 15z" />
    <glyph glyph-name="R_A" unicode="RA" horiz-adv-x="1020" 
d="M165 319q63 15 144 60t81 81q0 66 -120 66q-47 0 -100 -12q0 -33 -2.5 -101.5t-2.5 -93.5zM100 160l5 120q0 36 2.5 113t2.5 104q-26 -7 -30 -7q-30 0 -30 30q0 21 30 30q120 36 193.5 36t125 -31t51.5 -95q0 -97 -213 -180q105 -64 169 -122q22 -20 53 -51t31 -77
q0 -30 -29.5 -30t-29.5 30q0 21 -14 35q-34 34 -56 54q-57 52 -197 135l-4 -94l10 -110q0 -30 -30 -30q-27 0 -30 30q-10 100 -10 110zM925 211q25 -136 48 -184q7 -14 7 -27q0 -30 -30 -30q-16 0 -30 30q-39 80 -63 240q-63 0 -169 -19l-48 -191q-4 -16 -10.5 -23t-19.5 -7
q-30 0 -30 30q0 8 2 12l43 173h-15q-30 0 -30 30t30 30q18 0 30 1q24 88 68 223q28 87 90 87q18 0 38.5 -13.5t29.5 -46.5q23 -82 46 -236q16 -6 42 -26.5t26 -33.5q0 -30 -30 -30q-7 0 -25 11zM848 300q-33 226 -50 226q-9 0 -13 -4.5t-6 -6.5t-4.5 -8t-3.5 -8
q-6 -12 -6 -18q-46 -138 -61 -196q74 13 144 15z" />
    <glyph glyph-name="S_A" unicode="SA" horiz-adv-x="960" 
d="M70 0q-30 0 -30 30t30 30q200 0 275 30q35 14 35 29t-24.5 27t-82 31t-87.5 32q-146 61 -146 185q0 81 70 136.5t168 55.5q54 0 90.5 -32t36.5 -77t-35 -80t-48 -35q-30 0 -30 30q0 13 26.5 39.5t26.5 40.5q0 24 -18.5 39t-47.5 15q-74 0 -126.5 -37.5t-52.5 -90.5
t29.5 -83t67 -45.5t75.5 -28t63.5 -22t51.5 -23.5q53 -29 53 -76q0 -61 -87.5 -90.5t-282.5 -29.5zM865 211q25 -136 48 -184q7 -14 7 -27q0 -30 -30 -30q-16 0 -30 30q-39 80 -63 240q-63 0 -169 -19l-48 -191q-4 -16 -10.5 -23t-19.5 -7q-30 0 -30 30q0 8 2 12l43 173h-15
q-30 0 -30 30t30 30q18 0 30 1q24 88 68 223q28 87 90 87q18 0 38.5 -13.5t29.5 -46.5q23 -82 46 -236q16 -6 42 -26.5t26 -33.5q0 -30 -30 -30q-7 0 -25 11zM788 300q-33 226 -50 226q-9 0 -13 -4.5t-6 -6.5t-4.5 -8t-3.5 -8q-6 -12 -6 -18q-46 -138 -61 -196q74 13 144 15
z" />
    <glyph glyph-name="T_A" unicode="TA" horiz-adv-x="960" 
d="M865 211q25 -136 48 -184q7 -14 7 -27q0 -30 -30 -30q-16 0 -30 30q-39 80 -63 240q-63 0 -169 -19l-48 -191q-4 -16 -10.5 -23t-19.5 -7q-30 0 -30 30q0 8 2 12l43 173h-15q-30 0 -30 30t30 30q18 0 30 1q24 88 68 223q28 87 90 87q18 0 38.5 -13.5t29.5 -46.5
q23 -82 46 -236q16 -6 42 -26.5t26 -33.5q0 -30 -30 -30q-7 0 -25 11zM788 300q-33 226 -50 226q-9 0 -13 -4.5t-6 -6.5t-4.5 -8t-3.5 -8q-6 -12 -6 -18q-46 -138 -61 -196q74 13 144 15zM40 520q0 40 117.5 40t232.5 23q15 3 20 3q30 0 30 -30q0 -24 -30 -30
q-117 -26 -250 -26q-55 0 -67.5 -5t-22.5 -5q-30 0 -30 30zM290 440q0 -7 -4 -23q-7 -31 -16.5 -91t-9.5 -266q0 -30 -30 -30t-30 30q0 219 12 288.5t18 91.5q7 30 30 30q30 0 30 -30z" />
    <glyph glyph-name="U_A" unicode="UA" horiz-adv-x="960" 
d="M363 545l-1 11q0 14 8.5 22t18.5 8q25 0 33 -30q18 -74 18 -137t-16 -135.5t-45 -137t-78 -105.5t-103.5 -41t-87 26t-46.5 75q-24 79 -24 190.5t20 214.5q3 14 12 22t18 8q30 0 30 -30l-3 -19q-17 -84 -17 -155.5t1 -99t6.5 -63t14.5 -58t27 -38t43 -15.5q55 0 99 58.5
t66.5 141.5t22.5 151.5t-17 135.5zM865 211q25 -136 48 -184q7 -14 7 -27q0 -30 -30 -30q-16 0 -30 30q-39 80 -63 240q-63 0 -169 -19l-48 -191q-4 -16 -10.5 -23t-19.5 -7q-30 0 -30 30q0 8 2 12l43 173h-15q-30 0 -30 30t30 30q18 0 30 1q24 88 68 223q28 87 90 87
q18 0 38.5 -13.5t29.5 -46.5q23 -82 46 -236q16 -6 42 -26.5t26 -33.5q0 -30 -30 -30q-7 0 -25 11zM788 300q-33 226 -50 226q-9 0 -13 -4.5t-6 -6.5t-4.5 -8t-3.5 -8q-6 -12 -6 -18q-46 -138 -61 -196q74 13 144 15z" />
    <glyph glyph-name="V_A" unicode="VA" horiz-adv-x="960" 
d="M80 550q20 0 32 -30q48 -120 94 -356q4 -22 11 -46q62 278 169 438q20 30 34 30q30 0 30 -30q0 -9 -16 -33q-108 -162 -174 -493q-6 -30 -30 -30q-20 0 -43 34.5t-39 115.5q-47 233 -93 349q-5 13 -5 23.5t8 19t22 8.5zM599 271q47 -15 131 -15h16q-12 44 -28 114
q-29 129 -38 130q-27 0 -81 -229zM807 261l43 5q14 0 22 -8.5t8 -21.5q0 -27 -30 -30q-16 -2 -27 -4q33 -112 71 -181q6 -11 6 -21q0 -30 -30 -30q-16 0 -30 24q-39 70 -78 203q-14 -1 -32 -1q-92 0 -144 15q-20 -100 -26 -151q-3 -30 -30 -30q-30 0 -30 29q0 5 2 17
q12 104 46 239.5t50 170.5q35 74 82 74q20 0 35 -11.5t20 -21.5t11.5 -26t15 -51.5l21.5 -91t24 -97.5z" />
    <glyph glyph-name="W_A" unicode="WA" horiz-adv-x="1200" 
d="M849 271q47 -15 131 -15h16q-12 44 -28 114q-29 129 -38 130q-27 0 -81 -229zM1057 261l43 5q14 0 22 -8.5t8 -21.5q0 -27 -30 -30q-16 -2 -27 -4q33 -112 71 -181q6 -11 6 -21q0 -30 -30 -30q-16 0 -30 24q-39 70 -78 203q-14 -1 -32 -1q-92 0 -144 15
q-20 -100 -26 -151q-3 -30 -30 -30q-30 0 -30 29q0 5 2 17q12 104 46 239.5t50 170.5q35 74 82 74q20 0 35 -11.5t20 -21.5t11.5 -26t15 -51.5l21.5 -91t24 -97.5zM347 328q74 212 113 212q30 0 30 -30q0 -12 -15 -34q-34 -51 -99 -248q33 -98 54 -98q15 0 58 72t141 268
q15 30 31 30q30 0 30 -30q0 -12 -7 -26q-100 -200 -135 -259t-61 -87t-57 -28q-48 0 -83 69q-39 -107 -76 -129q-18 -10 -41 -10q-43 0 -71.5 54.5t-61.5 178t-45 227.5q-2 12 -2 17q0 29 30 29q27 0 30 -30q14 -123 56 -269.5t64 -146.5q24 0 44 52q19 49 40 115
q-40 137 -53 257q-1 10 -1 16q0 30 30 30q27 0 30 -30q9 -92 27 -172z" />
    <glyph glyph-name="X_A" unicode="XA" horiz-adv-x="960" 
d="M90 0q-30 0 -30 30q0 16 5 27q39 87 140 248q-6 10 -75 108.5t-79.5 114.5t-10.5 28q0 30 30 30q13 0 35 -33l68 -96.5t67 -96.5l100 160q21 36 40 36q30 0 30 -29q0 -10 -16 -34l-116 -187l74.5 -106t77.5 -111.5t10 -28.5q0 -30 -30 -30q-12 0 -32 30l-68 95.5
t-67 95.5q-105 -171 -123 -221q-11 -30 -30 -30zM865 211q25 -136 48 -184q7 -14 7 -27q0 -30 -30 -30q-16 0 -30 30q-39 80 -63 240q-63 0 -169 -19l-48 -191q-4 -16 -10.5 -23t-19.5 -7q-30 0 -30 30q0 8 2 12l43 173h-15q-30 0 -30 30t30 30q18 0 30 1q24 88 68 223
q28 87 90 87q18 0 38.5 -13.5t29.5 -46.5q23 -82 46 -236q16 -6 42 -26.5t26 -33.5q0 -30 -30 -30q-7 0 -25 11zM788 300q-33 226 -50 226q-9 0 -13 -4.5t-6 -6.5t-4.5 -8t-3.5 -8q-6 -12 -6 -18q-46 -138 -61 -196q74 13 144 15z" />
    <glyph glyph-name="Y_A" unicode="YA" horiz-adv-x="960" 
d="M235 0q-30 0 -30 30q0 5 7 24l138 346q-37 -22 -69.5 -22t-53.5 5t-37 11t-33.5 19l-27.5 21t-25 25.5t-19.5 23.5l-17.5 24t-15 20t-7 13t-5 16q0 30 29 30q11 0 31 -24q4 -4 27 -34t37.5 -44.5t44 -30t59.5 -15.5t63.5 21t47.5 51q13 30 31 30q30 0 30 -30
q0 -53 -33 -132l-141 -351q-11 -27 -31 -27zM865 211q25 -136 48 -184q7 -14 7 -27q0 -30 -30 -30q-16 0 -30 30q-39 80 -63 240q-63 0 -169 -19l-48 -191q-4 -16 -10.5 -23t-19.5 -7q-30 0 -30 30q0 8 2 12l43 173h-15q-30 0 -30 30t30 30q18 0 30 1q24 88 68 223
q28 87 90 87q18 0 38.5 -13.5t29.5 -46.5q23 -82 46 -236q16 -6 42 -26.5t26 -33.5q0 -30 -30 -30q-7 0 -25 11zM788 300q-33 226 -50 226q-9 0 -13 -4.5t-6 -6.5t-4.5 -8t-3.5 -8q-6 -12 -6 -18q-46 -138 -61 -196q74 13 144 15z" />
    <glyph glyph-name="Z_A" unicode="ZA" horiz-adv-x="1000" 
d="M905 211q25 -136 48 -184q7 -14 7 -27q0 -30 -30 -30q-16 0 -30 30q-39 80 -63 240q-63 0 -169 -19l-48 -191q-4 -16 -10.5 -23t-19.5 -7q-30 0 -30 30q0 8 2 12l43 173h-15q-30 0 -30 30t30 30q18 0 30 1q24 88 68 223q28 87 90 87q18 0 38.5 -13.5t29.5 -46.5
q23 -82 46 -236q16 -6 42 -26.5t26 -33.5q0 -30 -30 -30q-7 0 -25 11zM828 300q-33 226 -50 226q-9 0 -13 -4.5t-6 -6.5t-4.5 -8t-3.5 -8q-6 -12 -6 -18q-46 -138 -61 -196q74 13 144 15zM86 494l-16 -2q-30 0 -30 30q0 11 8 20.5t22 11.5q213 32 288 32q44 0 79 -24t35 -66
q0 -67 -90 -149q-38 -35 -101.5 -83t-75.5 -58t-35 -32q-40 -37 -40 -74q0 -40 172 -40q82 0 112 10t36 10q30 0 30 -30q0 -21 -43 -35.5t-110.5 -14.5t-100 2.5t-72.5 11.5t-62 31t-22 50t10 51t22.5 40.5t36.5 40t38.5 34l44 33.5l54.5 41.5l51.5 42t55.5 58t29 60.5
q0 14 -18 22t-36 8q-59 0 -272 -32z" />
    <glyph glyph-name="A_B" unicode="AB" horiz-adv-x="960" 
d="M520 470q0 30 30 30q23 0 30 -30q6 -22 18 -91.5t12 -318.5q0 -30 -30 -30t-30 30q0 236 -10 300q-9 56 -13 75q-7 28 -7 35zM640 526l-90 -6q-30 0 -30 30q0 27 30 30q60 6 90 6q96 0 153 -53t57 -123t-53 -118q54 -18 88.5 -50.5t34.5 -69.5t-13 -65.5t-30 -46.5
t-51 -37t-58 -28l-70 -26l-65 -24.5t-36 -7.5q-30 0 -30 31q0 14 32.5 27l73.5 28l62.5 23t49.5 22q27 14 41 27q34 32 34 75q0 29 -57 54.5t-113 25.5q-30 0 -30 30t30 30q40 0 70 30t30 72.5t-40 78t-110 35.5zM385 211q25 -136 48 -184q7 -14 7 -27q0 -30 -30 -30
q-16 0 -30 30q-39 80 -63 240q-63 0 -169 -19l-48 -191q-4 -16 -10.5 -23t-19.5 -7q-30 0 -30 30q0 8 2 12l43 173h-15q-30 0 -30 30t30 30q18 0 30 1q24 88 68 223q28 87 90 87q18 0 38.5 -13.5t29.5 -46.5q23 -82 46 -236q16 -6 42 -26.5t26 -33.5q0 -30 -30 -30
q-7 0 -25 11zM308 300q-33 226 -50 226q-9 0 -13 -4.5t-6 -6.5t-4.5 -8t-3.5 -8q-6 -12 -6 -18q-46 -138 -61 -196q74 13 144 15z" />
    <glyph glyph-name="B_B" unicode="BB" horiz-adv-x="960" 
d="M40 470q0 30 30 30q23 0 30 -30q6 -22 18 -91.5t12 -318.5q0 -30 -30 -30t-30 30q0 236 -10 300q-9 56 -13 75q-7 28 -7 35zM160 526l-90 -6q-30 0 -30 30q0 27 30 30q60 6 90 6q96 0 153 -53t57 -123t-53 -118q54 -18 88.5 -50.5t34.5 -69.5t-13 -65.5t-30 -46.5
t-51 -37t-58 -28l-70 -26l-65 -24.5t-36 -7.5q-30 0 -30 31q0 14 32.5 27l73.5 28l62.5 23t49.5 22q27 14 41 27q34 32 34 75q0 29 -57 54.5t-113 25.5q-30 0 -30 30t30 30q40 0 70 30t30 72.5t-40 78t-110 35.5zM520 470q0 30 30 30q23 0 30 -30q6 -22 18 -91.5t12 -318.5
q0 -30 -30 -30t-30 30q0 236 -10 300q-9 56 -13 75q-7 28 -7 35zM640 526l-90 -6q-30 0 -30 30q0 27 30 30q60 6 90 6q96 0 153 -53t57 -123t-53 -118q54 -18 88.5 -50.5t34.5 -69.5t-13 -65.5t-30 -46.5t-51 -37t-58 -28l-70 -26l-65 -24.5t-36 -7.5q-30 0 -30 31
q0 14 32.5 27l73.5 28l62.5 23t49.5 22q27 14 41 27q34 32 34 75q0 29 -57 54.5t-113 25.5q-30 0 -30 30t30 30q40 0 70 30t30 72.5t-40 78t-110 35.5z" />
    <glyph glyph-name="C_B" unicode="CB" horiz-adv-x="960" 
d="M520 470q0 30 30 30q23 0 30 -30q6 -22 18 -91.5t12 -318.5q0 -30 -30 -30t-30 30q0 236 -10 300q-9 56 -13 75q-7 28 -7 35zM640 526l-90 -6q-30 0 -30 30q0 27 30 30q60 6 90 6q96 0 153 -53t57 -123t-53 -118q54 -18 88.5 -50.5t34.5 -69.5t-13 -65.5t-30 -46.5
t-51 -37t-58 -28l-70 -26l-65 -24.5t-36 -7.5q-30 0 -30 31q0 14 32.5 27l73.5 28l62.5 23t49.5 22q27 14 41 27q34 32 34 75q0 29 -57 54.5t-113 25.5q-30 0 -30 30t30 30q40 0 70 30t30 72.5t-40 78t-110 35.5zM410 46q-92 -46 -179 -46t-139 72t-52 164t26.5 168.5
t85 129t138.5 52.5q32 0 61 -16t29 -34q0 -30 -30 -30q-9 0 -26.5 10t-33.5 10q-62 0 -107 -45q-83 -83 -83 -241q0 -69 35 -124.5t95 -55.5q74 0 156 41q18 9 24 9q30 0 30 -30q0 -12 -6 -18.5t-24 -15.5z" />
    <glyph glyph-name="D_B" unicode="DB" horiz-adv-x="960" 
d="M520 470q0 30 30 30q23 0 30 -30q6 -22 18 -91.5t12 -318.5q0 -30 -30 -30t-30 30q0 236 -10 300q-9 56 -13 75q-7 28 -7 35zM640 526l-90 -6q-30 0 -30 30q0 27 30 30q60 6 90 6q96 0 153 -53t57 -123t-53 -118q54 -18 88.5 -50.5t34.5 -69.5t-13 -65.5t-30 -46.5
t-51 -37t-58 -28l-70 -26l-65 -24.5t-36 -7.5q-30 0 -30 31q0 14 32.5 27l73.5 28l62.5 23t49.5 22q27 14 41 27q34 32 34 75q0 29 -57 54.5t-113 25.5q-30 0 -30 30t30 30q40 0 70 30t30 72.5t-40 78t-110 35.5zM128 37q-7 29 -17.5 91.5t-10.5 281.5q0 30 30 30t30 -30
q0 -206 9 -262.5t17 -95.5q82 23 126 46.5t56 42t12 55.5t-26 125t-58 128q-62 77 -126 77q-35 0 -65 -15t-35 -15q-30 0 -30 30q0 19 41.5 39.5t88.5 20.5q91 0 172 -99q39 -48 68.5 -145.5t29.5 -157.5q0 -75 -70 -122t-254 -90q-10 -2 -20 -2t-18 8.5t-8 22t7 19.5t23 10
z" />
    <glyph glyph-name="E_B" unicode="EB" horiz-adv-x="960" 
d="M520 470q0 30 30 30q23 0 30 -30q6 -22 18 -91.5t12 -318.5q0 -30 -30 -30t-30 30q0 236 -10 300q-9 56 -13 75q-7 28 -7 35zM640 526l-90 -6q-30 0 -30 30q0 27 30 30q60 6 90 6q96 0 153 -53t57 -123t-53 -118q54 -18 88.5 -50.5t34.5 -69.5t-13 -65.5t-30 -46.5
t-51 -37t-58 -28l-70 -26l-65 -24.5t-36 -7.5q-30 0 -30 31q0 14 32.5 27l73.5 28l62.5 23t49.5 22q27 14 41 27q34 32 34 75q0 29 -57 54.5t-113 25.5q-30 0 -30 30t30 30q40 0 70 30t30 72.5t-40 78t-110 35.5zM410 523l-90 3q-90 0 -188 -20q-17 -78 -23 -164q40 8 161 8
q48 0 84 -14.5t36 -35.5q0 -30 -30 -30q-7 0 -31 10t-59 10q-121 0 -166 -9q-4 -66 -4 -109t17.5 -77.5t42.5 -34.5q127 0 209 20q38 10 41 10q30 0 30 -30q0 -8 -8 -16.5t-37 -18.5t-102 -17.5t-128.5 -7.5t-90 51t-34.5 109q0 139 28 326q7 45 7 46q9 26 35 31
q112 23 183 23t117 -3q30 -1 30 -30.5t-30 -29.5z" />
    <glyph glyph-name="F_B" unicode="FB" horiz-adv-x="960" 
d="M174 296l152 8q30 0 30 -30q0 -27 -29 -30q-66 -8 -153 -8q-38 0 -64 20q15 -149 21.5 -185.5t6.5 -40.5q0 -30 -30 -30q-26 0 -31 30q-12 70 -24.5 196t-12.5 154q0 110 64 174q32 32 126 32q51 0 104.5 -13.5t73 -23t26 -16t6.5 -17.5q0 -30 -30 -30q-10 0 -27 8.5
t-67.5 20t-85.5 11.5q-68 0 -88 -20q-42 -42 -42 -126q0 -22 21 -53t53 -31zM520 470q0 30 30 30q23 0 30 -30q6 -22 18 -91.5t12 -318.5q0 -30 -30 -30t-30 30q0 236 -10 300q-9 56 -13 75q-7 28 -7 35zM640 526l-90 -6q-30 0 -30 30q0 27 30 30q60 6 90 6q96 0 153 -53
t57 -123t-53 -118q54 -18 88.5 -50.5t34.5 -69.5t-13 -65.5t-30 -46.5t-51 -37t-58 -28l-70 -26l-65 -24.5t-36 -7.5q-30 0 -30 31q0 14 32.5 27l73.5 28l62.5 23t49.5 22q27 14 41 27q34 32 34 75q0 29 -57 54.5t-113 25.5q-30 0 -30 30t30 30q40 0 70 30t30 72.5t-40 78
t-110 35.5z" />
    <glyph glyph-name="G_B" unicode="GB" horiz-adv-x="960" 
d="M250 230q0 35 80 35q87 0 102 -15q8 -8 8 -20q0 -30 -30 -30q-2 0 -27.5 2.5t-40.5 2.5q18 -32 18 -63q0 -60 -40 -101t-100 -41q-79 0 -129.5 50.5t-50.5 127t20 148t56.5 130t95 94.5t128.5 36q44 0 72 -28t28 -67t-25 -81q-19 -30 -35 -30q-30 0 -30 30q0 7 15 32
t15 44q0 40 -40 40q-76 0 -132.5 -54t-82 -131t-25.5 -161q0 -54 33 -87t78 -33t67 23t22 54t-25 54t-25 39zM520 470q0 30 30 30q23 0 30 -30q6 -22 18 -91.5t12 -318.5q0 -30 -30 -30t-30 30q0 236 -10 300q-9 56 -13 75q-7 28 -7 35zM640 526l-90 -6q-30 0 -30 30
q0 27 30 30q60 6 90 6q96 0 153 -53t57 -123t-53 -118q54 -18 88.5 -50.5t34.5 -69.5t-13 -65.5t-30 -46.5t-51 -37t-58 -28l-70 -26l-65 -24.5t-36 -7.5q-30 0 -30 31q0 14 32.5 27l73.5 28l62.5 23t49.5 22q27 14 41 27q34 32 34 75q0 29 -57 54.5t-113 25.5q-30 0 -30 30
t30 30q40 0 70 30t30 72.5t-40 78t-110 35.5z" />
    <glyph glyph-name="H_B" unicode="HB" horiz-adv-x="960" 
d="M389 251l1 -41q0 -137 5 -162t5 -28q0 -30 -30 -30q-9 0 -18 8.5t-12 21.5q-10 50 -10 133.5t-1 99.5q-114 0 -210 -18q8 -130 9.5 -139t1.5 -16q0 -30 -30 -30q-24 0 -30 30q-2 10 -14 210.5t-14 210.5t-2 19q0 30 30 30q23 0 28.5 -30.5t16.5 -224.5q102 18 211 18
q-10 181 -13 194.5t-3 22.5q0 30 30 30q23 0 30 -35.5t16 -213.5q15 0 24 -1q30 -2 30 -31t-30 -29q-10 0 -21 1zM520 470q0 30 30 30q23 0 30 -30q6 -22 18 -91.5t12 -318.5q0 -30 -30 -30t-30 30q0 236 -10 300q-9 56 -13 75q-7 28 -7 35zM640 526l-90 -6q-30 0 -30 30
q0 27 30 30q60 6 90 6q96 0 153 -53t57 -123t-53 -118q54 -18 88.5 -50.5t34.5 -69.5t-13 -65.5t-30 -46.5t-51 -37t-58 -28l-70 -26l-65 -24.5t-36 -7.5q-30 0 -30 31q0 14 32.5 27l73.5 28l62.5 23t49.5 22q27 14 41 27q34 32 34 75q0 29 -57 54.5t-113 25.5q-30 0 -30 30
t30 30q40 0 70 30t30 72.5t-40 78t-110 35.5z" />
    <glyph glyph-name="I_B" unicode="IB" horiz-adv-x="760" 
d="M320 470q0 30 30 30q23 0 30 -30q6 -22 18 -91.5t12 -318.5q0 -30 -30 -30t-30 30q0 236 -10 300q-9 56 -13 75q-7 28 -7 35zM440 526l-90 -6q-30 0 -30 30q0 27 30 30q60 6 90 6q96 0 153 -53t57 -123t-53 -118q54 -18 88.5 -50.5t34.5 -69.5t-13 -65.5t-30 -46.5
t-51 -37t-58 -28l-70 -26l-65 -24.5t-36 -7.5q-30 0 -30 31q0 14 32.5 27l73.5 28l62.5 23t49.5 22q27 14 41 27q34 32 34 75q0 29 -57 54.5t-113 25.5q-30 0 -30 30t30 30q40 0 70 30t30 72.5t-40 78t-110 35.5zM170 510l-10 -280q0 -52 5.5 -108.5t10 -69.5t4.5 -22
q0 -30 -30 -30q-20 0 -30 30q-20 60 -20 200l10 280q0 30 30 30t30 -30z" />
    <glyph glyph-name="J_B" unicode="JB" horiz-adv-x="960" 
d="M520 470q0 30 30 30q23 0 30 -30q6 -22 18 -91.5t12 -318.5q0 -30 -30 -30t-30 30q0 236 -10 300q-9 56 -13 75q-7 28 -7 35zM640 526l-90 -6q-30 0 -30 30q0 27 30 30q60 6 90 6q96 0 153 -53t57 -123t-53 -118q54 -18 88.5 -50.5t34.5 -69.5t-13 -65.5t-30 -46.5
t-51 -37t-58 -28l-70 -26l-65 -24.5t-36 -7.5q-30 0 -30 31q0 14 32.5 27l73.5 28l62.5 23t49.5 22q27 14 41 27q34 32 34 75q0 29 -57 54.5t-113 25.5q-30 0 -30 30t30 30q40 0 70 30t30 72.5t-40 78t-110 35.5zM40 114q0 30 30 30q12 0 29.5 -8.5l35.5 -17l24.5 -11.5
t23 -10t24.5 -10l22.5 -8.5t24.5 -8.5q10 -2 22 -5q21 -5 44.5 -5t41.5 14t18 35t-15 146t-15 185t20 116q2 9 10.5 19.5t19.5 10.5q30 0 30 -30q0 -5 -4 -17q-16 -48 -16 -101.5t15 -179.5t15 -148q0 -46 -36 -78t-84 -32q-46 0 -79.5 12t-44 15.5t-31.5 12.5t-27.5 12
l-28.5 13l-31.5 14.5l-17.5 8.5q-20 10 -20 26z" />
    <glyph glyph-name="K_B" unicode="KB" horiz-adv-x="960" 
d="M221 334q-49 -38 -75 -74t-26 -80.5t5 -64.5t5 -25q0 -30 -30 -30q-40 0 -40 120q0 5 -5 130t-5 220q0 30 30 30t30 -30q0 -62 5 -214q83 94 277 186q16 8 28 8q30 0 30 -30q0 -12 -9 -17.5t-59 -30.5t-102 -58q0 -81 19.5 -136t50 -80.5t30.5 -37.5q0 -30 -30 -30
q-12 0 -45 28q-74 67 -84 216zM520 470q0 30 30 30q23 0 30 -30q6 -22 18 -91.5t12 -318.5q0 -30 -30 -30t-30 30q0 236 -10 300q-9 56 -13 75q-7 28 -7 35zM640 526l-90 -6q-30 0 -30 30q0 27 30 30q60 6 90 6q96 0 153 -53t57 -123t-53 -118q54 -18 88.5 -50.5t34.5 -69.5
t-13 -65.5t-30 -46.5t-51 -37t-58 -28l-70 -26l-65 -24.5t-36 -7.5q-30 0 -30 31q0 14 32.5 27l73.5 28l62.5 23t49.5 22q27 14 41 27q34 32 34 75q0 29 -57 54.5t-113 25.5q-30 0 -30 30t30 30q40 0 70 30t30 72.5t-40 78t-110 35.5z" />
    <glyph glyph-name="L_B" unicode="LB" horiz-adv-x="880" 
d="M114 500l-14 -350q0 -60 230 -60q30 0 30 -30t-30 -30q-290 0 -290 120l14 350l-4 55q0 31 30 31q27 0 30 -30q4 -24 4 -56zM440 470q0 30 30 30q23 0 30 -30q6 -22 18 -91.5t12 -318.5q0 -30 -30 -30t-30 30q0 236 -10 300q-9 56 -13 75q-7 28 -7 35zM560 526l-90 -6
q-30 0 -30 30q0 27 30 30q60 6 90 6q96 0 153 -53t57 -123t-53 -118q54 -18 88.5 -50.5t34.5 -69.5t-13 -65.5t-30 -46.5t-51 -37t-58 -28l-70 -26l-65 -24.5t-36 -7.5q-30 0 -30 31q0 14 32.5 27l73.5 28l62.5 23t49.5 22q27 14 41 27q34 32 34 75q0 29 -57 54.5t-113 25.5
q-30 0 -30 30t30 30q40 0 70 30t30 72.5t-40 78t-110 35.5z" />
    <glyph glyph-name="M_B" unicode="MB" horiz-adv-x="1040" 
d="M109 70l11 -40q0 -30 -30 -30q-15 0 -26 19.5t-14 40.5q-10 80 -10 129.5t5 174.5t5 146q0 30 30 30t30 -30q0 -21 -5 -146t-5 -173.5t9 -120.5zM509 110l11 -40q0 -30 -30 -30q-16 0 -26.5 19t-13.5 41q-10 80 -10 109t5 90.5t5 90.5t-6 77q-97 -177 -194 -177
q-91 0 -138 187q-2 8 -2 13q0 30 30 30q22 0 30 -30q16 -62 37 -101t43 -39q70 0 173 206q17 30 37 30q24 0 30 -30q20 -100 20 -156l-10 -190q0 -28 9 -100zM600 470q0 30 30 30q23 0 30 -30q6 -22 18 -91.5t12 -318.5q0 -30 -30 -30t-30 30q0 236 -10 300q-9 56 -13 75
q-7 28 -7 35zM720 526l-90 -6q-30 0 -30 30q0 27 30 30q60 6 90 6q96 0 153 -53t57 -123t-53 -118q54 -18 88.5 -50.5t34.5 -69.5t-13 -65.5t-30 -46.5t-51 -37t-58 -28l-70 -26l-65 -24.5t-36 -7.5q-30 0 -30 31q0 14 32.5 27l73.5 28l62.5 23t49.5 22q27 14 41 27
q34 32 34 75q0 29 -57 54.5t-113 25.5q-30 0 -30 30t30 30q40 0 70 30t30 72.5t-40 78t-110 35.5z" />
    <glyph glyph-name="N_B" unicode="NB" horiz-adv-x="960" 
d="M520 470q0 30 30 30q23 0 30 -30q6 -22 18 -91.5t12 -318.5q0 -30 -30 -30t-30 30q0 236 -10 300q-9 56 -13 75q-7 28 -7 35zM640 526l-90 -6q-30 0 -30 30q0 27 30 30q60 6 90 6q96 0 153 -53t57 -123t-53 -118q54 -18 88.5 -50.5t34.5 -69.5t-13 -65.5t-30 -46.5
t-51 -37t-58 -28l-70 -26l-65 -24.5t-36 -7.5q-30 0 -30 31q0 14 32.5 27l73.5 28l62.5 23t49.5 22q27 14 41 27q34 32 34 75q0 29 -57 54.5t-113 25.5q-30 0 -30 30t30 30q40 0 70 30t30 72.5t-40 78t-110 35.5zM286 80l15.5 62t7.5 33t3.5 17t2.5 16t1.5 13.5t1.5 18t5 50
t18 109t20 91.5q23 70 49 70q30 0 30 -30q0 -9 -9 -27t-14 -33t-17.5 -83t-18.5 -128t-11.5 -86t-34.5 -143q-7 -30 -30 -30q-36 0 -54 19.5t-23 44.5q-2 7 -26 134q-62 328 -82 328t-20 -30q0 -8 2 -88q8 -240 8 -378q0 -30 -30 -30t-30 30q0 138 -5 298t-5 168
q0 40 22.5 65t57.5 25q49 0 72 -70q20 -59 55.5 -242.5t38.5 -193.5z" />
    <glyph glyph-name="O_B" unicode="OB" horiz-adv-x="1040" 
d="M600 470q0 30 30 30q23 0 30 -30q6 -22 18 -91.5t12 -318.5q0 -30 -30 -30t-30 30q0 236 -10 300q-9 56 -13 75q-7 28 -7 35zM720 526l-90 -6q-30 0 -30 30q0 27 30 30q60 6 90 6q96 0 153 -53t57 -123t-53 -118q54 -18 88.5 -50.5t34.5 -69.5t-13 -65.5t-30 -46.5
t-51 -37t-58 -28l-70 -26l-65 -24.5t-36 -7.5q-30 0 -30 31q0 14 32.5 27l73.5 28l62.5 23t49.5 22q27 14 41 27q34 32 34 75q0 29 -57 54.5t-113 25.5q-30 0 -30 30t30 30q40 0 70 30t30 72.5t-40 78t-110 35.5zM282 454l-19 3q-18 3 -44 3t-50 -26q-25 -24 -39 -62
q-30 -79 -30 -142q0 -170 135 -170q109 0 167 71.5t58 188.5q0 62 -25 111t-75 49q-10 0 -47 -5q-5 -21 -31 -21zM235 0q-95 0 -145 63.5t-50 166.5q0 79 41 177q20 48 57.5 80.5t83.5 32.5q18 0 38 -2q29 22 102.5 22t115.5 -65.5t42 -154.5q0 -141 -76 -230.5t-209 -89.5z
" />
    <glyph glyph-name="P_B" unicode="PB" horiz-adv-x="960" 
d="M520 470q0 30 30 30q23 0 30 -30q6 -22 18 -91.5t12 -318.5q0 -30 -30 -30t-30 30q0 236 -10 300q-9 56 -13 75q-7 28 -7 35zM640 526l-90 -6q-30 0 -30 30q0 27 30 30q60 6 90 6q96 0 153 -53t57 -123t-53 -118q54 -18 88.5 -50.5t34.5 -69.5t-13 -65.5t-30 -46.5
t-51 -37t-58 -28l-70 -26l-65 -24.5t-36 -7.5q-30 0 -30 31q0 14 32.5 27l73.5 28l62.5 23t49.5 22q27 14 41 27q34 32 34 75q0 29 -57 54.5t-113 25.5q-30 0 -30 30t30 30q40 0 70 30t30 72.5t-40 78t-110 35.5zM170 590q77 0 173.5 -58t96.5 -122q0 -73 -157 -136l-54 -22
t-39 -12q-30 0 -30 30q0 19 30 31q99 40 144.5 65t45.5 46q0 37 -81.5 77.5t-122.5 40.5t-71 -5t-35 -5q-30 0 -30 30q0 24 30 30q50 10 100 10zM130 330q2 -16 15.5 -183.5t14.5 -176.5q0 -30 -30 -30q-27 0 -30 30q-2 16 -15 178.5t-14 171.5l-1 10q0 30 30 30
q27 0 30 -30z" />
    <glyph glyph-name="Q_B" unicode="QB" horiz-adv-x="1100" 
d="M660 470q0 30 30 30q23 0 30 -30q6 -22 18 -91.5t12 -318.5q0 -30 -30 -30t-30 30q0 236 -10 300q-9 56 -13 75q-7 28 -7 35zM780 526l-90 -6q-30 0 -30 30q0 27 30 30q60 6 90 6q96 0 153 -53t57 -123t-53 -118q54 -18 88.5 -50.5t34.5 -69.5t-13 -65.5t-30 -46.5
t-51 -37t-58 -28l-70 -26l-65 -24.5t-36 -7.5q-30 0 -30 31q0 14 32.5 27l73.5 28l62.5 23t49.5 22q27 14 41 27q34 32 34 75q0 29 -57 54.5t-113 25.5q-30 0 -30 30t30 30q40 0 70 30t30 72.5t-40 78t-110 35.5zM258 60q12 67 12 98.5t30 31.5t30 -33t-11 -93
q98 15 149.5 81t51.5 175q0 84 -42.5 145t-117.5 61q-54 0 -119 -37q-22 -13 -31 -13q-30 0 -30 30q0 16 30 34q77 46 150 46q100 0 160 -78t60 -188q0 -137 -72 -220.5t-201 -97.5q-21 -100 -45 -172q-10 -30 -32 -30q-30 0 -30 30q0 4 14.5 49t31.5 121q-86 5 -146 69.5
t-60 158t37 152t88 68.5q10 2 15 2q30 0 30 -30q0 -24 -30 -30q-41 -8 -60.5 -57.5t-19.5 -113.5t46.5 -111t111.5 -48z" />
    <glyph glyph-name="R_B" unicode="RB" horiz-adv-x="1020" 
d="M165 319q63 15 144 60t81 81q0 66 -120 66q-47 0 -100 -12q0 -33 -2.5 -101.5t-2.5 -93.5zM100 160l5 120q0 36 2.5 113t2.5 104q-26 -7 -30 -7q-30 0 -30 30q0 21 30 30q120 36 193.5 36t125 -31t51.5 -95q0 -97 -213 -180q105 -64 169 -122q22 -20 53 -51t31 -77
q0 -30 -29.5 -30t-29.5 30q0 21 -14 35q-34 34 -56 54q-57 52 -197 135l-4 -94l10 -110q0 -30 -30 -30q-27 0 -30 30q-10 100 -10 110zM580 470q0 30 30 30q23 0 30 -30q6 -22 18 -91.5t12 -318.5q0 -30 -30 -30t-30 30q0 236 -10 300q-9 56 -13 75q-7 28 -7 35zM700 526
l-90 -6q-30 0 -30 30q0 27 30 30q60 6 90 6q96 0 153 -53t57 -123t-53 -118q54 -18 88.5 -50.5t34.5 -69.5t-13 -65.5t-30 -46.5t-51 -37t-58 -28l-70 -26l-65 -24.5t-36 -7.5q-30 0 -30 31q0 14 32.5 27l73.5 28l62.5 23t49.5 22q27 14 41 27q34 32 34 75q0 29 -57 54.5
t-113 25.5q-30 0 -30 30t30 30q40 0 70 30t30 72.5t-40 78t-110 35.5z" />
    <glyph glyph-name="S_B" unicode="SB" horiz-adv-x="960" 
d="M520 470q0 30 30 30q23 0 30 -30q6 -22 18 -91.5t12 -318.5q0 -30 -30 -30t-30 30q0 236 -10 300q-9 56 -13 75q-7 28 -7 35zM640 526l-90 -6q-30 0 -30 30q0 27 30 30q60 6 90 6q96 0 153 -53t57 -123t-53 -118q54 -18 88.5 -50.5t34.5 -69.5t-13 -65.5t-30 -46.5
t-51 -37t-58 -28l-70 -26l-65 -24.5t-36 -7.5q-30 0 -30 31q0 14 32.5 27l73.5 28l62.5 23t49.5 22q27 14 41 27q34 32 34 75q0 29 -57 54.5t-113 25.5q-30 0 -30 30t30 30q40 0 70 30t30 72.5t-40 78t-110 35.5zM70 0q-30 0 -30 30t30 30q200 0 275 30q35 14 35 29
t-24.5 27t-82 31t-87.5 32q-146 61 -146 185q0 81 70 136.5t168 55.5q54 0 90.5 -32t36.5 -77t-35 -80t-48 -35q-30 0 -30 30q0 13 26.5 39.5t26.5 40.5q0 24 -18.5 39t-47.5 15q-74 0 -126.5 -37.5t-52.5 -90.5t29.5 -83t67 -45.5t75.5 -28t63.5 -22t51.5 -23.5
q53 -29 53 -76q0 -61 -87.5 -90.5t-282.5 -29.5z" />
    <glyph glyph-name="T_B" unicode="TB" horiz-adv-x="960" 
d="M520 470q0 30 30 30q23 0 30 -30q6 -22 18 -91.5t12 -318.5q0 -30 -30 -30t-30 30q0 236 -10 300q-9 56 -13 75q-7 28 -7 35zM640 526l-90 -6q-30 0 -30 30q0 27 30 30q60 6 90 6q96 0 153 -53t57 -123t-53 -118q54 -18 88.5 -50.5t34.5 -69.5t-13 -65.5t-30 -46.5
t-51 -37t-58 -28l-70 -26l-65 -24.5t-36 -7.5q-30 0 -30 31q0 14 32.5 27l73.5 28l62.5 23t49.5 22q27 14 41 27q34 32 34 75q0 29 -57 54.5t-113 25.5q-30 0 -30 30t30 30q40 0 70 30t30 72.5t-40 78t-110 35.5zM40 520q0 40 117.5 40t232.5 23q15 3 20 3q30 0 30 -30
q0 -24 -30 -30q-117 -26 -250 -26q-55 0 -67.5 -5t-22.5 -5q-30 0 -30 30zM290 440q0 -7 -4 -23q-7 -31 -16.5 -91t-9.5 -266q0 -30 -30 -30t-30 30q0 219 12 288.5t18 91.5q7 30 30 30q30 0 30 -30z" />
    <glyph glyph-name="U_B" unicode="UB" horiz-adv-x="960" 
d="M520 470q0 30 30 30q23 0 30 -30q6 -22 18 -91.5t12 -318.5q0 -30 -30 -30t-30 30q0 236 -10 300q-9 56 -13 75q-7 28 -7 35zM640 526l-90 -6q-30 0 -30 30q0 27 30 30q60 6 90 6q96 0 153 -53t57 -123t-53 -118q54 -18 88.5 -50.5t34.5 -69.5t-13 -65.5t-30 -46.5
t-51 -37t-58 -28l-70 -26l-65 -24.5t-36 -7.5q-30 0 -30 31q0 14 32.5 27l73.5 28l62.5 23t49.5 22q27 14 41 27q34 32 34 75q0 29 -57 54.5t-113 25.5q-30 0 -30 30t30 30q40 0 70 30t30 72.5t-40 78t-110 35.5zM363 545l-1 11q0 14 8.5 22t18.5 8q25 0 33 -30
q18 -74 18 -137t-16 -135.5t-45 -137t-78 -105.5t-103.5 -41t-87 26t-46.5 75q-24 79 -24 190.5t20 214.5q3 14 12 22t18 8q30 0 30 -30l-3 -19q-17 -84 -17 -155.5t1 -99t6.5 -63t14.5 -58t27 -38t43 -15.5q55 0 99 58.5t66.5 141.5t22.5 151.5t-17 135.5z" />
    <glyph glyph-name="V_B" unicode="VB" horiz-adv-x="960" 
d="M70 550q20 0 32 -30q48 -120 94 -356q4 -22 11 -46q62 278 169 438q20 30 34 30q30 0 30 -30q0 -9 -16 -33q-108 -162 -174 -493q-6 -30 -30 -30q-20 0 -43 34.5t-39 115.5q-47 233 -93 349q-5 13 -5 23.5t8 19t22 8.5zM520 470q0 30 30 30q23 0 30 -30q6 -22 18 -91.5
t12 -318.5q0 -30 -30 -30t-30 30q0 236 -10 300q-9 56 -13 75q-7 28 -7 35zM640 526l-90 -6q-30 0 -30 30q0 27 30 30q60 6 90 6q96 0 153 -53t57 -123t-53 -118q54 -18 88.5 -50.5t34.5 -69.5t-13 -65.5t-30 -46.5t-51 -37t-58 -28l-70 -26l-65 -24.5t-36 -7.5
q-30 0 -30 31q0 14 32.5 27l73.5 28l62.5 23t49.5 22q27 14 41 27q34 32 34 75q0 29 -57 54.5t-113 25.5q-30 0 -30 30t30 30q40 0 70 30t30 72.5t-40 78t-110 35.5z" />
    <glyph glyph-name="W_B" unicode="WB" horiz-adv-x="1200" 
d="M337 328q74 212 113 212q30 0 30 -30q0 -12 -15 -34q-34 -51 -99 -248q33 -98 54 -98q15 0 58 72t141 268q15 30 31 30q30 0 30 -30q0 -12 -7 -26q-100 -200 -135 -259t-61 -87t-57 -28q-48 0 -83 69q-39 -107 -76 -129q-18 -10 -41 -10q-43 0 -71.5 54.5t-61.5 178
t-45 227.5q-2 12 -2 17q0 29 30 29q27 0 30 -30q14 -123 56 -269.5t64 -146.5q24 0 44 52q19 49 40 115q-40 137 -53 257q-1 10 -1 16q0 30 30 30q27 0 30 -30q9 -92 27 -172zM760 470q0 30 30 30q23 0 30 -30q6 -22 18 -91.5t12 -318.5q0 -30 -30 -30t-30 30q0 236 -10 300
q-9 56 -13 75q-7 28 -7 35zM880 526l-90 -6q-30 0 -30 30q0 27 30 30q60 6 90 6q96 0 153 -53t57 -123t-53 -118q54 -18 88.5 -50.5t34.5 -69.5t-13 -65.5t-30 -46.5t-51 -37t-58 -28l-70 -26l-65 -24.5t-36 -7.5q-30 0 -30 31q0 14 32.5 27l73.5 28l62.5 23t49.5 22
q27 14 41 27q34 32 34 75q0 29 -57 54.5t-113 25.5q-30 0 -30 30t30 30q40 0 70 30t30 72.5t-40 78t-110 35.5z" />
    <glyph glyph-name="X_B" unicode="XB" horiz-adv-x="960" 
d="M520 470q0 30 30 30q23 0 30 -30q6 -22 18 -91.5t12 -318.5q0 -30 -30 -30t-30 30q0 236 -10 300q-9 56 -13 75q-7 28 -7 35zM640 526l-90 -6q-30 0 -30 30q0 27 30 30q60 6 90 6q96 0 153 -53t57 -123t-53 -118q54 -18 88.5 -50.5t34.5 -69.5t-13 -65.5t-30 -46.5
t-51 -37t-58 -28l-70 -26l-65 -24.5t-36 -7.5q-30 0 -30 31q0 14 32.5 27l73.5 28l62.5 23t49.5 22q27 14 41 27q34 32 34 75q0 29 -57 54.5t-113 25.5q-30 0 -30 30t30 30q40 0 70 30t30 72.5t-40 78t-110 35.5zM90 0q-30 0 -30 30q0 16 5 27q39 87 140 248
q-6 10 -75 108.5t-79.5 114.5t-10.5 28q0 30 30 30q13 0 35 -33l68 -96.5t67 -96.5l100 160q21 36 40 36q30 0 30 -29q0 -10 -16 -34l-116 -187l74.5 -106t77.5 -111.5t10 -28.5q0 -30 -30 -30q-12 0 -32 30l-68 95.5t-67 95.5q-105 -171 -123 -221q-11 -30 -30 -30z" />
    <glyph glyph-name="Y_B" unicode="YB" horiz-adv-x="960" 
d="M520 470q0 30 30 30q23 0 30 -30q6 -22 18 -91.5t12 -318.5q0 -30 -30 -30t-30 30q0 236 -10 300q-9 56 -13 75q-7 28 -7 35zM640 526l-90 -6q-30 0 -30 30q0 27 30 30q60 6 90 6q96 0 153 -53t57 -123t-53 -118q54 -18 88.5 -50.5t34.5 -69.5t-13 -65.5t-30 -46.5
t-51 -37t-58 -28l-70 -26l-65 -24.5t-36 -7.5q-30 0 -30 31q0 14 32.5 27l73.5 28l62.5 23t49.5 22q27 14 41 27q34 32 34 75q0 29 -57 54.5t-113 25.5q-30 0 -30 30t30 30q40 0 70 30t30 72.5t-40 78t-110 35.5zM235 0q-30 0 -30 30q0 5 7 24l138 346q-37 -22 -69.5 -22
t-53.5 5t-37 11t-33.5 19l-27.5 21t-25 25.5t-19.5 23.5l-17.5 24t-15 20t-7 13t-5 16q0 30 29 30q11 0 31 -24q4 -4 27 -34t37.5 -44.5t44 -30t59.5 -15.5t63.5 21t47.5 51q13 30 31 30q30 0 30 -30q0 -53 -33 -132l-141 -351q-11 -27 -31 -27z" />
    <glyph glyph-name="Z_B" unicode="ZB" horiz-adv-x="1000" 
d="M560 470q0 30 30 30q23 0 30 -30q6 -22 18 -91.5t12 -318.5q0 -30 -30 -30t-30 30q0 236 -10 300q-9 56 -13 75q-7 28 -7 35zM680 526l-90 -6q-30 0 -30 30q0 27 30 30q60 6 90 6q96 0 153 -53t57 -123t-53 -118q54 -18 88.5 -50.5t34.5 -69.5t-13 -65.5t-30 -46.5
t-51 -37t-58 -28l-70 -26l-65 -24.5t-36 -7.5q-30 0 -30 31q0 14 32.5 27l73.5 28l62.5 23t49.5 22q27 14 41 27q34 32 34 75q0 29 -57 54.5t-113 25.5q-30 0 -30 30t30 30q40 0 70 30t30 72.5t-40 78t-110 35.5zM86 494l-16 -2q-30 0 -30 30q0 11 8 20.5t22 11.5
q213 32 288 32q44 0 79 -24t35 -66q0 -67 -90 -149q-38 -35 -101.5 -83t-75.5 -58t-35 -32q-40 -37 -40 -74q0 -40 172 -40q82 0 112 10t36 10q30 0 30 -30q0 -21 -43 -35.5t-110.5 -14.5t-100 2.5t-72.5 11.5t-62 31t-22 50t10 51t22.5 40.5t36.5 40t38.5 34l44 33.5
l54.5 41.5l51.5 42t55.5 58t29 60.5q0 14 -18 22t-36 8q-59 0 -272 -32z" />
    <glyph glyph-name="A_C" unicode="AC" horiz-adv-x="960" 
d="M385 211q25 -136 48 -184q7 -14 7 -27q0 -30 -30 -30q-16 0 -30 30q-39 80 -63 240q-63 0 -169 -19l-48 -191q-4 -16 -10.5 -23t-19.5 -7q-30 0 -30 30q0 8 2 12l43 173h-15q-30 0 -30 30t30 30q18 0 30 1q24 88 68 223q28 87 90 87q18 0 38.5 -13.5t29.5 -46.5
q23 -82 46 -236q16 -6 42 -26.5t26 -33.5q0 -30 -30 -30q-7 0 -25 11zM308 300q-33 226 -50 226q-9 0 -13 -4.5t-6 -6.5t-4.5 -8t-3.5 -8q-6 -12 -6 -18q-46 -138 -61 -196q74 13 144 15zM890 46q-92 -46 -179 -46t-139 72t-52 164t26.5 168.5t85 129t138.5 52.5
q32 0 61 -16t29 -34q0 -30 -30 -30q-9 0 -26.5 10t-33.5 10q-62 0 -107 -45q-83 -83 -83 -241q0 -69 35 -124.5t95 -55.5q74 0 156 41q18 9 24 9q30 0 30 -30q0 -12 -6 -18.5t-24 -15.5z" />
    <glyph glyph-name="B_C" unicode="BC" horiz-adv-x="960" 
d="M40 470q0 30 30 30q23 0 30 -30q6 -22 18 -91.5t12 -318.5q0 -30 -30 -30t-30 30q0 236 -10 300q-9 56 -13 75q-7 28 -7 35zM160 526l-90 -6q-30 0 -30 30q0 27 30 30q60 6 90 6q96 0 153 -53t57 -123t-53 -118q54 -18 88.5 -50.5t34.5 -69.5t-13 -65.5t-30 -46.5
t-51 -37t-58 -28l-70 -26l-65 -24.5t-36 -7.5q-30 0 -30 31q0 14 32.5 27l73.5 28l62.5 23t49.5 22q27 14 41 27q34 32 34 75q0 29 -57 54.5t-113 25.5q-30 0 -30 30t30 30q40 0 70 30t30 72.5t-40 78t-110 35.5zM890 46q-92 -46 -179 -46t-139 72t-52 164t26.5 168.5
t85 129t138.5 52.5q32 0 61 -16t29 -34q0 -30 -30 -30q-9 0 -26.5 10t-33.5 10q-62 0 -107 -45q-83 -83 -83 -241q0 -69 35 -124.5t95 -55.5q74 0 156 41q18 9 24 9q30 0 30 -30q0 -12 -6 -18.5t-24 -15.5z" />
    <glyph glyph-name="C_C" unicode="CC" horiz-adv-x="960" 
d="M890 46q-92 -46 -179 -46t-139 72t-52 164t26.5 168.5t85 129t138.5 52.5q32 0 61 -16t29 -34q0 -30 -30 -30q-9 0 -26.5 10t-33.5 10q-62 0 -107 -45q-83 -83 -83 -241q0 -69 35 -124.5t95 -55.5q74 0 156 41q18 9 24 9q30 0 30 -30q0 -12 -6 -18.5t-24 -15.5zM410 46
q-92 -46 -179 -46t-139 72t-52 164t26.5 168.5t85 129t138.5 52.5q32 0 61 -16t29 -34q0 -30 -30 -30q-9 0 -26.5 10t-33.5 10q-62 0 -107 -45q-83 -83 -83 -241q0 -69 35 -124.5t95 -55.5q74 0 156 41q18 9 24 9q30 0 30 -30q0 -12 -6 -18.5t-24 -15.5z" />
    <glyph glyph-name="D_C" unicode="DC" horiz-adv-x="960" 
d="M890 46q-92 -46 -179 -46t-139 72t-52 164t26.5 168.5t85 129t138.5 52.5q32 0 61 -16t29 -34q0 -30 -30 -30q-9 0 -26.5 10t-33.5 10q-62 0 -107 -45q-83 -83 -83 -241q0 -69 35 -124.5t95 -55.5q74 0 156 41q18 9 24 9q30 0 30 -30q0 -12 -6 -18.5t-24 -15.5zM128 37
q-7 29 -17.5 91.5t-10.5 281.5q0 30 30 30t30 -30q0 -206 9 -262.5t17 -95.5q82 23 126 46.5t56 42t12 55.5t-26 125t-58 128q-62 77 -126 77q-35 0 -65 -15t-35 -15q-30 0 -30 30q0 19 41.5 39.5t88.5 20.5q91 0 172 -99q39 -48 68.5 -145.5t29.5 -157.5q0 -75 -70 -122
t-254 -90q-10 -2 -20 -2t-18 8.5t-8 22t7 19.5t23 10z" />
    <glyph glyph-name="E_C" unicode="EC" horiz-adv-x="960" 
d="M890 46q-92 -46 -179 -46t-139 72t-52 164t26.5 168.5t85 129t138.5 52.5q32 0 61 -16t29 -34q0 -30 -30 -30q-9 0 -26.5 10t-33.5 10q-62 0 -107 -45q-83 -83 -83 -241q0 -69 35 -124.5t95 -55.5q74 0 156 41q18 9 24 9q30 0 30 -30q0 -12 -6 -18.5t-24 -15.5zM410 523
l-90 3q-90 0 -188 -20q-17 -78 -23 -164q40 8 161 8q48 0 84 -14.5t36 -35.5q0 -30 -30 -30q-7 0 -31 10t-59 10q-121 0 -166 -9q-4 -66 -4 -109t17.5 -77.5t42.5 -34.5q127 0 209 20q38 10 41 10q30 0 30 -30q0 -8 -8 -16.5t-37 -18.5t-102 -17.5t-128.5 -7.5t-90 51
t-34.5 109q0 139 28 326q7 45 7 46q9 26 35 31q112 23 183 23t117 -3q30 -1 30 -30.5t-30 -29.5z" />
    <glyph glyph-name="F_C" unicode="FC" horiz-adv-x="960" 
d="M190 327l130 3q30 0 30 -30q0 -27 -29.5 -30t-130.5 -3q-18 0 -45 8t-39 18q13 -128 42 -247q2 -12 2 -16q0 -30 -30 -30q-24 0 -31 30q-18 74 -33.5 184.5t-15.5 165.5q0 99 78.5 152.5t191.5 53.5q72 0 101 -14.5t29 -31.5q0 -30 -30 -30q-10 0 -26 8t-74 8
q-88 0 -149 -36.5t-61 -109.5q0 -20 35.5 -36.5t54.5 -16.5zM890 46q-92 -46 -179 -46t-139 72t-52 164t26.5 168.5t85 129t138.5 52.5q32 0 61 -16t29 -34q0 -30 -30 -30q-9 0 -26.5 10t-33.5 10q-62 0 -107 -45q-83 -83 -83 -241q0 -69 35 -124.5t95 -55.5q74 0 156 41
q18 9 24 9q30 0 30 -30q0 -12 -6 -18.5t-24 -15.5z" />
    <glyph glyph-name="G_C" unicode="GC" horiz-adv-x="960" 
d="M250 230q0 35 80 35q87 0 102 -15q8 -8 8 -20q0 -30 -30 -30q-2 0 -27.5 2.5t-40.5 2.5q18 -32 18 -63q0 -60 -40 -101t-100 -41q-79 0 -129.5 50.5t-50.5 127t20 148t56.5 130t95 94.5t128.5 36q44 0 72 -28t28 -67t-25 -81q-19 -30 -35 -30q-30 0 -30 30q0 7 15 32
t15 44q0 40 -40 40q-76 0 -132.5 -54t-82 -131t-25.5 -161q0 -54 33 -87t78 -33t67 23t22 54t-25 54t-25 39zM890 46q-92 -46 -179 -46t-139 72t-52 164t26.5 168.5t85 129t138.5 52.5q32 0 61 -16t29 -34q0 -30 -30 -30q-9 0 -26.5 10t-33.5 10q-62 0 -107 -45
q-83 -83 -83 -241q0 -69 35 -124.5t95 -55.5q74 0 156 41q18 9 24 9q30 0 30 -30q0 -12 -6 -18.5t-24 -15.5z" />
    <glyph glyph-name="H_C" unicode="HC" horiz-adv-x="960" 
d="M130 280q55 0 119.5 5t85.5 11q16 128 43 194q12 30 32 30q30 0 30 -30q0 -8 -11 -35t-25 -104.5t-14 -130.5t10 -119t15 -81.5t5 -19.5q0 -30 -30 -30q-9 0 -18.5 8.5t-15 25.5t-16 86t-10.5 130v14q-84 -14 -200 -14q4 -112 7 -127.5t3 -22.5q0 -30 -30 -30
q-24 0 -29 26t-11 154q-13 0 -21.5 9t-8.5 21q0 30 30 30v180q0 37 -5 62t-5 34q0 30 30 30q22 0 29 -32q11 -77 11 -94v-180zM890 46q-92 -46 -179 -46t-139 72t-52 164t26.5 168.5t85 129t138.5 52.5q32 0 61 -16t29 -34q0 -30 -30 -30q-9 0 -26.5 10t-33.5 10
q-62 0 -107 -45q-83 -83 -83 -241q0 -69 35 -124.5t95 -55.5q74 0 156 41q18 9 24 9q30 0 30 -30q0 -12 -6 -18.5t-24 -15.5z" />
    <glyph glyph-name="I_C" unicode="IC" horiz-adv-x="760" 
d="M690 46q-92 -46 -179 -46t-139 72t-52 164t26.5 168.5t85 129t138.5 52.5q32 0 61 -16t29 -34q0 -30 -30 -30q-9 0 -26.5 10t-33.5 10q-62 0 -107 -45q-83 -83 -83 -241q0 -69 35 -124.5t95 -55.5q74 0 156 41q18 9 24 9q30 0 30 -30q0 -12 -6 -18.5t-24 -15.5zM170 510
l-10 -280q0 -52 5.5 -108.5t10 -69.5t4.5 -22q0 -30 -30 -30q-20 0 -30 30q-20 60 -20 200l10 280q0 30 30 30t30 -30z" />
    <glyph glyph-name="J_C" unicode="JC" horiz-adv-x="960" 
d="M890 46q-92 -46 -179 -46t-139 72t-52 164t26.5 168.5t85 129t138.5 52.5q32 0 61 -16t29 -34q0 -30 -30 -30q-9 0 -26.5 10t-33.5 10q-62 0 -107 -45q-83 -83 -83 -241q0 -69 35 -124.5t95 -55.5q74 0 156 41q18 9 24 9q30 0 30 -30q0 -12 -6 -18.5t-24 -15.5zM40 114
q0 30 30 30q12 0 29.5 -8.5l35.5 -17l24.5 -11.5t23 -10t24.5 -10l22.5 -8.5t24.5 -8.5q10 -2 22 -5q21 -5 44.5 -5t41.5 14t18 35t-15 146t-15 185t20 116q2 9 10.5 19.5t19.5 10.5q30 0 30 -30q0 -5 -4 -17q-16 -48 -16 -101.5t15 -179.5t15 -148q0 -46 -36 -78t-84 -32
q-46 0 -79.5 12t-44 15.5t-31.5 12.5t-27.5 12l-28.5 13l-31.5 14.5l-17.5 8.5q-20 10 -20 26z" />
    <glyph glyph-name="K_C" unicode="KC" horiz-adv-x="960" 
d="M221 334q-49 -38 -75 -74t-26 -80.5t5 -64.5t5 -25q0 -30 -30 -30q-40 0 -40 120q0 5 -5 130t-5 220q0 30 30 30t30 -30q0 -62 5 -214q83 94 277 186q16 8 28 8q30 0 30 -30q0 -12 -9 -17.5t-59 -30.5t-102 -58q0 -81 19.5 -136t50 -80.5t30.5 -37.5q0 -30 -30 -30
q-12 0 -45 28q-74 67 -84 216zM890 46q-92 -46 -179 -46t-139 72t-52 164t26.5 168.5t85 129t138.5 52.5q32 0 61 -16t29 -34q0 -30 -30 -30q-9 0 -26.5 10t-33.5 10q-62 0 -107 -45q-83 -83 -83 -241q0 -69 35 -124.5t95 -55.5q74 0 156 41q18 9 24 9q30 0 30 -30
q0 -12 -6 -18.5t-24 -15.5z" />
    <glyph glyph-name="L_C" unicode="LC" horiz-adv-x="880" 
d="M114 500l-14 -350q0 -60 230 -60q30 0 30 -30t-30 -30q-290 0 -290 120l14 350l-4 55q0 31 30 31q27 0 30 -30q4 -24 4 -56zM810 46q-92 -46 -179 -46t-139 72t-52 164t26.5 168.5t85 129t138.5 52.5q32 0 61 -16t29 -34q0 -30 -30 -30q-9 0 -26.5 10t-33.5 10
q-62 0 -107 -45q-83 -83 -83 -241q0 -69 35 -124.5t95 -55.5q74 0 156 41q18 9 24 9q30 0 30 -30q0 -12 -6 -18.5t-24 -15.5z" />
    <glyph glyph-name="M_C" unicode="MC" horiz-adv-x="1040" 
d="M109 70l11 -40q0 -30 -30 -30q-15 0 -26 19.5t-14 40.5q-10 80 -10 129.5t5 174.5t5 146q0 30 30 30t30 -30q0 -21 -5 -146t-5 -173.5t9 -120.5zM509 110l11 -40q0 -30 -30 -30q-16 0 -26.5 19t-13.5 41q-10 80 -10 109t5 90.5t5 90.5t-6 77q-97 -177 -194 -177
q-91 0 -138 187q-2 8 -2 13q0 30 30 30q22 0 30 -30q16 -62 37 -101t43 -39q70 0 173 206q17 30 37 30q24 0 30 -30q20 -100 20 -156l-10 -190q0 -28 9 -100zM970 46q-92 -46 -179 -46t-139 72t-52 164t26.5 168.5t85 129t138.5 52.5q32 0 61 -16t29 -34q0 -30 -30 -30
q-9 0 -26.5 10t-33.5 10q-62 0 -107 -45q-83 -83 -83 -241q0 -69 35 -124.5t95 -55.5q74 0 156 41q18 9 24 9q30 0 30 -30q0 -12 -6 -18.5t-24 -15.5z" />
    <glyph glyph-name="N_C" unicode="NC" horiz-adv-x="960" 
d="M890 46q-92 -46 -179 -46t-139 72t-52 164t26.5 168.5t85 129t138.5 52.5q32 0 61 -16t29 -34q0 -30 -30 -30q-9 0 -26.5 10t-33.5 10q-62 0 -107 -45q-83 -83 -83 -241q0 -69 35 -124.5t95 -55.5q74 0 156 41q18 9 24 9q30 0 30 -30q0 -12 -6 -18.5t-24 -15.5zM286 80
l15.5 62t7.5 33t3.5 17t2.5 16t1.5 13.5t1.5 18t5 50t18 109t20 91.5q23 70 49 70q30 0 30 -30q0 -9 -9 -27t-14 -33t-17.5 -83t-18.5 -128t-11.5 -86t-34.5 -143q-7 -30 -30 -30q-36 0 -54 19.5t-23 44.5q-2 7 -26 134q-62 328 -82 328t-20 -30q0 -8 2 -88q8 -240 8 -378
q0 -30 -30 -30t-30 30q0 138 -5 298t-5 168q0 40 22.5 65t57.5 25q49 0 72 -70q20 -59 55.5 -242.5t38.5 -193.5z" />
    <glyph glyph-name="O_C" unicode="OC" horiz-adv-x="1040" 
d="M970 46q-92 -46 -179 -46t-139 72t-52 164t26.5 168.5t85 129t138.5 52.5q32 0 61 -16t29 -34q0 -30 -30 -30q-9 0 -26.5 10t-33.5 10q-62 0 -107 -45q-83 -83 -83 -241q0 -69 35 -124.5t95 -55.5q74 0 156 41q18 9 24 9q30 0 30 -30q0 -12 -6 -18.5t-24 -15.5zM282 454
l-19 3q-18 3 -44 3t-50 -26q-25 -24 -39 -62q-30 -79 -30 -142q0 -170 135 -170q109 0 167 71.5t58 188.5q0 62 -25 111t-75 49q-10 0 -47 -5q-5 -21 -31 -21zM235 0q-95 0 -145 63.5t-50 166.5q0 79 41 177q20 48 57.5 80.5t83.5 32.5q18 0 38 -2q29 22 102.5 22
t115.5 -65.5t42 -154.5q0 -141 -76 -230.5t-209 -89.5z" />
    <glyph glyph-name="P_C" unicode="PC" horiz-adv-x="960" 
d="M890 46q-92 -46 -179 -46t-139 72t-52 164t26.5 168.5t85 129t138.5 52.5q32 0 61 -16t29 -34q0 -30 -30 -30q-9 0 -26.5 10t-33.5 10q-62 0 -107 -45q-83 -83 -83 -241q0 -69 35 -124.5t95 -55.5q74 0 156 41q18 9 24 9q30 0 30 -30q0 -12 -6 -18.5t-24 -15.5zM170 590
q77 0 173.5 -58t96.5 -122q0 -73 -157 -136l-54 -22t-39 -12q-30 0 -30 30q0 19 30 31q99 40 144.5 65t45.5 46q0 37 -81.5 77.5t-122.5 40.5t-71 -5t-35 -5q-30 0 -30 30q0 24 30 30q50 10 100 10zM130 330q2 -16 15.5 -183.5t14.5 -176.5q0 -30 -30 -30q-27 0 -30 30
q-2 16 -15 178.5t-14 171.5l-1 10q0 30 30 30q27 0 30 -30z" />
    <glyph glyph-name="Q_C" unicode="QC" horiz-adv-x="1100" 
d="M1030 46q-92 -46 -179 -46t-139 72t-52 164t26.5 168.5t85 129t138.5 52.5q32 0 61 -16t29 -34q0 -30 -30 -30q-9 0 -26.5 10t-33.5 10q-62 0 -107 -45q-83 -83 -83 -241q0 -69 35 -124.5t95 -55.5q74 0 156 41q18 9 24 9q30 0 30 -30q0 -12 -6 -18.5t-24 -15.5zM258 60
q12 67 12 98.5t30 31.5t30 -33t-11 -93q98 15 149.5 81t51.5 175q0 84 -42.5 145t-117.5 61q-54 0 -119 -37q-22 -13 -31 -13q-30 0 -30 30q0 16 30 34q77 46 150 46q100 0 160 -78t60 -188q0 -137 -72 -220.5t-201 -97.5q-21 -100 -45 -172q-10 -30 -32 -30q-30 0 -30 30
q0 4 14.5 49t31.5 121q-86 5 -146 69.5t-60 158t37 152t88 68.5q10 2 15 2q30 0 30 -30q0 -24 -30 -30q-41 -8 -60.5 -57.5t-19.5 -113.5t46.5 -111t111.5 -48z" />
    <glyph glyph-name="R_C" unicode="RC" horiz-adv-x="1020" 
d="M165 319q63 15 144 60t81 81q0 66 -120 66q-47 0 -100 -12q0 -33 -2.5 -101.5t-2.5 -93.5zM100 160l5 120q0 36 2.5 113t2.5 104q-26 -7 -30 -7q-30 0 -30 30q0 21 30 30q120 36 193.5 36t125 -31t51.5 -95q0 -97 -213 -180q105 -64 169 -122q22 -20 53 -51t31 -77
q0 -30 -29.5 -30t-29.5 30q0 21 -14 35q-34 34 -56 54q-57 52 -197 135l-4 -94l10 -110q0 -30 -30 -30q-27 0 -30 30q-10 100 -10 110zM950 46q-92 -46 -179 -46t-139 72t-52 164t26.5 168.5t85 129t138.5 52.5q32 0 61 -16t29 -34q0 -30 -30 -30q-9 0 -26.5 10t-33.5 10
q-62 0 -107 -45q-83 -83 -83 -241q0 -69 35 -124.5t95 -55.5q74 0 156 41q18 9 24 9q30 0 30 -30q0 -12 -6 -18.5t-24 -15.5z" />
    <glyph glyph-name="S_C" unicode="SC" horiz-adv-x="960" 
d="M890 46q-92 -46 -179 -46t-139 72t-52 164t26.5 168.5t85 129t138.5 52.5q32 0 61 -16t29 -34q0 -30 -30 -30q-9 0 -26.5 10t-33.5 10q-62 0 -107 -45q-83 -83 -83 -241q0 -69 35 -124.5t95 -55.5q74 0 156 41q18 9 24 9q30 0 30 -30q0 -12 -6 -18.5t-24 -15.5zM70 0
q-30 0 -30 30t30 30q200 0 275 30q35 14 35 29t-24.5 27t-82 31t-87.5 32q-146 61 -146 185q0 81 70 136.5t168 55.5q54 0 90.5 -32t36.5 -77t-35 -80t-48 -35q-30 0 -30 30q0 13 26.5 39.5t26.5 40.5q0 24 -18.5 39t-47.5 15q-74 0 -126.5 -37.5t-52.5 -90.5t29.5 -83
t67 -45.5t75.5 -28t63.5 -22t51.5 -23.5q53 -29 53 -76q0 -61 -87.5 -90.5t-282.5 -29.5z" />
    <glyph glyph-name="T_C" unicode="TC" horiz-adv-x="960" 
d="M890 46q-92 -46 -179 -46t-139 72t-52 164t26.5 168.5t85 129t138.5 52.5q32 0 61 -16t29 -34q0 -30 -30 -30q-9 0 -26.5 10t-33.5 10q-62 0 -107 -45q-83 -83 -83 -241q0 -69 35 -124.5t95 -55.5q74 0 156 41q18 9 24 9q30 0 30 -30q0 -12 -6 -18.5t-24 -15.5zM40 520
q0 40 117.5 40t232.5 23q15 3 20 3q30 0 30 -30q0 -24 -30 -30q-117 -26 -250 -26q-55 0 -67.5 -5t-22.5 -5q-30 0 -30 30zM290 440q0 -7 -4 -23q-7 -31 -16.5 -91t-9.5 -266q0 -30 -30 -30t-30 30q0 219 12 288.5t18 91.5q7 30 30 30q30 0 30 -30z" />
    <glyph glyph-name="U_C" unicode="UC" horiz-adv-x="960" 
d="M890 46q-92 -46 -179 -46t-139 72t-52 164t26.5 168.5t85 129t138.5 52.5q32 0 61 -16t29 -34q0 -30 -30 -30q-9 0 -26.5 10t-33.5 10q-62 0 -107 -45q-83 -83 -83 -241q0 -69 35 -124.5t95 -55.5q74 0 156 41q18 9 24 9q30 0 30 -30q0 -12 -6 -18.5t-24 -15.5zM363 545
l-1 11q0 14 8.5 22t18.5 8q25 0 33 -30q18 -74 18 -137t-16 -135.5t-45 -137t-78 -105.5t-103.5 -41t-87 26t-46.5 75q-24 79 -24 190.5t20 214.5q3 14 12 22t18 8q30 0 30 -30l-3 -19q-17 -84 -17 -155.5t1 -99t6.5 -63t14.5 -58t27 -38t43 -15.5q55 0 99 58.5t66.5 141.5
t22.5 151.5t-17 135.5z" />
    <glyph glyph-name="V_C" unicode="VC" horiz-adv-x="960" 
d="M70 550q20 0 32 -30q48 -120 94 -356q4 -22 11 -46q62 278 169 438q20 30 34 30q30 0 30 -30q0 -9 -16 -33q-108 -162 -174 -493q-6 -30 -30 -30q-20 0 -43 34.5t-39 115.5q-47 233 -93 349q-5 13 -5 23.5t8 19t22 8.5zM870 46q-92 -46 -179 -46t-139 72t-52 164
t26.5 168.5t85 129t138.5 52.5q32 0 61 -16t29 -34q0 -30 -30 -30q-9 0 -26.5 10t-33.5 10q-62 0 -107 -45q-83 -83 -83 -241q0 -69 35 -124.5t95 -55.5q74 0 156 41q18 9 24 9q30 0 30 -30q0 -12 -6 -18.5t-24 -15.5z" />
    <glyph glyph-name="W_C" unicode="WC" horiz-adv-x="1200" 
d="M337 328q74 212 113 212q30 0 30 -30q0 -12 -15 -34q-34 -51 -99 -248q33 -98 54 -98q15 0 58 72t141 268q15 30 31 30q30 0 30 -30q0 -12 -7 -26q-100 -200 -135 -259t-61 -87t-57 -28q-48 0 -83 69q-39 -107 -76 -129q-18 -10 -41 -10q-43 0 -71.5 54.5t-61.5 178
t-45 227.5q-2 12 -2 17q0 29 30 29q27 0 30 -30q14 -123 56 -269.5t64 -146.5q24 0 44 52q19 49 40 115q-40 137 -53 257q-1 10 -1 16q0 30 30 30q27 0 30 -30q9 -92 27 -172zM1130 46q-92 -46 -179 -46t-139 72t-52 164t26.5 168.5t85 129t138.5 52.5q32 0 61 -16t29 -34
q0 -30 -30 -30q-9 0 -26.5 10t-33.5 10q-62 0 -107 -45q-83 -83 -83 -241q0 -69 35 -124.5t95 -55.5q74 0 156 41q18 9 24 9q30 0 30 -30q0 -12 -6 -18.5t-24 -15.5z" />
    <glyph glyph-name="X_C" unicode="XC" horiz-adv-x="960" 
d="M890 46q-92 -46 -179 -46t-139 72t-52 164t26.5 168.5t85 129t138.5 52.5q32 0 61 -16t29 -34q0 -30 -30 -30q-9 0 -26.5 10t-33.5 10q-62 0 -107 -45q-83 -83 -83 -241q0 -69 35 -124.5t95 -55.5q74 0 156 41q18 9 24 9q30 0 30 -30q0 -12 -6 -18.5t-24 -15.5zM90 0
q-30 0 -30 30q0 16 5 27q39 87 140 248q-6 10 -75 108.5t-79.5 114.5t-10.5 28q0 30 30 30q13 0 35 -33l68 -96.5t67 -96.5l100 160q21 36 40 36q30 0 30 -29q0 -10 -16 -34l-116 -187l74.5 -106t77.5 -111.5t10 -28.5q0 -30 -30 -30q-12 0 -32 30l-68 95.5t-67 95.5
q-105 -171 -123 -221q-11 -30 -30 -30z" />
    <glyph glyph-name="Y_C" unicode="YC" horiz-adv-x="960" 
d="M890 46q-92 -46 -179 -46t-139 72t-52 164t26.5 168.5t85 129t138.5 52.5q32 0 61 -16t29 -34q0 -30 -30 -30q-9 0 -26.5 10t-33.5 10q-62 0 -107 -45q-83 -83 -83 -241q0 -69 35 -124.5t95 -55.5q74 0 156 41q18 9 24 9q30 0 30 -30q0 -12 -6 -18.5t-24 -15.5zM235 0
q-30 0 -30 30q0 5 7 24l138 346q-37 -22 -69.5 -22t-53.5 5t-37 11t-33.5 19l-27.5 21t-25 25.5t-19.5 23.5l-17.5 24t-15 20t-7 13t-5 16q0 30 29 30q11 0 31 -24q4 -4 27 -34t37.5 -44.5t44 -30t59.5 -15.5t63.5 21t47.5 51q13 30 31 30q30 0 30 -30q0 -53 -33 -132
l-141 -351q-11 -27 -31 -27z" />
    <glyph glyph-name="Z_C" unicode="ZC" horiz-adv-x="1000" 
d="M930 46q-92 -46 -179 -46t-139 72t-52 164t26.5 168.5t85 129t138.5 52.5q32 0 61 -16t29 -34q0 -30 -30 -30q-9 0 -26.5 10t-33.5 10q-62 0 -107 -45q-83 -83 -83 -241q0 -69 35 -124.5t95 -55.5q74 0 156 41q18 9 24 9q30 0 30 -30q0 -12 -6 -18.5t-24 -15.5zM86 494
l-16 -2q-30 0 -30 30q0 11 8 20.5t22 11.5q213 32 288 32q44 0 79 -24t35 -66q0 -67 -90 -149q-38 -35 -101.5 -83t-75.5 -58t-35 -32q-40 -37 -40 -74q0 -40 172 -40q82 0 112 10t36 10q30 0 30 -30q0 -21 -43 -35.5t-110.5 -14.5t-100 2.5t-72.5 11.5t-62 31t-22 50t10 51
t22.5 40.5t36.5 40t38.5 34l44 33.5l54.5 41.5l51.5 42t55.5 58t29 60.5q0 14 -18 22t-36 8q-59 0 -272 -32z" />
    <glyph glyph-name="A_D" unicode="AD" horiz-adv-x="960" 
d="M520 100l5 340q0 68 -2.5 91t-2.5 25q0 30 30 30q11 0 20 -9q39 13 65.5 13t93 -20.5t129 -62t62.5 -85.5q0 -63 -26.5 -120.5t-58 -92.5l-83 -88t-66 -71.5l-19 -24t-6.5 -7.5t-5 -6t-5.5 -5.5t-6.5 -3.5q-5 -3 -14 -3q-30 0 -30 31q0 9 27 43t76 83.5l79 81t54 80.5
t24 101q0 35 -97 72.5t-133 37.5q-11 0 -24 -4.5t-23 -4.5q2 -28 2 -81l-5 -340q0 -33 5 -66t5 -34q0 -30 -30 -30q-22 0 -30 30q-10 50 -10 100zM385 211q25 -136 48 -184q7 -14 7 -27q0 -30 -30 -30q-16 0 -30 30q-39 80 -63 240q-63 0 -169 -19l-48 -191
q-4 -16 -10.5 -23t-19.5 -7q-30 0 -30 30q0 8 2 12l43 173h-15q-30 0 -30 30t30 30q18 0 30 1q24 88 68 223q28 87 90 87q18 0 38.5 -13.5t29.5 -46.5q23 -82 46 -236q16 -6 42 -26.5t26 -33.5q0 -30 -30 -30q-7 0 -25 11zM308 300q-33 226 -50 226q-9 0 -13 -4.5t-6 -6.5
t-4.5 -8t-3.5 -8q-6 -12 -6 -18q-46 -138 -61 -196q74 13 144 15z" />
    <glyph glyph-name="B_D" unicode="BD" horiz-adv-x="960" 
d="M40 470q0 30 30 30q23 0 30 -30q6 -22 18 -91.5t12 -318.5q0 -30 -30 -30t-30 30q0 236 -10 300q-9 56 -13 75q-7 28 -7 35zM160 526l-90 -6q-30 0 -30 30q0 27 30 30q60 6 90 6q96 0 153 -53t57 -123t-53 -118q54 -18 88.5 -50.5t34.5 -69.5t-13 -65.5t-30 -46.5
t-51 -37t-58 -28l-70 -26l-65 -24.5t-36 -7.5q-30 0 -30 31q0 14 32.5 27l73.5 28l62.5 23t49.5 22q27 14 41 27q34 32 34 75q0 29 -57 54.5t-113 25.5q-30 0 -30 30t30 30q40 0 70 30t30 72.5t-40 78t-110 35.5zM608 37q-7 29 -17.5 91.5t-10.5 281.5q0 30 30 30t30 -30
q0 -206 9 -262.5t17 -95.5q82 23 126 46.5t56 42t12 55.5t-26 125t-58 128q-62 77 -126 77q-35 0 -65 -15t-35 -15q-30 0 -30 30q0 19 41.5 39.5t88.5 20.5q91 0 172 -99q39 -48 68.5 -145.5t29.5 -157.5q0 -75 -70 -122t-254 -90q-10 -2 -20 -2t-18 8.5t-8 22t7 19.5t23 10
z" />
    <glyph glyph-name="C_D" unicode="CD" horiz-adv-x="960" 
d="M608 37q-7 29 -17.5 91.5t-10.5 281.5q0 30 30 30t30 -30q0 -206 9 -262.5t17 -95.5q82 23 126 46.5t56 42t12 55.5t-26 125t-58 128q-62 77 -126 77q-35 0 -65 -15t-35 -15q-30 0 -30 30q0 19 41.5 39.5t88.5 20.5q91 0 172 -99q39 -48 68.5 -145.5t29.5 -157.5
q0 -75 -70 -122t-254 -90q-10 -2 -20 -2t-18 8.5t-8 22t7 19.5t23 10zM410 46q-92 -46 -179 -46t-139 72t-52 164t26.5 168.5t85 129t138.5 52.5q32 0 61 -16t29 -34q0 -30 -30 -30q-9 0 -26.5 10t-33.5 10q-62 0 -107 -45q-83 -83 -83 -241q0 -69 35 -124.5t95 -55.5
q74 0 156 41q18 9 24 9q30 0 30 -30q0 -12 -6 -18.5t-24 -15.5z" />
    <glyph glyph-name="D_D" unicode="DD" horiz-adv-x="960" 
d="M520 100l5 340q0 68 -2.5 91t-2.5 25q0 30 30 30q11 0 20 -9q39 13 65.5 13t93 -20.5t129 -62t62.5 -85.5q0 -63 -26.5 -120.5t-58 -92.5l-83 -88t-66 -71.5l-19 -24t-6.5 -7.5t-5 -6t-5.5 -5.5t-6.5 -3.5q-5 -3 -14 -3q-30 0 -30 31q0 9 27 43t76 83.5l79 81t54 80.5
t24 101q0 35 -97 72.5t-133 37.5q-11 0 -24 -4.5t-23 -4.5q2 -28 2 -81l-5 -340q0 -33 5 -66t5 -34q0 -30 -30 -30q-22 0 -30 30q-10 50 -10 100zM128 37q-7 29 -17.5 91.5t-10.5 281.5q0 30 30 30t30 -30q0 -206 9 -262.5t17 -95.5q82 23 126 46.5t56 42t12 55.5t-26 125
t-58 128q-62 77 -126 77q-35 0 -65 -15t-35 -15q-30 0 -30 30q0 19 41.5 39.5t88.5 20.5q91 0 172 -99q39 -48 68.5 -145.5t29.5 -157.5q0 -75 -70 -122t-254 -90q-10 -2 -20 -2t-18 8.5t-8 22t7 19.5t23 10z" />
    <glyph glyph-name="E_D" unicode="ED" horiz-adv-x="960" 
d="M608 37q-7 29 -17.5 91.5t-10.5 281.5q0 30 30 30t30 -30q0 -206 9 -262.5t17 -95.5q82 23 126 46.5t56 42t12 55.5t-26 125t-58 128q-62 77 -126 77q-35 0 -65 -15t-35 -15q-30 0 -30 30q0 19 41.5 39.5t88.5 20.5q91 0 172 -99q39 -48 68.5 -145.5t29.5 -157.5
q0 -75 -70 -122t-254 -90q-10 -2 -20 -2t-18 8.5t-8 22t7 19.5t23 10zM410 523l-90 3q-90 0 -188 -20q-17 -78 -23 -164q40 8 161 8q48 0 84 -14.5t36 -35.5q0 -30 -30 -30q-7 0 -31 10t-59 10q-121 0 -166 -9q-4 -66 -4 -109t17.5 -77.5t42.5 -34.5q127 0 209 20
q38 10 41 10q30 0 30 -30q0 -8 -8 -16.5t-37 -18.5t-102 -17.5t-128.5 -7.5t-90 51t-34.5 109q0 139 28 326q7 45 7 46q9 26 35 31q112 23 183 23t117 -3q30 -1 30 -30.5t-30 -29.5z" />
    <glyph glyph-name="F_D" unicode="FD" horiz-adv-x="960" 
d="M190 327l130 3q30 0 30 -30q0 -27 -29.5 -30t-130.5 -3q-18 0 -45 8t-39 18q13 -128 42 -247q2 -12 2 -16q0 -30 -30 -30q-24 0 -31 30q-18 74 -33.5 184.5t-15.5 165.5q0 99 78.5 152.5t191.5 53.5q72 0 101 -14.5t29 -31.5q0 -30 -30 -30q-10 0 -26 8t-74 8
q-88 0 -149 -36.5t-61 -109.5q0 -20 35.5 -36.5t54.5 -16.5zM608 37q-7 29 -17.5 91.5t-10.5 281.5q0 30 30 30t30 -30q0 -206 9 -262.5t17 -95.5q82 23 126 46.5t56 42t12 55.5t-26 125t-58 128q-62 77 -126 77q-35 0 -65 -15t-35 -15q-30 0 -30 30q0 19 41.5 39.5
t88.5 20.5q91 0 172 -99q39 -48 68.5 -145.5t29.5 -157.5q0 -75 -70 -122t-254 -90q-10 -2 -20 -2t-18 8.5t-8 22t7 19.5t23 10z" />
    <glyph glyph-name="G_D" unicode="GD" horiz-adv-x="960" 
d="M250 230q0 35 80 35q87 0 102 -15q8 -8 8 -20q0 -30 -30 -30q-2 0 -27.5 2.5t-40.5 2.5q18 -32 18 -63q0 -60 -40 -101t-100 -41q-79 0 -129.5 50.5t-50.5 127t20 148t56.5 130t95 94.5t128.5 36q44 0 72 -28t28 -67t-25 -81q-19 -30 -35 -30q-30 0 -30 30q0 7 15 32
t15 44q0 40 -40 40q-76 0 -132.5 -54t-82 -131t-25.5 -161q0 -54 33 -87t78 -33t67 23t22 54t-25 54t-25 39zM608 37q-7 29 -17.5 91.5t-10.5 281.5q0 30 30 30t30 -30q0 -206 9 -262.5t17 -95.5q82 23 126 46.5t56 42t12 55.5t-26 125t-58 128q-62 77 -126 77
q-35 0 -65 -15t-35 -15q-30 0 -30 30q0 19 41.5 39.5t88.5 20.5q91 0 172 -99q39 -48 68.5 -145.5t29.5 -157.5q0 -75 -70 -122t-254 -90q-10 -2 -20 -2t-18 8.5t-8 22t7 19.5t23 10z" />
    <glyph glyph-name="H_D" unicode="HD" horiz-adv-x="960" 
d="M130 280q55 0 119.5 5t85.5 11q16 128 43 194q12 30 32 30q30 0 30 -30q0 -8 -11 -35t-25 -104.5t-14 -130.5t10 -119q10 -65 15 -81t5 -20q0 -30 -30 -30q-9 0 -18.5 8.5t-15.5 25.5t-16 86t-10 130v14q-84 -14 -200 -14q4 -112 7 -128t3 -22q0 -30 -30 -30
q-24 0 -29 26t-11 154q-13 0 -21.5 9t-8.5 21q0 30 30 30v180q0 37 -5 62t-5 34q0 30 30 30q22 0 29 -32q11 -77 11 -94v-180zM608 37q-8 29 -18 91t-10 282q0 30 30 30t30 -30q0 -206 9 -262t17 -96q82 23 126 46.5t56 42t12 55.5t-26 125t-58 128q-62 77 -126 77
q-35 0 -65 -15t-35 -15q-30 0 -30 30q0 19 41.5 39.5t88.5 20.5q91 0 172 -99q39 -48 68.5 -145.5t29.5 -157.5q0 -75 -70 -122t-254 -90q-10 -2 -20 -2t-18 8t-8 22t7 20t23 10z" />
    <glyph glyph-name="I_D" unicode="ID" horiz-adv-x="760" 
d="M300 100l5 340q0 68 -2.5 91t-2.5 25q0 30 30 30q11 0 20 -9q39 13 65.5 13t93 -20.5t129 -62t62.5 -85.5q0 -63 -26.5 -120.5t-58 -92.5l-83 -88t-66 -71.5l-19 -24t-6.5 -7.5t-5 -6t-5.5 -5.5t-6.5 -3.5q-5 -3 -14 -3q-30 0 -30 31q0 9 27 43t76 83.5l79 81t54 80.5
t24 101q0 35 -97 72.5t-133 37.5q-11 0 -24 -4.5t-23 -4.5q2 -28 2 -81l-5 -340q0 -33 5 -66t5 -34q0 -30 -30 -30q-22 0 -30 30q-10 50 -10 100zM170 510l-10 -280q0 -52 5.5 -108.5t10 -69.5t4.5 -22q0 -30 -30 -30q-20 0 -30 30q-20 60 -20 200l10 280q0 30 30 30t30 -30
z" />
    <glyph glyph-name="J_D" unicode="JD" horiz-adv-x="960" 
d="M608 37q-7 29 -17.5 91.5t-10.5 281.5q0 30 30 30t30 -30q0 -206 9 -262.5t17 -95.5q82 23 126 46.5t56 42t12 55.5t-26 125t-58 128q-62 77 -126 77q-35 0 -65 -15t-35 -15q-30 0 -30 30q0 19 41.5 39.5t88.5 20.5q91 0 172 -99q39 -48 68.5 -145.5t29.5 -157.5
q0 -75 -70 -122t-254 -90q-10 -2 -20 -2t-18 8.5t-8 22t7 19.5t23 10zM40 114q0 30 30 30q12 0 29.5 -8.5l35.5 -17l24.5 -11.5t23 -10t24.5 -10l22.5 -8.5t24.5 -8.5q10 -2 22 -5q21 -5 44.5 -5t41.5 14t18 35t-15 146t-15 185t20 116q2 9 10.5 19.5t19.5 10.5q30 0 30 -30
q0 -5 -4 -17q-16 -48 -16 -101.5t15 -179.5t15 -148q0 -46 -36 -78t-84 -32q-46 0 -79.5 12t-44 15.5t-31.5 12.5t-27.5 12l-28.5 13l-31.5 14.5l-17.5 8.5q-20 10 -20 26z" />
    <glyph glyph-name="K_D" unicode="KD" horiz-adv-x="960" 
d="M221 334q-49 -38 -75 -74t-26 -80.5t5 -64.5t5 -25q0 -30 -30 -30q-40 0 -40 120q0 5 -5 130t-5 220q0 30 30 30t30 -30q0 -62 5 -214q83 94 277 186q16 8 28 8q30 0 30 -30q0 -12 -9 -17.5t-59 -30.5t-102 -58q0 -81 19.5 -136t50 -80.5t30.5 -37.5q0 -30 -30 -30
q-12 0 -45 28q-74 67 -84 216zM608 37q-7 29 -17.5 91.5t-10.5 281.5q0 30 30 30t30 -30q0 -206 9 -262.5t17 -95.5q82 23 126 46.5t56 42t12 55.5t-26 125t-58 128q-62 77 -126 77q-35 0 -65 -15t-35 -15q-30 0 -30 30q0 19 41.5 39.5t88.5 20.5q91 0 172 -99
q39 -48 68.5 -145.5t29.5 -157.5q0 -75 -70 -122t-254 -90q-10 -2 -20 -2t-18 8.5t-8 22t7 19.5t23 10z" />
    <glyph glyph-name="L_D" unicode="LD" horiz-adv-x="880" 
d="M114 500l-14 -350q0 -60 230 -60q30 0 30 -30t-30 -30q-290 0 -290 120l14 350l-4 55q0 31 30 31q27 0 30 -30q4 -24 4 -56zM528 37q-7 29 -17.5 91.5t-10.5 281.5q0 30 30 30t30 -30q0 -206 9 -262.5t17 -95.5q82 23 126 46.5t56 42t12 55.5t-26 125t-58 128
q-62 77 -126 77q-35 0 -65 -15t-35 -15q-30 0 -30 30q0 19 41.5 39.5t88.5 20.5q91 0 172 -99q39 -48 68.5 -145.5t29.5 -157.5q0 -75 -70 -122t-254 -90q-10 -2 -20 -2t-18 8.5t-8 22t7 19.5t23 10z" />
    <glyph glyph-name="M_D" unicode="MD" horiz-adv-x="1040" 
d="M109 70l11 -40q0 -30 -30 -30q-15 0 -26 19.5t-14 40.5q-10 80 -10 129.5t5 174.5t5 146q0 30 30 30t30 -30q0 -21 -5 -146t-5 -173.5t9 -120.5zM509 110l11 -40q0 -30 -30 -30q-16 0 -26.5 19t-13.5 41q-10 80 -10 109t5 90.5t5 90.5t-6 77q-97 -177 -194 -177
q-91 0 -138 187q-2 8 -2 13q0 30 30 30q22 0 30 -30q16 -62 37 -101t43 -39q70 0 173 206q17 30 37 30q24 0 30 -30q20 -100 20 -156l-10 -190q0 -28 9 -100zM688 37q-7 29 -17.5 91.5t-10.5 281.5q0 30 30 30t30 -30q0 -206 9 -262.5t17 -95.5q82 23 126 46.5t56 42
t12 55.5t-26 125t-58 128q-62 77 -126 77q-35 0 -65 -15t-35 -15q-30 0 -30 30q0 19 41.5 39.5t88.5 20.5q91 0 172 -99q39 -48 68.5 -145.5t29.5 -157.5q0 -75 -70 -122t-254 -90q-10 -2 -20 -2t-18 8.5t-8 22t7 19.5t23 10z" />
    <glyph glyph-name="N_D" unicode="ND" horiz-adv-x="960" 
d="M608 37q-7 29 -17.5 91.5t-10.5 281.5q0 30 30 30t30 -30q0 -206 9 -262.5t17 -95.5q82 23 126 46.5t56 42t12 55.5t-26 125t-58 128q-62 77 -126 77q-35 0 -65 -15t-35 -15q-30 0 -30 30q0 19 41.5 39.5t88.5 20.5q91 0 172 -99q39 -48 68.5 -145.5t29.5 -157.5
q0 -75 -70 -122t-254 -90q-10 -2 -20 -2t-18 8.5t-8 22t7 19.5t23 10zM286 80l15.5 62t7.5 33t3.5 17t2.5 16t1.5 13.5t1.5 18t5 50t18 109t20 91.5q23 70 49 70q30 0 30 -30q0 -9 -9 -27t-14 -33t-17.5 -83t-18.5 -128t-11.5 -86t-34.5 -143q-7 -30 -30 -30q-36 0 -54 19.5
t-23 44.5q-2 7 -26 134q-62 328 -82 328t-20 -30q0 -8 2 -88q8 -240 8 -378q0 -30 -30 -30t-30 30q0 138 -5 298t-5 168q0 40 22.5 65t57.5 25q49 0 72 -70q20 -59 55.5 -242.5t38.5 -193.5z" />
    <glyph glyph-name="O_D" unicode="OD" horiz-adv-x="1040" 
d="M688 37q-7 29 -17.5 91.5t-10.5 281.5q0 30 30 30t30 -30q0 -206 9 -262.5t17 -95.5q82 23 126 46.5t56 42t12 55.5t-26 125t-58 128q-62 77 -126 77q-35 0 -65 -15t-35 -15q-30 0 -30 30q0 19 41.5 39.5t88.5 20.5q91 0 172 -99q39 -48 68.5 -145.5t29.5 -157.5
q0 -75 -70 -122t-254 -90q-10 -2 -20 -2t-18 8.5t-8 22t7 19.5t23 10zM282 454l-19 3q-18 3 -44 3t-50 -26q-25 -24 -39 -62q-30 -79 -30 -142q0 -170 135 -170q109 0 167 71.5t58 188.5q0 62 -25 111t-75 49q-10 0 -47 -5q-5 -21 -31 -21zM235 0q-95 0 -145 63.5t-50 166.5
q0 79 41 177q20 48 57.5 80.5t83.5 32.5q18 0 38 -2q29 22 102.5 22t115.5 -65.5t42 -154.5q0 -141 -76 -230.5t-209 -89.5z" />
    <glyph glyph-name="P_D" unicode="PD" horiz-adv-x="960" 
d="M608 37q-7 29 -17.5 91.5t-10.5 281.5q0 30 30 30t30 -30q0 -206 9 -262.5t17 -95.5q82 23 126 46.5t56 42t12 55.5t-26 125t-58 128q-62 77 -126 77q-35 0 -65 -15t-35 -15q-30 0 -30 30q0 19 41.5 39.5t88.5 20.5q91 0 172 -99q39 -48 68.5 -145.5t29.5 -157.5
q0 -75 -70 -122t-254 -90q-10 -2 -20 -2t-18 8.5t-8 22t7 19.5t23 10zM170 590q77 0 173.5 -58t96.5 -122q0 -73 -157 -136l-54 -22t-39 -12q-30 0 -30 30q0 19 30 31q99 40 144.5 65t45.5 46q0 37 -81.5 77.5t-122.5 40.5t-71 -5t-35 -5q-30 0 -30 30q0 24 30 30
q50 10 100 10zM130 330q2 -16 15.5 -183.5t14.5 -176.5q0 -30 -30 -30q-27 0 -30 30q-2 16 -15 178.5t-14 171.5l-1 10q0 30 30 30q27 0 30 -30z" />
    <glyph glyph-name="Q_D" unicode="QD" horiz-adv-x="1100" 
d="M748 37q-8 29 -18 91t-10 282q0 30 30 30t30 -30q0 -206 9 -262t17 -96q82 23 126 46.5t56 42t12 55.5t-26 125t-58 128q-62 77 -126 77q-35 0 -65 -15t-35 -15q-30 0 -30 30q0 19 41.5 39.5t88.5 20.5q91 0 172 -99q39 -48 68.5 -145.5t29.5 -157.5q0 -75 -70 -122
t-254 -90q-10 -2 -20 -2t-18 8t-8 22t7 20t23 10zM258 60q12 66 12 98t30 32t30 -33t-11 -93q98 15 149.5 81t51.5 175q0 84 -42.5 145t-117.5 61q-54 0 -119 -37q-22 -13 -31 -13q-30 0 -30 30q0 16 30 34q77 46 150 46q100 0 160 -78t60 -188q0 -137 -72 -220.5
t-201 -97.5q-21 -100 -45 -172q-10 -30 -32 -30q-30 0 -30 30q0 4 14 49t32 121q-86 5 -146 69.5t-60 158.5t37 152t88 68q10 2 15 2q30 0 30 -30q0 -24 -30 -30q-41 -8 -60.5 -57.5t-19.5 -113.5t46.5 -111t111.5 -48z" />
    <glyph glyph-name="R_D" unicode="RD" horiz-adv-x="1020" 
d="M165 319q63 15 144 60t81 81q0 66 -120 66q-47 0 -100 -12q0 -33 -2.5 -101.5t-2.5 -93.5zM100 160l5 120q0 36 2.5 113t2.5 104q-26 -7 -30 -7q-30 0 -30 30q0 21 30 30q120 36 193.5 36t125 -31t51.5 -95q0 -97 -213 -180q105 -64 169 -122q22 -20 53 -51t31 -77
q0 -30 -29.5 -30t-29.5 30q0 21 -14 35q-34 34 -56 54q-57 52 -197 135l-4 -94l10 -110q0 -30 -30 -30q-27 0 -30 30q-10 100 -10 110zM668 37q-7 29 -17.5 91.5t-10.5 281.5q0 30 30 30t30 -30q0 -206 9 -262.5t17 -95.5q82 23 126 46.5t56 42t12 55.5t-26 125t-58 128
q-62 77 -126 77q-35 0 -65 -15t-35 -15q-30 0 -30 30q0 19 41.5 39.5t88.5 20.5q91 0 172 -99q39 -48 68.5 -145.5t29.5 -157.5q0 -75 -70 -122t-254 -90q-10 -2 -20 -2t-18 8.5t-8 22t7 19.5t23 10z" />
    <glyph glyph-name="S_D" unicode="SD" horiz-adv-x="960" 
d="M608 37q-7 29 -17.5 91.5t-10.5 281.5q0 30 30 30t30 -30q0 -206 9 -262.5t17 -95.5q82 23 126 46.5t56 42t12 55.5t-26 125t-58 128q-62 77 -126 77q-35 0 -65 -15t-35 -15q-30 0 -30 30q0 19 41.5 39.5t88.5 20.5q91 0 172 -99q39 -48 68.5 -145.5t29.5 -157.5
q0 -75 -70 -122t-254 -90q-10 -2 -20 -2t-18 8.5t-8 22t7 19.5t23 10zM70 0q-30 0 -30 30t30 30q200 0 275 30q35 14 35 29t-24.5 27t-82 31t-87.5 32q-146 61 -146 185q0 81 70 136.5t168 55.5q54 0 90.5 -32t36.5 -77t-35 -80t-48 -35q-30 0 -30 30q0 13 26.5 39.5
t26.5 40.5q0 24 -18.5 39t-47.5 15q-74 0 -126.5 -37.5t-52.5 -90.5t29.5 -83t67 -45.5t75.5 -28t63.5 -22t51.5 -23.5q53 -29 53 -76q0 -61 -87.5 -90.5t-282.5 -29.5z" />
    <glyph glyph-name="T_D" unicode="TD" horiz-adv-x="960" 
d="M608 37q-7 29 -17.5 91.5t-10.5 281.5q0 30 30 30t30 -30q0 -206 9 -262.5t17 -95.5q82 23 126 46.5t56 42t12 55.5t-26 125t-58 128q-62 77 -126 77q-35 0 -65 -15t-35 -15q-30 0 -30 30q0 19 41.5 39.5t88.5 20.5q91 0 172 -99q39 -48 68.5 -145.5t29.5 -157.5
q0 -75 -70 -122t-254 -90q-10 -2 -20 -2t-18 8.5t-8 22t7 19.5t23 10zM40 520q0 40 117.5 40t232.5 23q15 3 20 3q30 0 30 -30q0 -24 -30 -30q-117 -26 -250 -26q-55 0 -67.5 -5t-22.5 -5q-30 0 -30 30zM290 440q0 -7 -4 -23q-7 -31 -16.5 -91t-9.5 -266q0 -30 -30 -30
t-30 30q0 219 12 288.5t18 91.5q7 30 30 30q30 0 30 -30z" />
    <glyph glyph-name="U_D" unicode="UD" horiz-adv-x="960" 
d="M608 37q-7 29 -17.5 91.5t-10.5 281.5q0 30 30 30t30 -30q0 -206 9 -262.5t17 -95.5q82 23 126 46.5t56 42t12 55.5t-26 125t-58 128q-62 77 -126 77q-35 0 -65 -15t-35 -15q-30 0 -30 30q0 19 41.5 39.5t88.5 20.5q91 0 172 -99q39 -48 68.5 -145.5t29.5 -157.5
q0 -75 -70 -122t-254 -90q-10 -2 -20 -2t-18 8.5t-8 22t7 19.5t23 10zM363 545l-1 11q0 14 8.5 22t18.5 8q25 0 33 -30q18 -74 18 -137t-16 -135.5t-45 -137t-78 -105.5t-103.5 -41t-87 26t-46.5 75q-24 79 -24 190.5t20 214.5q3 14 12 22t18 8q30 0 30 -30l-3 -19
q-17 -84 -17 -155.5t1 -99t6.5 -63t14.5 -58t27 -38t43 -15.5q55 0 99 58.5t66.5 141.5t22.5 151.5t-17 135.5z" />
    <glyph glyph-name="V_D" unicode="VD" horiz-adv-x="960" 
d="M70 550q20 0 32 -30q48 -120 94 -356q4 -22 11 -46q62 278 169 438q20 30 34 30q30 0 30 -30q0 -9 -16 -33q-108 -162 -174 -493q-6 -30 -30 -30q-20 0 -43 34t-39 116q-47 233 -93 349q-5 13 -5 23t8 19t22 9zM608 37q-8 29 -18 91t-10 282q0 30 30 30t30 -30
q0 -206 9 -262t17 -96q82 23 126 46.5t56 42t12 55.5t-26 125t-58 128q-62 77 -126 77q-35 0 -65 -15t-35 -15q-30 0 -30 30q0 19 41.5 39.5t88.5 20.5q91 0 172 -99q39 -48 68.5 -145.5t29.5 -157.5q0 -75 -70 -122t-254 -90q-10 -2 -20 -2t-18 8t-8 22t7 20t23 10z" />
    <glyph glyph-name="W_D" unicode="WD" horiz-adv-x="1200" 
d="M337 328q74 212 113 212q30 0 30 -30q0 -12 -15 -34q-34 -51 -99 -248q33 -98 54 -98q15 0 58 72t141 268q15 30 31 30q30 0 30 -30q0 -12 -7 -26q-100 -200 -135 -259t-61 -87t-57 -28q-48 0 -83 69q-39 -107 -76 -129q-18 -10 -41 -10q-43 0 -71.5 54.5t-61.5 178
t-45 227.5q-2 12 -2 17q0 29 30 29q27 0 30 -30q14 -123 56 -269.5t64 -146.5q24 0 44 52q19 49 40 115q-40 137 -53 257q-1 10 -1 16q0 30 30 30q27 0 30 -30q9 -92 27 -172zM848 37q-7 29 -17.5 91.5t-10.5 281.5q0 30 30 30t30 -30q0 -206 9 -262.5t17 -95.5
q82 23 126 46.5t56 42t12 55.5t-26 125t-58 128q-62 77 -126 77q-35 0 -65 -15t-35 -15q-30 0 -30 30q0 19 41.5 39.5t88.5 20.5q91 0 172 -99q39 -48 68.5 -145.5t29.5 -157.5q0 -75 -70 -122t-254 -90q-10 -2 -20 -2t-18 8.5t-8 22t7 19.5t23 10z" />
    <glyph glyph-name="X_D" unicode="XD" horiz-adv-x="960" 
d="M608 37q-8 29 -18 91t-10 282q0 30 30 30t30 -30q0 -206 9 -262t17 -96q82 23 126 46.5t56 42t12 55.5t-26 125t-58 128q-62 77 -126 77q-35 0 -65 -15t-35 -15q-30 0 -30 30q0 19 41.5 39.5t88.5 20.5q91 0 172 -99q39 -48 68.5 -145.5t29.5 -157.5q0 -75 -70 -122
t-254 -90q-10 -2 -20 -2t-18 8t-8 22t7 20t23 10zM90 0q-30 0 -30 30q0 16 5 27q39 87 140 248q-6 10 -75 109q-70 98 -80 114t-10 28q0 30 30 30q13 0 35 -33l68 -96.5t67 -96.5l100 160q21 36 40 36q30 0 30 -29q0 -10 -16 -34l-116 -187l74.5 -106t77.5 -112t10 -28
q0 -30 -30 -30q-12 0 -32 30l-68 95.5t-67 95.5q-105 -171 -123 -221q-11 -30 -30 -30z" />
    <glyph glyph-name="Y_D" unicode="YD" horiz-adv-x="960" 
d="M608 37q-8 29 -18 91t-10 282q0 30 30 30t30 -30q0 -206 9 -262t17 -96q82 23 126 46.5t56 42t12 55.5t-26 125t-58 128q-62 77 -126 77q-35 0 -65 -15t-35 -15q-30 0 -30 30q0 19 41.5 39.5t88.5 20.5q91 0 172 -99q39 -48 68.5 -145.5t29.5 -157.5q0 -75 -70 -122
t-254 -90q-10 -2 -20 -2t-18 8t-8 22t7 20t23 10zM235 0q-30 0 -30 30q0 5 7 24l138 346q-38 -22 -70 -22t-53 5t-37 11t-33.5 19l-27.5 21t-25 25.5t-19.5 23.5l-17.5 24t-15 20t-7 13t-5 16q0 30 29 30q11 0 31 -24q4 -4 27 -34t37.5 -44.5t44 -30t59.5 -15.5t63.5 21
t47.5 51q13 30 31 30q30 0 30 -30q0 -53 -33 -132l-141 -351q-11 -27 -31 -27z" />
    <glyph glyph-name="Z_D" unicode="ZD" horiz-adv-x="1000" 
d="M608 37q-7 29 -17.5 91.5t-10.5 281.5q0 30 30 30t30 -30q0 -206 9 -262.5t17 -95.5q82 23 126 46.5t56 42t12 55.5t-26 125t-58 128q-62 77 -126 77q-35 0 -65 -15t-35 -15q-30 0 -30 30q0 19 41.5 39.5t88.5 20.5q91 0 172 -99q39 -48 68.5 -145.5t29.5 -157.5
q0 -75 -70 -122t-254 -90q-10 -2 -20 -2t-18 8.5t-8 22t7 19.5t23 10zM86 494l-16 -2q-30 0 -30 30q0 11 8 20.5t22 11.5q213 32 288 32q44 0 79 -24t35 -66q0 -67 -90 -149q-38 -35 -101.5 -83t-75.5 -58t-35 -32q-40 -37 -40 -74q0 -40 172 -40q82 0 112 10t36 10
q30 0 30 -30q0 -21 -43 -35.5t-110.5 -14.5t-100 2.5t-72.5 11.5t-62 31t-22 50t10 51t22.5 40.5t36.5 40t38.5 34l44 33.5l54.5 41.5l51.5 42t55.5 58t29 60.5q0 14 -18 22t-36 8q-59 0 -272 -32z" />
    <glyph glyph-name="A_E_E" unicode="AEE" horiz-adv-x="1440" 
d="M1370 523l-90 3q-90 0 -188 -20q-17 -78 -23 -164q40 8 161 8q48 0 84 -14.5t36 -35.5q0 -30 -30 -30q-7 0 -31 10t-59 10q-121 0 -166 -9q-4 -66 -4 -109t17.5 -77.5t42.5 -34.5q127 0 209 20q38 10 41 10q30 0 30 -30q0 -8 -8 -16.5t-37 -18.5t-102 -17.5t-128.5 -7.5
t-90 51t-34.5 109q0 139 28 326q7 45 7 46q9 26 35 31q112 23 183 23t117 -3q30 -1 30 -30.5t-30 -29.5zM890 543l-90 3q-90 0 -188 -20q-17 -78 -23 -164q40 8 161 8q48 0 84 -14.5t36 -35.5q0 -30 -30 -30q-7 0 -31 10t-59 10q-121 0 -166 -9q-4 -66 -4 -109t17.5 -77.5
t42.5 -34.5q127 0 209 20q38 10 41 10q30 0 30 -30q0 -8 -8 -16.5t-37 -18.5t-102 -17.5t-128.5 -7.5t-90 51t-34.5 109q0 139 28 326q7 45 7 46q9 26 35 31q112 23 183 23t117 -3q30 -1 30 -30.5t-30 -29.5zM385 211q25 -136 48 -184q7 -14 7 -27q0 -30 -30 -30
q-16 0 -30 30q-39 80 -63 240q-63 0 -169 -19l-48 -191q-4 -16 -10.5 -23t-19.5 -7q-30 0 -30 30q0 8 2 12l43 173h-15q-30 0 -30 30t30 30q18 0 30 1q24 88 68 223q28 87 90 87q18 0 38.5 -13.5t29.5 -46.5q23 -82 46 -236q16 -6 42 -26.5t26 -33.5q0 -30 -30 -30
q-7 0 -25 11zM308 300q-33 226 -50 226q-9 0 -13 -4.5t-6 -6.5t-4.5 -8t-3.5 -8q-6 -12 -6 -18q-46 -138 -61 -196q74 13 144 15z" />
    <glyph glyph-name="B_E_E" unicode="BEE" horiz-adv-x="1440" 
d="M1370 523l-90 3q-90 0 -188 -20q-17 -78 -23 -164q40 8 161 8q48 0 84 -14.5t36 -35.5q0 -30 -30 -30q-7 0 -31 10t-59 10q-121 0 -166 -9q-4 -66 -4 -109t17.5 -77.5t42.5 -34.5q127 0 209 20q38 10 41 10q30 0 30 -30q0 -8 -8 -16.5t-37 -18.5t-102 -17.5t-128.5 -7.5
t-90 51t-34.5 109q0 139 28 326q7 45 7 46q9 26 35 31q112 23 183 23t117 -3q30 -1 30 -30.5t-30 -29.5zM890 543l-90 3q-90 0 -188 -20q-17 -78 -23 -164q40 8 161 8q48 0 84 -14.5t36 -35.5q0 -30 -30 -30q-7 0 -31 10t-59 10q-121 0 -166 -9q-4 -66 -4 -109t17.5 -77.5
t42.5 -34.5q127 0 209 20q38 10 41 10q30 0 30 -30q0 -8 -8 -16.5t-37 -18.5t-102 -17.5t-128.5 -7.5t-90 51t-34.5 109q0 139 28 326q7 45 7 46q9 26 35 31q112 23 183 23t117 -3q30 -1 30 -30.5t-30 -29.5zM40 470q0 30 30 30q23 0 30 -30q6 -22 18 -91.5t12 -318.5
q0 -30 -30 -30t-30 30q0 236 -10 300q-9 56 -13 75q-7 28 -7 35zM160 526l-90 -6q-30 0 -30 30q0 27 30 30q60 6 90 6q96 0 153 -53t57 -123t-53 -118q54 -18 88.5 -50.5t34.5 -69.5t-13 -65.5t-30 -46.5t-51 -37t-58 -28l-70 -26l-65 -24.5t-36 -7.5q-30 0 -30 31
q0 14 32.5 27l73.5 28l62.5 23t49.5 22q27 14 41 27q34 32 34 75q0 29 -57 54.5t-113 25.5q-30 0 -30 30t30 30q40 0 70 30t30 72.5t-40 78t-110 35.5z" />
    <glyph glyph-name="C_E_E" unicode="CEE" horiz-adv-x="1440" 
d="M1370 523l-90 3q-90 0 -188 -20q-17 -78 -23 -164q40 8 161 8q48 0 84 -14.5t36 -35.5q0 -30 -30 -30q-7 0 -31 10t-59 10q-121 0 -166 -9q-4 -66 -4 -109t17.5 -77.5t42.5 -34.5q127 0 209 20q38 10 41 10q30 0 30 -30q0 -8 -8 -16.5t-37 -18.5t-102 -17.5t-128.5 -7.5
t-90 51t-34.5 109q0 139 28 326q7 45 7 46q9 26 35 31q112 23 183 23t117 -3q30 -1 30 -30.5t-30 -29.5zM410 46q-92 -46 -179 -46t-139 72t-52 164t26.5 168.5t85 129t138.5 52.5q32 0 61 -16t29 -34q0 -30 -30 -30q-9 0 -26.5 10t-33.5 10q-62 0 -107 -45
q-83 -83 -83 -241q0 -69 35 -124.5t95 -55.5q74 0 156 41q18 9 24 9q30 0 30 -30q0 -12 -6 -18.5t-24 -15.5zM890 543l-90 3q-90 0 -188 -20q-17 -78 -23 -164q40 8 161 8q48 0 84 -14.5t36 -35.5q0 -30 -30 -30q-7 0 -31 10t-59 10q-121 0 -166 -9q-4 -66 -4 -109
t17.5 -77.5t42.5 -34.5q127 0 209 20q38 10 41 10q30 0 30 -30q0 -8 -8 -16.5t-37 -18.5t-102 -17.5t-128.5 -7.5t-90 51t-34.5 109q0 139 28 326q7 45 7 46q9 26 35 31q112 23 183 23t117 -3q30 -1 30 -30.5t-30 -29.5z" />
    <glyph glyph-name="D_E_E" unicode="DEE" horiz-adv-x="1440" 
d="M1370 523l-90 3q-90 0 -188 -20q-17 -78 -23 -164q40 8 161 8q48 0 84 -14.5t36 -35.5q0 -30 -30 -30q-7 0 -31 10t-59 10q-121 0 -166 -9q-4 -66 -4 -109t17.5 -77.5t42.5 -34.5q127 0 209 20q38 10 41 10q30 0 30 -30q0 -8 -8 -16.5t-37 -18.5t-102 -17.5t-128.5 -7.5
t-90 51t-34.5 109q0 139 28 326q7 45 7 46q9 26 35 31q112 23 183 23t117 -3q30 -1 30 -30.5t-30 -29.5zM128 37q-7 29 -17.5 91.5t-10.5 281.5q0 30 30 30t30 -30q0 -206 9 -262.5t17 -95.5q82 23 126 46.5t56 42t12 55.5t-26 125t-58 128q-62 77 -126 77q-35 0 -65 -15
t-35 -15q-30 0 -30 30q0 19 41.5 39.5t88.5 20.5q91 0 172 -99q39 -48 68.5 -145.5t29.5 -157.5q0 -75 -70 -122t-254 -90q-10 -2 -20 -2t-18 8.5t-8 22t7 19.5t23 10zM890 543l-90 3q-90 0 -188 -20q-17 -78 -23 -164q40 8 161 8q48 0 84 -14.5t36 -35.5q0 -30 -30 -30
q-7 0 -31 10t-59 10q-121 0 -166 -9q-4 -66 -4 -109t17.5 -77.5t42.5 -34.5q127 0 209 20q38 10 41 10q30 0 30 -30q0 -8 -8 -16.5t-37 -18.5t-102 -17.5t-128.5 -7.5t-90 51t-34.5 109q0 139 28 326q7 45 7 46q9 26 35 31q112 23 183 23t117 -3q30 -1 30 -30.5t-30 -29.5z
" />
    <glyph glyph-name="E_E_E" unicode="EEE" horiz-adv-x="1440" 
d="M1370 523l-90 3q-90 0 -188 -20q-17 -78 -23 -164q40 8 161 8q48 0 84 -14.5t36 -35.5q0 -30 -30 -30q-7 0 -31 10t-59 10q-121 0 -166 -9q-4 -66 -4 -109t17.5 -77.5t42.5 -34.5q127 0 209 20q38 10 41 10q30 0 30 -30q0 -8 -8 -16.5t-37 -18.5t-102 -17.5t-128.5 -7.5
t-90 51t-34.5 109q0 139 28 326q7 45 7 46q9 26 35 31q112 23 183 23t117 -3q30 -1 30 -30.5t-30 -29.5zM410 553l-90 3q-90 0 -188 -20q-17 -78 -23 -164q40 8 161 8q48 0 84 -14.5t36 -35.5q0 -30 -30 -30q-7 0 -31 10t-59 10q-121 0 -166 -9q-4 -66 -4 -109t17.5 -77.5
t42.5 -34.5q127 0 209 20q38 10 41 10q30 0 30 -30q0 -8 -8 -16.5t-37 -18.5t-102 -17.5t-128.5 -7.5t-90 51t-34.5 109q0 139 28 326q7 45 7 46q9 26 35 31q112 23 183 23t117 -3q30 -1 30 -30.5t-30 -29.5zM890 537l-90 3q-90 0 -188 -20q-17 -78 -23 -164q40 8 161 8
q48 0 84 -14.5t36 -35.5q0 -30 -30 -30q-7 0 -31 10t-59 10q-121 0 -166 -9q-4 -66 -4 -109t17.5 -77.5t42.5 -34.5q127 0 209 20q38 10 41 10q30 0 30 -30q0 -8 -8 -16.5t-37 -18.5t-102 -17.5t-128.5 -7.5t-90 51t-34.5 109q0 139 28 326q7 45 7 46q9 26 35 31
q112 23 183 23t117 -3q30 -1 30 -30.5t-30 -29.5z" />
    <glyph glyph-name="F_E_E" unicode="FEE" horiz-adv-x="1440" 
d="M1370 523l-90 3q-90 0 -188 -20q-17 -78 -23 -164q40 8 161 8q48 0 84 -14.5t36 -35.5q0 -30 -30 -30q-7 0 -31 10t-59 10q-121 0 -166 -9q-4 -66 -4 -109t17.5 -77.5t42.5 -34.5q127 0 209 20q38 10 41 10q30 0 30 -30q0 -8 -8 -16.5t-37 -18.5t-102 -17.5t-128.5 -7.5
t-90 51t-34.5 109q0 139 28 326q7 45 7 46q9 26 35 31q112 23 183 23t117 -3q30 -1 30 -30.5t-30 -29.5zM190 327l130 3q30 0 30 -30q0 -27 -29.5 -30t-130.5 -3q-18 0 -45 8t-39 18q13 -128 42 -247q2 -12 2 -16q0 -30 -30 -30q-24 0 -31 30q-18 74 -33.5 184.5
t-15.5 165.5q0 99 78.5 152.5t191.5 53.5q72 0 101 -14.5t29 -31.5q0 -30 -30 -30q-10 0 -26 8t-74 8q-88 0 -149 -36.5t-61 -109.5q0 -20 35.5 -36.5t54.5 -16.5zM890 543l-90 3q-90 0 -188 -20q-17 -78 -23 -164q40 8 161 8q48 0 84 -14.5t36 -35.5q0 -30 -30 -30
q-7 0 -31 10t-59 10q-121 0 -166 -9q-4 -66 -4 -109t17.5 -77.5t42.5 -34.5q127 0 209 20q38 10 41 10q30 0 30 -30q0 -8 -8 -16.5t-37 -18.5t-102 -17.5t-128.5 -7.5t-90 51t-34.5 109q0 139 28 326q7 45 7 46q9 26 35 31q112 23 183 23t117 -3q30 -1 30 -30.5t-30 -29.5z
" />
    <glyph glyph-name="G_E_E" unicode="GEE" horiz-adv-x="1440" 
d="M1370 523l-90 3q-90 0 -188 -20q-17 -78 -23 -164q40 8 161 8q48 0 84 -14.5t36 -35.5q0 -30 -30 -30q-7 0 -31 10t-59 10q-121 0 -166 -9q-4 -66 -4 -109t17.5 -77.5t42.5 -34.5q127 0 209 20q38 10 41 10q30 0 30 -30q0 -8 -8 -16.5t-37 -18.5t-102 -17.5t-128.5 -7.5
t-90 51t-34.5 109q0 139 28 326q7 45 7 46q9 26 35 31q112 23 183 23t117 -3q30 -1 30 -30.5t-30 -29.5zM890 543l-90 3q-90 0 -188 -20q-17 -78 -23 -164q40 8 161 8q48 0 84 -14.5t36 -35.5q0 -30 -30 -30q-7 0 -31 10t-59 10q-121 0 -166 -9q-4 -66 -4 -109t17.5 -77.5
t42.5 -34.5q127 0 209 20q38 10 41 10q30 0 30 -30q0 -8 -8 -16.5t-37 -18.5t-102 -17.5t-128.5 -7.5t-90 51t-34.5 109q0 139 28 326q7 45 7 46q9 26 35 31q112 23 183 23t117 -3q30 -1 30 -30.5t-30 -29.5zM250 230q0 35 80 35q87 0 102 -15q8 -8 8 -20q0 -30 -30 -30
q-2 0 -27.5 2.5t-40.5 2.5q18 -32 18 -63q0 -60 -40 -101t-100 -41q-79 0 -129.5 50.5t-50.5 127t20 148t56.5 130t95 94.5t128.5 36q44 0 72 -28t28 -67t-25 -81q-19 -30 -35 -30q-30 0 -30 30q0 7 15 32t15 44q0 40 -40 40q-76 0 -132.5 -54t-82 -131t-25.5 -161
q0 -54 33 -87t78 -33t67 23t22 54t-25 54t-25 39z" />
    <glyph glyph-name="H_E_E" unicode="HEE" horiz-adv-x="1440" 
d="M1370 523l-90 3q-90 0 -188 -20q-17 -78 -23 -164q40 8 161 8q48 0 84 -14.5t36 -35.5q0 -30 -30 -30q-7 0 -31 10t-59 10q-121 0 -166 -9q-4 -66 -4 -109t17.5 -77.5t42.5 -34.5q127 0 209 20q38 10 41 10q30 0 30 -30q0 -8 -8 -16.5t-37 -18.5t-102 -17.5t-128.5 -7.5
t-90 51t-34.5 109q0 139 28 326q7 45 7 46q9 26 35 31q112 23 183 23t117 -3q30 -1 30 -30.5t-30 -29.5zM890 543l-90 3q-90 0 -188 -20q-17 -78 -23 -164q40 8 161 8q48 0 84 -14.5t36 -35.5q0 -30 -30 -30q-7 0 -31 10t-59 10q-121 0 -166 -9q-4 -66 -4 -109t17.5 -77.5
t42.5 -34.5q127 0 209 20q38 10 41 10q30 0 30 -30q0 -8 -8 -16.5t-37 -18.5t-102 -17.5t-128.5 -7.5t-90 51t-34.5 109q0 139 28 326q7 45 7 46q9 26 35 31q112 23 183 23t117 -3q30 -1 30 -30.5t-30 -29.5zM130 280q55 0 119.5 5t85.5 11q16 128 43 194q12 30 32 30
q30 0 30 -30q0 -8 -11 -35t-25 -104.5t-14 -130.5t10 -119t15 -81.5t5 -19.5q0 -30 -30 -30q-9 0 -18.5 8.5t-15 25.5t-16 86t-10.5 130v14q-84 -14 -200 -14q4 -112 7 -127.5t3 -22.5q0 -30 -30 -30q-24 0 -29 26t-11 154q-13 0 -21.5 9t-8.5 21q0 30 30 30v180q0 37 -5 62
t-5 34q0 30 30 30q22 0 29 -32q11 -77 11 -94v-180z" />
    <glyph glyph-name="I_E_E" unicode="IEE" horiz-adv-x="1240" 
d="M1170 523l-90 3q-90 0 -188 -20q-17 -78 -23 -164q40 8 161 8q48 0 84 -14.5t36 -35.5q0 -30 -30 -30q-7 0 -31 10t-59 10q-121 0 -166 -9q-4 -66 -4 -109t17.5 -77.5t42.5 -34.5q127 0 209 20q38 10 41 10q30 0 30 -30q0 -8 -8 -16.5t-37 -18.5t-102 -17.5t-128.5 -7.5
t-90 51t-34.5 109q0 139 28 326q7 45 7 46q9 26 35 31q112 23 183 23t117 -3q30 -1 30 -30.5t-30 -29.5zM170 510l-10 -280q0 -52 5.5 -108.5t10 -69.5t4.5 -22q0 -30 -30 -30q-20 0 -30 30q-20 60 -20 200l10 280q0 30 30 30t30 -30zM690 543l-90 3q-90 0 -188 -20
q-17 -78 -23 -164q40 8 161 8q48 0 84 -14.5t36 -35.5q0 -30 -30 -30q-7 0 -31 10t-59 10q-121 0 -166 -9q-4 -66 -4 -109t17.5 -77.5t42.5 -34.5q127 0 209 20q38 10 41 10q30 0 30 -30q0 -8 -8 -16.5t-37 -18.5t-102 -17.5t-128.5 -7.5t-90 51t-34.5 109q0 139 28 326
q7 45 7 46q9 26 35 31q112 23 183 23t117 -3q30 -1 30 -30.5t-30 -29.5z" />
    <glyph glyph-name="J_E_E" unicode="JEE" horiz-adv-x="1440" 
d="M1370 523l-90 3q-90 0 -188 -20q-17 -78 -23 -164q40 8 161 8q48 0 84 -14.5t36 -35.5q0 -30 -30 -30q-7 0 -31 10t-59 10q-121 0 -166 -9q-4 -66 -4 -109t17.5 -77.5t42.5 -34.5q127 0 209 20q38 10 41 10q30 0 30 -30q0 -8 -8 -16.5t-37 -18.5t-102 -17.5t-128.5 -7.5
t-90 51t-34.5 109q0 139 28 326q7 45 7 46q9 26 35 31q112 23 183 23t117 -3q30 -1 30 -30.5t-30 -29.5zM40 114q0 30 30 30q12 0 29.5 -8.5l35.5 -17l24.5 -11.5t23 -10t24.5 -10l22.5 -8.5t24.5 -8.5q10 -2 22 -5q21 -5 44.5 -5t41.5 14t18 35t-15 146t-15 185t20 116
q2 9 10.5 19.5t19.5 10.5q30 0 30 -30q0 -5 -4 -17q-16 -48 -16 -101.5t15 -179.5t15 -148q0 -46 -36 -78t-84 -32q-46 0 -79.5 12t-44 15.5t-31.5 12.5t-27.5 12l-28.5 13l-31.5 14.5l-17.5 8.5q-20 10 -20 26zM890 543l-90 3q-90 0 -188 -20q-17 -78 -23 -164q40 8 161 8
q48 0 84 -14.5t36 -35.5q0 -30 -30 -30q-7 0 -31 10t-59 10q-121 0 -166 -9q-4 -66 -4 -109t17.5 -77.5t42.5 -34.5q127 0 209 20q38 10 41 10q30 0 30 -30q0 -8 -8 -16.5t-37 -18.5t-102 -17.5t-128.5 -7.5t-90 51t-34.5 109q0 139 28 326q7 45 7 46q9 26 35 31
q112 23 183 23t117 -3q30 -1 30 -30.5t-30 -29.5z" />
    <glyph glyph-name="K_E_E" unicode="KEE" horiz-adv-x="1440" 
d="M1370 523l-90 3q-90 0 -188 -20q-17 -78 -23 -164q40 8 161 8q48 0 84 -14.5t36 -35.5q0 -30 -30 -30q-7 0 -31 10t-59 10q-121 0 -166 -9q-4 -66 -4 -109t17.5 -77.5t42.5 -34.5q127 0 209 20q38 10 41 10q30 0 30 -30q0 -8 -8 -16.5t-37 -18.5t-102 -17.5t-128.5 -7.5
t-90 51t-34.5 109q0 139 28 326q7 45 7 46q9 26 35 31q112 23 183 23t117 -3q30 -1 30 -30.5t-30 -29.5zM890 543l-90 3q-90 0 -188 -20q-17 -78 -23 -164q40 8 161 8q48 0 84 -14.5t36 -35.5q0 -30 -30 -30q-7 0 -31 10t-59 10q-121 0 -166 -9q-4 -66 -4 -109t17.5 -77.5
t42.5 -34.5q127 0 209 20q38 10 41 10q30 0 30 -30q0 -8 -8 -16.5t-37 -18.5t-102 -17.5t-128.5 -7.5t-90 51t-34.5 109q0 139 28 326q7 45 7 46q9 26 35 31q112 23 183 23t117 -3q30 -1 30 -30.5t-30 -29.5zM221 334q-49 -38 -75 -74t-26 -80.5t5 -64.5t5 -25
q0 -30 -30 -30q-40 0 -40 120q0 5 -5 130t-5 220q0 30 30 30t30 -30q0 -62 5 -214q83 94 277 186q16 8 28 8q30 0 30 -30q0 -12 -9 -17.5t-59 -30.5t-102 -58q0 -81 19.5 -136t50 -80.5t30.5 -37.5q0 -30 -30 -30q-12 0 -45 28q-74 67 -84 216z" />
    <glyph glyph-name="L_E_E" unicode="LEE" horiz-adv-x="1360" 
d="M1290 523l-90 3q-90 0 -188 -20q-17 -78 -23 -164q40 8 161 8q48 0 84 -14.5t36 -35.5q0 -30 -30 -30q-7 0 -31 10t-59 10q-121 0 -166 -9q-4 -66 -4 -109t17.5 -77.5t42.5 -34.5q127 0 209 20q38 10 41 10q30 0 30 -30q0 -8 -8 -16.5t-37 -18.5t-102 -17.5t-128.5 -7.5
t-90 51t-34.5 109q0 139 28 326q7 45 7 46q9 26 35 31q112 23 183 23t117 -3q30 -1 30 -30.5t-30 -29.5zM810 543l-90 3q-90 0 -188 -20q-17 -78 -23 -164q40 8 161 8q48 0 84 -14.5t36 -35.5q0 -30 -30 -30q-7 0 -31 10t-59 10q-121 0 -166 -9q-4 -66 -4 -109t17.5 -77.5
t42.5 -34.5q127 0 209 20q38 10 41 10q30 0 30 -30q0 -8 -8 -16.5t-37 -18.5t-102 -17.5t-128.5 -7.5t-90 51t-34.5 109q0 139 28 326q7 45 7 46q9 26 35 31q112 23 183 23t117 -3q30 -1 30 -30.5t-30 -29.5zM114 500l-14 -350q0 -60 230 -60q30 0 30 -30t-30 -30
q-290 0 -290 120l14 350l-4 55q0 31 30 31q27 0 30 -30q4 -24 4 -56z" />
    <glyph glyph-name="M_E_E" unicode="MEE" horiz-adv-x="1520" 
d="M1450 523l-90 3q-90 0 -188 -20q-17 -78 -23 -164q40 8 161 8q48 0 84 -14.5t36 -35.5q0 -30 -30 -30q-7 0 -31 10t-59 10q-121 0 -166 -9q-4 -66 -4 -109t17.5 -77.5t42.5 -34.5q127 0 209 20q38 10 41 10q30 0 30 -30q0 -8 -8 -16.5t-37 -18.5t-102 -17.5t-128.5 -7.5
t-90 51t-34.5 109q0 139 28 326q7 45 7 46q9 26 35 31q112 23 183 23t117 -3q30 -1 30 -30.5t-30 -29.5zM970 543l-90 3q-90 0 -188 -20q-17 -78 -23 -164q40 8 161 8q48 0 84 -14.5t36 -35.5q0 -30 -30 -30q-7 0 -31 10t-59 10q-121 0 -166 -9q-4 -66 -4 -109t17.5 -77.5
t42.5 -34.5q127 0 209 20q38 10 41 10q30 0 30 -30q0 -8 -8 -16.5t-37 -18.5t-102 -17.5t-128.5 -7.5t-90 51t-34.5 109q0 139 28 326q7 45 7 46q9 26 35 31q112 23 183 23t117 -3q30 -1 30 -30.5t-30 -29.5zM109 70l11 -40q0 -30 -30 -30q-15 0 -26 19.5t-14 40.5
q-10 80 -10 129.5t5 174.5t5 146q0 30 30 30t30 -30q0 -21 -5 -146t-5 -173.5t9 -120.5zM509 110l11 -40q0 -30 -30 -30q-16 0 -26.5 19t-13.5 41q-10 80 -10 109t5 90.5t5 90.5t-6 77q-97 -177 -194 -177q-91 0 -138 187q-2 8 -2 13q0 30 30 30q22 0 30 -30q16 -62 37 -101
t43 -39q70 0 173 206q17 30 37 30q24 0 30 -30q20 -100 20 -156l-10 -190q0 -28 9 -100z" />
    <glyph glyph-name="N_E_E" unicode="NEE" horiz-adv-x="1440" 
d="M1370 523l-90 3q-90 0 -188 -20q-17 -78 -23 -164q40 8 161 8q48 0 84 -14.5t36 -35.5q0 -30 -30 -30q-7 0 -31 10t-59 10q-121 0 -166 -9q-4 -66 -4 -109t17.5 -77.5t42.5 -34.5q127 0 209 20q38 10 41 10q30 0 30 -30q0 -8 -8 -16.5t-37 -18.5t-102 -17.5t-128.5 -7.5
t-90 51t-34.5 109q0 139 28 326q7 45 7 46q9 26 35 31q112 23 183 23t117 -3q30 -1 30 -30.5t-30 -29.5zM286 80l15.5 62t7.5 33t3.5 17t2.5 16t1.5 13.5t1.5 18t5 50t18 109t20 91.5q23 70 49 70q30 0 30 -30q0 -9 -9 -27t-14 -33t-17.5 -83t-18.5 -128t-11.5 -86
t-34.5 -143q-7 -30 -30 -30q-36 0 -54 19.5t-23 44.5q-2 7 -26 134q-62 328 -82 328t-20 -30q0 -8 2 -88q8 -240 8 -378q0 -30 -30 -30t-30 30q0 138 -5 298t-5 168q0 40 22.5 65t57.5 25q49 0 72 -70q20 -59 55.5 -242.5t38.5 -193.5zM890 543l-90 3q-90 0 -188 -20
q-17 -78 -23 -164q40 8 161 8q48 0 84 -14.5t36 -35.5q0 -30 -30 -30q-7 0 -31 10t-59 10q-121 0 -166 -9q-4 -66 -4 -109t17.5 -77.5t42.5 -34.5q127 0 209 20q38 10 41 10q30 0 30 -30q0 -8 -8 -16.5t-37 -18.5t-102 -17.5t-128.5 -7.5t-90 51t-34.5 109q0 139 28 326
q7 45 7 46q9 26 35 31q112 23 183 23t117 -3q30 -1 30 -30.5t-30 -29.5z" />
    <glyph glyph-name="O_E_E" unicode="OEE" horiz-adv-x="1520" 
d="M1450 523l-90 3q-90 0 -188 -20q-17 -78 -23 -164q40 8 161 8q48 0 84 -14.5t36 -35.5q0 -30 -30 -30q-7 0 -31 10t-59 10q-121 0 -166 -9q-4 -66 -4 -109t17.5 -77.5t42.5 -34.5q127 0 209 20q38 10 41 10q30 0 30 -30q0 -8 -8 -16.5t-37 -18.5t-102 -17.5t-128.5 -7.5
t-90 51t-34.5 109q0 139 28 326q7 45 7 46q9 26 35 31q112 23 183 23t117 -3q30 -1 30 -30.5t-30 -29.5zM282 454l-19 3q-18 3 -44 3t-50 -26q-25 -24 -39 -62q-30 -79 -30 -142q0 -170 135 -170q109 0 167 71.5t58 188.5q0 62 -25 111t-75 49q-10 0 -47 -5q-5 -21 -31 -21z
M235 0q-95 0 -145 63.5t-50 166.5q0 79 41 177q20 48 57.5 80.5t83.5 32.5q18 0 38 -2q29 22 102.5 22t115.5 -65.5t42 -154.5q0 -141 -76 -230.5t-209 -89.5zM970 543l-90 3q-90 0 -188 -20q-17 -78 -23 -164q40 8 161 8q48 0 84 -14.5t36 -35.5q0 -30 -30 -30q-7 0 -31 10
t-59 10q-121 0 -166 -9q-4 -66 -4 -109t17.5 -77.5t42.5 -34.5q127 0 209 20q38 10 41 10q30 0 30 -30q0 -8 -8 -16.5t-37 -18.5t-102 -17.5t-128.5 -7.5t-90 51t-34.5 109q0 139 28 326q7 45 7 46q9 26 35 31q112 23 183 23t117 -3q30 -1 30 -30.5t-30 -29.5z" />
    <glyph glyph-name="P_E_E" unicode="PEE" horiz-adv-x="1440" 
d="M1370 523l-90 3q-90 0 -188 -20q-17 -78 -23 -164q40 8 161 8q48 0 84 -14.5t36 -35.5q0 -30 -30 -30q-7 0 -31 10t-59 10q-121 0 -166 -9q-4 -66 -4 -109t17.5 -77.5t42.5 -34.5q127 0 209 20q38 10 41 10q30 0 30 -30q0 -8 -8 -16.5t-37 -18.5t-102 -17.5t-128.5 -7.5
t-90 51t-34.5 109q0 139 28 326q7 45 7 46q9 26 35 31q112 23 183 23t117 -3q30 -1 30 -30.5t-30 -29.5zM170 590q77 0 173.5 -58t96.5 -122q0 -73 -157 -136l-54 -22t-39 -12q-30 0 -30 30q0 19 30 31q99 40 144.5 65t45.5 46q0 37 -81.5 77.5t-122.5 40.5t-71 -5t-35 -5
q-30 0 -30 30q0 24 30 30q50 10 100 10zM130 330q2 -16 15.5 -183.5t14.5 -176.5q0 -30 -30 -30q-27 0 -30 30q-2 16 -15 178.5t-14 171.5l-1 10q0 30 30 30q27 0 30 -30zM890 543l-90 3q-90 0 -188 -20q-17 -78 -23 -164q40 8 161 8q48 0 84 -14.5t36 -35.5q0 -30 -30 -30
q-7 0 -31 10t-59 10q-121 0 -166 -9q-4 -66 -4 -109t17.5 -77.5t42.5 -34.5q127 0 209 20q38 10 41 10q30 0 30 -30q0 -8 -8 -16.5t-37 -18.5t-102 -17.5t-128.5 -7.5t-90 51t-34.5 109q0 139 28 326q7 45 7 46q9 26 35 31q112 23 183 23t117 -3q30 -1 30 -30.5t-30 -29.5z
" />
    <glyph glyph-name="Q_E_E" unicode="QEE" horiz-adv-x="1580" 
d="M1510 523l-90 3q-90 0 -188 -20q-17 -78 -23 -164q40 8 161 8q48 0 84 -14.5t36 -35.5q0 -30 -30 -30q-7 0 -31 10t-59 10q-121 0 -166 -9q-4 -66 -4 -109t17.5 -77.5t42.5 -34.5q127 0 209 20q38 10 41 10q30 0 30 -30q0 -8 -8 -16.5t-37 -18.5t-102 -17.5t-128.5 -7.5
t-90 51t-34.5 109q0 139 28 326q7 45 7 46q9 26 35 31q112 23 183 23t117 -3q30 -1 30 -30.5t-30 -29.5zM258 60q12 67 12 98.5t30 31.5t30 -33t-11 -93q98 15 149.5 81t51.5 175q0 84 -42.5 145t-117.5 61q-54 0 -119 -37q-22 -13 -31 -13q-30 0 -30 30q0 16 30 34
q77 46 150 46q100 0 160 -78t60 -188q0 -137 -72 -220.5t-201 -97.5q-21 -100 -45 -172q-10 -30 -32 -30q-30 0 -30 30q0 4 14.5 49t31.5 121q-86 5 -146 69.5t-60 158t37 152t88 68.5q10 2 15 2q30 0 30 -30q0 -24 -30 -30q-41 -8 -60.5 -57.5t-19.5 -113.5t46.5 -111
t111.5 -48zM1030 543l-90 3q-90 0 -188 -20q-17 -78 -23 -164q40 8 161 8q48 0 84 -14.5t36 -35.5q0 -30 -30 -30q-7 0 -31 10t-59 10q-121 0 -166 -9q-4 -66 -4 -109t17.5 -77.5t42.5 -34.5q127 0 209 20q38 10 41 10q30 0 30 -30q0 -8 -8 -16.5t-37 -18.5t-102 -17.5
t-128.5 -7.5t-90 51t-34.5 109q0 139 28 326q7 45 7 46q9 26 35 31q112 23 183 23t117 -3q30 -1 30 -30.5t-30 -29.5z" />
    <glyph glyph-name="R_E_E" unicode="REE" horiz-adv-x="1500" 
d="M165 319q63 15 144 60t81 81q0 66 -120 66q-47 0 -100 -12q0 -33 -2.5 -101.5t-2.5 -93.5zM100 160l5 120q0 36 2.5 113t2.5 104q-26 -7 -30 -7q-30 0 -30 30q0 21 30 30q120 36 193.5 36t125 -31t51.5 -95q0 -97 -213 -180q105 -64 169 -122q22 -20 53 -51t31 -77
q0 -30 -29.5 -30t-29.5 30q0 21 -14 35q-34 34 -56 54q-57 52 -197 135l-4 -94l10 -110q0 -30 -30 -30q-27 0 -30 30q-10 100 -10 110zM1430 523l-90 3q-90 0 -188 -20q-17 -78 -23 -164q40 8 161 8q48 0 84 -14.5t36 -35.5q0 -30 -30 -30q-7 0 -31 10t-59 10
q-121 0 -166 -9q-4 -66 -4 -109t17.5 -77.5t42.5 -34.5q127 0 209 20q38 10 41 10q30 0 30 -30q0 -8 -8 -16.5t-37 -18.5t-102 -17.5t-128.5 -7.5t-90 51t-34.5 109q0 139 28 326q7 45 7 46q9 26 35 31q112 23 183 23t117 -3q30 -1 30 -30.5t-30 -29.5zM950 543l-90 3
q-90 0 -188 -20q-17 -78 -23 -164q40 8 161 8q48 0 84 -14.5t36 -35.5q0 -30 -30 -30q-7 0 -31 10t-59 10q-121 0 -166 -9q-4 -66 -4 -109t17.5 -77.5t42.5 -34.5q127 0 209 20q38 10 41 10q30 0 30 -30q0 -8 -8 -16.5t-37 -18.5t-102 -17.5t-128.5 -7.5t-90 51t-34.5 109
q0 139 28 326q7 45 7 46q9 26 35 31q112 23 183 23t117 -3q30 -1 30 -30.5t-30 -29.5z" />
    <glyph glyph-name="S_E_E" unicode="SEE" horiz-adv-x="1440" 
d="M1370 523l-90 3q-90 0 -188 -20q-17 -78 -23 -164q40 8 161 8q48 0 84 -14.5t36 -35.5q0 -30 -30 -30q-7 0 -31 10t-59 10q-121 0 -166 -9q-4 -66 -4 -109t17.5 -77.5t42.5 -34.5q127 0 209 20q38 10 41 10q30 0 30 -30q0 -8 -8 -16.5t-37 -18.5t-102 -17.5t-128.5 -7.5
t-90 51t-34.5 109q0 139 28 326q7 45 7 46q9 26 35 31q112 23 183 23t117 -3q30 -1 30 -30.5t-30 -29.5zM70 0q-30 0 -30 30t30 30q200 0 275 30q35 14 35 29t-24.5 27t-82 31t-87.5 32q-146 61 -146 185q0 81 70 136.5t168 55.5q54 0 90.5 -32t36.5 -77t-35 -80t-48 -35
q-30 0 -30 30q0 13 26.5 39.5t26.5 40.5q0 24 -18.5 39t-47.5 15q-74 0 -126.5 -37.5t-52.5 -90.5t29.5 -83t67 -45.5t75.5 -28t63.5 -22t51.5 -23.5q53 -29 53 -76q0 -61 -87.5 -90.5t-282.5 -29.5zM890 543l-90 3q-90 0 -188 -20q-17 -78 -23 -164q40 8 161 8
q48 0 84 -14.5t36 -35.5q0 -30 -30 -30q-7 0 -31 10t-59 10q-121 0 -166 -9q-4 -66 -4 -109t17.5 -77.5t42.5 -34.5q127 0 209 20q38 10 41 10q30 0 30 -30q0 -8 -8 -16.5t-37 -18.5t-102 -17.5t-128.5 -7.5t-90 51t-34.5 109q0 139 28 326q7 45 7 46q9 26 35 31
q112 23 183 23t117 -3q30 -1 30 -30.5t-30 -29.5z" />
    <glyph glyph-name="T_E_E" unicode="TEE" horiz-adv-x="1440" 
d="M1370 523l-90 3q-90 0 -188 -20q-17 -78 -23 -164q40 8 161 8q48 0 84 -14.5t36 -35.5q0 -30 -30 -30q-7 0 -31 10t-59 10q-121 0 -166 -9q-4 -66 -4 -109t17.5 -77.5t42.5 -34.5q127 0 209 20q38 10 41 10q30 0 30 -30q0 -8 -8 -16.5t-37 -18.5t-102 -17.5t-128.5 -7.5
t-90 51t-34.5 109q0 139 28 326q7 45 7 46q9 26 35 31q112 23 183 23t117 -3q30 -1 30 -30.5t-30 -29.5zM40 520q0 40 117.5 40t232.5 23q15 3 20 3q30 0 30 -30q0 -24 -30 -30q-117 -26 -250 -26q-55 0 -67.5 -5t-22.5 -5q-30 0 -30 30zM290 440q0 -7 -4 -23
q-7 -31 -16.5 -91t-9.5 -266q0 -30 -30 -30t-30 30q0 219 12 288.5t18 91.5q7 30 30 30q30 0 30 -30zM890 543l-90 3q-90 0 -188 -20q-17 -78 -23 -164q40 8 161 8q48 0 84 -14.5t36 -35.5q0 -30 -30 -30q-7 0 -31 10t-59 10q-121 0 -166 -9q-4 -66 -4 -109t17.5 -77.5
t42.5 -34.5q127 0 209 20q38 10 41 10q30 0 30 -30q0 -8 -8 -16.5t-37 -18.5t-102 -17.5t-128.5 -7.5t-90 51t-34.5 109q0 139 28 326q7 45 7 46q9 26 35 31q112 23 183 23t117 -3q30 -1 30 -30.5t-30 -29.5z" />
    <glyph glyph-name="U_E_E" unicode="UEE" horiz-adv-x="1440" 
d="M1370 523l-90 3q-90 0 -188 -20q-17 -78 -23 -164q40 8 161 8q48 0 84 -14.5t36 -35.5q0 -30 -30 -30q-7 0 -31 10t-59 10q-121 0 -166 -9q-4 -66 -4 -109t17.5 -77.5t42.5 -34.5q127 0 209 20q38 10 41 10q30 0 30 -30q0 -8 -8 -16.5t-37 -18.5t-102 -17.5t-128.5 -7.5
t-90 51t-34.5 109q0 139 28 326q7 45 7 46q9 26 35 31q112 23 183 23t117 -3q30 -1 30 -30.5t-30 -29.5zM363 545l-1 11q0 14 8.5 22t18.5 8q25 0 33 -30q18 -74 18 -137t-16 -135.5t-45 -137t-78 -105.5t-103.5 -41t-87 26t-46.5 75q-24 79 -24 190.5t20 214.5q3 14 12 22
t18 8q30 0 30 -30l-3 -19q-17 -84 -17 -155.5t1 -99t6.5 -63t14.5 -58t27 -38t43 -15.5q55 0 99 58.5t66.5 141.5t22.5 151.5t-17 135.5zM890 543l-90 3q-90 0 -188 -20q-17 -78 -23 -164q40 8 161 8q48 0 84 -14.5t36 -35.5q0 -30 -30 -30q-7 0 -31 10t-59 10
q-121 0 -166 -9q-4 -66 -4 -109t17.5 -77.5t42.5 -34.5q127 0 209 20q38 10 41 10q30 0 30 -30q0 -8 -8 -16.5t-37 -18.5t-102 -17.5t-128.5 -7.5t-90 51t-34.5 109q0 139 28 326q7 45 7 46q9 26 35 31q112 23 183 23t117 -3q30 -1 30 -30.5t-30 -29.5z" />
    <glyph glyph-name="V_E_E" unicode="VEE" horiz-adv-x="1440" 
d="M1370 523l-90 3q-90 0 -188 -20q-17 -78 -23 -164q40 8 161 8q48 0 84 -14.5t36 -35.5q0 -30 -30 -30q-7 0 -31 10t-59 10q-121 0 -166 -9q-4 -66 -4 -109t17.5 -77.5t42.5 -34.5q127 0 209 20q38 10 41 10q30 0 30 -30q0 -8 -8 -16.5t-37 -18.5t-102 -17.5t-128.5 -7.5
t-90 51t-34.5 109q0 139 28 326q7 45 7 46q9 26 35 31q112 23 183 23t117 -3q30 -1 30 -30.5t-30 -29.5zM136 291.5q28 -120.5 40 -154.5t13.5 -38.5t2.5 -7t2.5 -7t2.5 -6.5t3 -5.5t4 -5.5q2 -1 4 -3q6 -4 12.5 -4t14.5 24q8 26 30 124q56 250 115 354q14 24 30 24
q30 0 30 -30q0 -10 -6 -21q-60 -104 -114 -351q-22 -97 -30 -124q-20 -60 -70 -60q-62 0 -90 87q-23 66 -52 191.5t-37 205.5q-1 6 -1 12q0 30 30 30q27 0 30 -30q8 -84 36 -204.5zM890 543l-90 3q-90 0 -188 -20q-17 -78 -23 -164q40 8 161 8q48 0 84 -14.5t36 -35.5
q0 -30 -30 -30q-7 0 -31 10t-59 10q-121 0 -166 -9q-4 -66 -4 -109t17.5 -77.5t42.5 -34.5q127 0 209 20q38 10 41 10q30 0 30 -30q0 -8 -8 -16.5t-37 -18.5t-102 -17.5t-128.5 -7.5t-90 51t-34.5 109q0 139 28 326q7 45 7 46q9 26 35 31q112 23 183 23t117 -3
q30 -1 30 -30.5t-30 -29.5z" />
    <glyph glyph-name="W_E_E" unicode="WEE" horiz-adv-x="1680" 
d="M337 328q74 212 113 212q30 0 30 -30q0 -12 -15 -34q-34 -51 -99 -248q33 -98 54 -98q15 0 58 72t141 268q15 30 31 30q30 0 30 -30q0 -12 -7 -26q-100 -200 -135 -259t-61 -87t-57 -28q-48 0 -83 69q-39 -107 -76 -129q-18 -10 -41 -10q-43 0 -71.5 54.5t-61.5 178
t-45 227.5q-2 12 -2 17q0 29 30 29q27 0 30 -30q14 -123 56 -269.5t64 -146.5q24 0 44 52q19 49 40 115q-40 137 -53 257q-1 10 -1 16q0 30 30 30q27 0 30 -30q9 -92 27 -172zM1610 523l-90 3q-90 0 -188 -20q-17 -78 -23 -164q40 8 161 8q48 0 84 -14.5t36 -35.5
q0 -30 -30 -30q-7 0 -31 10t-59 10q-121 0 -166 -9q-4 -66 -4 -109t17.5 -77.5t42.5 -34.5q127 0 209 20q38 10 41 10q30 0 30 -30q0 -8 -8 -16.5t-37 -18.5t-102 -17.5t-128.5 -7.5t-90 51t-34.5 109q0 139 28 326q7 45 7 46q9 26 35 31q112 23 183 23t117 -3
q30 -1 30 -30.5t-30 -29.5zM1130 543l-90 3q-90 0 -188 -20q-17 -78 -23 -164q40 8 161 8q48 0 84 -14.5t36 -35.5q0 -30 -30 -30q-7 0 -31 10t-59 10q-121 0 -166 -9q-4 -66 -4 -109t17.5 -77.5t42.5 -34.5q127 0 209 20q38 10 41 10q30 0 30 -30q0 -8 -8 -16.5t-37 -18.5
t-102 -17.5t-128.5 -7.5t-90 51t-34.5 109q0 139 28 326q7 45 7 46q9 26 35 31q112 23 183 23t117 -3q30 -1 30 -30.5t-30 -29.5z" />
    <glyph glyph-name="X_E_E" unicode="XEE" horiz-adv-x="1440" 
d="M1370 523l-90 3q-90 0 -188 -20q-17 -78 -23 -164q40 8 161 8q48 0 84 -14.5t36 -35.5q0 -30 -30 -30q-7 0 -31 10t-59 10q-121 0 -166 -9q-4 -66 -4 -109t17.5 -77.5t42.5 -34.5q127 0 209 20q38 10 41 10q30 0 30 -30q0 -8 -8 -16.5t-37 -18.5t-102 -17.5t-128.5 -7.5
t-90 51t-34.5 109q0 139 28 326q7 45 7 46q9 26 35 31q112 23 183 23t117 -3q30 -1 30 -30.5t-30 -29.5zM90 0q-30 0 -30 30q0 16 5 27q39 87 140 248q-6 10 -75 108.5t-79.5 114.5t-10.5 28q0 30 30 30q13 0 35 -33l68 -96.5t67 -96.5l100 160q21 36 40 36q30 0 30 -29
q0 -10 -16 -34l-116 -187l74.5 -106t77.5 -111.5t10 -28.5q0 -30 -30 -30q-12 0 -32 30l-68 95.5t-67 95.5q-105 -171 -123 -221q-11 -30 -30 -30zM890 543l-90 3q-90 0 -188 -20q-17 -78 -23 -164q40 8 161 8q48 0 84 -14.5t36 -35.5q0 -30 -30 -30q-7 0 -31 10t-59 10
q-121 0 -166 -9q-4 -66 -4 -109t17.5 -77.5t42.5 -34.5q127 0 209 20q38 10 41 10q30 0 30 -30q0 -8 -8 -16.5t-37 -18.5t-102 -17.5t-128.5 -7.5t-90 51t-34.5 109q0 139 28 326q7 45 7 46q9 26 35 31q112 23 183 23t117 -3q30 -1 30 -30.5t-30 -29.5z" />
    <glyph glyph-name="Y_E_E" unicode="YEE" horiz-adv-x="1440" 
d="M1370 523l-90 3q-90 0 -188 -20q-17 -78 -23 -164q40 8 161 8q48 0 84 -14.5t36 -35.5q0 -30 -30 -30q-7 0 -31 10t-59 10q-121 0 -166 -9q-4 -66 -4 -109t17.5 -77.5t42.5 -34.5q127 0 209 20q38 10 41 10q30 0 30 -30q0 -8 -8 -16.5t-37 -18.5t-102 -17.5t-128.5 -7.5
t-90 51t-34.5 109q0 139 28 326q7 45 7 46q9 26 35 31q112 23 183 23t117 -3q30 -1 30 -30.5t-30 -29.5zM235 0q-30 0 -30 30q0 5 7 24l138 346q-37 -22 -69.5 -22t-53.5 5t-37 11t-33.5 19l-27.5 21t-25 25.5t-19.5 23.5l-17.5 24t-15 20t-7 13t-5 16q0 30 29 30
q11 0 31 -24q4 -4 27 -34t37.5 -44.5t44 -30t59.5 -15.5t63.5 21t47.5 51q13 30 31 30q30 0 30 -30q0 -53 -33 -132l-141 -351q-11 -27 -31 -27zM890 543l-90 3q-90 0 -188 -20q-17 -78 -23 -164q40 8 161 8q48 0 84 -14.5t36 -35.5q0 -30 -30 -30q-7 0 -31 10t-59 10
q-121 0 -166 -9q-4 -66 -4 -109t17.5 -77.5t42.5 -34.5q127 0 209 20q38 10 41 10q30 0 30 -30q0 -8 -8 -16.5t-37 -18.5t-102 -17.5t-128.5 -7.5t-90 51t-34.5 109q0 139 28 326q7 45 7 46q9 26 35 31q112 23 183 23t117 -3q30 -1 30 -30.5t-30 -29.5z" />
    <glyph glyph-name="Z_E_E" unicode="ZEE" horiz-adv-x="1480" 
d="M1410 523l-90 3q-90 0 -188 -20q-17 -78 -23 -164q40 8 161 8q48 0 84 -14.5t36 -35.5q0 -30 -30 -30q-7 0 -31 10t-59 10q-121 0 -166 -9q-4 -66 -4 -109t17.5 -77.5t42.5 -34.5q127 0 209 20q38 10 41 10q30 0 30 -30q0 -8 -8 -16.5t-37 -18.5t-102 -17.5t-128.5 -7.5
t-90 51t-34.5 109q0 139 28 326q7 45 7 46q9 26 35 31q112 23 183 23t117 -3q30 -1 30 -30.5t-30 -29.5zM86 494l-16 -2q-30 0 -30 30q0 11 8 20.5t22 11.5q213 32 288 32q44 0 79 -24t35 -66q0 -67 -90 -149q-38 -35 -101.5 -83t-75.5 -58t-35 -32q-40 -37 -40 -74
q0 -40 172 -40q82 0 112 10t36 10q30 0 30 -30q0 -21 -43 -35.5t-110.5 -14.5t-100 2.5t-72.5 11.5t-62 31t-22 50t10 51t22.5 40.5t36.5 40t38.5 34l44 33.5l54.5 41.5l51.5 42t55.5 58t29 60.5q0 14 -18 22t-36 8q-59 0 -272 -32zM930 543l-90 3q-90 0 -188 -20
q-17 -78 -23 -164q40 8 161 8q48 0 84 -14.5t36 -35.5q0 -30 -30 -30q-7 0 -31 10t-59 10q-121 0 -166 -9q-4 -66 -4 -109t17.5 -77.5t42.5 -34.5q127 0 209 20q38 10 41 10q30 0 30 -30q0 -8 -8 -16.5t-37 -18.5t-102 -17.5t-128.5 -7.5t-90 51t-34.5 109q0 139 28 326
q7 45 7 46q9 26 35 31q112 23 183 23t117 -3q30 -1 30 -30.5t-30 -29.5z" />
    <glyph glyph-name="A_E" unicode="AE" horiz-adv-x="960" 
d="M385 211q25 -136 48 -184q7 -14 7 -27q0 -30 -30 -30q-16 0 -30 30q-39 80 -63 240q-63 0 -169 -19l-48 -191q-4 -16 -10.5 -23t-19.5 -7q-30 0 -30 30q0 8 2 12l43 173h-15q-30 0 -30 30t30 30q18 0 30 1q24 88 68 223q28 87 90 87q18 0 38.5 -13.5t29.5 -46.5
q23 -82 46 -236q16 -6 42 -26.5t26 -33.5q0 -30 -30 -30q-7 0 -25 11zM308 300q-33 226 -50 226q-9 0 -13 -4.5t-6 -6.5t-4.5 -8t-3.5 -8q-6 -12 -6 -18q-46 -138 -61 -196q74 13 144 15zM890 523l-90 3q-90 0 -188 -20q-17 -78 -23 -164q40 8 161 8q48 0 84 -14.5t36 -35.5
q0 -30 -30 -30q-7 0 -31 10t-59 10q-121 0 -166 -9q-4 -66 -4 -109t17.5 -77.5t42.5 -34.5q127 0 209 20q38 10 41 10q30 0 30 -30q0 -8 -8 -16.5t-37 -18.5t-102 -17.5t-128.5 -7.5t-90 51t-34.5 109q0 139 28 326q7 45 7 46q9 26 35 31q112 23 183 23t117 -3
q30 -1 30 -30.5t-30 -29.5z" />
    <glyph glyph-name="B_E" unicode="BE" horiz-adv-x="960" 
d="M40 470q0 30 30 30q23 0 30 -30q6 -22 18 -91.5t12 -318.5q0 -30 -30 -30t-30 30q0 236 -10 300q-9 56 -13 75q-7 28 -7 35zM160 526l-90 -6q-30 0 -30 30q0 27 30 30q60 6 90 6q96 0 153 -53t57 -123t-53 -118q54 -18 88.5 -50.5t34.5 -69.5t-13 -65.5t-30 -46.5
t-51 -37t-58 -28l-70 -26l-65 -24.5t-36 -7.5q-30 0 -30 31q0 14 32.5 27l73.5 28l62.5 23t49.5 22q27 14 41 27q34 32 34 75q0 29 -57 54.5t-113 25.5q-30 0 -30 30t30 30q40 0 70 30t30 72.5t-40 78t-110 35.5zM890 523l-90 3q-90 0 -188 -20q-17 -78 -23 -164q40 8 161 8
q48 0 84 -14.5t36 -35.5q0 -30 -30 -30q-7 0 -31 10t-59 10q-121 0 -166 -9q-4 -66 -4 -109t17.5 -77.5t42.5 -34.5q127 0 209 20q38 10 41 10q30 0 30 -30q0 -8 -8 -16.5t-37 -18.5t-102 -17.5t-128.5 -7.5t-90 51t-34.5 109q0 139 28 326q7 45 7 46q9 26 35 31
q112 23 183 23t117 -3q30 -1 30 -30.5t-30 -29.5z" />
    <glyph glyph-name="C_E" unicode="CE" horiz-adv-x="960" 
d="M890 523l-90 3q-90 0 -188 -20q-17 -78 -23 -164q40 8 161 8q48 0 84 -14.5t36 -35.5q0 -30 -30 -30q-7 0 -31 10t-59 10q-121 0 -166 -9q-4 -66 -4 -109t17.5 -77.5t42.5 -34.5q127 0 209 20q38 10 41 10q30 0 30 -30q0 -8 -8 -16.5t-37 -18.5t-102 -17.5t-128.5 -7.5
t-90 51t-34.5 109q0 139 28 326q7 45 7 46q9 26 35 31q112 23 183 23t117 -3q30 -1 30 -30.5t-30 -29.5zM410 46q-92 -46 -179 -46t-139 72t-52 164t26.5 168.5t85 129t138.5 52.5q32 0 61 -16t29 -34q0 -30 -30 -30q-9 0 -26.5 10t-33.5 10q-62 0 -107 -45
q-83 -83 -83 -241q0 -69 35 -124.5t95 -55.5q74 0 156 41q18 9 24 9q30 0 30 -30q0 -12 -6 -18.5t-24 -15.5z" />
    <glyph glyph-name="D_E" unicode="DE" horiz-adv-x="960" 
d="M890 523l-90 3q-90 0 -188 -20q-17 -78 -23 -164q40 8 161 8q48 0 84 -14.5t36 -35.5q0 -30 -30 -30q-7 0 -31 10t-59 10q-121 0 -166 -9q-4 -66 -4 -109t17.5 -77.5t42.5 -34.5q127 0 209 20q38 10 41 10q30 0 30 -30q0 -8 -8 -16.5t-37 -18.5t-102 -17.5t-128.5 -7.5
t-90 51t-34.5 109q0 139 28 326q7 45 7 46q9 26 35 31q112 23 183 23t117 -3q30 -1 30 -30.5t-30 -29.5zM128 37q-7 29 -17.5 91.5t-10.5 281.5q0 30 30 30t30 -30q0 -206 9 -262.5t17 -95.5q82 23 126 46.5t56 42t12 55.5t-26 125t-58 128q-62 77 -126 77q-35 0 -65 -15
t-35 -15q-30 0 -30 30q0 19 41.5 39.5t88.5 20.5q91 0 172 -99q39 -48 68.5 -145.5t29.5 -157.5q0 -75 -70 -122t-254 -90q-10 -2 -20 -2t-18 8.5t-8 22t7 19.5t23 10z" />
    <glyph glyph-name="E_E" unicode="EE" horiz-adv-x="960" 
d="M890 523l-90 3q-90 0 -188 -20q-17 -78 -23 -164q40 8 161 8q48 0 84 -14.5t36 -35.5q0 -30 -30 -30q-7 0 -31 10t-59 10q-121 0 -166 -9q-4 -66 -4 -109t17.5 -77.5t42.5 -34.5q127 0 209 20q38 10 41 10q30 0 30 -30q0 -8 -8 -16.5t-37 -18.5t-102 -17.5t-128.5 -7.5
t-90 51t-34.5 109q0 139 28 326q7 45 7 46q9 26 35 31q112 23 183 23t117 -3q30 -1 30 -30.5t-30 -29.5zM410 543l-90 3q-90 0 -188 -20q-17 -78 -23 -164q40 8 161 8q48 0 84 -14.5t36 -35.5q0 -30 -30 -30q-7 0 -31 10t-59 10q-121 0 -166 -9q-4 -66 -4 -109t17.5 -77.5
t42.5 -34.5q127 0 209 20q38 10 41 10q30 0 30 -30q0 -8 -8 -16.5t-37 -18.5t-102 -17.5t-128.5 -7.5t-90 51t-34.5 109q0 139 28 326q7 45 7 46q9 26 35 31q112 23 183 23t117 -3q30 -1 30 -30.5t-30 -29.5z" />
    <glyph glyph-name="F_E" unicode="FE" horiz-adv-x="960" 
d="M890 523l-90 3q-90 0 -188 -20q-17 -78 -23 -164q40 8 161 8q48 0 84 -14.5t36 -35.5q0 -30 -30 -30q-7 0 -31 10t-59 10q-121 0 -166 -9q-4 -66 -4 -109t17.5 -77.5t42.5 -34.5q127 0 209 20q38 10 41 10q30 0 30 -30q0 -8 -8 -16.5t-37 -18.5t-102 -17.5t-128.5 -7.5
t-90 51t-34.5 109q0 139 28 326q7 45 7 46q9 26 35 31q112 23 183 23t117 -3q30 -1 30 -30.5t-30 -29.5zM190 327l130 3q30 0 30 -30q0 -27 -29.5 -30t-130.5 -3q-18 0 -45 8t-39 18q13 -128 42 -247q2 -12 2 -16q0 -30 -30 -30q-24 0 -31 30q-18 74 -33.5 184.5
t-15.5 165.5q0 99 78.5 152.5t191.5 53.5q72 0 101 -14.5t29 -31.5q0 -30 -30 -30q-10 0 -26 8t-74 8q-88 0 -149 -36.5t-61 -109.5q0 -20 35.5 -36.5t54.5 -16.5z" />
    <glyph glyph-name="G_E" unicode="GE" horiz-adv-x="960" 
d="M250 230q0 35 80 35q87 0 102 -15q8 -8 8 -20q0 -30 -30 -30q-2 0 -27.5 2.5t-40.5 2.5q18 -32 18 -63q0 -60 -40 -101t-100 -41q-79 0 -129.5 50.5t-50.5 127t20 148t56.5 130t95 94.5t128.5 36q44 0 72 -28t28 -67t-25 -81q-19 -30 -35 -30q-30 0 -30 30q0 7 15 32
t15 44q0 40 -40 40q-76 0 -132.5 -54t-82 -131t-25.5 -161q0 -54 33 -87t78 -33t67 23t22 54t-25 54t-25 39zM890 523l-90 3q-90 0 -188 -20q-17 -78 -23 -164q40 8 161 8q48 0 84 -14.5t36 -35.5q0 -30 -30 -30q-7 0 -31 10t-59 10q-121 0 -166 -9q-4 -66 -4 -109
t17.5 -77.5t42.5 -34.5q127 0 209 20q38 10 41 10q30 0 30 -30q0 -8 -8 -16.5t-37 -18.5t-102 -17.5t-128.5 -7.5t-90 51t-34.5 109q0 139 28 326q7 45 7 46q9 26 35 31q112 23 183 23t117 -3q30 -1 30 -30.5t-30 -29.5z" />
    <glyph glyph-name="H_E" unicode="HE" horiz-adv-x="960" 
d="M130 280q55 0 119.5 5t85.5 11q16 128 43 194q12 30 32 30q30 0 30 -30q0 -8 -11 -35t-25 -104.5t-14 -130.5t10 -119t15 -81.5t5 -19.5q0 -30 -30 -30q-9 0 -18.5 8.5t-15 25.5t-16 86t-10.5 130v14q-84 -14 -200 -14q4 -112 7 -127.5t3 -22.5q0 -30 -30 -30
q-24 0 -29 26t-11 154q-13 0 -21.5 9t-8.5 21q0 30 30 30v180q0 37 -5 62t-5 34q0 30 30 30q22 0 29 -32q11 -77 11 -94v-180zM890 523l-90 3q-90 0 -188 -20q-17 -78 -23 -164q40 8 161 8q48 0 84 -14.5t36 -35.5q0 -30 -30 -30q-7 0 -31 10t-59 10q-121 0 -166 -9
q-4 -66 -4 -109t17.5 -77.5t42.5 -34.5q127 0 209 20q38 10 41 10q30 0 30 -30q0 -8 -8 -16.5t-37 -18.5t-102 -17.5t-128.5 -7.5t-90 51t-34.5 109q0 139 28 326q7 45 7 46q9 26 35 31q112 23 183 23t117 -3q30 -1 30 -30.5t-30 -29.5z" />
    <glyph glyph-name="I_E" unicode="IE" horiz-adv-x="760" 
d="M690 523l-90 3q-90 0 -188 -20q-17 -78 -23 -164q40 8 161 8q48 0 84 -14.5t36 -35.5q0 -30 -30 -30q-7 0 -31 10t-59 10q-121 0 -166 -9q-4 -66 -4 -109t17.5 -77.5t42.5 -34.5q127 0 209 20q38 10 41 10q30 0 30 -30q0 -8 -8 -16.5t-37 -18.5t-102 -17.5t-128.5 -7.5
t-90 51t-34.5 109q0 139 28 326q7 45 7 46q9 26 35 31q112 23 183 23t117 -3q30 -1 30 -30.5t-30 -29.5zM170 510l-10 -280q0 -52 5.5 -108.5t10 -69.5t4.5 -22q0 -30 -30 -30q-20 0 -30 30q-20 60 -20 200l10 280q0 30 30 30t30 -30z" />
    <glyph glyph-name="J_E" unicode="JE" horiz-adv-x="960" 
d="M890 523l-90 3q-90 0 -188 -20q-17 -78 -23 -164q40 8 161 8q48 0 84 -14.5t36 -35.5q0 -30 -30 -30q-7 0 -31 10t-59 10q-121 0 -166 -9q-4 -66 -4 -109t17.5 -77.5t42.5 -34.5q127 0 209 20q38 10 41 10q30 0 30 -30q0 -8 -8 -16.5t-37 -18.5t-102 -17.5t-128.5 -7.5
t-90 51t-34.5 109q0 139 28 326q7 45 7 46q9 26 35 31q112 23 183 23t117 -3q30 -1 30 -30.5t-30 -29.5zM40 114q0 30 30 30q12 0 29.5 -8.5l35.5 -17l24.5 -11.5t23 -10t24.5 -10l22.5 -8.5t24.5 -8.5q10 -2 22 -5q21 -5 44.5 -5t41.5 14t18 35t-15 146t-15 185t20 116
q2 9 10.5 19.5t19.5 10.5q30 0 30 -30q0 -5 -4 -17q-16 -48 -16 -101.5t15 -179.5t15 -148q0 -46 -36 -78t-84 -32q-46 0 -79.5 12t-44 15.5t-31.5 12.5t-27.5 12l-28.5 13l-31.5 14.5l-17.5 8.5q-20 10 -20 26z" />
    <glyph glyph-name="K_E" unicode="KE" horiz-adv-x="960" 
d="M221 334q-49 -38 -75 -74t-26 -80.5t5 -64.5t5 -25q0 -30 -30 -30q-40 0 -40 120q0 5 -5 130t-5 220q0 30 30 30t30 -30q0 -62 5 -214q83 94 277 186q16 8 28 8q30 0 30 -30q0 -12 -9 -17.5t-59 -30.5t-102 -58q0 -81 19.5 -136t50 -80.5t30.5 -37.5q0 -30 -30 -30
q-12 0 -45 28q-74 67 -84 216zM890 523l-90 3q-90 0 -188 -20q-17 -78 -23 -164q40 8 161 8q48 0 84 -14.5t36 -35.5q0 -30 -30 -30q-7 0 -31 10t-59 10q-121 0 -166 -9q-4 -66 -4 -109t17.5 -77.5t42.5 -34.5q127 0 209 20q38 10 41 10q30 0 30 -30q0 -8 -8 -16.5
t-37 -18.5t-102 -17.5t-128.5 -7.5t-90 51t-34.5 109q0 139 28 326q7 45 7 46q9 26 35 31q112 23 183 23t117 -3q30 -1 30 -30.5t-30 -29.5z" />
    <glyph glyph-name="L_E" unicode="LE" horiz-adv-x="880" 
d="M114 500l-14 -350q0 -60 230 -60q30 0 30 -30t-30 -30q-290 0 -290 120l14 350l-4 55q0 31 30 31q27 0 30 -30q4 -24 4 -56zM810 523l-90 3q-90 0 -188 -20q-17 -78 -23 -164q40 8 161 8q48 0 84 -14.5t36 -35.5q0 -30 -30 -30q-7 0 -31 10t-59 10q-121 0 -166 -9
q-4 -66 -4 -109t17.5 -77.5t42.5 -34.5q127 0 209 20q38 10 41 10q30 0 30 -30q0 -8 -8 -16.5t-37 -18.5t-102 -17.5t-128.5 -7.5t-90 51t-34.5 109q0 139 28 326q7 45 7 46q9 26 35 31q112 23 183 23t117 -3q30 -1 30 -30.5t-30 -29.5z" />
    <glyph glyph-name="M_E" unicode="ME" horiz-adv-x="1040" 
d="M109 70l11 -40q0 -30 -30 -30q-15 0 -26 19.5t-14 40.5q-10 80 -10 129.5t5 174.5t5 146q0 30 30 30t30 -30q0 -21 -5 -146t-5 -173.5t9 -120.5zM509 110l11 -40q0 -30 -30 -30q-16 0 -26.5 19t-13.5 41q-10 80 -10 109t5 90.5t5 90.5t-6 77q-97 -177 -194 -177
q-91 0 -138 187q-2 8 -2 13q0 30 30 30q22 0 30 -30q16 -62 37 -101t43 -39q70 0 173 206q17 30 37 30q24 0 30 -30q20 -100 20 -156l-10 -190q0 -28 9 -100zM970 523l-90 3q-90 0 -188 -20q-17 -78 -23 -164q40 8 161 8q48 0 84 -14.5t36 -35.5q0 -30 -30 -30q-7 0 -31 10
t-59 10q-121 0 -166 -9q-4 -66 -4 -109t17.5 -77.5t42.5 -34.5q127 0 209 20q38 10 41 10q30 0 30 -30q0 -8 -8 -16.5t-37 -18.5t-102 -17.5t-128.5 -7.5t-90 51t-34.5 109q0 139 28 326q7 45 7 46q9 26 35 31q112 23 183 23t117 -3q30 -1 30 -30.5t-30 -29.5z" />
    <glyph glyph-name="N_E" unicode="NE" horiz-adv-x="960" 
d="M890 523l-90 3q-90 0 -188 -20q-17 -78 -23 -164q40 8 161 8q48 0 84 -14.5t36 -35.5q0 -30 -30 -30q-7 0 -31 10t-59 10q-121 0 -166 -9q-4 -66 -4 -109t17.5 -77.5t42.5 -34.5q127 0 209 20q38 10 41 10q30 0 30 -30q0 -8 -8 -16.5t-37 -18.5t-102 -17.5t-128.5 -7.5
t-90 51t-34.5 109q0 139 28 326q7 45 7 46q9 26 35 31q112 23 183 23t117 -3q30 -1 30 -30.5t-30 -29.5zM286 80l15.5 62t7.5 33t3.5 17t2.5 16t1.5 13.5t1.5 18t5 50t18 109t20 91.5q23 70 49 70q30 0 30 -30q0 -9 -9 -27t-14 -33t-17.5 -83t-18.5 -128t-11.5 -86
t-34.5 -143q-7 -30 -30 -30q-36 0 -54 19.5t-23 44.5q-2 7 -26 134q-62 328 -82 328t-20 -30q0 -8 2 -88q8 -240 8 -378q0 -30 -30 -30t-30 30q0 138 -5 298t-5 168q0 40 22.5 65t57.5 25q49 0 72 -70q20 -59 55.5 -242.5t38.5 -193.5z" />
    <glyph glyph-name="O_E" unicode="OE" horiz-adv-x="1040" 
d="M970 523l-90 3q-90 0 -188 -20q-17 -78 -23 -164q40 8 161 8q48 0 84 -14.5t36 -35.5q0 -30 -30 -30q-7 0 -31 10t-59 10q-121 0 -166 -9q-4 -66 -4 -109t17.5 -77.5t42.5 -34.5q127 0 209 20q38 10 41 10q30 0 30 -30q0 -8 -8 -16.5t-37 -18.5t-102 -17.5t-128.5 -7.5
t-90 51t-34.5 109q0 139 28 326q7 45 7 46q9 26 35 31q112 23 183 23t117 -3q30 -1 30 -30.5t-30 -29.5zM282 454l-19 3q-18 3 -44 3t-50 -26q-25 -24 -39 -62q-30 -79 -30 -142q0 -170 135 -170q109 0 167 71.5t58 188.5q0 62 -25 111t-75 49q-10 0 -47 -5q-5 -21 -31 -21z
M235 0q-95 0 -145 63.5t-50 166.5q0 79 41 177q20 48 57.5 80.5t83.5 32.5q18 0 38 -2q29 22 102.5 22t115.5 -65.5t42 -154.5q0 -141 -76 -230.5t-209 -89.5z" />
    <glyph glyph-name="P_E" unicode="PE" horiz-adv-x="960" 
d="M890 523l-90 3q-90 0 -188 -20q-17 -78 -23 -164q40 8 161 8q48 0 84 -14.5t36 -35.5q0 -30 -30 -30q-7 0 -31 10t-59 10q-121 0 -166 -9q-4 -66 -4 -109t17.5 -77.5t42.5 -34.5q127 0 209 20q38 10 41 10q30 0 30 -30q0 -8 -8 -16.5t-37 -18.5t-102 -17.5t-128.5 -7.5
t-90 51t-34.5 109q0 139 28 326q7 45 7 46q9 26 35 31q112 23 183 23t117 -3q30 -1 30 -30.5t-30 -29.5zM170 590q77 0 173.5 -58t96.5 -122q0 -73 -157 -136l-54 -22t-39 -12q-30 0 -30 30q0 19 30 31q99 40 144.5 65t45.5 46q0 37 -81.5 77.5t-122.5 40.5t-71 -5t-35 -5
q-30 0 -30 30q0 24 30 30q50 10 100 10zM130 330q2 -16 15.5 -183.5t14.5 -176.5q0 -30 -30 -30q-27 0 -30 30q-2 16 -15 178.5t-14 171.5l-1 10q0 30 30 30q27 0 30 -30z" />
    <glyph glyph-name="Q_E" unicode="QE" horiz-adv-x="1100" 
d="M1030 523l-90 3q-90 0 -188 -20q-17 -78 -23 -164q40 8 161 8q48 0 84 -14.5t36 -35.5q0 -30 -30 -30q-7 0 -31 10t-59 10q-121 0 -166 -9q-4 -66 -4 -109t17.5 -77.5t42.5 -34.5q127 0 209 20q38 10 41 10q30 0 30 -30q0 -8 -8 -16.5t-37 -18.5t-102 -17.5t-128.5 -7.5
t-90 51t-34.5 109q0 139 28 326q7 45 7 46q9 26 35 31q112 23 183 23t117 -3q30 -1 30 -30.5t-30 -29.5zM258 60q12 67 12 98.5t30 31.5t30 -33t-11 -93q98 15 149.5 81t51.5 175q0 84 -42.5 145t-117.5 61q-54 0 -119 -37q-22 -13 -31 -13q-30 0 -30 30q0 16 30 34
q77 46 150 46q100 0 160 -78t60 -188q0 -137 -72 -220.5t-201 -97.5q-21 -100 -45 -172q-10 -30 -32 -30q-30 0 -30 30q0 4 14.5 49t31.5 121q-86 5 -146 69.5t-60 158t37 152t88 68.5q10 2 15 2q30 0 30 -30q0 -24 -30 -30q-41 -8 -60.5 -57.5t-19.5 -113.5t46.5 -111
t111.5 -48z" />
    <glyph glyph-name="R_E" unicode="RE" horiz-adv-x="1020" 
d="M165 319q63 15 144 60t81 81q0 66 -120 66q-47 0 -100 -12q0 -33 -2.5 -101.5t-2.5 -93.5zM100 160l5 120q0 36 2.5 113t2.5 104q-26 -7 -30 -7q-30 0 -30 30q0 21 30 30q120 36 193.5 36t125 -31t51.5 -95q0 -97 -213 -180q105 -64 169 -122q22 -20 53 -51t31 -77
q0 -30 -29.5 -30t-29.5 30q0 21 -14 35q-34 34 -56 54q-57 52 -197 135l-4 -94l10 -110q0 -30 -30 -30q-27 0 -30 30q-10 100 -10 110zM950 523l-90 3q-90 0 -188 -20q-17 -78 -23 -164q40 8 161 8q48 0 84 -14.5t36 -35.5q0 -30 -30 -30q-7 0 -31 10t-59 10q-121 0 -166 -9
q-4 -66 -4 -109t17.5 -77.5t42.5 -34.5q127 0 209 20q38 10 41 10q30 0 30 -30q0 -8 -8 -16.5t-37 -18.5t-102 -17.5t-128.5 -7.5t-90 51t-34.5 109q0 139 28 326q7 45 7 46q9 26 35 31q112 23 183 23t117 -3q30 -1 30 -30.5t-30 -29.5z" />
    <glyph glyph-name="S_E" unicode="SE" horiz-adv-x="960" 
d="M890 523l-90 3q-90 0 -188 -20q-17 -78 -23 -164q40 8 161 8q48 0 84 -14.5t36 -35.5q0 -30 -30 -30q-7 0 -31 10t-59 10q-121 0 -166 -9q-4 -66 -4 -109t17.5 -77.5t42.5 -34.5q127 0 209 20q38 10 41 10q30 0 30 -30q0 -8 -8 -16.5t-37 -18.5t-102 -17.5t-128.5 -7.5
t-90 51t-34.5 109q0 139 28 326q7 45 7 46q9 26 35 31q112 23 183 23t117 -3q30 -1 30 -30.5t-30 -29.5zM70 0q-30 0 -30 30t30 30q200 0 275 30q35 14 35 29t-24.5 27t-82 31t-87.5 32q-146 61 -146 185q0 81 70 136.5t168 55.5q54 0 90.5 -32t36.5 -77t-35 -80t-48 -35
q-30 0 -30 30q0 13 26.5 39.5t26.5 40.5q0 24 -18.5 39t-47.5 15q-74 0 -126.5 -37.5t-52.5 -90.5t29.5 -83t67 -45.5t75.5 -28t63.5 -22t51.5 -23.5q53 -29 53 -76q0 -61 -87.5 -90.5t-282.5 -29.5z" />
    <glyph glyph-name="T_E" unicode="TE" horiz-adv-x="960" 
d="M890 523l-90 3q-90 0 -188 -20q-17 -78 -23 -164q40 8 161 8q48 0 84 -14.5t36 -35.5q0 -30 -30 -30q-7 0 -31 10t-59 10q-121 0 -166 -9q-4 -66 -4 -109t17.5 -77.5t42.5 -34.5q127 0 209 20q38 10 41 10q30 0 30 -30q0 -8 -8 -16.5t-37 -18.5t-102 -17.5t-128.5 -7.5
t-90 51t-34.5 109q0 139 28 326q7 45 7 46q9 26 35 31q112 23 183 23t117 -3q30 -1 30 -30.5t-30 -29.5zM40 520q0 40 117.5 40t232.5 23q15 3 20 3q30 0 30 -30q0 -24 -30 -30q-117 -26 -250 -26q-55 0 -67.5 -5t-22.5 -5q-30 0 -30 30zM290 440q0 -7 -4 -23
q-7 -31 -16.5 -91t-9.5 -266q0 -30 -30 -30t-30 30q0 219 12 288.5t18 91.5q7 30 30 30q30 0 30 -30z" />
    <glyph glyph-name="U_E" unicode="UE" horiz-adv-x="960" 
d="M890 523l-90 3q-90 0 -188 -20q-17 -78 -23 -164q40 8 161 8q48 0 84 -14.5t36 -35.5q0 -30 -30 -30q-7 0 -31 10t-59 10q-121 0 -166 -9q-4 -66 -4 -109t17.5 -77.5t42.5 -34.5q127 0 209 20q38 10 41 10q30 0 30 -30q0 -8 -8 -16.5t-37 -18.5t-102 -17.5t-128.5 -7.5
t-90 51t-34.5 109q0 139 28 326q7 45 7 46q9 26 35 31q112 23 183 23t117 -3q30 -1 30 -30.5t-30 -29.5zM363 545l-1 11q0 14 8.5 22t18.5 8q25 0 33 -30q18 -74 18 -137t-16 -135.5t-45 -137t-78 -105.5t-103.5 -41t-87 26t-46.5 75q-24 79 -24 190.5t20 214.5q3 14 12 22
t18 8q30 0 30 -30l-3 -19q-17 -84 -17 -155.5t1 -99t6.5 -63t14.5 -58t27 -38t43 -15.5q55 0 99 58.5t66.5 141.5t22.5 151.5t-17 135.5z" />
    <glyph glyph-name="V_E" unicode="VE" horiz-adv-x="960" 
d="M70 550q20 0 32 -30q48 -120 94 -356q4 -22 11 -46q62 278 169 438q20 30 34 30q30 0 30 -30q0 -9 -16 -33q-108 -162 -174 -493q-6 -30 -30 -30q-20 0 -43 34.5t-39 115.5q-47 233 -93 349q-5 13 -5 23.5t8 19t22 8.5zM880 523l-90 3q-90 0 -188 -20q-17 -78 -23 -164
q40 8 161 8q48 0 84 -14.5t36 -35.5q0 -30 -30 -30q-7 0 -31 10t-59 10q-121 0 -166 -9q-4 -66 -4 -109t17.5 -77.5t42.5 -34.5q127 0 209 20q38 10 41 10q30 0 30 -30q0 -8 -8 -16.5t-37 -18.5t-102 -17.5t-128.5 -7.5t-90 51t-34.5 109q0 139 28 326q7 45 7 46q9 26 35 31
q112 23 183 23t117 -3q30 -1 30 -30.5t-30 -29.5z" />
    <glyph glyph-name="W_E" unicode="WE" horiz-adv-x="1200" 
d="M337 328q74 212 113 212q30 0 30 -30q0 -12 -15 -34q-34 -51 -99 -248q33 -98 54 -98q15 0 58 72t141 268q15 30 31 30q30 0 30 -30q0 -12 -7 -26q-100 -200 -135 -259t-61 -87t-57 -28q-48 0 -83 69q-39 -107 -76 -129q-18 -10 -41 -10q-43 0 -71.5 54.5t-61.5 178
t-45 227.5q-2 12 -2 17q0 29 30 29q27 0 30 -30q14 -123 56 -269.5t64 -146.5q24 0 44 52q19 49 40 115q-40 137 -53 257q-1 10 -1 16q0 30 30 30q27 0 30 -30q9 -92 27 -172zM1130 523l-90 3q-90 0 -188 -20q-17 -78 -23 -164q40 8 161 8q48 0 84 -14.5t36 -35.5
q0 -30 -30 -30q-7 0 -31 10t-59 10q-121 0 -166 -9q-4 -66 -4 -109t17.5 -77.5t42.5 -34.5q127 0 209 20q38 10 41 10q30 0 30 -30q0 -8 -8 -16.5t-37 -18.5t-102 -17.5t-128.5 -7.5t-90 51t-34.5 109q0 139 28 326q7 45 7 46q9 26 35 31q112 23 183 23t117 -3
q30 -1 30 -30.5t-30 -29.5z" />
    <glyph glyph-name="X_E" unicode="XE" horiz-adv-x="960" 
d="M890 523l-90 3q-90 0 -188 -20q-17 -78 -23 -164q40 8 161 8q48 0 84 -14.5t36 -35.5q0 -30 -30 -30q-7 0 -31 10t-59 10q-121 0 -166 -9q-4 -66 -4 -109t17.5 -77.5t42.5 -34.5q127 0 209 20q38 10 41 10q30 0 30 -30q0 -8 -8 -16.5t-37 -18.5t-102 -17.5t-128.5 -7.5
t-90 51t-34.5 109q0 139 28 326q7 45 7 46q9 26 35 31q112 23 183 23t117 -3q30 -1 30 -30.5t-30 -29.5zM90 0q-30 0 -30 30q0 16 5 27q39 87 140 248q-6 10 -75 108.5t-79.5 114.5t-10.5 28q0 30 30 30q13 0 35 -33l68 -96.5t67 -96.5l100 160q21 36 40 36q30 0 30 -29
q0 -10 -16 -34l-116 -187l74.5 -106t77.5 -111.5t10 -28.5q0 -30 -30 -30q-12 0 -32 30l-68 95.5t-67 95.5q-105 -171 -123 -221q-11 -30 -30 -30z" />
    <glyph glyph-name="Y_E" unicode="YE" horiz-adv-x="960" 
d="M890 523l-90 3q-90 0 -188 -20q-17 -78 -23 -164q40 8 161 8q48 0 84 -14.5t36 -35.5q0 -30 -30 -30q-7 0 -31 10t-59 10q-121 0 -166 -9q-4 -66 -4 -109t17.5 -77.5t42.5 -34.5q127 0 209 20q38 10 41 10q30 0 30 -30q0 -8 -8 -16.5t-37 -18.5t-102 -17.5t-128.5 -7.5
t-90 51t-34.5 109q0 139 28 326q7 45 7 46q9 26 35 31q112 23 183 23t117 -3q30 -1 30 -30.5t-30 -29.5zM235 0q-30 0 -30 30q0 5 7 24l138 346q-37 -22 -69.5 -22t-53.5 5t-37 11t-33.5 19l-27.5 21t-25 25.5t-19.5 23.5l-17.5 24t-15 20t-7 13t-5 16q0 30 29 30
q11 0 31 -24q4 -4 27 -34t37.5 -44.5t44 -30t59.5 -15.5t63.5 21t47.5 51q13 30 31 30q30 0 30 -30q0 -53 -33 -132l-141 -351q-11 -27 -31 -27z" />
    <glyph glyph-name="Z_E" unicode="ZE" horiz-adv-x="1000" 
d="M930 523l-90 3q-90 0 -188 -20q-17 -78 -23 -164q40 8 161 8q48 0 84 -14.5t36 -35.5q0 -30 -30 -30q-7 0 -31 10t-59 10q-121 0 -166 -9q-4 -66 -4 -109t17.5 -77.5t42.5 -34.5q127 0 209 20q38 10 41 10q30 0 30 -30q0 -8 -8 -16.5t-37 -18.5t-102 -17.5t-128.5 -7.5
t-90 51t-34.5 109q0 139 28 326q7 45 7 46q9 26 35 31q112 23 183 23t117 -3q30 -1 30 -30.5t-30 -29.5zM86 494l-16 -2q-30 0 -30 30q0 11 8 20.5t22 11.5q213 32 288 32q44 0 79 -24t35 -66q0 -67 -90 -149q-38 -35 -101.5 -83t-75.5 -58t-35 -32q-40 -37 -40 -74
q0 -40 172 -40q82 0 112 10t36 10q30 0 30 -30q0 -21 -43 -35.5t-110.5 -14.5t-100 2.5t-72.5 11.5t-62 31t-22 50t10 51t22.5 40.5t36.5 40t38.5 34l44 33.5l54.5 41.5l51.5 42t55.5 58t29 60.5q0 14 -18 22t-36 8q-59 0 -272 -32z" />
    <glyph glyph-name="A_F" unicode="AF" horiz-adv-x="960" 
d="M654 296l152 8q30 0 30 -30q0 -27 -29 -30q-66 -8 -153 -8q-38 0 -64 20q15 -149 21.5 -185.5t6.5 -40.5q0 -30 -30 -30q-26 0 -31 30q-12 70 -24.5 196t-12.5 154q0 110 64 174q32 32 126 32q51 0 104.5 -13.5t73 -23t26 -16t6.5 -17.5q0 -30 -30 -30q-10 0 -27 8.5
t-67.5 20t-85.5 11.5q-68 0 -88 -20q-42 -42 -42 -126q0 -22 21 -53t53 -31zM385 211q25 -136 48 -184q7 -14 7 -27q0 -30 -30 -30q-16 0 -30 30q-39 80 -63 240q-63 0 -169 -19l-48 -191q-4 -16 -10.5 -23t-19.5 -7q-30 0 -30 30q0 8 2 12l43 173h-15q-30 0 -30 30t30 30
q18 0 30 1q24 88 68 223q28 87 90 87q18 0 38.5 -13.5t29.5 -46.5q23 -82 46 -236q16 -6 42 -26.5t26 -33.5q0 -30 -30 -30q-7 0 -25 11zM308 300q-33 226 -50 226q-9 0 -13 -4.5t-6 -6.5t-4.5 -8t-3.5 -8q-6 -12 -6 -18q-46 -138 -61 -196q74 13 144 15z" />
    <glyph glyph-name="B_F" unicode="BF" horiz-adv-x="960" 
d="M670 327l130 3q30 0 30 -30q0 -27 -29.5 -30t-130.5 -3q-18 0 -45 8t-39 18q13 -128 42 -247q2 -12 2 -16q0 -30 -30 -30q-24 0 -31 30q-18 74 -33.5 184.5t-15.5 165.5q0 99 78.5 152.5t191.5 53.5q72 0 101 -14.5t29 -31.5q0 -30 -30 -30q-10 0 -26 8t-74 8
q-88 0 -149 -36.5t-61 -109.5q0 -20 35.5 -36.5t54.5 -16.5zM40 470q0 30 30 30q23 0 30 -30q6 -22 18 -91.5t12 -318.5q0 -30 -30 -30t-30 30q0 236 -10 300q-9 56 -13 75q-7 28 -7 35zM160 526l-90 -6q-30 0 -30 30q0 27 30 30q60 6 90 6q96 0 153 -53t57 -123t-53 -118
q54 -18 88.5 -50.5t34.5 -69.5t-13 -65.5t-30 -46.5t-51 -37t-58 -28l-70 -26l-65 -24.5t-36 -7.5q-30 0 -30 31q0 14 32.5 27l73.5 28l62.5 23t49.5 22q27 14 41 27q34 32 34 75q0 29 -57 54.5t-113 25.5q-30 0 -30 30t30 30q40 0 70 30t30 72.5t-40 78t-110 35.5z" />
    <glyph glyph-name="C_F" unicode="CF" horiz-adv-x="960" 
d="M670 327l130 3q30 0 30 -30q0 -27 -29.5 -30t-130.5 -3q-18 0 -45 8t-39 18q13 -128 42 -247q2 -12 2 -16q0 -30 -30 -30q-24 0 -31 30q-18 74 -33.5 184.5t-15.5 165.5q0 99 78.5 152.5t191.5 53.5q72 0 101 -14.5t29 -31.5q0 -30 -30 -30q-10 0 -26 8t-74 8
q-88 0 -149 -36.5t-61 -109.5q0 -20 35.5 -36.5t54.5 -16.5zM410 46q-92 -46 -179 -46t-139 72t-52 164t26.5 168.5t85 129t138.5 52.5q32 0 61 -16t29 -34q0 -30 -30 -30q-9 0 -26.5 10t-33.5 10q-62 0 -107 -45q-83 -83 -83 -241q0 -69 35 -124.5t95 -55.5q74 0 156 41
q18 9 24 9q30 0 30 -30q0 -12 -6 -18.5t-24 -15.5z" />
    <glyph glyph-name="D_F" unicode="DF" horiz-adv-x="960" 
d="M670 327l130 3q30 0 30 -30q0 -27 -29.5 -30t-130.5 -3q-18 0 -45 8t-39 18q13 -128 42 -247q2 -12 2 -16q0 -30 -30 -30q-24 0 -31 30q-18 74 -33.5 184.5t-15.5 165.5q0 99 78.5 152.5t191.5 53.5q72 0 101 -14.5t29 -31.5q0 -30 -30 -30q-10 0 -26 8t-74 8
q-88 0 -149 -36.5t-61 -109.5q0 -20 35.5 -36.5t54.5 -16.5zM128 37q-7 29 -17.5 91.5t-10.5 281.5q0 30 30 30t30 -30q0 -206 9 -262.5t17 -95.5q82 23 126 46.5t56 42t12 55.5t-26 125t-58 128q-62 77 -126 77q-35 0 -65 -15t-35 -15q-30 0 -30 30q0 19 41.5 39.5
t88.5 20.5q91 0 172 -99q39 -48 68.5 -145.5t29.5 -157.5q0 -75 -70 -122t-254 -90q-10 -2 -20 -2t-18 8.5t-8 22t7 19.5t23 10z" />
    <glyph glyph-name="E_F" unicode="EF" horiz-adv-x="960" 
d="M654 296l152 8q30 0 30 -30q0 -27 -29 -30q-66 -8 -153 -8q-38 0 -64 20q15 -149 21.5 -185.5t6.5 -40.5q0 -30 -30 -30q-26 0 -31 30q-12 70 -24.5 196t-12.5 154q0 110 64 174q32 32 126 32q51 0 104.5 -13.5t73 -23t26 -16t6.5 -17.5q0 -30 -30 -30q-10 0 -27 8.5
t-67.5 20t-85.5 11.5q-68 0 -88 -20q-42 -42 -42 -126q0 -22 21 -53t53 -31zM410 523l-90 3q-90 0 -188 -20q-17 -78 -23 -164q40 8 161 8q48 0 84 -14.5t36 -35.5q0 -30 -30 -30q-7 0 -31 10t-59 10q-121 0 -166 -9q-4 -66 -4 -109t17.5 -77.5t42.5 -34.5q127 0 209 20
q38 10 41 10q30 0 30 -30q0 -8 -8 -16.5t-37 -18.5t-102 -17.5t-128.5 -7.5t-90 51t-34.5 109q0 139 28 326q7 45 7 46q9 26 35 31q112 23 183 23t117 -3q30 -1 30 -30.5t-30 -29.5z" />
    </font>
</defs>
</svg>
